<svg width="16" height="10" viewBox="0 0 16 10" fill="none" xmlns="http://www.w3.org/2000/svg">
<g clip-path="url(#clip0_4493_9349)">
<path d="M12.5 5.5H3.5C3.22 5.5 3 5.28 3 5C3 4.72 3.22 4.5 3.5 4.5H12.5C12.78 4.5 13 4.72 13 5C13 5.28 12.78 5.5 12.5 5.5Z" fill="#329DFD"/>
<path d="M10 9.00047C9.93442 9.00127 9.86941 8.98834 9.80913 8.9625C9.74885 8.93667 9.69465 8.89851 9.65 8.85047C9.45 8.65047 9.45 8.34047 9.65 8.14047L12.8 4.99047L9.65 1.84047C9.45 1.64047 9.45 1.33047 9.65 1.13047C9.85 0.930469 10.16 0.930469 10.36 1.13047L13.86 4.63047C14.06 4.83047 14.06 5.14047 13.86 5.34047L10.36 8.84047C10.26 8.94047 10.13 8.99047 10.01 8.99047L10 9.00047Z" fill="#329DFD"/>
</g>
<defs>
<clipPath id="clip0_4493_9349">
<rect width="16" height="9" fill="white" transform="translate(0 0.5)"/>
</clipPath>
</defs>
</svg>
