<svg width="40" height="30" viewBox="0 0 40 30" fill="none" xmlns="http://www.w3.org/2000/svg">
<path d="M39.0978 15.484C39.3461 15.484 39.5743 15.5847 39.7353 15.7491C39.8997 15.9135 40.0004 16.1383 40.0004 16.3899C40.0004 16.6382 39.8997 16.8663 39.7353 17.0274C39.5709 17.1918 39.3461 17.2924 39.0978 17.2924C38.8496 17.2924 38.6214 17.1918 38.4604 17.0274C38.296 16.863 38.1953 16.6382 38.1953 16.3899C38.1953 16.1416 38.296 15.9135 38.4604 15.7491C38.6248 15.5847 38.8496 15.484 39.0978 15.484ZM39.591 15.8933C39.4635 15.7658 39.2891 15.6887 39.0978 15.6887C38.9066 15.6887 38.7321 15.7658 38.6046 15.8933C38.4771 16.0208 38.4 16.1919 38.4 16.3865C38.4 16.5778 38.4771 16.7522 38.6046 16.8797C38.7321 17.0072 38.9066 17.0844 39.0978 17.0844C39.2891 17.0844 39.4635 17.0072 39.591 16.8797C39.7185 16.7522 39.7957 16.5778 39.7957 16.3865C39.7957 16.1953 39.7185 16.0208 39.591 15.8933Z" fill="#1F4E79"/>
<path d="M38.7539 16.819V15.9165H39.1364C39.2337 15.9165 39.3041 15.9266 39.3478 15.94C39.3914 15.9568 39.4249 15.9836 39.4518 16.0272C39.4786 16.0675 39.492 16.1145 39.492 16.1681C39.492 16.2352 39.4719 16.2923 39.4316 16.3359C39.3914 16.3795 39.331 16.4064 39.2538 16.4198C39.2941 16.4433 39.3276 16.4667 39.3511 16.4969C39.378 16.5238 39.4115 16.5741 39.4551 16.6446L39.5658 16.8224H39.3478L39.2169 16.6244C39.1699 16.554 39.1364 16.5104 39.1196 16.4936C39.1028 16.4768 39.0827 16.4634 39.0659 16.4567C39.0458 16.45 39.0156 16.4466 38.9753 16.4466H38.9384V16.8224H38.7539V16.819ZM38.9351 16.299H39.0693C39.1565 16.299 39.2102 16.2956 39.2337 16.2889C39.2572 16.2822 39.274 16.2688 39.284 16.252C39.2974 16.2352 39.3041 16.2118 39.3041 16.1849C39.3041 16.1547 39.2974 16.1312 39.2807 16.1111C39.2639 16.091 39.2404 16.0809 39.2102 16.0742C39.1968 16.0708 39.1498 16.0708 39.076 16.0708H38.9351V16.299Z" fill="#1F4E79"/>
<path fill-rule="evenodd" clip-rule="evenodd" d="M12.5961 0C16.7263 0 20.2928 2.40562 21.9704 5.89159C24.9799 6.0258 27.8821 7.51212 28.9993 10.78C34.3407 8.55892 38.1152 13.7258 37.1724 17.3124C42.0038 20.3388 39.0043 25.8814 32.7403 27.8207C27.9223 29.3103 20.9605 30.1995 14.0456 28.2703C1.47055 30.3672 -4.29355 19.2316 3.62454 15.6684C2.7153 14.1251 2.1919 12.3234 2.1919 10.4009C2.19526 4.65691 6.85217 0 12.5961 0ZM12.2137 10.9981C12.2137 12.2328 12.4653 13.2427 12.8914 13.954C13.3276 14.6753 13.9415 15.0779 14.6629 15.0779C15.5453 15.0779 16.1593 14.6552 16.5686 13.9909C17.0652 13.1856 17.2564 12.0281 17.2564 10.8505C17.2564 9.84393 17.1927 8.6797 16.837 7.77046C16.4847 6.86458 15.8405 6.21033 14.6797 6.21033C13.8442 6.21033 13.2772 6.72367 12.9015 7.45173C12.368 8.4851 12.2137 9.95129 12.2137 10.9981ZM22.8393 12.216C22.3461 15.0175 20.7323 17.4332 18.4777 18.9799C18.5213 18.9095 18.5649 18.839 18.6085 18.7618C18.7897 18.4297 18.9038 18.0673 18.9742 17.6781C19.0413 17.2889 19.0648 16.8696 19.0648 16.4233L19.0581 7.55909C19.0581 7.0055 19.1856 6.60288 19.4607 6.33783C19.7358 6.07277 20.1552 5.94863 20.739 5.94863H20.7659V5.92179V5.53931V5.51247H20.7357L19.0346 5.51582H17.2866H17.2598V5.54266V6.93504C16.9544 6.3848 16.5652 5.98554 16.1123 5.72048C15.599 5.41517 15.0018 5.27761 14.3509 5.27761C14.0892 5.27761 13.8442 5.29774 13.6127 5.338C12.3445 5.55608 11.4889 6.33112 10.9521 7.3343C10.4153 8.33412 10.1972 9.56545 10.1972 10.6894C10.1972 11.1625 10.2375 11.6154 10.3079 12.0281C10.5227 13.2829 10.989 14.2962 11.6903 14.9907C12.368 15.6617 13.2605 16.0308 14.3542 16.0308C15.0722 16.0308 15.6157 15.9268 16.072 15.6617C16.5116 15.4101 16.8739 15.0108 17.2396 14.4237C17.2363 14.5847 17.2363 14.7927 17.2363 15.0309C17.2363 16.0744 17.2329 17.6848 17.045 18.2452C16.8739 18.7518 16.5652 19.1041 16.1895 19.3389C15.7365 19.6241 15.1829 19.7348 14.6662 19.7348C14.1697 19.7348 13.6195 19.5604 13.2068 19.2047C12.8645 18.9061 12.6163 18.4834 12.5727 17.9264L12.5693 17.8996H12.5458H10.5025H10.4757V17.9264C10.5126 18.8826 10.9723 19.5167 11.5896 19.9328C12.3781 20.4629 13.4249 20.6374 14.1932 20.681C13.6731 20.7615 13.1363 20.8051 12.5928 20.8051C11.1769 20.8051 9.83152 20.5233 8.60354 20.01C2.10803 20.0435 5.35243 27.8609 14.9783 26.1767C20.9034 28.6695 28.8047 28.693 33.4147 26.0626C36.9644 24.0395 38.4675 20.2884 34.8976 18.423C35.515 14.8397 31.6297 12.4207 28.4524 15.3128C27.9358 12.367 25.1409 11.3604 22.8393 12.216Z" fill="#1F4E79"/>
</svg>
