<svg width="36" height="30" viewBox="0 0 36 30" fill="none" xmlns="http://www.w3.org/2000/svg">
<path d="M19.772 29.9827L5.37109 30V29.6183L15.9722 29.2019C17.9849 29.1325 19.9455 29.0284 21.8367 28.3691C25.7058 27.0678 28.8116 24.4305 29.7138 21.1686C30.6854 17.6639 28.4472 14.2632 24.231 13.9682C27.8052 12.9272 30.8589 10.6543 31.6744 7.73939C32.7328 3.95699 30.8242 2.03109 27.597 1.33707C32.9583 1.25032 37.1398 3.05477 35.717 8.17315C34.9016 11.088 31.7785 13.3089 28.2216 14.2805C32.4031 14.5928 34.676 18.5661 33.5829 22.0362C32.4378 25.6451 29.5229 27.8833 25.6364 29.1845C23.7452 29.7918 21.7846 29.8959 19.772 29.9827Z" fill="#F15A29"/>
<path d="M12.2252 28.1608L5.42379 28.4905C5.42379 28.317 5.40644 28.2649 5.38908 28.0914L22.566 23.1292L22.5834 22.8516L5.18088 27.0331C5.12883 26.8769 5.11148 26.8249 5.04208 26.6687L23.3294 16.5187L23.208 16.2411L4.50421 25.8012C4.38276 25.645 4.40011 25.6277 4.27866 25.4889L26.0014 4.99799L25.8106 4.77243L3.42849 24.7949C3.32438 24.7255 3.27233 24.656 3.15088 24.5866L19.0265 1.42379L18.7489 1.33704L2.1966 24.1529C2.10985 24.1182 2.00575 24.1008 1.919 24.0661L11.0106 1.6667L10.7677 1.632L0.530959 23.8579C0.409506 23.8579 0.270705 23.8579 0.149252 23.8753H0.0625L6.65567 0.0357576L18.9918 0.0704606C24.8216 -0.259198 29.4368 1.31969 27.91 6.75038C27.0945 9.66526 24.0408 11.9382 20.484 12.9098L20.4666 12.9792C24.6828 13.2742 27.0598 16.6748 26.0882 20.1796C25.186 23.4415 21.9241 25.992 18.0549 27.2933C16.1811 27.9873 14.2205 28.0914 12.2252 28.1608Z" fill="#F15A29"/>
</svg>
