<svg width="25" height="24" viewBox="0 0 25 24" fill="none" xmlns="http://www.w3.org/2000/svg">
<path d="M11.75 0C12.7812 0 13.7773 0.132812 14.7383 0.398438C15.6992 0.664062 16.5938 1.04297 17.4219 1.53516C18.25 2.02734 19.0078 2.61328 19.6953 3.29297C20.3828 3.97266 20.9688 4.73047 21.4531 5.56641C21.9375 6.40234 22.3164 7.30078 22.5898 8.26172C22.8633 9.22266 23 10.2188 23 11.25C23 12.2812 22.8672 13.2773 22.6016 14.2383C22.3359 15.1992 21.957 16.0938 21.4648 16.9219C20.9727 17.75 20.3867 18.5078 19.707 19.1953C19.0273 19.8828 18.2695 20.4688 17.4336 20.9531C16.5977 21.4375 15.6992 21.8164 14.7383 22.0898C13.7773 22.3633 12.7812 22.5 11.75 22.5C10.7188 22.5 9.72266 22.3672 8.76172 22.1016C7.80078 21.8359 6.90625 21.457 6.07812 20.9648C5.25 20.4727 4.49219 19.8867 3.80469 19.207C3.11719 18.5273 2.53125 17.7695 2.04688 16.9336C1.5625 16.0977 1.18359 15.2031 0.910156 14.25C0.636719 13.2969 0.5 12.2969 0.5 11.25C0.5 10.2188 0.632812 9.22266 0.898438 8.26172C1.16406 7.30078 1.54297 6.40625 2.03516 5.57812C2.52734 4.75 3.11328 3.99219 3.79297 3.30469C4.47266 2.61719 5.23047 2.03125 6.06641 1.54688C6.90234 1.0625 7.79688 0.683594 8.75 0.410156C9.70312 0.136719 10.7031 0 11.75 0ZM18.5 10.5H12.5V4.5H11V10.5H5V12H11V18H12.5V12H18.5V10.5Z" fill="#329DFD"/>
</svg>
