<svg width="25" height="24" viewBox="0 0 25 24" fill="none" xmlns="http://www.w3.org/2000/svg">
<rect x="1" y="0.5" width="23" height="23" stroke="#329DFD"/>
<path d="M17.3001 3.30039C17.3001 3.0617 17.3949 2.83278 17.5637 2.66399C17.7325 2.49521 17.9614 2.40039 18.2001 2.40039H21.2001C21.4388 2.40039 21.6677 2.49521 21.8365 2.66399C22.0053 2.83278 22.1001 3.0617 22.1001 3.30039V6.30039C22.1001 6.53909 22.0053 6.768 21.8365 6.93679C21.6677 7.10557 21.4388 7.20039 21.2001 7.20039C20.9614 7.20039 20.7325 7.10557 20.5637 6.93679C20.3949 6.768 20.3001 6.53909 20.3001 6.30039V5.47239L14.9361 10.8364C14.7673 11.0049 14.5386 11.0996 14.3001 11.0996C14.0616 11.0996 13.8328 11.0049 13.6641 10.8364L10.7001 7.87239L5.63609 12.9364C5.55369 13.0248 5.45433 13.0957 5.34393 13.1449C5.23353 13.1941 5.11436 13.2206 4.99351 13.2227C4.87267 13.2248 4.75264 13.2026 4.64057 13.1573C4.5285 13.1121 4.4267 13.0447 4.34124 12.9592C4.25578 12.8738 4.1884 12.772 4.14314 12.6599C4.09787 12.5478 4.07564 12.4278 4.07778 12.307C4.07991 12.1861 4.10636 12.0669 4.15555 11.9565C4.20474 11.8461 4.27566 11.7468 4.36409 11.6644L10.0641 5.96439C10.2328 5.79585 10.4616 5.70118 10.7001 5.70118C10.9386 5.70118 11.1673 5.79585 11.3361 5.96439L14.3001 8.92839L19.0281 4.20039H18.2001C17.9614 4.20039 17.7325 4.10557 17.5637 3.93679C17.3949 3.768 17.3001 3.53909 17.3001 3.30039ZM5.00009 16.8004C5.23878 16.8004 5.4677 16.8952 5.63648 17.064C5.80527 17.2328 5.90009 17.4617 5.90009 17.7004V20.7004C5.90009 20.9391 5.80527 21.168 5.63648 21.3368C5.4677 21.5056 5.23878 21.6004 5.00009 21.6004C4.76139 21.6004 4.53247 21.5056 4.36369 21.3368C4.19491 21.168 4.10009 20.9391 4.10009 20.7004V17.7004C4.10009 17.4617 4.19491 17.2328 4.36369 17.064C4.53247 16.8952 4.76139 16.8004 5.00009 16.8004ZM10.7001 14.1004C10.7001 13.8617 10.6053 13.6328 10.4365 13.464C10.2677 13.2952 10.0388 13.2004 9.80009 13.2004C9.56139 13.2004 9.33247 13.2952 9.16369 13.464C8.99491 13.6328 8.90009 13.8617 8.90009 14.1004V20.7004C8.90009 20.9391 8.99491 21.168 9.16369 21.3368C9.33247 21.5056 9.56139 21.6004 9.80009 21.6004C10.0388 21.6004 10.2677 21.5056 10.4365 21.3368C10.6053 21.168 10.7001 20.9391 10.7001 20.7004V14.1004ZM14.6001 15.6004C14.8388 15.6004 15.0677 15.6952 15.2365 15.864C15.4053 16.0328 15.5001 16.2617 15.5001 16.5004V20.7004C15.5001 20.9391 15.4053 21.168 15.2365 21.3368C15.0677 21.5056 14.8388 21.6004 14.6001 21.6004C14.3614 21.6004 14.1325 21.5056 13.9637 21.3368C13.7949 21.168 13.7001 20.9391 13.7001 20.7004V16.5004C13.7001 16.2617 13.7949 16.0328 13.9637 15.864C14.1325 15.6952 14.3614 15.6004 14.6001 15.6004ZM20.3001 11.7004C20.3001 11.4617 20.2053 11.2328 20.0365 11.064C19.8677 10.8952 19.6388 10.8004 19.4001 10.8004C19.1614 10.8004 18.9325 10.8952 18.7637 11.064C18.5949 11.2328 18.5001 11.4617 18.5001 11.7004V20.7004C18.5001 20.9391 18.5949 21.168 18.7637 21.3368C18.9325 21.5056 19.1614 21.6004 19.4001 21.6004C19.6388 21.6004 19.8677 21.5056 20.0365 21.3368C20.2053 21.168 20.3001 20.9391 20.3001 20.7004V11.7004Z" fill="#329DFD"/>
</svg>
