<svg width="25" height="24" viewBox="0 0 25 24" fill="none" xmlns="http://www.w3.org/2000/svg">
<path d="M6.5 7H14.5V9H6.5V7ZM6.5 11H18.5V13H6.5V11ZM6.5 15H9.49V17H6.5V15Z" fill="#329DFD"/>
<path d="M14.5 3L11.5 0V2H4.5C3.96957 2 3.46086 2.21071 3.08579 2.58579C2.71071 2.96086 2.5 3.46957 2.5 4V20C2.5 20.5304 2.71071 21.0391 3.08579 21.4142C3.46086 21.7893 3.96957 22 4.5 22H8.5V20H4.5V4H11.5V6L14.5 3ZM10.5 21L13.5 24V22H20.5C21.0304 22 21.5391 21.7893 21.9142 21.4142C22.2893 21.0391 22.5 20.5304 22.5 20V4C22.5 3.46957 22.2893 2.96086 21.9142 2.58579C21.5391 2.21071 21.0304 2 20.5 2H16.5V4H20.5V20H13.5V18L10.5 21Z" fill="#329DFD"/>
</svg>
