<svg width="25" height="24" viewBox="0 0 25 24" fill="none" xmlns="http://www.w3.org/2000/svg">
<path d="M23.7904 7.9562V7.89603C22.9432 5.58074 21.406 3.58178 19.3867 2.16956C17.3673 0.757335 14.9634 0 12.5 0C10.0366 0 7.63266 0.757335 5.61335 2.16956C3.59403 3.58178 2.0568 5.58074 1.2096 7.89603C1.2096 7.89603 1.2096 7.89603 1.2096 7.9562C0.263468 10.5689 0.263468 13.4311 1.2096 16.0438V16.104C2.0568 18.4193 3.59403 20.4182 5.61335 21.8304C7.63266 23.2427 10.0366 24 12.5 24C14.9634 24 17.3673 23.2427 19.3867 21.8304C21.406 20.4182 22.9432 18.4193 23.7904 16.104C23.7904 16.104 23.7904 16.104 23.7904 16.0438C24.7365 13.4311 24.7365 10.5689 23.7904 7.9562ZM3.16949 14.407C2.75142 12.8296 2.75142 11.1704 3.16949 9.59298H5.40592C5.21323 11.1919 5.21323 12.8081 5.40592 14.407H3.16949ZM4.15544 16.814H5.83878C6.1195 17.8879 6.52295 18.9257 7.04117 19.9071C5.86199 19.103 4.87627 18.0465 4.15544 16.814ZM5.83878 7.18596H4.15544C4.8659 5.95727 5.83901 4.90105 7.0051 4.09293C6.49932 5.07586 6.10799 6.11366 5.83878 7.18596ZM11.2736 21.267C9.79675 20.1823 8.75956 18.6015 8.35177 16.814H11.2736V21.267ZM11.2736 14.407H7.83474C7.61099 12.8102 7.61099 11.1898 7.83474 9.59298H11.2736V14.407ZM11.2736 7.18596H8.35177C8.75956 5.39846 9.79675 3.81771 11.2736 2.73297V7.18596ZM20.7965 7.18596H19.1131C18.8324 6.11213 18.429 5.07427 17.9107 4.09293C19.0899 4.89696 20.0756 5.95349 20.7965 7.18596ZM13.6783 2.73297C15.1552 3.81771 16.1924 5.39846 16.6001 7.18596H13.6783V2.73297ZM13.6783 21.267V16.814H16.6001C16.1924 18.6015 15.1552 20.1823 13.6783 21.267ZM17.1172 14.407H13.6783V9.59298H17.1172C17.3409 11.1898 17.3409 12.8102 17.1172 14.407ZM17.9468 19.9071C18.465 18.9257 18.8685 17.8879 19.1492 16.814H20.8325C20.1117 18.0465 19.126 19.103 17.9468 19.9071ZM21.7824 14.407H19.546C19.6443 13.6085 19.6925 12.8046 19.6903 12C19.6925 11.1954 19.6443 10.3915 19.546 9.59298H21.7824C22.2005 11.1704 22.2005 12.8296 21.7824 14.407Z" fill="#329DFD"/>
</svg>
