<svg width="16" height="17" viewBox="0 0 16 17" fill="none" xmlns="http://www.w3.org/2000/svg">
<path d="M3.5 8H13.5C13.6326 8 13.7598 8.05268 13.8536 8.14645C13.9473 8.24021 14 8.36739 14 8.5C14 8.63261 13.9473 8.75979 13.8536 8.85355C13.7598 8.94732 13.6326 9 13.5 9H3.5C3.36739 9 3.24021 8.94732 3.14645 8.85355C3.05268 8.75979 3 8.63261 3 8.5C3 8.36739 3.05268 8.24021 3.14645 8.14645C3.24021 8.05268 3.36739 8 3.5 8Z" fill="#329DFD"/>
<path d="M3.70692 8.49965L7.85392 12.6457C7.9478 12.7395 8.00055 12.8669 8.00055 12.9997C8.00055 13.1324 7.9478 13.2598 7.85392 13.3537C7.76003 13.4475 7.63269 13.5003 7.49992 13.5003C7.36714 13.5003 7.2398 13.4475 7.14592 13.3537L2.64592 8.85365C2.59935 8.80721 2.56241 8.75203 2.5372 8.69129C2.512 8.63054 2.49902 8.56542 2.49902 8.49965C2.49902 8.43389 2.512 8.36877 2.5372 8.30802C2.56241 8.24728 2.59935 8.1921 2.64592 8.14565L7.14592 3.64565C7.2398 3.55177 7.36714 3.49902 7.49992 3.49902C7.63269 3.49902 7.76003 3.55177 7.85392 3.64565C7.9478 3.73954 8.00055 3.86688 8.00055 3.99966C8.00055 4.13243 7.9478 4.25977 7.85392 4.35366L3.70692 8.49965Z" fill="#329DFD"/>
</svg>
