<svg width="244" height="226" viewBox="0 0 244 226" fill="none" xmlns="http://www.w3.org/2000/svg">
<g clip-path="url(#clip0_2378_8675)">
<g filter="url(#filter0_d_2378_8675)">
<rect x="1.02769" y="51.3852" width="222.148" height="173.821" rx="14.4201" transform="rotate(-5 1.02769 51.3852)" stroke="#329DFD" stroke-width="0.779467"/>
</g>
<g filter="url(#filter1_d_2378_8675)">
<rect x="20.6515" y="33.5792" width="222.148" height="173.821" rx="14.4201" stroke="#329DFD" stroke-width="0.779467"/>
</g>
<g filter="url(#filter2_i_2378_8675)">
<path d="M176.066 52.2246C174.81 77.5987 153.221 97.1499 127.847 95.8934C102.473 94.6368 82.9219 73.0484 84.1784 47.6743C85.4349 22.3002 107.023 2.74899 132.398 4.00551C157.772 5.26203 177.323 26.8504 176.066 52.2246Z" fill="#BF4FCD"/>
<path d="M77.082 113.042L93.6723 77.3475C100.208 87.1508 116.295 94.4405 117.804 93.9377C119.312 93.435 77.082 113.042 77.082 113.042Z" fill="#BF4FCD"/>
</g>
<g filter="url(#filter3_d_2378_8675)">
<path d="M132.432 24.0576C124.678 24.0576 119.655 27.2346 115.712 32.9004C114.997 33.9282 115.218 35.3373 116.215 36.0939L120.406 39.2714C121.414 40.0355 122.847 39.8568 123.636 38.8685C126.07 35.82 127.875 34.0647 131.676 34.0647C134.664 34.0647 138.361 35.9881 138.361 38.8862C138.361 41.077 136.552 42.2021 133.602 43.8565C130.16 45.7858 125.607 48.1868 125.607 54.1932V55.1441C125.607 56.4317 126.65 57.4756 127.938 57.4756H134.978C136.266 57.4756 137.31 56.4317 137.31 55.1441V54.5833C137.31 50.4196 149.479 50.2462 149.479 38.9791C149.479 30.4941 140.677 24.0576 132.432 24.0576ZM131.458 60.3374C127.748 60.3374 124.729 63.3562 124.729 67.0667C124.729 70.7773 127.748 73.796 131.458 73.796C135.169 73.796 138.188 70.7772 138.188 67.0666C138.188 63.3561 135.169 60.3374 131.458 60.3374Z" fill="#F4F6F9"/>
</g>
<path d="M100.374 136.875H106.903V138.932H100.374V136.875ZM100.58 143.946H98.1477V130.851H107.707V132.89H100.58V143.946ZM107.641 143.946L113.533 130.851H115.928L121.839 143.946H119.295L114.226 132.142H115.198L110.147 143.946H107.641ZM110.353 140.915L111.008 139.007H118.079L118.734 140.915H110.353ZM129.458 144.133C128.435 144.133 127.494 143.965 126.633 143.628C125.773 143.291 125.024 142.824 124.388 142.225C123.752 141.614 123.26 140.903 122.911 140.092C122.561 139.269 122.387 138.371 122.387 137.398C122.387 136.426 122.561 135.534 122.911 134.723C123.26 133.9 123.752 133.189 124.388 132.591C125.024 131.98 125.773 131.506 126.633 131.169C127.494 130.832 128.429 130.664 129.439 130.664C130.462 130.664 131.397 130.832 132.245 131.169C133.106 131.506 133.854 131.973 134.49 132.572C135.126 133.171 135.619 133.882 135.968 134.705C136.317 135.528 136.492 136.426 136.492 137.398C136.492 138.371 136.317 139.269 135.968 140.092C135.619 140.915 135.126 141.626 134.49 142.225C133.854 142.824 133.106 143.291 132.245 143.628C131.397 143.965 130.468 144.133 129.458 144.133ZM133.723 146.808C133.262 146.808 132.813 146.752 132.376 146.64C131.952 146.54 131.528 146.365 131.104 146.116C130.693 145.879 130.262 145.561 129.813 145.162C129.364 144.775 128.872 144.295 128.336 143.721L130.917 143.048C131.266 143.509 131.597 143.877 131.909 144.152C132.233 144.439 132.545 144.644 132.844 144.769C133.143 144.894 133.455 144.956 133.779 144.956C134.64 144.956 135.388 144.607 136.024 143.909L137.147 145.255C136.274 146.291 135.133 146.808 133.723 146.808ZM129.439 142C130.1 142 130.711 141.888 131.273 141.664C131.834 141.439 132.32 141.121 132.732 140.71C133.143 140.286 133.461 139.793 133.686 139.232C133.923 138.671 134.041 138.059 134.041 137.398C134.041 136.725 133.923 136.114 133.686 135.565C133.461 135.004 133.143 134.518 132.732 134.106C132.32 133.682 131.834 133.358 131.273 133.133C130.711 132.909 130.1 132.796 129.439 132.796C128.778 132.796 128.167 132.909 127.606 133.133C127.045 133.358 126.558 133.682 126.147 134.106C125.735 134.518 125.411 135.004 125.174 135.565C124.95 136.114 124.837 136.725 124.837 137.398C124.837 138.059 124.95 138.671 125.174 139.232C125.411 139.793 125.735 140.286 126.147 140.71C126.558 141.121 127.045 141.439 127.606 141.664C128.167 141.888 128.778 142 129.439 142ZM141.932 144.077C141.096 144.077 140.292 143.971 139.519 143.759C138.758 143.534 138.153 143.266 137.704 142.955L138.602 141.177C139.051 141.464 139.587 141.701 140.211 141.888C140.834 142.075 141.458 142.169 142.082 142.169C142.817 142.169 143.347 142.069 143.672 141.869C144.008 141.67 144.177 141.402 144.177 141.065C144.177 140.791 144.065 140.585 143.84 140.448C143.616 140.298 143.323 140.186 142.961 140.111C142.599 140.036 142.194 139.968 141.745 139.905C141.308 139.843 140.866 139.762 140.417 139.662C139.98 139.55 139.581 139.394 139.219 139.194C138.858 138.982 138.565 138.702 138.34 138.353C138.116 138.003 138.003 137.542 138.003 136.968C138.003 136.332 138.184 135.783 138.546 135.322C138.908 134.848 139.413 134.486 140.061 134.237C140.722 133.975 141.502 133.844 142.4 133.844C143.073 133.844 143.753 133.919 144.439 134.069C145.125 134.218 145.692 134.43 146.141 134.705L145.243 136.482C144.769 136.195 144.289 136.002 143.803 135.902C143.329 135.79 142.855 135.734 142.381 135.734C141.67 135.734 141.14 135.84 140.791 136.052C140.454 136.264 140.286 136.532 140.286 136.856C140.286 137.155 140.398 137.38 140.622 137.529C140.847 137.679 141.14 137.798 141.502 137.885C141.863 137.972 142.262 138.047 142.699 138.109C143.148 138.159 143.591 138.24 144.027 138.353C144.464 138.465 144.863 138.621 145.224 138.82C145.599 139.007 145.898 139.275 146.122 139.625C146.347 139.974 146.459 140.429 146.459 140.99C146.459 141.614 146.272 142.156 145.898 142.618C145.536 143.079 145.019 143.441 144.345 143.703C143.672 143.952 142.867 144.077 141.932 144.077Z" fill="#329DFD"/>
<path d="M50.1294 171.904V163.174H50.8902L56.9139 170.757H56.5148V163.174H57.4253V171.904H56.6645L50.6532 164.322H51.0523V171.904H50.1294ZM64.1907 171.904V170.458L64.1533 170.221V167.801C64.1533 167.244 63.9953 166.816 63.6794 166.517C63.3718 166.217 62.9103 166.068 62.2951 166.068C61.871 166.068 61.4678 166.138 61.0853 166.28C60.7029 166.421 60.3786 166.608 60.1126 166.841L59.7135 166.18C60.046 165.897 60.4451 165.681 60.9107 165.531C61.3763 165.373 61.8669 165.294 62.3824 165.294C63.2304 165.294 63.8831 165.506 64.3404 165.93C64.806 166.346 65.0388 166.982 65.0388 167.839V171.904H64.1907ZM61.9334 171.967C61.4429 171.967 61.0147 171.888 60.6488 171.73C60.2913 171.563 60.0169 171.339 59.8257 171.056C59.6345 170.765 59.5389 170.433 59.5389 170.058C59.5389 169.718 59.6179 169.41 59.7758 169.136C59.9421 168.853 60.2082 168.628 60.574 168.462C60.9482 168.288 61.447 168.2 62.0706 168.2H64.3279V168.861H62.0955C61.4636 168.861 61.023 168.973 60.7736 169.198C60.5324 169.422 60.4119 169.701 60.4119 170.034C60.4119 170.408 60.5574 170.707 60.8484 170.931C61.1394 171.156 61.5468 171.268 62.0706 171.268C62.5694 171.268 62.9976 171.156 63.3551 170.931C63.721 170.699 63.987 170.366 64.1533 169.934L64.3529 170.545C64.1866 170.977 63.8956 171.322 63.4799 171.58C63.0725 171.838 62.557 171.967 61.9334 171.967ZM75.6251 165.294C76.1572 165.294 76.6187 165.398 77.0095 165.606C77.4085 165.806 77.7162 166.113 77.9323 166.529C78.1568 166.945 78.2691 167.469 78.2691 168.1V171.904H77.3836V168.188C77.3836 167.498 77.2173 166.978 76.8847 166.629C76.5605 166.271 76.099 166.093 75.5004 166.093C75.0514 166.093 74.6607 166.188 74.3281 166.379C74.0038 166.562 73.7502 166.833 73.5673 167.19C73.3927 167.539 73.3054 167.963 73.3054 168.462V171.904H72.42V168.188C72.42 167.498 72.2537 166.978 71.9211 166.629C71.5885 166.271 71.1229 166.093 70.5243 166.093C70.0836 166.093 69.697 166.188 69.3644 166.379C69.0319 166.562 68.7741 166.833 68.5912 167.19C68.4166 167.539 68.3293 167.963 68.3293 168.462V171.904H67.4438V165.357H68.2919V167.128L68.1547 166.816C68.3543 166.342 68.6744 165.972 69.115 165.706C69.564 165.432 70.0919 165.294 70.6989 165.294C71.3391 165.294 71.8837 165.456 72.3327 165.781C72.7816 166.097 73.0726 166.575 73.2057 167.215L72.8565 167.078C73.0477 166.546 73.3844 166.117 73.8666 165.793C74.3572 165.461 74.9434 165.294 75.6251 165.294ZM85.6929 171.967C85.1525 171.967 84.6412 171.892 84.1589 171.742C83.6767 171.584 83.2984 171.389 83.024 171.156L83.4231 170.458C83.6892 170.657 84.0301 170.832 84.4458 170.981C84.8615 171.123 85.298 171.193 85.7553 171.193C86.3788 171.193 86.8278 171.098 87.1022 170.907C87.3766 170.707 87.5137 170.445 87.5137 170.121C87.5137 169.88 87.4348 169.693 87.2768 169.56C87.1271 169.418 86.9276 169.314 86.6782 169.248C86.4287 169.173 86.1502 169.111 85.8426 169.061C85.5349 169.011 85.2273 168.953 84.9197 168.886C84.6204 168.82 84.346 168.724 84.0966 168.599C83.8471 168.466 83.6434 168.288 83.4855 168.063C83.3358 167.839 83.261 167.539 83.261 167.165C83.261 166.808 83.3607 166.487 83.5603 166.205C83.7598 165.922 84.0508 165.702 84.4333 165.544C84.8241 165.377 85.298 165.294 85.855 165.294C86.2791 165.294 86.7031 165.353 87.1271 165.469C87.5512 165.577 87.9004 165.723 88.1747 165.905L87.7881 166.616C87.4971 166.417 87.1853 166.275 86.8528 166.192C86.5202 166.101 86.1876 166.055 85.855 166.055C85.2647 166.055 84.8282 166.159 84.5455 166.367C84.2712 166.566 84.134 166.824 84.134 167.14C84.134 167.39 84.2088 167.585 84.3585 167.726C84.5164 167.868 84.7201 167.98 84.9696 168.063C85.2273 168.138 85.5058 168.2 85.8052 168.25C86.1128 168.3 86.4163 168.362 86.7156 168.437C87.0232 168.504 87.3017 168.599 87.5512 168.724C87.8089 168.84 88.0126 169.011 88.1623 169.235C88.3202 169.452 88.3992 169.738 88.3992 170.096C88.3992 170.478 88.2911 170.811 88.075 171.094C87.8671 171.368 87.5595 171.584 87.1521 171.742C86.753 171.892 86.2666 171.967 85.6929 171.967ZM92.6929 171.967C92.061 171.967 91.4915 171.825 90.9843 171.543C90.4855 171.252 90.0905 170.857 89.7995 170.358C89.5085 169.851 89.363 169.273 89.363 168.624C89.363 167.967 89.5085 167.39 89.7995 166.891C90.0905 166.392 90.4855 166.001 90.9843 165.718C91.4832 165.436 92.0527 165.294 92.6929 165.294C93.3414 165.294 93.9151 165.436 94.414 165.718C94.9212 166.001 95.3161 166.392 95.5988 166.891C95.8898 167.39 96.0353 167.967 96.0353 168.624C96.0353 169.273 95.8898 169.851 95.5988 170.358C95.3161 170.857 94.9212 171.252 94.414 171.543C93.9068 171.825 93.3331 171.967 92.6929 171.967ZM92.6929 171.181C93.1668 171.181 93.5867 171.077 93.9525 170.869C94.3184 170.653 94.6052 170.354 94.8131 169.971C95.0292 169.58 95.1373 169.131 95.1373 168.624C95.1373 168.109 95.0292 167.66 94.8131 167.277C94.6052 166.895 94.3184 166.6 93.9525 166.392C93.5867 166.176 93.171 166.068 92.7054 166.068C92.2398 166.068 91.8241 166.176 91.4582 166.392C91.0924 166.6 90.8014 166.895 90.5852 167.277C90.3691 167.66 90.261 168.109 90.261 168.624C90.261 169.131 90.3691 169.58 90.5852 169.971C90.8014 170.354 91.0924 170.653 91.4582 170.869C91.8241 171.077 92.2356 171.181 92.6929 171.181ZM97.8431 171.904V162.65H98.7285V171.904H97.8431ZM101.192 171.904V162.65H102.078V171.904H101.192ZM104.542 171.904V165.357H105.427V171.904H104.542ZM104.991 163.91C104.808 163.91 104.654 163.848 104.529 163.723C104.404 163.598 104.342 163.449 104.342 163.274C104.342 163.099 104.404 162.954 104.529 162.837C104.654 162.713 104.808 162.65 104.991 162.65C105.173 162.65 105.327 162.709 105.452 162.825C105.577 162.941 105.639 163.087 105.639 163.262C105.639 163.444 105.577 163.598 105.452 163.723C105.336 163.848 105.182 163.91 104.991 163.91ZM110.61 171.967C109.961 171.967 109.379 171.825 108.864 171.543C108.356 171.252 107.957 170.857 107.666 170.358C107.375 169.851 107.23 169.273 107.23 168.624C107.23 167.967 107.375 167.39 107.666 166.891C107.957 166.392 108.356 166.001 108.864 165.718C109.379 165.436 109.961 165.294 110.61 165.294C111.167 165.294 111.67 165.402 112.119 165.619C112.568 165.835 112.921 166.159 113.179 166.591L112.518 167.04C112.293 166.708 112.015 166.463 111.682 166.305C111.35 166.147 110.988 166.068 110.597 166.068C110.132 166.068 109.712 166.176 109.338 166.392C108.963 166.6 108.668 166.895 108.452 167.277C108.236 167.66 108.128 168.109 108.128 168.624C108.128 169.14 108.236 169.589 108.452 169.971C108.668 170.354 108.963 170.653 109.338 170.869C109.712 171.077 110.132 171.181 110.597 171.181C110.988 171.181 111.35 171.102 111.682 170.944C112.015 170.786 112.293 170.545 112.518 170.221L113.179 170.67C112.921 171.094 112.568 171.418 112.119 171.642C111.67 171.859 111.167 171.967 110.61 171.967ZM114.821 171.904V165.357H115.706V171.904H114.821ZM115.27 163.91C115.087 163.91 114.933 163.848 114.808 163.723C114.684 163.598 114.621 163.449 114.621 163.274C114.621 163.099 114.684 162.954 114.808 162.837C114.933 162.713 115.087 162.65 115.27 162.65C115.453 162.65 115.607 162.709 115.731 162.825C115.856 162.941 115.918 163.087 115.918 163.262C115.918 163.444 115.856 163.598 115.731 163.723C115.615 163.848 115.461 163.91 115.27 163.91ZM120.24 171.967C119.625 171.967 119.151 171.8 118.819 171.468C118.486 171.135 118.32 170.665 118.32 170.058V163.91H119.205V170.009C119.205 170.391 119.301 170.686 119.492 170.894C119.692 171.102 119.974 171.206 120.34 171.206C120.731 171.206 121.055 171.094 121.313 170.869L121.625 171.505C121.45 171.663 121.238 171.78 120.989 171.854C120.748 171.929 120.498 171.967 120.24 171.967ZM117.147 166.093V165.357H121.201V166.093H117.147ZM125.943 171.967C125.386 171.967 124.899 171.863 124.484 171.655C124.068 171.447 123.744 171.135 123.511 170.719C123.287 170.304 123.174 169.784 123.174 169.161V165.357H124.06V169.061C124.06 169.759 124.23 170.287 124.571 170.645C124.92 170.994 125.407 171.168 126.03 171.168C126.488 171.168 126.882 171.077 127.215 170.894C127.556 170.703 127.814 170.428 127.988 170.071C128.171 169.713 128.263 169.285 128.263 168.786V165.357H129.148V171.904H128.3V170.108L128.437 170.433C128.229 170.915 127.905 171.293 127.464 171.568C127.032 171.834 126.525 171.967 125.943 171.967ZM134.222 171.967C133.599 171.967 133.038 171.825 132.539 171.543C132.048 171.26 131.662 170.869 131.379 170.37C131.096 169.863 130.955 169.281 130.955 168.624C130.955 167.959 131.096 167.377 131.379 166.878C131.662 166.379 132.048 165.993 132.539 165.718C133.038 165.436 133.599 165.294 134.222 165.294C134.796 165.294 135.307 165.423 135.756 165.681C136.214 165.939 136.575 166.317 136.841 166.816C137.116 167.306 137.253 167.909 137.253 168.624C137.253 169.331 137.12 169.934 136.854 170.433C136.588 170.931 136.226 171.314 135.769 171.58C135.32 171.838 134.804 171.967 134.222 171.967ZM134.285 171.181C134.75 171.181 135.166 171.077 135.532 170.869C135.906 170.653 136.197 170.354 136.405 169.971C136.621 169.58 136.729 169.131 136.729 168.624C136.729 168.109 136.621 167.66 136.405 167.277C136.197 166.895 135.906 166.6 135.532 166.392C135.166 166.176 134.75 166.068 134.285 166.068C133.828 166.068 133.416 166.176 133.05 166.392C132.684 166.6 132.393 166.895 132.177 167.277C131.961 167.66 131.853 168.109 131.853 168.624C131.853 169.131 131.961 169.58 132.177 169.971C132.393 170.354 132.684 170.653 133.05 170.869C133.416 171.077 133.828 171.181 134.285 171.181ZM136.754 171.904V169.934L136.841 168.612L136.717 167.29V162.65H137.602V171.904H136.754ZM140.068 171.904V165.357H140.954V171.904H140.068ZM140.517 163.91C140.334 163.91 140.18 163.848 140.056 163.723C139.931 163.598 139.869 163.449 139.869 163.274C139.869 163.099 139.931 162.954 140.056 162.837C140.18 162.713 140.334 162.65 140.517 162.65C140.7 162.65 140.854 162.709 140.979 162.825C141.103 162.941 141.166 163.087 141.166 163.262C141.166 163.444 141.103 163.598 140.979 163.723C140.862 163.848 140.708 163.91 140.517 163.91ZM146.76 165.294C147.292 165.294 147.758 165.398 148.157 165.606C148.564 165.806 148.88 166.113 149.104 166.529C149.337 166.945 149.454 167.469 149.454 168.1V171.904H148.568V168.188C148.568 167.498 148.394 166.978 148.044 166.629C147.704 166.271 147.221 166.093 146.598 166.093C146.132 166.093 145.725 166.188 145.376 166.379C145.035 166.562 144.769 166.833 144.577 167.19C144.394 167.539 144.303 167.963 144.303 168.462V171.904H143.418V165.357H144.266V167.153L144.128 166.816C144.336 166.342 144.669 165.972 145.126 165.706C145.583 165.432 146.128 165.294 146.76 165.294ZM157.716 171.967C157.092 171.967 156.531 171.825 156.032 171.543C155.542 171.26 155.155 170.869 154.873 170.37C154.59 169.863 154.449 169.281 154.449 168.624C154.449 167.959 154.59 167.377 154.873 166.878C155.155 166.379 155.542 165.993 156.032 165.718C156.531 165.436 157.092 165.294 157.716 165.294C158.29 165.294 158.801 165.423 159.25 165.681C159.707 165.939 160.069 166.317 160.335 166.816C160.609 167.306 160.747 167.909 160.747 168.624C160.747 169.331 160.614 169.934 160.348 170.433C160.081 170.931 159.72 171.314 159.263 171.58C158.814 171.838 158.298 171.967 157.716 171.967ZM157.778 171.181C158.244 171.181 158.66 171.077 159.026 170.869C159.4 170.653 159.691 170.354 159.899 169.971C160.115 169.58 160.223 169.131 160.223 168.624C160.223 168.109 160.115 167.66 159.899 167.277C159.691 166.895 159.4 166.6 159.026 166.392C158.66 166.176 158.244 166.068 157.778 166.068C157.321 166.068 156.91 166.176 156.544 166.392C156.178 166.6 155.887 166.895 155.671 167.277C155.455 167.66 155.346 168.109 155.346 168.624C155.346 169.131 155.455 169.58 155.671 169.971C155.887 170.354 156.178 170.653 156.544 170.869C156.91 171.077 157.321 171.181 157.778 171.181ZM160.248 171.904V169.934L160.335 168.612L160.21 167.29V162.65H161.096V171.904H160.248ZM163.562 171.904V165.357H164.447V171.904H163.562ZM164.011 163.91C163.828 163.91 163.674 163.848 163.549 163.723C163.425 163.598 163.362 163.449 163.362 163.274C163.362 163.099 163.425 162.954 163.549 162.837C163.674 162.713 163.828 162.65 164.011 162.65C164.194 162.65 164.348 162.709 164.472 162.825C164.597 162.941 164.659 163.087 164.659 163.262C164.659 163.444 164.597 163.598 164.472 163.723C164.356 163.848 164.202 163.91 164.011 163.91ZM169.705 174.386C169.106 174.386 168.532 174.299 167.984 174.124C167.435 173.95 166.99 173.7 166.649 173.376L167.098 172.702C167.406 172.977 167.784 173.193 168.233 173.351C168.69 173.517 169.173 173.6 169.68 173.6C170.511 173.6 171.122 173.405 171.513 173.014C171.904 172.632 172.099 172.033 172.099 171.218V169.585L172.224 168.462L172.137 167.34V165.357H172.985V171.106C172.985 172.237 172.706 173.064 172.149 173.588C171.6 174.12 170.786 174.386 169.705 174.386ZM169.543 171.655C168.919 171.655 168.358 171.522 167.859 171.256C167.36 170.981 166.965 170.603 166.674 170.121C166.391 169.639 166.25 169.086 166.25 168.462C166.25 167.839 166.391 167.29 166.674 166.816C166.965 166.334 167.36 165.96 167.859 165.693C168.358 165.427 168.919 165.294 169.543 165.294C170.125 165.294 170.648 165.415 171.114 165.656C171.58 165.897 171.95 166.255 172.224 166.729C172.498 167.202 172.636 167.78 172.636 168.462C172.636 169.144 172.498 169.722 172.224 170.196C171.95 170.67 171.58 171.031 171.114 171.281C170.648 171.53 170.125 171.655 169.543 171.655ZM169.63 170.869C170.112 170.869 170.54 170.769 170.914 170.57C171.289 170.362 171.584 170.079 171.8 169.722C172.016 169.356 172.124 168.936 172.124 168.462C172.124 167.988 172.016 167.572 171.8 167.215C171.584 166.857 171.289 166.579 170.914 166.379C170.54 166.172 170.112 166.068 169.63 166.068C169.156 166.068 168.728 166.172 168.345 166.379C167.971 166.579 167.676 166.857 167.46 167.215C167.252 167.572 167.148 167.988 167.148 168.462C167.148 168.936 167.252 169.356 167.46 169.722C167.676 170.079 167.971 170.362 168.345 170.57C168.728 170.769 169.156 170.869 169.63 170.869ZM178.791 165.294C179.323 165.294 179.789 165.398 180.188 165.606C180.595 165.806 180.911 166.113 181.136 166.529C181.369 166.945 181.485 167.469 181.485 168.1V171.904H180.599V168.188C180.599 167.498 180.425 166.978 180.076 166.629C179.735 166.271 179.253 166.093 178.629 166.093C178.163 166.093 177.756 166.188 177.407 166.379C177.066 166.562 176.8 166.833 176.609 167.19C176.426 167.539 176.334 167.963 176.334 168.462V171.904H175.449V165.357H176.297V167.153L176.16 166.816C176.367 166.342 176.7 165.972 177.157 165.706C177.615 165.432 178.159 165.294 178.791 165.294ZM183.877 171.904V165.357H184.762V171.904H183.877ZM184.326 163.91C184.143 163.91 183.989 163.848 183.864 163.723C183.74 163.598 183.677 163.449 183.677 163.274C183.677 163.099 183.74 162.954 183.864 162.837C183.989 162.713 184.143 162.65 184.326 162.65C184.509 162.65 184.662 162.709 184.787 162.825C184.912 162.941 184.974 163.087 184.974 163.262C184.974 163.444 184.912 163.598 184.787 163.723C184.671 163.848 184.517 163.91 184.326 163.91ZM188.984 171.967C188.444 171.967 187.933 171.892 187.45 171.742C186.968 171.584 186.59 171.389 186.316 171.156L186.715 170.458C186.981 170.657 187.322 170.832 187.737 170.981C188.153 171.123 188.59 171.193 189.047 171.193C189.67 171.193 190.119 171.098 190.394 170.907C190.668 170.707 190.805 170.445 190.805 170.121C190.805 169.88 190.726 169.693 190.568 169.56C190.419 169.418 190.219 169.314 189.97 169.248C189.72 169.173 189.442 169.111 189.134 169.061C188.826 169.011 188.519 168.953 188.211 168.886C187.912 168.82 187.638 168.724 187.388 168.599C187.139 168.466 186.935 168.288 186.777 168.063C186.627 167.839 186.553 167.539 186.553 167.165C186.553 166.808 186.652 166.487 186.852 166.205C187.051 165.922 187.342 165.702 187.725 165.544C188.116 165.377 188.59 165.294 189.147 165.294C189.571 165.294 189.995 165.353 190.419 165.469C190.843 165.577 191.192 165.723 191.466 165.905L191.08 166.616C190.789 166.417 190.477 166.275 190.144 166.192C189.812 166.101 189.479 166.055 189.147 166.055C188.556 166.055 188.12 166.159 187.837 166.367C187.563 166.566 187.426 166.824 187.426 167.14C187.426 167.39 187.5 167.585 187.65 167.726C187.808 167.868 188.012 167.98 188.261 168.063C188.519 168.138 188.797 168.2 189.097 168.25C189.404 168.3 189.708 168.362 190.007 168.437C190.315 168.504 190.593 168.599 190.843 168.724C191.1 168.84 191.304 169.011 191.454 169.235C191.612 169.452 191.691 169.738 191.691 170.096C191.691 170.478 191.583 170.811 191.367 171.094C191.159 171.368 190.851 171.584 190.444 171.742C190.045 171.892 189.558 171.967 188.984 171.967ZM195.074 171.967C194.534 171.967 194.022 171.892 193.54 171.742C193.058 171.584 192.68 171.389 192.405 171.156L192.804 170.458C193.07 170.657 193.411 170.832 193.827 170.981C194.243 171.123 194.679 171.193 195.136 171.193C195.76 171.193 196.209 171.098 196.483 170.907C196.758 170.707 196.895 170.445 196.895 170.121C196.895 169.88 196.816 169.693 196.658 169.56C196.508 169.418 196.309 169.314 196.059 169.248C195.81 169.173 195.531 169.111 195.224 169.061C194.916 169.011 194.608 168.953 194.301 168.886C194.002 168.82 193.727 168.724 193.478 168.599C193.228 168.466 193.025 168.288 192.867 168.063C192.717 167.839 192.642 167.539 192.642 167.165C192.642 166.808 192.742 166.487 192.941 166.205C193.141 165.922 193.432 165.702 193.814 165.544C194.205 165.377 194.679 165.294 195.236 165.294C195.66 165.294 196.084 165.353 196.508 165.469C196.932 165.577 197.282 165.723 197.556 165.905L197.169 166.616C196.878 166.417 196.566 166.275 196.234 166.192C195.901 166.101 195.569 166.055 195.236 166.055C194.646 166.055 194.209 166.159 193.927 166.367C193.652 166.566 193.515 166.824 193.515 167.14C193.515 167.39 193.59 167.585 193.74 167.726C193.898 167.868 194.101 167.98 194.351 168.063C194.608 168.138 194.887 168.2 195.186 168.25C195.494 168.3 195.797 168.362 196.097 168.437C196.404 168.504 196.683 168.599 196.932 168.724C197.19 168.84 197.394 169.011 197.543 169.235C197.701 169.452 197.78 169.738 197.78 170.096C197.78 170.478 197.672 170.811 197.456 171.094C197.248 171.368 196.941 171.584 196.533 171.742C196.134 171.892 195.648 171.967 195.074 171.967ZM199.405 171.904V165.357H200.291V171.904H199.405ZM199.854 163.91C199.671 163.91 199.517 163.848 199.393 163.723C199.268 163.598 199.206 163.449 199.206 163.274C199.206 163.099 199.268 162.954 199.393 162.837C199.517 162.713 199.671 162.65 199.854 162.65C200.037 162.65 200.191 162.709 200.316 162.825C200.44 162.941 200.503 163.087 200.503 163.262C200.503 163.444 200.44 163.598 200.316 163.723C200.199 163.848 200.045 163.91 199.854 163.91ZM210.936 165.294C211.468 165.294 211.929 165.398 212.32 165.606C212.719 165.806 213.027 166.113 213.243 166.529C213.467 166.945 213.58 167.469 213.58 168.1V171.904H212.694V168.188C212.694 167.498 212.528 166.978 212.195 166.629C211.871 166.271 211.41 166.093 210.811 166.093C210.362 166.093 209.971 166.188 209.639 166.379C209.314 166.562 209.061 166.833 208.878 167.19C208.703 167.539 208.616 167.963 208.616 168.462V171.904H207.731V168.188C207.731 167.498 207.564 166.978 207.232 166.629C206.899 166.271 206.434 166.093 205.835 166.093C205.394 166.093 205.008 166.188 204.675 166.379C204.342 166.562 204.085 166.833 203.902 167.19C203.727 167.539 203.64 167.963 203.64 168.462V171.904H202.754V165.357H203.602V167.128L203.465 166.816C203.665 166.342 203.985 165.972 204.426 165.706C204.875 165.432 205.403 165.294 206.009 165.294C206.65 165.294 207.194 165.456 207.643 165.781C208.092 166.097 208.383 166.575 208.516 167.215L208.167 167.078C208.358 166.546 208.695 166.117 209.177 165.793C209.668 165.461 210.254 165.294 210.936 165.294ZM58.2904 184.294C58.8225 184.294 59.2881 184.398 59.6872 184.606C60.0946 184.806 60.4105 185.113 60.635 185.529C60.8678 185.945 60.9842 186.469 60.9842 187.1V190.904H60.0987V187.188C60.0987 186.498 59.9241 185.978 59.5749 185.629C59.234 185.271 58.7518 185.093 58.1282 185.093C57.6626 185.093 57.2552 185.188 56.906 185.379C56.5651 185.562 56.2991 185.833 56.1079 186.19C55.9249 186.539 55.8335 186.963 55.8335 187.462V190.904H54.948V184.357H55.7961V186.153L55.6589 185.816C55.8667 185.342 56.1993 184.972 56.6566 184.706C57.1139 184.432 57.6585 184.294 58.2904 184.294ZM66.0823 190.967C65.5252 190.967 65.0389 190.863 64.6231 190.655C64.2074 190.447 63.8832 190.135 63.6504 189.719C63.4259 189.304 63.3136 188.784 63.3136 188.161V184.357H64.1991V188.061C64.1991 188.759 64.3696 189.287 64.7104 189.645C65.0596 189.994 65.546 190.168 66.1696 190.168C66.6269 190.168 67.0218 190.077 67.3544 189.894C67.6953 189.703 67.953 189.428 68.1276 189.071C68.3105 188.713 68.402 188.285 68.402 187.786V184.357H69.2875V190.904H68.4394V189.108L68.5766 189.433C68.3687 189.915 68.0445 190.293 67.6038 190.568C67.1715 190.834 66.6643 190.967 66.0823 190.967ZM75.0976 184.294C75.6297 184.294 76.0953 184.398 76.4944 184.606C76.9018 184.806 77.2178 185.113 77.4423 185.529C77.6751 185.945 77.7915 186.469 77.7915 187.1V190.904H76.906V187.188C76.906 186.498 76.7314 185.978 76.3822 185.629C76.0413 185.271 75.5591 185.093 74.9355 185.093C74.4699 185.093 74.0625 185.188 73.7133 185.379C73.3724 185.562 73.1063 185.833 72.9151 186.19C72.7322 186.539 72.6407 186.963 72.6407 187.462V190.904H71.7553V184.357H72.6033V186.153L72.4661 185.816C72.674 185.342 73.0066 184.972 73.4639 184.706C73.9211 184.432 74.4657 184.294 75.0976 184.294ZM82.902 190.967C82.2535 190.967 81.6715 190.825 81.156 190.543C80.6489 190.252 80.2498 189.857 79.9588 189.358C79.6678 188.851 79.5223 188.273 79.5223 187.624C79.5223 186.967 79.6678 186.39 79.9588 185.891C80.2498 185.392 80.6489 185.001 81.156 184.718C81.6715 184.436 82.2535 184.294 82.902 184.294C83.4591 184.294 83.9621 184.402 84.4111 184.619C84.8601 184.835 85.2134 185.159 85.4712 185.591L84.8102 186.04C84.5857 185.708 84.3071 185.463 83.9746 185.305C83.642 185.147 83.2803 185.068 82.8896 185.068C82.424 185.068 82.0041 185.176 81.6299 185.392C81.2558 185.6 80.9606 185.895 80.7445 186.277C80.5283 186.66 80.4202 187.109 80.4202 187.624C80.4202 188.14 80.5283 188.589 80.7445 188.971C80.9606 189.354 81.2558 189.653 81.6299 189.869C82.0041 190.077 82.424 190.181 82.8896 190.181C83.2803 190.181 83.642 190.102 83.9746 189.944C84.3071 189.786 84.5857 189.545 84.8102 189.221L85.4712 189.67C85.2134 190.094 84.8601 190.418 84.4111 190.642C83.9621 190.859 83.4591 190.967 82.902 190.967ZM93.1934 190.967C92.5449 190.967 91.9629 190.825 91.4474 190.543C90.9403 190.252 90.5412 189.857 90.2502 189.358C89.9592 188.851 89.8137 188.273 89.8137 187.624C89.8137 186.967 89.9592 186.39 90.2502 185.891C90.5412 185.392 90.9403 185.001 91.4474 184.718C91.9629 184.436 92.5449 184.294 93.1934 184.294C93.7505 184.294 94.2535 184.402 94.7025 184.619C95.1515 184.835 95.5048 185.159 95.7626 185.591L95.1016 186.04C94.8771 185.708 94.5986 185.463 94.266 185.305C93.9334 185.147 93.5717 185.068 93.181 185.068C92.7154 185.068 92.2955 185.176 91.9213 185.392C91.5472 185.6 91.252 185.895 91.0359 186.277C90.8197 186.66 90.7116 187.109 90.7116 187.624C90.7116 188.14 90.8197 188.589 91.0359 188.971C91.252 189.354 91.5472 189.653 91.9213 189.869C92.2955 190.077 92.7154 190.181 93.181 190.181C93.5717 190.181 93.9334 190.102 94.266 189.944C94.5986 189.786 94.8771 189.545 95.1016 189.221L95.7626 189.67C95.5048 190.094 95.1515 190.418 94.7025 190.642C94.2535 190.859 93.7505 190.967 93.1934 190.967ZM100.208 190.967C99.6513 190.967 99.1649 190.863 98.7492 190.655C98.3335 190.447 98.0092 190.135 97.7764 189.719C97.5519 189.304 97.4397 188.784 97.4397 188.161V184.357H98.3251V188.061C98.3251 188.759 98.4956 189.287 98.8365 189.645C99.1857 189.994 99.6721 190.168 100.296 190.168C100.753 190.168 101.148 190.077 101.48 189.894C101.821 189.703 102.079 189.428 102.254 189.071C102.437 188.713 102.528 188.285 102.528 187.786V184.357H103.414V190.904H102.565V189.108L102.703 189.433C102.495 189.915 102.171 190.293 101.73 190.568C101.298 190.834 100.79 190.967 100.208 190.967ZM105.881 190.904V184.357H106.729V186.14L106.642 185.828C106.825 185.329 107.133 184.951 107.565 184.693C107.997 184.427 108.534 184.294 109.174 184.294V185.155C109.141 185.155 109.107 185.155 109.074 185.155C109.041 185.147 109.007 185.142 108.974 185.142C108.284 185.142 107.744 185.354 107.353 185.778C106.962 186.194 106.767 186.789 106.767 187.562V190.904H105.881ZM112.621 190.967C112.081 190.967 111.569 190.892 111.087 190.742C110.605 190.584 110.227 190.389 109.952 190.156L110.351 189.458C110.617 189.657 110.958 189.832 111.374 189.981C111.79 190.123 112.226 190.193 112.683 190.193C113.307 190.193 113.756 190.098 114.03 189.907C114.305 189.707 114.442 189.445 114.442 189.121C114.442 188.88 114.363 188.693 114.205 188.56C114.055 188.418 113.856 188.314 113.606 188.248C113.357 188.173 113.078 188.111 112.771 188.061C112.463 188.011 112.155 187.953 111.848 187.886C111.549 187.82 111.274 187.724 111.025 187.599C110.775 187.466 110.572 187.288 110.414 187.063C110.264 186.839 110.189 186.539 110.189 186.165C110.189 185.808 110.289 185.487 110.488 185.205C110.688 184.922 110.979 184.702 111.361 184.544C111.752 184.377 112.226 184.294 112.783 184.294C113.207 184.294 113.631 184.353 114.055 184.469C114.479 184.577 114.829 184.723 115.103 184.905L114.716 185.616C114.425 185.417 114.113 185.275 113.781 185.192C113.448 185.101 113.116 185.055 112.783 185.055C112.193 185.055 111.756 185.159 111.474 185.367C111.199 185.566 111.062 185.824 111.062 186.14C111.062 186.39 111.137 186.585 111.287 186.726C111.445 186.868 111.648 186.98 111.898 187.063C112.155 187.138 112.434 187.2 112.733 187.25C113.041 187.3 113.344 187.362 113.644 187.437C113.951 187.504 114.23 187.599 114.479 187.724C114.737 187.84 114.941 188.011 115.09 188.235C115.248 188.452 115.327 188.738 115.327 189.096C115.327 189.478 115.219 189.811 115.003 190.094C114.795 190.368 114.488 190.584 114.08 190.742C113.681 190.892 113.195 190.967 112.621 190.967ZM119.658 190.967C119.101 190.967 118.615 190.863 118.199 190.655C117.784 190.447 117.459 190.135 117.227 189.719C117.002 189.304 116.89 188.784 116.89 188.161V184.357H117.775V188.061C117.775 188.759 117.946 189.287 118.287 189.645C118.636 189.994 119.122 190.168 119.746 190.168C120.203 190.168 120.598 190.077 120.931 189.894C121.271 189.703 121.529 189.428 121.704 189.071C121.887 188.713 121.978 188.285 121.978 187.786V184.357H122.864V190.904H122.016V189.108L122.153 189.433C121.945 189.915 121.621 190.293 121.18 190.568C120.748 190.834 120.24 190.967 119.658 190.967ZM127.09 190.967C126.549 190.967 126.038 190.892 125.556 190.742C125.074 190.584 124.695 190.389 124.421 190.156L124.82 189.458C125.086 189.657 125.427 189.832 125.843 189.981C126.258 190.123 126.695 190.193 127.152 190.193C127.776 190.193 128.225 190.098 128.499 189.907C128.774 189.707 128.911 189.445 128.911 189.121C128.911 188.88 128.832 188.693 128.674 188.56C128.524 188.418 128.325 188.314 128.075 188.248C127.826 188.173 127.547 188.111 127.24 188.061C126.932 188.011 126.624 187.953 126.317 187.886C126.017 187.82 125.743 187.724 125.494 187.599C125.244 187.466 125.04 187.288 124.882 187.063C124.733 186.839 124.658 186.539 124.658 186.165C124.658 185.808 124.758 185.487 124.957 185.205C125.157 184.922 125.448 184.702 125.83 184.544C126.221 184.377 126.695 184.294 127.252 184.294C127.676 184.294 128.1 184.353 128.524 184.469C128.948 184.577 129.297 184.723 129.572 184.905L129.185 185.616C128.894 185.417 128.582 185.275 128.25 185.192C127.917 185.101 127.585 185.055 127.252 185.055C126.662 185.055 126.225 185.159 125.943 185.367C125.668 185.566 125.531 185.824 125.531 186.14C125.531 186.39 125.606 186.585 125.755 186.726C125.913 186.868 126.117 186.98 126.367 187.063C126.624 187.138 126.903 187.2 127.202 187.25C127.51 187.3 127.813 187.362 128.113 187.437C128.42 187.504 128.699 187.599 128.948 187.724C129.206 187.84 129.41 188.011 129.559 188.235C129.717 188.452 129.796 188.738 129.796 189.096C129.796 189.478 129.688 189.811 129.472 190.094C129.264 190.368 128.956 190.584 128.549 190.742C128.15 190.892 127.664 190.967 127.09 190.967ZM137.391 190.967C136.834 190.967 136.348 190.863 135.932 190.655C135.516 190.447 135.192 190.135 134.959 189.719C134.735 189.304 134.623 188.784 134.623 188.161V184.357H135.508V188.061C135.508 188.759 135.679 189.287 136.019 189.645C136.369 189.994 136.855 190.168 137.479 190.168C137.936 190.168 138.331 190.077 138.663 189.894C139.004 189.703 139.262 189.428 139.437 189.071C139.62 188.713 139.711 188.285 139.711 187.786V184.357H140.597V190.904H139.748V189.108L139.886 189.433C139.678 189.915 139.354 190.293 138.913 190.568C138.481 190.834 137.973 190.967 137.391 190.967ZM143.064 190.904V181.65H143.95V190.904H143.064ZM146.414 190.904V181.65H147.299V190.904H146.414ZM153.866 190.904V189.458L153.829 189.221V186.801C153.829 186.244 153.671 185.816 153.355 185.517C153.047 185.217 152.586 185.068 151.97 185.068C151.546 185.068 151.143 185.138 150.761 185.28C150.378 185.421 150.054 185.608 149.788 185.841L149.389 185.18C149.721 184.897 150.12 184.681 150.586 184.531C151.052 184.373 151.542 184.294 152.058 184.294C152.906 184.294 153.558 184.506 154.016 184.93C154.481 185.346 154.714 185.982 154.714 186.839V190.904H153.866ZM151.609 190.967C151.118 190.967 150.69 190.888 150.324 190.73C149.967 190.563 149.692 190.339 149.501 190.056C149.31 189.765 149.214 189.433 149.214 189.058C149.214 188.718 149.293 188.41 149.451 188.136C149.617 187.853 149.883 187.628 150.249 187.462C150.623 187.288 151.122 187.2 151.746 187.2H154.003V187.861H151.771C151.139 187.861 150.698 187.973 150.449 188.198C150.208 188.422 150.087 188.701 150.087 189.034C150.087 189.408 150.233 189.707 150.524 189.931C150.815 190.156 151.222 190.268 151.746 190.268C152.245 190.268 152.673 190.156 153.03 189.931C153.396 189.699 153.662 189.366 153.829 188.934L154.028 189.545C153.862 189.977 153.571 190.322 153.155 190.58C152.748 190.838 152.232 190.967 151.609 190.967ZM165.3 184.294C165.832 184.294 166.294 184.398 166.685 184.606C167.084 184.806 167.391 185.113 167.608 185.529C167.832 185.945 167.944 186.469 167.944 187.1V190.904H167.059V187.188C167.059 186.498 166.893 185.978 166.56 185.629C166.236 185.271 165.774 185.093 165.176 185.093C164.727 185.093 164.336 185.188 164.003 185.379C163.679 185.562 163.425 185.833 163.243 186.19C163.068 186.539 162.981 186.963 162.981 187.462V190.904H162.095V187.188C162.095 186.498 161.929 185.978 161.596 185.629C161.264 185.271 160.798 185.093 160.2 185.093C159.759 185.093 159.372 185.188 159.04 185.379C158.707 185.562 158.449 185.833 158.266 186.19C158.092 186.539 158.005 186.963 158.005 187.462V190.904H157.119V184.357H157.967V186.128L157.83 185.816C158.029 185.342 158.35 184.972 158.79 184.706C159.239 184.432 159.767 184.294 160.374 184.294C161.014 184.294 161.559 184.456 162.008 184.781C162.457 185.097 162.748 185.575 162.881 186.215L162.532 186.078C162.723 185.546 163.06 185.117 163.542 184.793C164.032 184.461 164.619 184.294 165.3 184.294ZM173.064 190.967C172.416 190.967 171.834 190.825 171.318 190.543C170.811 190.252 170.412 189.857 170.121 189.358C169.83 188.851 169.685 188.273 169.685 187.624C169.685 186.967 169.83 186.39 170.121 185.891C170.412 185.392 170.811 185.001 171.318 184.718C171.834 184.436 172.416 184.294 173.064 184.294C173.621 184.294 174.125 184.402 174.573 184.619C175.022 184.835 175.376 185.159 175.634 185.591L174.973 186.04C174.748 185.708 174.47 185.463 174.137 185.305C173.804 185.147 173.443 185.068 173.052 185.068C172.586 185.068 172.166 185.176 171.792 185.392C171.418 185.6 171.123 185.895 170.907 186.277C170.691 186.66 170.583 187.109 170.583 187.624C170.583 188.14 170.691 188.589 170.907 188.971C171.123 189.354 171.418 189.653 171.792 189.869C172.166 190.077 172.586 190.181 173.052 190.181C173.443 190.181 173.804 190.102 174.137 189.944C174.47 189.786 174.748 189.545 174.973 189.221L175.634 189.67C175.376 190.094 175.022 190.418 174.573 190.642C174.125 190.859 173.621 190.967 173.064 190.967ZM179.932 190.967C179.3 190.967 178.731 190.825 178.224 190.543C177.725 190.252 177.33 189.857 177.039 189.358C176.748 188.851 176.602 188.273 176.602 187.624C176.602 186.967 176.748 186.39 177.039 185.891C177.33 185.392 177.725 185.001 178.224 184.718C178.723 184.436 179.292 184.294 179.932 184.294C180.581 184.294 181.155 184.436 181.653 184.718C182.161 185.001 182.555 185.392 182.838 185.891C183.129 186.39 183.275 186.967 183.275 187.624C183.275 188.273 183.129 188.851 182.838 189.358C182.555 189.857 182.161 190.252 181.653 190.543C181.146 190.825 180.573 190.967 179.932 190.967ZM179.932 190.181C180.406 190.181 180.826 190.077 181.192 189.869C181.558 189.653 181.845 189.354 182.052 188.971C182.269 188.58 182.377 188.131 182.377 187.624C182.377 187.109 182.269 186.66 182.052 186.277C181.845 185.895 181.558 185.6 181.192 185.392C180.826 185.176 180.41 185.068 179.945 185.068C179.479 185.068 179.063 185.176 178.698 185.392C178.332 185.6 178.041 185.895 177.825 186.277C177.608 186.66 177.5 187.109 177.5 187.624C177.5 188.131 177.608 188.58 177.825 188.971C178.041 189.354 178.332 189.653 178.698 189.869C179.063 190.077 179.475 190.181 179.932 190.181ZM185.082 190.904V184.357H185.931V186.14L185.843 185.828C186.026 185.329 186.334 184.951 186.766 184.693C187.198 184.427 187.735 184.294 188.375 184.294V185.155C188.342 185.155 188.308 185.155 188.275 185.155C188.242 185.147 188.209 185.142 188.175 185.142C187.485 185.142 186.945 185.354 186.554 185.778C186.163 186.194 185.968 186.789 185.968 187.562V190.904H185.082ZM193.37 190.967C192.805 190.967 192.294 190.838 191.836 190.58C191.379 190.314 191.013 189.936 190.739 189.445C190.473 188.946 190.34 188.339 190.34 187.624C190.34 186.909 190.473 186.306 190.739 185.816C191.005 185.317 191.367 184.939 191.824 184.681C192.281 184.423 192.797 184.294 193.37 184.294C193.994 184.294 194.551 184.436 195.042 184.718C195.54 184.993 195.931 185.384 196.214 185.891C196.497 186.39 196.638 186.967 196.638 187.624C196.638 188.289 196.497 188.871 196.214 189.37C195.931 189.869 195.54 190.26 195.042 190.543C194.551 190.825 193.994 190.967 193.37 190.967ZM189.991 193.324V184.357H190.839V186.327L190.751 187.637L190.876 188.959V193.324H189.991ZM193.308 190.181C193.774 190.181 194.189 190.077 194.555 189.869C194.921 189.653 195.212 189.354 195.428 188.971C195.644 188.58 195.752 188.131 195.752 187.624C195.752 187.117 195.644 186.672 195.428 186.29C195.212 185.907 194.921 185.608 194.555 185.392C194.189 185.176 193.774 185.068 193.308 185.068C192.842 185.068 192.423 185.176 192.048 185.392C191.683 185.608 191.392 185.907 191.175 186.29C190.968 186.672 190.864 187.117 190.864 187.624C190.864 188.131 190.968 188.58 191.175 188.971C191.392 189.354 191.683 189.653 192.048 189.869C192.423 190.077 192.842 190.181 193.308 190.181ZM201.224 190.967C200.542 190.967 199.944 190.825 199.428 190.543C198.913 190.252 198.51 189.857 198.219 189.358C197.928 188.851 197.782 188.273 197.782 187.624C197.782 186.976 197.919 186.402 198.194 185.903C198.476 185.404 198.859 185.014 199.341 184.731C199.831 184.44 200.38 184.294 200.987 184.294C201.602 184.294 202.147 184.436 202.621 184.718C203.103 184.993 203.481 185.384 203.756 185.891C204.03 186.39 204.167 186.967 204.167 187.624C204.167 187.666 204.163 187.712 204.155 187.761C204.155 187.803 204.155 187.849 204.155 187.899H198.455V187.238H203.681L203.332 187.5C203.332 187.026 203.228 186.606 203.02 186.24C202.82 185.866 202.546 185.575 202.197 185.367C201.848 185.159 201.444 185.055 200.987 185.055C200.538 185.055 200.135 185.159 199.777 185.367C199.42 185.575 199.141 185.866 198.942 186.24C198.742 186.614 198.643 187.042 198.643 187.524V187.662C198.643 188.161 198.751 188.601 198.967 188.984C199.191 189.358 199.499 189.653 199.89 189.869C200.289 190.077 200.742 190.181 201.249 190.181C201.648 190.181 202.018 190.11 202.359 189.969C202.708 189.828 203.008 189.611 203.257 189.32L203.756 189.894C203.465 190.243 203.099 190.509 202.658 190.692C202.226 190.875 201.748 190.967 201.224 190.967ZM205.97 190.904V184.357H206.818V186.14L206.73 185.828C206.913 185.329 207.221 184.951 207.653 184.693C208.086 184.427 208.622 184.294 209.262 184.294V185.155C209.229 185.155 209.196 185.155 209.162 185.155C209.129 185.147 209.096 185.142 209.063 185.142C208.373 185.142 207.832 185.354 207.441 185.778C207.051 186.194 206.855 186.789 206.855 187.562V190.904H205.97Z" fill="black" fill-opacity="0.87"/>
</g>
<defs>
<filter id="filter0_d_2378_8675" x="-35.5746" y="-4.57939" width="309.657" height="265.727" filterUnits="userSpaceOnUse" color-interpolation-filters="sRGB">
<feFlood flood-opacity="0" result="BackgroundImageFix"/>
<feColorMatrix in="SourceAlpha" type="matrix" values="0 0 0 0 0 0 0 0 0 0 0 0 0 0 0 0 0 0 127 0" result="hardAlpha"/>
<feMorphology radius="0.779467" operator="erode" in="SourceAlpha" result="effect1_dropShadow_2378_8675"/>
<feOffset/>
<feGaussianBlur stdDeviation="19.0969"/>
<feColorMatrix type="matrix" values="0 0 0 0 0 0 0 0 0 0 0 0 0 0 0 0 0 0 0.19 0"/>
<feBlend mode="normal" in2="BackgroundImageFix" result="effect1_dropShadow_2378_8675"/>
<feBlend mode="normal" in="SourceGraphic" in2="effect1_dropShadow_2378_8675" result="shape"/>
</filter>
<filter id="filter1_d_2378_8675" x="-17.1527" y="-4.22499" width="297.755" height="249.429" filterUnits="userSpaceOnUse" color-interpolation-filters="sRGB">
<feFlood flood-opacity="0" result="BackgroundImageFix"/>
<feColorMatrix in="SourceAlpha" type="matrix" values="0 0 0 0 0 0 0 0 0 0 0 0 0 0 0 0 0 0 127 0" result="hardAlpha"/>
<feMorphology radius="0.779467" operator="erode" in="SourceAlpha" result="effect1_dropShadow_2378_8675"/>
<feOffset/>
<feGaussianBlur stdDeviation="19.0969"/>
<feColorMatrix type="matrix" values="0 0 0 0 0 0 0 0 0 0 0 0 0 0 0 0 0 0 0.19 0"/>
<feBlend mode="normal" in2="BackgroundImageFix" result="effect1_dropShadow_2378_8675"/>
<feBlend mode="normal" in="SourceGraphic" in2="effect1_dropShadow_2378_8675" result="shape"/>
</filter>
<filter id="filter2_i_2378_8675" x="77.082" y="3.94818" width="104.07" height="111.104" filterUnits="userSpaceOnUse" color-interpolation-filters="sRGB">
<feFlood flood-opacity="0" result="BackgroundImageFix"/>
<feBlend mode="normal" in="SourceGraphic" in2="BackgroundImageFix" result="shape"/>
<feColorMatrix in="SourceAlpha" type="matrix" values="0 0 0 0 0 0 0 0 0 0 0 0 0 0 0 0 0 0 127 0" result="hardAlpha"/>
<feOffset dx="5.02735" dy="2.01094"/>
<feGaussianBlur stdDeviation="5.02735"/>
<feComposite in2="hardAlpha" operator="arithmetic" k2="-1" k3="1"/>
<feColorMatrix type="matrix" values="0 0 0 0 0.19497 0 0 0 0 0.614459 0 0 0 0 0.99139 0 0 0 1 0"/>
<feBlend mode="normal" in2="shape" result="effect1_innerShadow_2378_8675"/>
</filter>
<filter id="filter3_d_2378_8675" x="113.282" y="24.0576" width="38.2094" height="53.7602" filterUnits="userSpaceOnUse" color-interpolation-filters="sRGB">
<feFlood flood-opacity="0" result="BackgroundImageFix"/>
<feColorMatrix in="SourceAlpha" type="matrix" values="0 0 0 0 0 0 0 0 0 0 0 0 0 0 0 0 0 0 127 0" result="hardAlpha"/>
<feOffset dy="2.01094"/>
<feGaussianBlur stdDeviation="1.00547"/>
<feComposite in2="hardAlpha" operator="out"/>
<feColorMatrix type="matrix" values="0 0 0 0 0 0 0 0 0 0 0 0 0 0 0 0 0 0 0.25 0"/>
<feBlend mode="normal" in2="BackgroundImageFix" result="effect1_dropShadow_2378_8675"/>
<feBlend mode="normal" in="SourceGraphic" in2="effect1_dropShadow_2378_8675" result="shape"/>
</filter>
<clipPath id="clip0_2378_8675">
<rect width="243.194" height="225.266" fill="white" transform="translate(0 0.451782)"/>
</clipPath>
</defs>
</svg>
