<svg width="22" height="22" viewBox="0 0 22 22" fill="none" xmlns="http://www.w3.org/2000/svg">
<g clip-path="url(#clip0_1883_7024)">
<path fill-rule="evenodd" clip-rule="evenodd" d="M6.55556 2.66333H15.4444V0.66333H17.6667V2.66333H18.7778C19.3671 2.66333 19.9324 2.87404 20.3491 3.24912C20.7659 3.62419 21 4.1329 21 4.66333V18.6633C21 19.1938 20.7659 19.7025 20.3491 20.0775C19.9324 20.4526 19.3671 20.6633 18.7778 20.6633H3.22222C2.63285 20.6633 2.06762 20.4526 1.65087 20.0775C1.23413 19.7025 1 19.1938 1 18.6633V4.66333C1 4.1329 1.23413 3.62419 1.65087 3.24912C2.06762 2.87404 2.63285 2.66333 3.22222 2.66333H4.33333V0.66333H6.55556V2.66333ZM3.22222 6.66333V18.6633H18.7778V6.66333H3.22222ZM5.44444 9.66333H7.66667V11.6633H5.44444V9.66333ZM9.88889 9.66333H12.1111V11.6633H9.88889V9.66333ZM14.3333 9.66333H16.5556V11.6633H14.3333V9.66333ZM14.3333 13.6633H16.5556V15.6633H14.3333V13.6633ZM9.88889 13.6633H12.1111V15.6633H9.88889V13.6633ZM5.44444 13.6633H7.66667V15.6633H5.44444V13.6633Z" fill="white"/>
</g>
<defs>
<clipPath id="clip0_1883_7024">
<rect width="21.404" height="21.404" fill="white" transform="translate(0.269531 0.298096)"/>
</clipPath>
</defs>
</svg>
