<svg width="20" height="20" viewBox="0 0 20 20" fill="none" xmlns="http://www.w3.org/2000/svg">
<path d="M2 2.22222H5L7 0H13L15 2.22222H18C18.5304 2.22222 19.0391 2.45635 19.4142 2.8731C19.7893 3.28984 20 3.85507 20 4.44444V17.7778C20 18.3671 19.7893 18.9324 19.4142 19.3491C19.0391 19.7659 18.5304 20 18 20H2C1.46957 20 0.960859 19.7659 0.585786 19.3491C0.210714 18.9324 0 18.3671 0 17.7778V4.44444C0 3.85507 0.210714 3.28984 0.585786 2.8731C0.960859 2.45635 1.46957 2.22222 2 2.22222ZM10 5.55556C8.67392 5.55556 7.40215 6.14087 6.46447 7.18274C5.52678 8.22461 5 9.63769 5 11.1111C5 12.5845 5.52678 13.9976 6.46447 15.0395C7.40215 16.0814 8.67392 16.6667 10 16.6667C11.3261 16.6667 12.5979 16.0814 13.5355 15.0395C14.4732 13.9976 15 12.5845 15 11.1111C15 9.63769 14.4732 8.22461 13.5355 7.18274C12.5979 6.14087 11.3261 5.55556 10 5.55556ZM10 7.77778C10.7956 7.77778 11.5587 8.12897 12.1213 8.75409C12.6839 9.37921 13 10.2271 13 11.1111C13 11.9952 12.6839 12.843 12.1213 13.4681C11.5587 14.0933 10.7956 14.4444 10 14.4444C9.20435 14.4444 8.44129 14.0933 7.87868 13.4681C7.31607 12.843 7 11.9952 7 11.1111C7 10.2271 7.31607 9.37921 7.87868 8.75409C8.44129 8.12897 9.20435 7.77778 10 7.77778Z" fill="#1F4E79"/>
</svg>
