<svg width="91" height="32" viewBox="0 0 91 32" fill="none" xmlns="http://www.w3.org/2000/svg">
<path d="M61.5583 31.0369H69.029V10.0759H61.5583V31.0369ZM57.3518 9.76681C50.4502 9.98919 46.9448 13.0876 46.9448 19.2428V31.0369H54.4833V21.4177C54.4833 17.7313 54.9658 16.1407 59.3382 16.0012V9.87612C58.8312 9.7926 58.3178 9.75476 57.8041 9.76304H57.3593M0.854004 11.5007C0.854004 13.9206 1.89056 19.6197 11.5324 20.2794C12.3503 20.3284 14.5176 20.4527 14.5176 22.4882C14.5176 24.1655 12.7423 25.1531 9.75705 25.1531C6.88937 25.1287 4.05054 24.578 1.3817 23.5285V30.2227C4.63753 31.026 7.98334 31.4061 11.3364 31.3535C19.5685 31.3535 23.2548 26.7098 23.2548 22.1112C23.2548 16.8983 19.1086 13.5097 12.2071 13.0649C11.2648 13.0046 9.07858 12.8614 9.07858 10.8938C9.07858 8.52294 12.2259 8.52294 13.4057 8.52294C15.4788 8.52294 18.1663 9.13356 20.0849 9.71027C20.0849 9.71027 21.1554 10.0872 22.0675 10.4641L22.1504 10.4867V3.9621L22.0336 3.92818C19.772 3.13662 17.1335 2.37523 12.2561 2.37523C3.83551 2.379 0.854004 7.28284 0.854004 11.5007ZM25.1319 3.91687V31.0558H32.8364V22.6465C35.0715 25.9974 36.1722 31.0369 36.1722 31.0369H45.4031C44.4872 27.2412 40.5031 20.2417 40.5031 20.2417C42.8751 17.1838 44.7047 13.7415 45.912 10.0646H37.0919C36.0797 12.7112 34.6423 15.1747 32.8364 17.3582V2.379L25.1319 3.91687ZM72.1914 3.7284V31.052H79.6546V2.40538L72.1914 3.7284ZM83.0922 3.7284V31.052H90.5629V2.40538L83.0922 3.7284ZM65.2936 0.712968C64.5653 0.712968 63.8533 0.928949 63.2477 1.3336C62.6421 1.73825 62.1701 2.31339 61.8914 2.9863C61.6126 3.6592 61.5397 4.39965 61.6818 5.114C61.8239 5.82836 62.1746 6.48454 62.6897 6.99956C63.2047 7.51458 63.8609 7.86531 64.5752 8.0074C65.2896 8.1495 66.03 8.07657 66.7029 7.79784C67.3758 7.51911 67.951 7.04711 68.3556 6.44151C68.7603 5.83591 68.9762 5.12392 68.9762 4.39557C68.9792 3.41953 68.5946 2.48222 67.907 1.78959C67.2193 1.09695 66.2847 0.705652 65.3087 0.70166L65.2936 0.712968Z" fill="url(#paint0_linear_223_1496)"/>
<defs>
<linearGradient id="paint0_linear_223_1496" x1="1.66259" y1="14.4688" x2="91.5952" y2="14.4688" gradientUnits="userSpaceOnUse">
<stop stop-color="#872165"/>
<stop offset="1" stop-color="#4F2455"/>
</linearGradient>
</defs>
</svg>
