<svg width="85" height="45" viewBox="0 0 85 45" fill="none" xmlns="http://www.w3.org/2000/svg">
<path d="M62.2441 0H22.7076C10.3524 0 0.243652 10.1088 0.243652 22.4639C0.243652 34.8191 10.3524 44.9279 22.7076 44.9279H62.2441C74.5992 44.9279 84.708 34.8191 84.708 22.4639C84.708 10.1088 74.5992 0 62.2441 0Z" fill="white"/>
<path d="M62.2441 1.81958C65.0183 1.81958 67.714 2.36994 70.2524 3.44821C72.7122 4.49279 74.9137 5.98664 76.8231 7.88484C78.7213 9.78304 80.2152 11.9957 81.2598 14.4555C82.338 16.994 82.8884 19.6896 82.8884 22.4639C82.8884 25.2382 82.338 27.9339 81.2598 30.4723C80.2152 32.9321 78.7213 35.1336 76.8231 37.043C74.9249 38.9412 72.7122 40.4351 70.2524 41.4796C67.714 42.5579 65.0183 43.1083 62.2441 43.1083H22.7076C19.9333 43.1083 17.2376 42.5579 14.6992 41.4796C12.2394 40.4351 10.0379 38.9412 8.12849 37.043C6.23029 35.1448 4.73644 32.9321 3.69186 30.4723C2.6136 27.9339 2.06323 25.2382 2.06323 22.4639C2.06323 19.6896 2.6136 16.994 3.69186 14.4555C4.73644 11.9957 6.23029 9.79427 8.12849 7.88484C10.0267 5.98664 12.2394 4.49279 14.6992 3.44821C17.2376 2.36994 19.9333 1.81958 22.7076 1.81958H62.2441ZM62.2441 0H22.7076C10.3524 0 0.243652 10.1088 0.243652 22.4639C0.243652 34.8191 10.3524 44.9279 22.7076 44.9279H62.2441C74.5992 44.9279 84.708 34.8191 84.708 22.4639C84.708 10.1088 74.5992 0 62.2441 0Z" fill="#3C4043"/>
<path d="M40.5214 30.8541H38.3648V14.0736H44.0819C45.5308 14.0736 46.7663 14.5565 47.7772 15.5225C48.8106 16.4884 49.3272 17.6678 49.3272 19.0606C49.3272 20.487 48.8106 21.6664 47.7772 22.6211C46.7776 23.5758 45.5421 24.0476 44.0819 24.0476H40.5214V30.8541ZM40.5214 16.1402V21.9921H44.1268C44.9805 21.9921 45.6993 21.7001 46.2609 21.1272C46.8337 20.5544 47.1258 19.858 47.1258 19.0718C47.1258 18.2968 46.8337 17.6116 46.2609 17.0388C45.6993 16.4435 44.9917 16.1515 44.1268 16.1515H40.5214V16.1402Z" fill="#3C4043"/>
<path d="M54.9656 18.9932C56.5606 18.9932 57.8185 19.42 58.7396 20.2736C59.6606 21.1272 60.1211 22.2954 60.1211 23.778V30.8541H58.0656V29.2592H57.9758C57.0885 30.5733 55.8979 31.2248 54.4153 31.2248C53.146 31.2248 52.0902 30.8541 51.2366 30.1016C50.383 29.349 49.9562 28.4168 49.9562 27.2936C49.9562 26.103 50.4054 25.1595 51.304 24.4631C52.2026 23.7555 53.4044 23.4073 54.8982 23.4073C56.1787 23.4073 57.2345 23.6432 58.0544 24.1149V23.6207C58.0544 22.8682 57.7624 22.2392 57.1671 21.7113C56.5718 21.1834 55.8754 20.9251 55.0779 20.9251C53.8761 20.9251 52.9214 21.4305 52.225 22.4526L50.3268 21.262C51.3714 19.7457 52.9214 18.9932 54.9656 18.9932ZM52.1801 27.3273C52.1801 27.8889 52.416 28.3606 52.8989 28.7313C53.3707 29.1019 53.9323 29.2929 54.5725 29.2929C55.4823 29.2929 56.291 28.9559 56.9986 28.282C57.7062 27.6081 58.0656 26.8218 58.0656 25.9121C57.3917 25.3842 56.4595 25.1146 55.2576 25.1146C54.3816 25.1146 53.6515 25.328 53.0674 25.7436C52.4721 26.1816 52.1801 26.7095 52.1801 27.3273Z" fill="#3C4043"/>
<path d="M71.8473 19.3639L64.6588 35.8974H62.4349L65.1081 30.1129L60.3682 19.3639H62.7157L66.1302 27.6082H66.1751L69.4998 19.3639H71.8473Z" fill="#3C4043"/>
<path d="M31.9435 22.6885C31.9435 21.9854 31.8806 21.3126 31.7638 20.6656H22.7243V24.3722L27.9303 24.3733C27.7191 25.6066 27.0396 26.6579 25.9984 27.3587V29.7635H29.0973C30.9068 28.0888 31.9435 25.6133 31.9435 22.6885Z" fill="#4285F4"/>
<path d="M25.9996 27.3589C25.137 27.9407 24.0262 28.281 22.7266 28.281C20.2163 28.281 18.0867 26.5895 17.324 24.3094H14.1274V26.7894C15.7111 29.9321 18.9662 32.0886 22.7266 32.0886C25.3257 32.0886 27.5092 31.2339 29.0985 29.7625L25.9996 27.3589Z" fill="#34A853"/>
<path d="M17.023 22.4694C17.023 21.8292 17.1297 21.2103 17.324 20.6285V18.1485H14.1274C13.4726 19.448 13.1042 20.9149 13.1042 22.4694C13.1042 24.0239 13.4737 25.4908 14.1274 26.7904L17.324 24.3104C17.1297 23.7285 17.023 23.1097 17.023 22.4694Z" fill="#FABB05"/>
<path d="M22.7266 16.6569C24.1452 16.6569 25.4156 17.1455 26.4186 18.1002L29.1648 15.3563C27.4968 13.8029 25.3223 12.8493 22.7266 12.8493C18.9673 12.8493 15.7111 15.0058 14.1274 18.1485L17.324 20.6285C18.0866 18.3484 20.2163 16.6569 22.7266 16.6569Z" fill="#E94235"/>
</svg>
