<svg width="72" height="45" viewBox="0 0 72 45" fill="none" xmlns="http://www.w3.org/2000/svg">
<path d="M64.7817 0H7.17253C6.9326 0 6.69224 0 6.45273 0.00139916C6.25027 0.00284071 6.04829 0.00508785 5.8463 0.0105997C5.40578 0.0225137 4.96148 0.0485041 4.52647 0.126687C4.08451 0.206227 3.67324 0.335968 3.27202 0.540245C2.87758 0.740833 2.51647 1.0032 2.20353 1.31627C1.89046 1.62934 1.62809 1.98986 1.42755 2.38472C1.22323 2.78594 1.0934 3.19733 1.01441 3.63963C0.935812 4.07477 0.909648 4.51898 0.897776 4.95904C0.892349 5.16103 0.890021 5.36302 0.888703 5.56496C0.887304 5.80498 0.88777 6.04483 0.88777 6.28527V38.6431C0.88777 38.8835 0.887304 39.1229 0.888703 39.3634C0.890021 39.5654 0.892349 39.7673 0.897776 39.9693C0.909648 40.409 0.935812 40.8532 1.01441 41.2882C1.0934 41.7307 1.22323 42.1419 1.42755 42.5432C1.62809 42.938 1.89046 43.299 2.20353 43.6116C2.51647 43.9252 2.87758 44.1875 3.27202 44.3876C3.67324 44.5924 4.08451 44.7222 4.52647 44.8017C4.96148 44.8794 5.40578 44.9059 5.8463 44.9178C6.04829 44.9223 6.25027 44.9251 6.45273 44.926C6.69224 44.9279 6.9326 44.9279 7.17253 44.9279H64.7817C65.0213 44.9279 65.2616 44.9279 65.5011 44.926C65.7031 44.9251 65.9051 44.9223 66.108 44.9178C66.5476 44.9059 66.9918 44.8794 67.4278 44.8017C67.8692 44.7222 68.2806 44.5924 68.6818 44.3876C69.0767 44.1875 69.4367 43.9252 69.7503 43.6116C70.0629 43.299 70.3252 42.938 70.5263 42.5432C70.7311 42.1419 70.8608 41.7307 70.9394 41.2882C71.018 40.8532 71.0436 40.409 71.0555 39.9693C71.061 39.7673 71.0637 39.5654 71.0646 39.3634C71.0665 39.1229 71.0665 38.8835 71.0665 38.6431V6.28527C71.0665 6.04483 71.0665 5.80498 71.0646 5.56496C71.0637 5.36302 71.061 5.16103 71.0555 4.95904C71.0436 4.51898 71.018 4.07477 70.9394 3.63963C70.8608 3.19733 70.7311 2.78594 70.5263 2.38472C70.3252 1.98986 70.0629 1.62934 69.7503 1.31627C69.4367 1.0032 69.0767 0.740833 68.6818 0.540245C68.2806 0.335968 67.8692 0.206227 67.4278 0.126687C66.9918 0.0485041 66.5476 0.0225137 66.108 0.0105997C65.9051 0.00508785 65.7031 0.00284071 65.5011 0.00139916C65.2616 0 65.0213 0 64.7817 0Z" fill="#000008"/>
<path d="M64.7818 1.49752L65.4904 1.49888C65.6824 1.50023 65.8744 1.50231 66.0675 1.50757C66.4033 1.51664 66.7961 1.53483 67.1622 1.60046C67.4805 1.65779 67.7475 1.74496 68.0036 1.87538C68.2565 2.00389 68.4883 2.1723 68.6906 2.37433C68.8937 2.57771 69.0623 2.8098 69.1925 3.06551C69.3222 3.31969 69.4088 3.58536 69.4658 3.90598C69.5313 4.26815 69.5494 4.66203 69.5586 4.99991C69.5637 5.19062 69.5663 5.38133 69.5672 5.57658C69.569 5.81269 69.569 6.04869 69.569 6.28527V38.6431C69.569 38.8796 69.569 39.1152 69.5672 39.3564C69.5663 39.547 69.5637 39.7377 69.5585 39.9288C69.5494 40.2662 69.5313 40.6598 69.465 41.0263C69.4088 41.3425 69.3222 41.6082 69.1918 41.8637C69.062 42.1187 68.8936 42.3506 68.6914 42.5527C68.488 42.7562 68.257 42.9241 68.0011 43.0538C67.7468 43.1836 67.4803 43.2707 67.1652 43.3274C66.7916 43.394 66.3823 43.4123 66.0741 43.4206C65.8802 43.425 65.6872 43.4276 65.4895 43.4286C65.2539 43.4304 65.0174 43.4303 64.7818 43.4303H7.17254C7.1694 43.4303 7.16635 43.4303 7.16317 43.4303C6.93023 43.4303 6.69683 43.4303 6.45965 43.4285C6.26627 43.4276 6.07331 43.425 5.88676 43.4208C5.57148 43.4123 5.16195 43.394 4.79143 43.3278C4.47357 43.2707 4.20709 43.1836 3.94948 43.0521C3.69598 42.9235 3.4652 42.7558 3.26164 42.5519C3.05965 42.3503 2.8918 42.1192 2.76202 41.8637C2.63211 41.6085 2.54519 41.342 2.48804 41.022C2.42198 40.6563 2.40383 40.2642 2.39476 39.9291C2.38958 39.7372 2.38742 39.5454 2.38619 39.3547L2.38526 38.7917V6.13662L2.38615 5.57479C2.38742 5.38294 2.38958 5.19113 2.39476 4.99944C2.40383 4.66403 2.42198 4.27175 2.48859 3.90297C2.54523 3.58587 2.63211 3.31935 2.76269 3.06288C2.89146 2.80938 3.05961 2.57797 3.26266 2.37496C3.46491 2.17264 3.69644 2.00444 3.95155 1.8747C4.20641 1.74492 4.4734 1.65779 4.79126 1.60059C5.1575 1.53479 5.55058 1.51664 5.88722 1.50753C6.07912 1.50231 6.27102 1.50023 6.46147 1.49892L7.17254 1.49752H64.7818Z" fill="white"/>
<path d="M20.046 15.1111C20.6469 14.3595 21.0547 13.3504 20.9471 12.3191C20.0675 12.3629 18.9941 12.8994 18.3726 13.6516C17.8146 14.2957 17.3208 15.3472 17.4495 16.3352C18.4369 16.4208 19.4234 15.8416 20.046 15.1111Z" fill="#000008"/>
<path d="M20.9359 16.5281C19.5019 16.4427 18.2827 17.3419 17.5979 17.3419C16.9127 17.3419 15.8641 16.5711 14.7299 16.5919C13.2537 16.6136 11.8839 17.4482 11.1348 18.7758C9.59396 21.4315 10.7282 25.3708 12.2265 27.5337C12.9542 28.6037 13.8311 29.7819 14.9866 29.7396C16.0783 29.6968 16.5062 29.0327 17.8333 29.0327C19.1594 29.0327 19.5448 29.7396 20.7005 29.7182C21.899 29.6968 22.6482 28.6476 23.3759 27.5765C24.2106 26.3567 24.5523 25.1789 24.5738 25.1142C24.5523 25.0928 22.2628 24.2145 22.2416 21.5809C22.22 19.3757 24.0391 18.3268 24.1247 18.2618C23.0974 16.7424 21.4924 16.5711 20.9359 16.5281Z" fill="#000008"/>
<path d="M33.4218 13.5437C36.5385 13.5437 38.7088 15.6921 38.7088 18.82C38.7088 21.959 36.4938 24.1186 33.3436 24.1186H29.8928V29.6063H27.3996V13.5437L33.4218 13.5437ZM29.8928 22.0258H32.7536C34.9243 22.0258 36.1597 20.8571 36.1597 18.8312C36.1597 16.8054 34.9243 15.6477 32.7648 15.6477H29.8928V22.0258Z" fill="#000008"/>
<path d="M39.3602 26.2781C39.3602 24.2298 40.9297 22.972 43.7128 22.8162L46.9184 22.627V21.7254C46.9184 20.423 46.0389 19.6438 44.5699 19.6438C43.1782 19.6438 42.3099 20.3116 42.0986 21.3581H39.8278C39.9614 19.243 41.7645 17.6846 44.6588 17.6846C47.4972 17.6846 49.3115 19.1874 49.3115 21.5361V29.6063H47.0073V27.6806H46.9519C46.273 28.983 44.7923 29.8067 43.2563 29.8067C40.9632 29.8067 39.3602 28.3818 39.3602 26.2781ZM46.9184 25.2207V24.2968L44.0353 24.4748C42.5993 24.5751 41.7868 25.2095 41.7868 26.2114C41.7868 27.2353 42.6328 27.9033 43.9241 27.9033C45.6048 27.9033 46.9184 26.7456 46.9184 25.2207Z" fill="#000008"/>
<path d="M51.4869 33.9143V31.9662C51.6647 32.0107 52.0654 32.0107 52.2659 32.0107C53.3789 32.0107 53.9801 31.5433 54.3473 30.3411C54.3473 30.3188 54.559 29.6287 54.559 29.6175L50.3292 17.8961H52.9336L55.8949 27.4247H55.9391L58.9004 17.8961H61.4383L57.0522 30.2185C56.0508 33.0572 54.8931 33.9699 52.4664 33.9699C52.2659 33.9699 51.6647 33.9476 51.4869 33.9143Z" fill="#000008"/>
</svg>
