<svg width="47" height="22" viewBox="0 0 47 22" fill="none" xmlns="http://www.w3.org/2000/svg">
<path d="M39.796 0.441406H7.12194C5.265 0.441406 3.48413 0.879407 2.17108 1.65905C0.858026 2.4387 0.120361 3.49613 0.120361 4.59871V17.0706C0.120361 18.1732 0.858026 19.2307 2.17108 20.0103C3.48413 20.7899 5.265 21.2279 7.12194 21.2279H39.796C41.6529 21.2279 43.4338 20.7899 44.7468 20.0103C46.0599 19.2307 46.7975 18.1732 46.7975 17.0706V4.59871C46.7975 3.49613 46.0599 2.4387 44.7468 1.65905C43.4338 0.879407 41.6529 0.441406 39.796 0.441406ZM42.1298 17.0706C42.1298 17.4382 41.8839 17.7906 41.4463 18.0505C41.0086 18.3104 40.4149 18.4564 39.796 18.4564H7.12194C6.50296 18.4564 5.90933 18.3104 5.47165 18.0505C5.03397 17.7906 4.78808 17.4382 4.78808 17.0706V4.59871C4.78808 4.23119 5.03397 3.87871 5.47165 3.61883C5.90933 3.35895 6.50296 3.21295 7.12194 3.21295H39.796C40.4149 3.21295 41.0086 3.35895 41.4463 3.61883C41.8839 3.87871 42.1298 4.23119 42.1298 4.59871V17.0706ZM32.7944 8.75602C31.5536 8.76118 30.3374 8.96204 29.2703 9.33805C28.2072 8.96351 26.9961 8.76276 25.76 8.75619C24.524 8.74962 23.307 8.93748 22.2328 9.30066C21.1587 9.66385 20.2656 10.1894 19.6443 10.8239C19.0231 11.4585 18.6958 12.1794 18.6958 12.9133C18.6958 13.6473 19.0231 14.3682 19.6443 15.0027C20.2656 15.6372 21.1587 16.1628 22.2328 16.526C23.307 16.8892 24.524 17.077 25.76 17.0705C26.9961 17.0639 28.2072 16.8632 29.2703 16.4886C30.1987 16.8157 31.2419 17.0108 32.3183 17.0589C33.3948 17.1069 34.4754 17.0064 35.4757 16.7654C36.476 16.5244 37.3689 16.1493 38.0845 15.6694C38.8002 15.1895 39.3193 14.6179 39.6013 13.9992C39.8833 13.3805 39.9205 12.7314 39.7101 12.1027C39.4996 11.474 39.0472 10.8828 38.3881 10.3751C37.729 9.86745 36.8812 9.45716 35.9108 9.17629C34.9405 8.89542 33.8739 8.75159 32.7944 8.75602ZM26.1896 14.2991C26.0576 14.3058 25.9248 14.3058 25.7928 14.2991C25.1738 14.2991 24.5802 14.1531 24.1425 13.8932C23.7048 13.6333 23.459 13.2809 23.459 12.9133C23.459 12.5458 23.7048 12.1933 24.1425 11.9334C24.5802 11.6736 25.1738 11.5276 25.7928 11.5276C25.9248 11.5209 26.0576 11.5209 26.1896 11.5276C25.6614 12.3867 25.6614 13.3291 26.1896 14.1882V14.2991ZM32.7944 14.2991C32.3328 14.2991 31.8816 14.2178 31.4978 14.0656C31.114 13.9133 30.8148 13.6969 30.6382 13.4436C30.4615 13.1904 30.4153 12.9118 30.5054 12.643C30.5954 12.3742 30.8177 12.1272 31.1441 11.9334C31.4705 11.7396 31.8863 11.6077 32.3391 11.5542C32.7918 11.5007 33.2611 11.5282 33.6875 11.633C34.114 11.7379 34.4785 11.9156 34.7349 12.1434C34.9914 12.3713 35.1282 12.6393 35.1282 12.9133C35.1282 13.2809 34.8824 13.6333 34.4447 13.8932C34.007 14.1531 33.4134 14.2991 32.7944 14.2991Z" fill="#6E6E6E" fill-opacity="0.5"/>
</svg>
