<svg width="77" height="25" viewBox="0 0 77 25" fill="none" xmlns="http://www.w3.org/2000/svg">
<path d="M38.082 0.49114L32.954 24.4622H26.7532L31.882 0.49114H38.082ZM64.1713 15.9693L67.436 6.96737L69.3145 15.9693H64.1713ZM71.0898 24.4622H76.8256L71.8205 0.49114H66.5263C65.3366 0.49114 64.3329 1.18307 63.886 2.2498L54.5829 24.4622H61.0948L62.3876 20.8826H70.3433L71.0898 24.4622ZM54.9061 16.6354C54.9326 10.3087 46.1568 9.96043 46.2175 7.13429C46.2357 6.27317 47.0559 5.3597 48.8471 5.12526C49.7371 5.00918 52.1839 4.92041 54.9622 6.19881L56.0502 1.11555C54.5578 0.573838 52.6376 0.0526123 50.2492 0.0526123C44.1205 0.0526123 39.8065 3.31122 39.7701 7.9772C39.7314 11.4278 42.8497 13.3533 45.1993 14.5005C47.615 15.6757 48.4268 16.4283 48.4162 17.4791C48.4003 19.0883 46.4891 19.7969 44.7062 19.825C41.5879 19.8743 39.7785 18.9836 38.3362 18.3114L37.2125 23.5639C38.6609 24.2292 41.3353 24.8074 44.1098 24.837C50.6233 24.837 54.8848 21.6186 54.9061 16.6354ZM29.2212 0.49114L19.1746 24.4622H12.6187L7.67501 5.33162C7.37456 4.15337 7.11357 3.72243 6.20086 3.22548C4.71154 2.41747 2.24957 1.65801 0.0834961 1.18762L0.231442 0.49114H10.7826C12.127 0.49114 13.3372 1.3864 13.6421 2.9349L16.2536 16.8069L22.7063 0.49114H29.2212Z" fill="#1434CB"/>
</svg>
