<svg width="109" height="27" viewBox="0 0 109 27" fill="none" xmlns="http://www.w3.org/2000/svg">
<path d="M6.36404 25.7458L6.82214 22.8367L5.80182 22.813H0.929627L4.31558 1.34589C4.32592 1.28108 4.3602 1.22065 4.41012 1.17775C4.46004 1.13484 4.52408 1.11119 4.59064 1.11119H12.8059C15.5333 1.11119 17.4154 1.67868 18.3982 2.79874C18.8588 3.3242 19.1522 3.87328 19.2942 4.47754C19.4429 5.1116 19.4457 5.86911 19.3002 6.79303L19.2896 6.86046V7.45245L19.7505 7.71344C20.1385 7.91922 20.4466 8.1548 20.6831 8.42454C21.0774 8.87379 21.3323 9.44477 21.44 10.1217C21.5512 10.8179 21.5143 11.6464 21.3323 12.5843C21.122 13.6632 20.7822 14.6029 20.3233 15.3718C19.901 16.0803 19.3633 16.6678 18.7249 17.1233C18.1153 17.5559 17.3909 17.8844 16.5721 18.0946C15.7784 18.3011 14.8738 18.4055 13.8815 18.4055H13.2421C12.785 18.4055 12.3408 18.5701 11.9923 18.8653C11.6429 19.1665 11.4115 19.5779 11.3406 20.0282L11.2925 20.2901L10.4832 25.4174L10.4463 25.6057C10.4368 25.6654 10.4201 25.6952 10.3957 25.7153C10.3737 25.7335 10.3422 25.7458 10.3115 25.7458H6.36404Z" fill="#253B80"/>
<path d="M20.1852 6.92998C20.1607 7.08673 20.1327 7.24698 20.1012 7.41162C19.0176 12.9735 15.3112 14.8949 10.5772 14.8949H8.16691C7.58805 14.8949 7.1002 15.3152 7.00994 15.8862L5.42638 25.9301C5.36764 26.3049 5.65682 26.643 6.035 26.643H10.3102C10.8164 26.643 11.2463 26.2752 11.326 25.7761L11.3681 25.5588L12.1731 20.4514L12.2248 20.1713C12.3034 19.6704 12.7343 19.3026 13.2405 19.3026H13.8799C18.0217 19.3026 21.2642 17.6212 22.2119 12.7554C22.6078 10.7228 22.4028 9.02564 21.3552 7.83198C21.0383 7.47205 20.645 7.17342 20.1852 6.92998Z" fill="#179BD7"/>
<path d="M19.0496 6.4767C18.8842 6.42853 18.7132 6.38474 18.538 6.34534C18.362 6.30682 18.1815 6.27266 17.996 6.24289C17.346 6.13779 16.634 6.08788 15.8711 6.08788H9.432C9.27342 6.08788 9.12291 6.12378 8.98802 6.18859C8.69103 6.33132 8.47043 6.61245 8.41698 6.95661L7.04697 15.6317L7.00764 15.8848C7.09789 15.3138 7.58574 14.8935 8.16461 14.8935H10.5749C15.3089 14.8935 19.0155 12.9712 20.0989 7.41025C20.1312 7.24561 20.1584 7.08535 20.1828 6.9286C19.9088 6.78322 19.6118 6.65886 19.2921 6.55289C19.2134 6.52662 19.132 6.50123 19.0496 6.4767Z" fill="#222D65"/>
<path d="M8.42021 6.9572C8.47366 6.61302 8.69451 6.33191 8.99125 6.19003C9.12715 6.12522 9.2769 6.08932 9.43523 6.08932H15.8746C16.6375 6.08932 17.3495 6.13924 17.9992 6.24433C18.185 6.27411 18.3655 6.30826 18.5415 6.34678C18.7167 6.38621 18.8874 6.43 19.053 6.47815C19.1352 6.50268 19.2167 6.52806 19.2963 6.55347C19.616 6.65943 19.913 6.78467 20.1871 6.92917C20.5095 4.87379 20.1846 3.47436 19.0732 2.20714C17.8479 0.812098 15.6363 0.214844 12.8066 0.214844H4.59103C4.01292 0.214844 3.52003 0.63518 3.43053 1.20705L0.00878018 22.8949C-0.0587876 23.3239 0.272244 23.7111 0.704879 23.7111H5.777L8.42021 6.9572Z" fill="#253B80"/>
<path fill-rule="evenodd" clip-rule="evenodd" d="M40.5557 5.88399H34.5401C34.1285 5.88399 33.7784 6.18314 33.7142 6.58933L31.2812 22.0133C31.2328 22.3177 31.4686 22.592 31.7773 22.592H34.6492C35.0608 22.592 35.4109 22.2929 35.4751 21.8859L36.1313 17.7259C36.1946 17.3184 36.5456 17.0197 36.9564 17.0197H38.8607C42.8233 17.0197 45.1101 15.1023 45.7077 11.3029C45.9768 9.64066 45.7191 8.33457 44.9404 7.41962C44.0856 6.41554 42.5689 5.88399 40.5557 5.88399ZM41.2497 11.5174C40.9208 13.6757 39.2715 13.6757 37.6768 13.6757H36.769L37.4058 9.64473C37.4437 9.40134 37.6548 9.22185 37.9011 9.22185H38.3171C39.4034 9.22185 40.4282 9.22185 40.9578 9.84091C41.2733 10.2105 41.3702 10.7591 41.2497 11.5174ZM58.5375 11.4482H55.6568C55.4114 11.4482 55.1993 11.6277 55.1615 11.8715L55.0341 12.6769L54.8326 12.3851C54.209 11.4799 52.8185 11.1775 51.4304 11.1775C48.2469 11.1775 45.5282 13.5882 44.9986 16.97C44.7234 18.6567 45.1146 20.2697 46.0716 21.3946C46.9496 22.4288 48.2058 22.8598 49.7001 22.8598C52.2649 22.8598 53.6875 21.2107 53.6875 21.2107L53.5589 22.0112C53.5105 22.3173 53.7461 22.5916 54.0531 22.5916H56.648C57.0608 22.5916 57.4088 22.2925 57.4739 21.8855L59.0309 12.0269C59.0801 11.7237 58.8453 11.4482 58.5375 11.4482ZM54.522 17.0543C54.244 18.6998 52.9377 19.8044 51.2721 19.8044C50.4356 19.8044 49.7668 19.5362 49.3378 19.0279C48.912 18.5232 48.75 17.8044 48.8855 17.0042C49.1452 15.3725 50.4735 14.2321 52.1139 14.2321C52.9316 14.2321 53.5968 14.5036 54.0347 15.0164C54.4735 15.5345 54.6478 16.2574 54.522 17.0543ZM70.9848 11.4478H73.8797C74.2851 11.4478 74.5216 11.9024 74.2913 12.2349L64.6633 26.131C64.5074 26.356 64.2505 26.4899 63.9762 26.4899H61.0849C60.6778 26.4899 60.4401 26.0317 60.6758 25.6983L63.6737 21.4671L60.4853 12.1108C60.375 11.7856 60.6151 11.4478 60.9611 11.4478H63.8056C64.1752 11.4478 64.5013 11.6904 64.6079 12.044L66.3 17.6949L70.2928 11.8145C70.4491 11.5849 70.7088 11.4478 70.9848 11.4478Z" fill="#253B80"/>
<path fill-rule="evenodd" clip-rule="evenodd" d="M102.372 22.0119L104.841 6.30591C104.879 6.06211 105.09 5.88262 105.335 5.8818H108.115C108.422 5.8818 108.657 6.15694 108.609 6.46138L106.174 21.8845C106.111 22.2915 105.761 22.5907 105.348 22.5907H102.866C102.559 22.5907 102.324 22.3163 102.372 22.0119ZM83.4648 5.88262H77.4482C77.0375 5.88262 76.6874 6.18177 76.6231 6.58796L74.1902 22.0119C74.1418 22.3163 74.3774 22.5907 74.6848 22.5907H77.7718C78.0588 22.5907 78.3042 22.3815 78.349 22.0966L79.0394 17.7245C79.1029 17.3171 79.4538 17.0183 79.8645 17.0183H81.7678C85.7313 17.0183 88.0177 15.1009 88.6157 11.3015C88.8856 9.63929 88.6263 8.33321 87.848 7.41825C86.9936 6.41417 85.4781 5.88262 83.4648 5.88262ZM84.1589 11.516C83.8308 13.6744 82.1814 13.6744 80.5858 13.6744H79.6789L80.3167 9.64336C80.3546 9.39997 80.5638 9.22048 80.8109 9.22048H81.2269C82.3125 9.22048 83.3383 9.22048 83.8674 9.83954C84.1833 10.2091 84.2794 10.7577 84.1589 11.516ZM101.445 11.4468H98.5664C98.3189 11.4468 98.1089 11.6263 98.0719 11.8701L97.9445 12.6756L97.7422 12.3837C97.1186 11.4786 95.7289 11.1762 94.3408 11.1762C91.1573 11.1762 88.4394 13.5869 87.9098 16.9687C87.6355 18.6553 88.025 20.2683 88.982 21.3933C89.8617 22.4275 91.1162 22.8585 92.6105 22.8585C95.1753 22.8585 96.5975 21.2093 96.5975 21.2093L96.4693 22.0099C96.4209 22.3159 96.6566 22.5903 96.9655 22.5903H99.5592C99.97 22.5903 100.32 22.2911 100.384 21.8841L101.942 12.0256C101.99 11.7224 101.754 11.4468 101.445 11.4468ZM97.43 17.0529C97.1536 18.6985 95.8457 19.8031 94.1796 19.8031C93.3448 19.8031 92.6748 19.5349 92.2453 19.0265C91.8196 18.5218 91.6596 17.803 91.7935 17.0029C92.0544 15.3712 93.381 14.2307 95.0214 14.2307C95.8396 14.2307 96.5043 14.5022 96.9427 15.015C97.3831 15.5332 97.5574 16.256 97.43 17.0529Z" fill="#179BD7"/>
</svg>
