<svg width="27" height="12" viewBox="0 0 27 12" fill="none" xmlns="http://www.w3.org/2000/svg">
<path d="M5.11399 1.47626C5.43171 1.07886 5.64731 0.545267 5.59045 0C5.12535 0.0231267 4.55779 0.306842 4.2292 0.704554C3.93415 1.04513 3.67302 1.60107 3.7411 2.12348C4.2632 2.16876 4.78481 1.86251 5.11399 1.47626Z" fill="#000008"/>
<path d="M5.58454 2.22549C4.82632 2.18032 4.18166 2.65581 3.81958 2.65581C3.45729 2.65581 2.90282 2.24824 2.30312 2.25923C1.52256 2.27069 0.798301 2.71203 0.402203 3.41395C-0.412502 4.81814 0.187203 6.90106 0.979461 8.04469C1.3642 8.61049 1.82787 9.23347 2.43884 9.21109C3.01609 9.18844 3.24236 8.83731 3.94404 8.83731C4.6452 8.83731 4.84902 9.21109 5.46008 9.19977C6.09376 9.18844 6.48993 8.63369 6.87467 8.06735C7.31603 7.42237 7.49671 6.79959 7.50808 6.76541C7.49671 6.75408 6.28615 6.28968 6.27492 4.89716C6.2635 3.73118 7.22535 3.17657 7.27062 3.14218C6.72745 2.33883 5.87876 2.24824 5.58454 2.22549Z" fill="#000008"/>
<path d="M12.1864 0.64752C13.8344 0.64752 14.9819 1.78347 14.9819 3.43734C14.9819 5.09711 13.8108 6.23897 12.1451 6.23897H10.3205V9.14061H9.00222V0.647518L12.1864 0.64752ZM10.3205 5.13242H11.8331C12.9809 5.13242 13.6341 4.51449 13.6341 3.44324C13.6341 2.37211 12.9809 1.75997 11.839 1.75997H10.3205V5.13242Z" fill="#000008"/>
<path d="M15.3263 7.38081C15.3263 6.29776 16.1562 5.63271 17.6278 5.55029L19.3227 5.45028V4.97357C19.3227 4.28492 18.8577 3.87293 18.081 3.87293C17.3451 3.87293 16.886 4.226 16.7743 4.77933H15.5736C15.6442 3.66097 16.5976 2.83699 18.128 2.83699C19.6288 2.83699 20.5881 3.63157 20.5881 4.87344V9.14059H19.3697V8.12237H19.3404C18.9815 8.81102 18.1986 9.24651 17.3864 9.24651C16.1739 9.24651 15.3263 8.49315 15.3263 7.38081ZM19.3227 6.82169V6.33318L17.7983 6.42729C17.039 6.48031 16.6094 6.81578 16.6094 7.3455C16.6094 7.88691 17.0567 8.24009 17.7395 8.24009C18.6282 8.24009 19.3227 7.62796 19.3227 6.82169Z" fill="#000008"/>
<path d="M21.7384 11.4184V10.3884C21.8324 10.4119 22.0442 10.4119 22.1502 10.4119C22.7388 10.4119 23.0566 10.1647 23.2508 9.52908C23.2508 9.51728 23.3627 9.1524 23.3627 9.1465L21.1262 2.94881H22.5033L24.0691 7.98704H24.0924L25.6582 2.94881H27.0001L24.681 9.46426C24.1515 10.9652 23.5393 11.4478 22.2563 11.4478C22.1502 11.4478 21.8324 11.436 21.7384 11.4184Z" fill="#000008"/>
</svg>
