<svg width="27" height="17" viewBox="0 0 27 17" fill="none" xmlns="http://www.w3.org/2000/svg">
<path d="M17.1414 1.71329H10.1296V14.3137H17.1414V1.71329Z" fill="#FF5F00"/>
<path d="M10.5748 8.01348C10.5737 6.79997 10.8487 5.60211 11.379 4.51059C11.9092 3.41907 12.6809 2.4625 13.6355 1.71329C12.4533 0.784086 11.0336 0.206231 9.53858 0.0457672C8.04354 -0.114697 6.53351 0.1487 5.1811 0.805862C3.82868 1.46302 2.68843 2.48744 1.8907 3.762C1.09296 5.03656 0.669922 6.50985 0.669922 8.01348C0.669922 9.51711 1.09296 10.9904 1.8907 12.265C2.68843 13.5395 3.82868 14.5639 5.1811 15.2211C6.53351 15.8783 8.04354 16.1417 9.53858 15.9812C11.0336 15.8207 12.4533 15.2429 13.6355 14.3137C12.6809 13.5645 11.9093 12.6079 11.379 11.5164C10.8487 10.4248 10.5737 9.22698 10.5748 8.01348Z" fill="#EB001B"/>
<path d="M26.6007 8.01348C26.6007 9.51708 26.1777 10.9904 25.38 12.2649C24.5824 13.5395 23.4421 14.5639 22.0898 15.2211C20.7374 15.8782 19.2274 16.1417 17.7323 15.9812C16.2373 15.8207 14.8176 15.2429 13.6355 14.3137C14.5893 13.5637 15.3603 12.607 15.8905 11.5156C16.4207 10.4243 16.6962 9.22679 16.6962 8.01348C16.6962 6.80016 16.4207 5.60268 15.8905 4.51133C15.3603 3.41998 14.5893 2.46326 13.6355 1.71329C14.8176 0.784084 16.2373 0.206227 17.7323 0.0457651C19.2274 -0.114697 20.7374 0.148711 22.0898 0.80588C23.4421 1.46305 24.5824 2.48746 25.38 3.76202C26.1777 5.03659 26.6007 6.50987 26.6007 8.01348Z" fill="#F79E1B"/>
<path d="M25.8362 12.9791V12.7211H25.9402V12.6686H25.6753V12.7211H25.7793V12.9791H25.8362ZM26.3505 12.9791V12.6681H26.2693L26.1759 12.882L26.0824 12.6681H26.0012V12.9791H26.0585V12.7445L26.1461 12.9468H26.2056L26.2932 12.744V12.9791H26.3505Z" fill="#F79E1B"/>
</svg>
