<svg width="143" height="26" viewBox="0 0 143 26" fill="none" xmlns="http://www.w3.org/2000/svg">
<path d="M63.3946 17.2554V11.9656C63.3946 9.93967 62.1565 8.6172 60.0462 8.6172C58.977 8.6172 57.8515 8.98299 57.0355 10.1085C56.4165 9.15182 55.5442 8.6172 54.2217 8.6172C53.3495 8.6172 52.449 8.87044 51.7456 9.85526V8.78602H49.9167V17.2554H51.7738V12.5846C51.7738 11.0933 52.5616 10.3899 53.7997 10.3899C55.0377 10.3899 55.6567 11.1777 55.6567 12.5846V17.2554H57.5138V12.5846C57.5138 11.0933 58.3861 10.3899 59.5397 10.3899C60.7778 10.3899 61.3968 11.1777 61.3968 12.5846V17.2554H63.3946ZM90.8287 8.78602H87.818V6.2255H85.9609V8.78602H84.2727V10.4743H85.9609V14.3573C85.9609 16.2988 86.7488 17.4524 88.8591 17.4524C89.6469 17.4524 90.5473 17.1992 91.1382 16.8334L90.6036 15.2577C90.069 15.6235 89.45 15.7079 89.0279 15.7079C88.1556 15.7079 87.7899 15.1733 87.7899 14.301V10.5024H90.8006V8.78602H90.8287ZM106.501 8.6172C105.432 8.6172 104.729 9.15182 104.307 9.85526V8.78602H102.45V17.2554H104.307V12.5002C104.307 11.0933 104.926 10.3055 106.079 10.3055C106.445 10.3055 106.867 10.3899 107.233 10.4743L107.768 8.70161C107.402 8.6172 106.867 8.6172 106.501 8.6172ZM82.7814 9.48946C81.9091 8.87044 80.6711 8.6172 79.3486 8.6172C77.2383 8.6172 75.8314 9.68643 75.8314 11.3465C75.8314 12.7534 76.9006 13.5413 78.7296 13.8226L79.6018 13.9071C80.5585 14.0759 81.0931 14.3573 81.0931 14.7793C81.0931 15.3984 80.3897 15.8486 79.1516 15.8486C77.9136 15.8486 76.9569 15.3984 76.3379 14.9763L75.4656 16.3832C76.4223 17.0866 77.7447 17.4524 79.0672 17.4524C81.5433 17.4524 82.9502 16.2988 82.9502 14.7231C82.9502 13.2318 81.7966 12.4439 80.052 12.1625L79.1798 12.0781C78.3919 11.9937 77.7729 11.8249 77.7729 11.2903C77.7729 10.6712 78.3919 10.3336 79.3486 10.3336C80.4178 10.3336 81.4589 10.7838 81.9935 11.037L82.7814 9.48946ZM131.994 8.6172C130.925 8.6172 130.221 9.15182 129.799 9.85526V8.78602H127.942V17.2554H129.799V12.5002C129.799 11.0933 130.418 10.3055 131.572 10.3055C131.938 10.3055 132.36 10.3899 132.726 10.4743L133.26 8.70161C132.866 8.6172 132.332 8.6172 131.994 8.6172ZM108.358 13.0067C108.358 15.5672 110.131 17.4243 112.86 17.4243C114.098 17.4243 114.971 17.171 115.871 16.4676L114.999 14.9763C114.295 15.5109 113.592 15.7641 112.804 15.7641C111.313 15.7641 110.244 14.6949 110.244 13.0348C110.244 11.4591 111.313 10.3899 112.804 10.3055C113.592 10.3055 114.295 10.5587 114.999 11.0933L115.871 9.60201C114.999 8.89857 114.098 8.64534 112.86 8.64534C110.131 8.6172 108.358 10.4743 108.358 13.0067ZM125.466 8.78602H123.609V9.85526C122.99 9.0674 122.118 8.6172 120.964 8.6172C118.572 8.6172 116.743 10.4743 116.743 13.0348C116.743 15.5953 118.601 17.4524 120.964 17.4524C122.202 17.4524 123.074 17.0022 123.609 16.2143V17.2836H125.466V8.78602ZM118.685 13.0067C118.685 11.5154 119.642 10.2773 121.245 10.2773C122.737 10.2773 123.806 11.431 123.806 13.0067C123.806 14.498 122.737 15.736 121.245 15.736C119.642 15.6516 118.685 14.5261 118.685 13.0067ZM96.5406 8.6172C94.0645 8.6172 92.32 10.3899 92.32 13.0348C92.32 15.6797 94.0927 17.4524 96.6532 17.4524C97.8913 17.4524 99.1293 17.0866 100.086 16.2988L99.2137 14.9763C98.5103 15.5109 97.638 15.8486 96.7376 15.8486C95.584 15.8486 94.4585 15.3139 94.1771 13.8226H100.424V13.1192C100.508 10.3617 98.9323 8.6172 96.5406 8.6172ZM96.5406 10.1929C97.6943 10.1929 98.4821 10.8963 98.651 12.2188H94.2334C94.4303 11.0933 95.2182 10.1929 96.5406 10.1929ZM142.489 5.43765H140.632V9.85526C140.013 9.0674 139.141 8.6172 137.987 8.6172C135.596 8.6172 133.767 10.4743 133.767 13.0348C133.767 15.5953 135.624 17.4524 137.987 17.4524C139.225 17.4524 140.098 17.0022 140.632 16.2143V17.2836H142.489V5.43765ZM135.68 13.0067C135.68 11.5154 136.637 10.2773 138.241 10.2773C139.732 10.2773 140.801 11.431 140.801 13.0067C140.801 14.498 139.732 15.736 138.241 15.736C136.665 15.6516 135.68 14.5261 135.68 13.0067ZM73.8055 8.78602H71.9484V9.85526C71.3294 9.0674 70.4571 8.6172 69.3035 8.6172C66.9118 8.6172 65.0828 10.4743 65.0828 13.0348C65.0828 15.5953 66.9399 17.4524 69.3035 17.4524C70.5415 17.4524 71.4138 17.0022 71.9484 16.2143V17.2836H73.8055V8.78602ZM66.9399 13.0067C66.9399 11.5154 67.8966 10.2773 69.5004 10.2773C70.9917 10.2773 72.0609 11.431 72.0609 13.0067C72.0609 14.498 70.9917 15.736 69.5004 15.736C67.8966 15.6516 66.9399 14.5261 66.9399 13.0067Z" fill="#000008"/>
<path d="M26.6152 2.92514H15.5153V22.8643H26.6152V2.92514Z" fill="#FF5F00"/>
<path d="M16.2126 12.9004C16.2126 8.85179 18.1132 5.25306 21.0372 2.92514C18.8892 1.23823 16.1789 0.214844 13.2099 0.214844C6.20365 0.214844 0.524414 5.88284 0.524414 12.9004C0.524414 19.9066 6.19241 25.5859 13.2099 25.5859C16.1676 25.5859 18.8779 24.5625 21.0372 22.8756C18.1132 20.5814 16.2126 16.9489 16.2126 12.9004Z" fill="#EB001B"/>
<path d="M41.5836 12.9004C41.5836 19.9066 35.9156 25.5859 28.8981 25.5859C25.9404 25.5859 23.2301 24.5625 21.0709 22.8756C24.0286 20.5477 25.8954 16.9602 25.8954 12.9004C25.8954 8.85179 23.9948 5.25307 21.0709 2.92514C23.2189 1.23824 25.9291 0.214848 28.8981 0.214848C35.9156 0.214848 41.5836 5.91658 41.5836 12.9004Z" fill="#F79E1B"/>
</svg>
