<svg width="40" height="40" viewBox="0 0 40 40" fill="none" xmlns="http://www.w3.org/2000/svg">
<rect width="40" height="40" rx="20" fill="#1F4E79"/>
<path d="M23.998 16.5H25.998C25.998 13.663 23.243 12.369 20.998 12.071V10H18.998V12.071C16.753 12.369 13.998 13.663 13.998 16.5C13.998 19.206 16.664 20.613 18.998 20.93V25.9C17.55 25.649 15.998 24.876 15.998 23.5H13.998C13.998 26.089 16.423 27.619 18.998 27.936V30H20.998V27.93C23.243 27.632 25.998 26.337 25.998 23.5C25.998 20.663 23.243 19.369 20.998 19.071V14.1C22.328 14.339 23.998 15.041 23.998 16.5ZM15.998 16.5C15.998 15.041 17.668 14.339 18.998 14.1V18.899C17.627 18.646 15.998 17.897 15.998 16.5ZM23.998 23.5C23.998 24.959 22.328 25.661 20.998 25.9V21.1C22.328 21.339 23.998 22.041 23.998 23.5Z" fill="white"/>
</svg>
