<svg width="40" height="40" viewBox="0 0 40 40" fill="none" xmlns="http://www.w3.org/2000/svg">
<rect width="40" height="40" rx="20" fill="#329DFD"/>
<path d="M27 11H23.82C23.4 9.84 22.3 9 21 9C19.7 9 18.6 9.84 18.18 11H15C13.9 11 13 11.9 13 13V28C13 29.1 13.9 30 15 30H21.11C20.5176 29.4264 20.0362 28.7484 19.69 28H15V13H17V14C17 15.1 17.9 16 19 16H23C24.1 16 25 15.1 25 14V13H27V18.08C27.71 18.18 28.38 18.39 29 18.68V13C29 11.9 28.1 11 27 11ZM21 13C20.45 13 20 12.55 20 12C20 11.45 20.45 11 21 11C21.55 11 22 11.45 22 12C22 12.55 21.55 13 21 13ZM26 20C23.24 20 21 22.24 21 25C21 27.76 23.24 30 26 30C28.76 30 31 27.76 31 25C31 22.24 28.76 20 26 20ZM27.29 27L25.64 25.35C25.5458 25.2577 25.4919 25.1319 25.49 25V22.51C25.49 22.23 25.71 22.01 25.99 22.01C26.27 22.01 26.49 22.23 26.49 22.51V24.8L27.99 26.3C28.0367 26.3458 28.0739 26.4004 28.0994 26.4606C28.1249 26.5209 28.1382 26.5856 28.1385 26.651C28.1389 26.7165 28.1262 26.7813 28.1013 26.8418C28.0764 26.9023 28.0398 26.9573 27.9936 27.0036C27.9473 27.0498 27.8923 27.0864 27.8318 27.1113C27.7713 27.1362 27.7065 27.1489 27.641 27.1485C27.5756 27.1482 27.5109 27.1349 27.4506 27.1094C27.3904 27.0839 27.3358 27.0467 27.29 27Z" fill="white"/>
</svg>
