<svg width="25" height="19" viewBox="0 0 25 19" fill="none" xmlns="http://www.w3.org/2000/svg">
<g clip-path="url(#clip0_2252_6437)">
<path d="M0 0H25V18.75H0V0Z" fill="#EE1C25"/>
<path d="M2.99999 6.9375L4.68746 1.875L6.37494 6.9375L1.875 3.84375H7.49993L2.99999 6.9375Z" fill="#FFFF00"/>
<path d="M10.3192 1.97198L8.58259 2.35683L9.74099 1.00696L9.62737 2.8237L8.66365 1.21534L10.3192 1.97198Z" fill="#FFFF00"/>
<path d="M12.0718 4.1933L10.3218 3.87449L11.9131 3.07955L11.1038 4.71003L10.8393 2.85378L12.0718 4.1933Z" fill="#FFFF00"/>
<path d="M11.8164 7.30951L10.3486 6.30469L12.1257 6.22788L10.7218 7.3865L11.2373 5.58377L11.8164 7.30951Z" fill="#FFFF00"/>
<path d="M9.60882 9.34539L8.64303 7.85164L10.3119 8.46716L8.56942 8.99363L9.74123 7.52992L9.60882 9.34539Z" fill="#FFFF00"/>
</g>
<defs>
<clipPath id="clip0_2252_6437">
<rect width="25" height="18.75" fill="white"/>
</clipPath>
</defs>
</svg>
