<svg width="12" height="14" viewBox="0 0 12 14" fill="none" xmlns="http://www.w3.org/2000/svg">
<path fill-rule="evenodd" clip-rule="evenodd" d="M5.99908 7.41376L9.53442 10.9491C9.72201 11.1367 9.97645 11.2421 10.2418 11.2421C10.5071 11.2421 10.7615 11.1367 10.9491 10.9491C11.1367 10.7615 11.2421 10.5071 11.2421 10.2418C11.2421 9.97646 11.1367 9.72203 10.9491 9.53443L7.41242 5.9991L10.9484 2.46376C11.0413 2.37088 11.1149 2.26061 11.1651 2.13926C11.2154 2.01791 11.2412 1.88786 11.2412 1.75653C11.2411 1.62519 11.2152 1.49515 11.165 1.37383C11.1147 1.25251 11.041 1.14227 10.9481 1.04943C10.8552 0.956586 10.7449 0.882946 10.6236 0.832716C10.5022 0.782485 10.3722 0.756648 10.2408 0.756679C10.1095 0.75671 9.97948 0.782608 9.85815 0.832896C9.73683 0.883183 9.6266 0.956875 9.53375 1.04976L5.99908 4.5851L2.46375 1.04976C2.37155 0.954211 2.26124 0.877978 2.13926 0.825512C2.01728 0.773046 1.88608 0.745399 1.7533 0.744183C1.62052 0.742967 1.48883 0.768206 1.36591 0.818429C1.24299 0.868652 1.1313 0.942853 1.03737 1.0367C0.943431 1.13055 0.869125 1.24217 0.818786 1.36504C0.768448 1.48791 0.743084 1.61958 0.744174 1.75236C0.745265 1.88513 0.772789 2.01637 0.825139 2.1384C0.87749 2.26042 0.953619 2.3708 1.04908 2.4631L4.58575 5.9991L1.04975 9.5351C0.954286 9.62739 0.878157 9.73777 0.825806 9.8598C0.773456 9.98183 0.745932 10.1131 0.744841 10.2458C0.74375 10.3786 0.769114 10.5103 0.819453 10.6332C0.869792 10.756 0.944097 10.8676 1.03803 10.9615C1.13197 11.0553 1.24366 11.1295 1.36658 11.1798C1.4895 11.23 1.62119 11.2552 1.75396 11.254C1.88674 11.2528 2.01795 11.2251 2.13993 11.1727C2.26191 11.1202 2.37222 11.044 2.46442 10.9484L5.99908 7.41376Z" fill="#1F4E79"/>
</svg>
