<svg width="31" height="36" viewBox="0 0 31 36" fill="none" xmlns="http://www.w3.org/2000/svg">
<g clip-path="url(#clip0_3636_11427)">
<mask id="mask0_3636_11427" style="mask-type:luminance" maskUnits="userSpaceOnUse" x="1" y="3" width="30" height="30">
<path d="M30.875 3H1V33H30.875V3Z" fill="white"/>
</mask>
<g mask="url(#mask0_3636_11427)">
<path d="M22.7912 5.22654C23.6894 4.21094 24.8414 3.68361 26.2473 3.64454C27.5751 3.68361 28.6686 4.13281 29.5277 4.99214C30.3868 5.85154 30.8359 6.94531 30.875 8.27344C30.8359 9.67971 30.3087 10.8516 29.2934 11.789L17.1676 22.3359L16.5233 21.75L12.7743 18L12.1885 17.3554L22.7912 5.22654ZM10.8412 18.7031L11.4855 19.289L15.2346 23.039L15.8203 23.6836L14.7074 28.5469C14.434 29.6016 13.7701 30.2852 12.7157 30.5977L2.28873 33.5273L7.91226 27.9609C8.06848 28 8.22468 28.0195 8.38089 28.0195C8.92762 28.0195 9.37671 27.8438 9.72818 27.4922C10.0796 27.1406 10.2554 26.6914 10.2554 26.1445C10.2554 25.5977 10.0796 25.1484 9.72818 24.7969C9.37671 24.4453 8.92762 24.2695 8.38089 24.2695C7.83416 24.2695 7.38504 24.4453 7.03357 24.7969C6.6821 25.1484 6.50638 25.5977 6.50638 26.1445C6.50638 26.3008 6.52589 26.457 6.56494 26.6133L1 32.2383L3.92892 21.8085C4.24134 20.7539 4.92474 20.0898 5.97916 19.8164L10.8412 18.7031Z" fill="#1B9AF5"/>
</g>
</g>
<defs>
<clipPath id="clip0_3636_11427">
<rect width="30" height="36" fill="white" transform="translate(0.5)"/>
</clipPath>
</defs>
</svg>
