<svg width="39" height="36" viewBox="0 0 39 36" fill="none" xmlns="http://www.w3.org/2000/svg">
<g clip-path="url(#clip0_3634_11371)">
<mask id="mask0_3634_11371" style="mask-type:luminance" maskUnits="userSpaceOnUse" x="0" y="3" width="39" height="30">
<path d="M38.25 3H0.75V33H38.25V3Z" fill="white"/>
</mask>
<g mask="url(#mask0_3634_11371)">
<path d="M15.75 7.39453H23.25V11.1445H15.75V7.39453ZM14.8125 3.64453C14.0312 3.6836 13.3672 3.95703 12.8203 4.46483C12.3125 5.0117 12.0391 5.67576 12 6.45703V12.082C12.0391 12.8633 12.3125 13.5274 12.8203 14.0742C13.3672 14.582 14.0312 14.8555 14.8125 14.8945H17.625V16.7695H2.625C2.07813 16.7695 1.62891 16.9453 1.27734 17.2968C0.925781 17.6484 0.75 18.0977 0.75 18.6445C0.75 19.1914 0.925781 19.6406 1.27734 19.9922C1.62891 20.3438 2.07813 20.5195 2.625 20.5195H8.25V22.3945H5.4375C4.65625 22.4336 3.99218 22.707 3.44531 23.2148C2.9375 23.7617 2.66406 24.4258 2.625 25.207V30.832C2.66406 31.6133 2.9375 32.2773 3.44531 32.8242C3.99218 33.332 4.65625 33.6055 5.4375 33.6445H14.8125C15.5938 33.6055 16.2578 33.332 16.8047 32.8242C17.3125 32.2773 17.5859 31.6133 17.625 30.832V25.207C17.5859 24.4258 17.3125 23.7617 16.8047 23.2148C16.2578 22.707 15.5938 22.4336 14.8125 22.3945H12V20.5195H27V22.3945H24.1875C23.4062 22.4336 22.7422 22.707 22.1953 23.2148C21.6875 23.7617 21.4141 24.4258 21.375 25.207V30.832C21.4141 31.6133 21.6875 32.2773 22.1953 32.8242C22.7422 33.332 23.4062 33.6055 24.1875 33.6445H33.5625C34.3438 33.6055 35.0078 33.332 35.5547 32.8242C36.0625 32.2773 36.3359 31.6133 36.375 30.832V25.207C36.3359 24.4258 36.0625 23.7617 35.5547 23.2148C35.0078 22.707 34.3438 22.4336 33.5625 22.3945H30.75V20.5195H36.375C36.9219 20.5195 37.3711 20.3438 37.7227 19.9922C38.0742 19.6406 38.25 19.1914 38.25 18.6445C38.25 18.0977 38.0742 17.6484 37.7227 17.2968C37.3711 16.9453 36.9219 16.7695 36.375 16.7695H21.375V14.8945H24.1875C24.9688 14.8555 25.6328 14.582 26.1797 14.0742C26.6875 13.5274 26.9609 12.8633 27 12.082V6.45703C26.9609 5.67576 26.6875 5.0117 26.1797 4.46483C25.6328 3.95703 24.9688 3.6836 24.1875 3.64453H14.8125ZM6.375 29.8945V26.1445H13.875V29.8945H6.375ZM25.125 26.1445H32.625V29.8945H25.125V26.1445Z" fill="#1B9AF5"/>
</g>
</g>
<defs>
<clipPath id="clip0_3634_11371">
<rect width="37.5" height="36" fill="white" transform="translate(0.75)"/>
</clipPath>
</defs>
</svg>
