<svg width="38" height="36" viewBox="0 0 38 36" fill="none" xmlns="http://www.w3.org/2000/svg">
<mask id="mask0_3636_11413" style="mask-type:luminance" maskUnits="userSpaceOnUse" x="3" y="3" width="31" height="30">
<path d="M33.5 3H3.5V33H33.5V3Z" fill="white"/>
</mask>
<g mask="url(#mask0_3636_11413)">
<path d="M12.6904 5.87113C13.2685 6.49613 13.307 7.1602 12.806 7.86333L8.64418 12.5508C8.37443 12.8633 8.04688 13.0195 7.66153 13.0195C7.23763 13.0195 6.89081 12.8828 6.62106 12.6093L4.30892 10.2656C3.76942 9.60156 3.76942 8.9375 4.30892 8.27343C4.96402 7.72656 5.61913 7.72656 6.27424 8.27343L7.54592 9.56253L10.7251 5.98823C11.3417 5.4023 11.9968 5.36326 12.6904 5.87113ZM12.6904 15.2461C13.2685 15.8711 13.307 16.5352 12.806 17.2382L8.64418 21.9258C8.37443 22.2383 8.04688 22.3945 7.66153 22.3945C7.23763 22.3945 6.89081 22.2578 6.62106 21.9844L4.30892 19.6406C3.76942 18.9766 3.76942 18.3125 4.30892 17.6484C4.96402 17.1016 5.61913 17.1016 6.27424 17.6484L7.54592 18.9375L10.7251 15.3632C11.3417 14.7773 11.9968 14.7383 12.6904 15.2461ZM16.8523 9.26953C16.8523 8.72267 17.0257 8.27343 17.3725 7.92183C17.7193 7.5703 18.1625 7.39453 18.702 7.39453H31.65C32.1895 7.39453 32.6326 7.5703 32.9794 7.92183C33.3263 8.27343 33.4997 8.72267 33.4997 9.26953C33.4997 9.8164 33.3263 10.2656 32.9794 10.6172C32.6326 10.9688 32.1895 11.1445 31.65 11.1445H18.702C18.1625 11.1445 17.7193 10.9688 17.3725 10.6172C17.0257 10.2656 16.8523 9.8164 16.8523 9.26953ZM16.8523 18.6445C16.8523 18.0977 17.0257 17.6484 17.3725 17.2968C17.7193 16.9453 18.1625 16.7695 18.702 16.7695H31.65C32.1895 16.7695 32.6326 16.9453 32.9794 17.2968C33.3263 17.6484 33.4997 18.0977 33.4997 18.6445C33.4997 19.1914 33.3263 19.6406 32.9794 19.9922C32.6326 20.3438 32.1895 20.5195 31.65 20.5195H18.702C18.1625 20.5195 17.7193 20.3438 17.3725 19.9922C17.0257 19.6406 16.8523 19.1914 16.8523 18.6445ZM13.1528 28.0195C13.1528 27.4727 13.3263 27.0234 13.6731 26.6719C14.0199 26.3203 14.4631 26.1445 15.0026 26.1445H31.65C32.1895 26.1445 32.6326 26.3203 32.9794 26.6719C33.3263 27.0234 33.4997 27.4727 33.4997 28.0195C33.4997 28.5664 33.3263 29.0156 32.9794 29.3672C32.6326 29.7187 32.1895 29.8945 31.65 29.8945H15.0026C14.4631 29.8945 14.0199 29.7187 13.6731 29.3672C13.3263 29.0156 13.1528 28.5664 13.1528 28.0195ZM6.67887 25.207C7.71933 25.2461 8.52857 25.7148 9.10661 26.6133C9.56903 27.5508 9.56903 28.4883 9.10661 29.4258C8.52857 30.3242 7.71933 30.793 6.67887 30.832C5.6384 30.793 4.82915 30.3242 4.25112 29.4258C3.78869 28.4883 3.78869 27.5508 4.25112 26.6133C4.82915 25.7148 5.6384 25.2461 6.67887 25.207Z" fill="#1B9AF5"/>
</g>
</svg>
