<svg width="31" height="36" viewBox="0 0 31 36" fill="none" xmlns="http://www.w3.org/2000/svg">
<mask id="mask0_3634_11383" style="mask-type:luminance" maskUnits="userSpaceOnUse" x="0" y="3" width="31" height="30">
<path d="M30.5 3H0.5V33H30.5V3Z" fill="white"/>
</mask>
<g mask="url(#mask0_3634_11383)">
<path d="M4.25 7.39453C4.25 6.84766 4.07422 6.39843 3.72266 6.04683C3.37109 5.6953 2.92187 5.51953 2.375 5.51953C1.82813 5.51953 1.37891 5.6953 1.02734 6.04683C0.675781 6.39843 0.5 6.84766 0.5 7.39453V27.082C0.539063 28.4102 0.988283 29.5234 1.84766 30.4219C2.74609 31.2812 3.85937 31.7305 5.1875 31.7695H28.625C29.1719 31.7695 29.6211 31.5938 29.9727 31.2422C30.3242 30.8906 30.5 30.4414 30.5 29.8945C30.5 29.3477 30.3242 28.8984 29.9727 28.5469C29.6211 28.1953 29.1719 28.0195 28.625 28.0195H5.1875C4.60156 27.9805 4.28906 27.668 4.25 27.082V7.39453ZM28.0977 12.4922C28.4492 12.1016 28.625 11.6523 28.625 11.1445C28.625 10.6367 28.4492 10.1875 28.0977 9.79683C27.707 9.4453 27.2578 9.26953 26.75 9.26953C26.2422 9.26953 25.793 9.4453 25.4023 9.79683L19.25 16.0078L15.9102 12.6093C15.5195 12.2578 15.0703 12.082 14.5625 12.082C14.0547 12.082 13.6055 12.2578 13.2148 12.6093L6.65234 19.1718C6.30078 19.5625 6.125 20.0117 6.125 20.5195C6.125 21.0273 6.30078 21.4766 6.65234 21.8672C7.04297 22.2188 7.49219 22.3945 8 22.3945C8.50781 22.3945 8.95703 22.2188 9.34766 21.8672L14.5625 16.5937L17.9023 19.9922C18.293 20.3438 18.7422 20.5195 19.25 20.5195C19.7578 20.5195 20.207 20.3438 20.5977 19.9922L28.0977 12.4922Z" fill="#1B9AF5"/>
</g>
</svg>
