<svg width="23" height="36" viewBox="0 0 23 36" fill="none" xmlns="http://www.w3.org/2000/svg">
<g clip-path="url(#clip0_3634_11393)">
<mask id="mask0_3634_11393" style="mask-type:luminance" maskUnits="userSpaceOnUse" x="0" y="3" width="23" height="30">
<path d="M22.75 3H0.25V33H22.75V3Z" fill="white"/>
</mask>
<g mask="url(#mask0_3634_11393)">
<path d="M10.4463 3.99549C11.1299 3.56576 11.8134 3.56576 12.4969 3.99549L13.5223 4.63999C13.8641 4.87432 14.2438 4.99149 14.6615 4.99149L15.8577 4.87439C16.6932 4.87439 17.3008 5.24545 17.6805 5.98759L18.2501 7.10089C18.44 7.45249 18.7058 7.72592 19.0476 7.92119L20.1868 8.50719C20.8704 8.89779 21.2121 9.52279 21.2121 10.3822L21.0982 11.6126C21.0982 12.0423 21.2122 12.433 21.44 12.7845L22.1235 13.8392C22.5413 14.5423 22.5413 15.2455 22.1235 15.9486L21.44 17.0033C21.2122 17.3548 21.0982 17.7454 21.0982 18.1751L21.2121 19.4056C21.2121 20.265 20.8514 20.89 20.1299 21.2806L19.0476 21.8665C18.7058 22.0618 18.44 22.3353 18.2501 22.6869L17.6805 23.8587C17.3008 24.5618 16.7122 24.9134 15.9147 24.9134L14.6615 24.7962C14.2438 24.7962 13.8641 24.9134 13.5223 25.1478L12.4969 25.8509C11.8134 26.2806 11.1299 26.2806 10.4463 25.8509L9.42103 25.1478C9.07926 24.9134 8.69951 24.7962 8.28179 24.7962L7.08558 24.9134C6.25014 24.9134 5.64255 24.5423 5.2628 23.8001L4.69318 22.6869C4.50331 22.3353 4.23749 22.0618 3.89571 21.8665L2.81343 21.2806C2.09191 20.89 1.73115 20.2845 1.73115 19.4642L1.84508 18.1751C1.84508 17.7454 1.73116 17.3548 1.50331 17.0033L0.876724 15.9486C0.459003 15.2455 0.459003 14.5423 0.876724 13.8392L1.50331 12.7845C1.73116 12.433 1.84508 12.0423 1.84508 11.6126L1.73115 10.3822C1.73115 9.52279 2.09191 8.89779 2.81343 8.50719L3.89571 7.92119C4.23749 7.72592 4.50331 7.45249 4.69318 7.10089L5.2628 5.98759C5.64255 5.24545 6.25014 4.87439 7.08558 4.87439L8.28179 4.99149C8.69951 4.99149 9.07926 4.87432 9.42103 4.63999L10.4463 3.99549ZM16.0286 14.8939C15.9906 13.1361 15.2311 11.7884 13.7501 10.8509C12.2311 9.99156 10.7121 9.99156 9.19318 10.8509C7.71217 11.7884 6.95268 13.1361 6.9147 14.8939C6.95268 16.6517 7.71217 17.9994 9.19318 18.9369C10.7121 19.7962 12.2311 19.7962 13.7501 18.9369C15.2311 17.9994 15.9906 16.6517 16.0286 14.8939ZM0.591914 29.5423L3.04128 23.5072C3.07926 23.5072 3.09824 23.5267 3.09824 23.5658L3.6109 24.679C4.40837 26.0853 5.58559 26.7884 7.14255 26.7884L8.39571 26.6712V26.7298L9.42103 27.3743C9.72482 27.5697 10.0286 27.7259 10.3324 27.8431L8.22482 33.0579C8.07293 33.4095 7.80711 33.6048 7.42736 33.6439C7.08559 33.6829 6.81977 33.5462 6.62989 33.2337L4.75014 30.3626L1.56027 30.8314C1.2185 30.8704 0.933686 30.7533 0.705838 30.4798C0.515965 30.1673 0.47799 29.8548 0.591914 29.5423ZM14.7185 33.0579L12.6109 27.8431C12.9147 27.7259 13.2185 27.5697 13.5223 27.3743L14.5476 26.7298C14.5476 26.6908 14.5476 26.6712 14.5476 26.6712L15.8007 26.7884C17.3577 26.7884 18.535 26.0853 19.3324 24.679L19.845 23.5658C19.845 23.5267 19.864 23.5072 19.902 23.5072L22.3514 29.5423C22.4654 29.8548 22.4274 30.1673 22.2375 30.4798C22.0097 30.7533 21.7248 30.8704 21.383 30.8314L18.1931 30.3626L16.3134 33.2337C16.1236 33.5072 15.8577 33.6439 15.5159 33.6439C15.1362 33.6048 14.8704 33.4095 14.7185 33.0579Z" fill="#1B9AF5"/>
</g>
</g>
<defs>
<clipPath id="clip0_3634_11393">
<rect width="22.5" height="36" fill="white" transform="translate(0.25)"/>
</clipPath>
</defs>
</svg>
