<svg width="38" height="36" viewBox="0 0 38 36" fill="none" xmlns="http://www.w3.org/2000/svg">
<mask id="mask0_3636_11500" style="mask-type:luminance" maskUnits="userSpaceOnUse" x="0" y="3" width="38" height="30">
<path d="M37.75 3H0.25V33H37.75V3Z" fill="white"/>
</mask>
<g mask="url(#mask0_3636_11500)">
<path d="M12.478 24.2695C15.8942 24.1914 18.7474 23.1758 21.0378 21.2226C23.3281 19.3086 24.5121 16.8867 24.5898 13.957C24.5121 11.0274 23.3281 8.6055 21.0378 6.69143C18.7474 4.7383 15.8942 3.72266 12.478 3.64453C9.06188 3.72266 6.20859 4.7383 3.91821 6.69143C1.62784 8.6055 0.443851 11.0274 0.366211 13.957C0.405031 16.2617 1.1814 18.2734 2.69537 19.9922C2.46245 20.5782 2.17133 21.0664 1.82196 21.457C1.55022 21.8086 1.29786 22.082 1.06494 22.2773C0.948481 22.3945 0.870851 22.4727 0.832031 22.5117C0.793211 22.5508 0.773804 22.5703 0.773804 22.5703H0.715576C0.405017 22.8437 0.307979 23.1953 0.424438 23.625C0.579718 24.0156 0.870894 24.2305 1.29791 24.2695C2.61779 24.2305 3.82118 23.9961 4.90814 23.5664C5.45162 23.332 5.93687 23.0977 6.36389 22.8633C8.18843 23.7617 10.2265 24.2305 12.478 24.2695ZM26.4532 13.957C26.3367 17.3164 25.0945 20.0899 22.7264 22.2773C20.3196 24.4648 17.3693 25.7344 13.8755 26.0859C14.6131 28.3125 16.03 30.1094 18.1263 31.4766C20.2225 32.8828 22.6876 33.6055 25.5215 33.6445C27.773 33.6055 29.8111 33.1367 31.6356 32.2383C32.0626 32.4727 32.5479 32.707 33.0914 32.9414C34.1784 33.3711 35.3817 33.6055 36.7016 33.6445C37.1286 33.6055 37.4198 33.3906 37.5751 33C37.6915 32.5703 37.575 32.2187 37.2257 31.9453V31.8867C37.1868 31.8867 37.1674 31.8867 37.1674 31.8867C37.1286 31.8477 37.051 31.7695 36.9345 31.6523C36.7016 31.457 36.4492 31.1836 36.1775 30.832C35.8282 30.4023 35.5371 29.9141 35.3041 29.3672C36.8181 27.6484 37.5945 25.6367 37.6333 23.332C37.5556 20.5586 36.4687 18.2148 34.3724 16.3007C32.2762 14.3867 29.617 13.293 26.3949 13.0195C26.4338 13.332 26.4532 13.6445 26.4532 13.957Z" fill="#1B9AF5"/>
</g>
</svg>
