<svg width="15" height="15" viewBox="0 0 15 15" fill="none" xmlns="http://www.w3.org/2000/svg">
<path d="M7.4625 12C7.725 12 7.947 11.9092 8.1285 11.7277C8.31 11.5462 8.4005 11.3245 8.39999 11.0625C8.3995 10.8005 8.309 10.5785 8.1285 10.3965C7.948 10.2145 7.726 10.124 7.4625 10.125C7.199 10.126 6.97725 10.2167 6.79725 10.3972C6.61725 10.5777 6.5265 10.7995 6.525 11.0625C6.5235 11.3255 6.61425 11.5475 6.79725 11.7285C6.98025 11.9095 7.202 12 7.4625 12ZM6.7875 9.11249H8.175C8.175 8.69999 8.222 8.37499 8.316 8.13749C8.41 7.89999 8.6755 7.57499 9.11249 7.16249C9.43749 6.83749 9.69374 6.528 9.88124 6.234C10.0687 5.94 10.1625 5.587 10.1625 5.175C10.1625 4.475 9.90624 3.9375 9.39374 3.5625C8.88124 3.1875 8.275 3 7.575 3C6.8625 3 6.2845 3.1875 5.841 3.5625C5.3975 3.9375 5.088 4.3875 4.9125 4.9125L6.15 5.4C6.2125 5.175 6.35325 4.93125 6.57225 4.66875C6.79125 4.40625 7.1255 4.275 7.575 4.275C7.975 4.275 8.275 4.3845 8.475 4.6035C8.675 4.8225 8.77499 5.063 8.77499 5.325C8.77499 5.575 8.7 5.8095 8.55 6.0285C8.39999 6.2475 8.21249 6.4505 7.9875 6.6375C7.4375 7.12499 7.1 7.49374 6.975 7.74374C6.85 7.99374 6.7875 8.44999 6.7875 9.11249ZM7.5 15C6.4625 15 5.4875 14.8032 4.575 14.4097C3.6625 14.0162 2.86875 13.4817 2.19375 12.8062C1.51875 12.1307 0.9845 11.337 0.591001 10.425C0.197501 9.51299 0.000500949 8.53799 9.49366e-07 7.49999C-0.00049905 6.462 0.196501 5.487 0.591001 4.575C0.9855 3.663 1.51975 2.86925 2.19375 2.19375C2.86775 1.51825 3.6615 0.984003 4.575 0.591003C5.4885 0.198004 6.4635 0.00100379 7.5 3.78787e-06C8.5365 -0.000996211 9.51149 0.196004 10.425 0.591003C11.3385 0.986003 12.1322 1.52025 12.8062 2.19375C13.4802 2.86725 14.0147 3.661 14.4097 4.575C14.8047 5.489 15.0015 6.464 15 7.49999C14.9985 8.53599 14.8015 9.51099 14.409 10.425C14.0165 11.339 13.4822 12.1327 12.8062 12.8062C12.1302 13.4797 11.3365 14.0142 10.425 14.4097C9.51349 14.8052 8.5385 15.002 7.5 15Z" fill="white"/>
</svg>
