<svg width="15" height="15" viewBox="0 0 15 15" fill="none" xmlns="http://www.w3.org/2000/svg">
<path d="M5.44776 15L5.14925 12.6C4.98756 12.5375 4.83532 12.4625 4.69254 12.375C4.54975 12.2875 4.4097 12.1938 4.27239 12.0938L2.05224 13.0312L0 9.46875L1.92164 8.00625C1.9092 7.91875 1.90299 7.8345 1.90299 7.7535V7.24725C1.90299 7.16575 1.9092 7.08125 1.92164 6.99375L0 5.53125L2.05224 1.96875L4.27239 2.90625C4.4092 2.80625 4.55224 2.7125 4.70149 2.625C4.85075 2.5375 5 2.4625 5.14925 2.4L5.44776 0H9.55224L9.85075 2.4C10.0124 2.4625 10.1649 2.5375 10.3082 2.625C10.4515 2.7125 10.5913 2.80625 10.7276 2.90625L12.9478 1.96875L15 5.53125L13.0784 6.99375C13.0908 7.08125 13.097 7.16575 13.097 7.24725V7.75275C13.097 7.83425 13.0846 7.91875 13.0597 8.00625L14.9813 9.46875L12.9291 13.0312L10.7276 12.0938C10.5908 12.1938 10.4478 12.2875 10.2985 12.375C10.1493 12.4625 10 12.5375 9.85075 12.6L9.55224 15H5.44776ZM6.75373 13.5H8.22761L8.48881 11.5125C8.87438 11.4125 9.23209 11.2657 9.56194 11.0723C9.89179 10.8788 10.1933 10.6442 10.4664 10.3687L12.3134 11.1375L13.041 9.8625L11.4366 8.64375C11.4988 8.46875 11.5423 8.2845 11.5672 8.091C11.592 7.8975 11.6045 7.7005 11.6045 7.5C11.6045 7.2995 11.592 7.10275 11.5672 6.90975C11.5423 6.71675 11.4988 6.53225 11.4366 6.35625L13.041 5.1375L12.3134 3.8625L10.4664 4.65C10.1928 4.3625 9.89129 4.122 9.56194 3.9285C9.23259 3.735 8.87488 3.588 8.48881 3.4875L8.24627 1.5H6.77239L6.51119 3.4875C6.12562 3.5875 5.76816 3.7345 5.43881 3.9285C5.10945 4.1225 4.80771 4.35675 4.53358 4.63125L2.68657 3.8625L1.95896 5.1375L3.56343 6.3375C3.50124 6.525 3.45771 6.7125 3.43284 6.9C3.40796 7.0875 3.39552 7.2875 3.39552 7.5C3.39552 7.7 3.40796 7.89375 3.43284 8.08125C3.45771 8.26875 3.50124 8.45625 3.56343 8.64375L1.95896 9.8625L2.68657 11.1375L4.53358 10.35C4.80721 10.6375 5.10896 10.8783 5.43881 11.0723C5.76866 11.2663 6.12612 11.413 6.51119 11.5125L6.75373 13.5ZM7.53731 10.125C8.25871 10.125 8.87438 9.86875 9.38433 9.35625C9.89428 8.84375 10.1493 8.225 10.1493 7.5C10.1493 6.775 9.89428 6.15625 9.38433 5.64375C8.87438 5.13125 8.25871 4.875 7.53731 4.875C6.80348 4.875 6.18458 5.13125 5.6806 5.64375C5.17662 6.15625 4.92488 6.775 4.92537 7.5C4.92587 8.225 5.17786 8.84375 5.68134 9.35625C6.18483 9.86875 6.80348 10.125 7.53731 10.125Z" fill="white"/>
</svg>
