<svg width="19" height="19" viewBox="0 0 19 19" fill="none" xmlns="http://www.w3.org/2000/svg">
<path d="M2 15.125C2 14.1304 2.39509 13.1766 3.09835 12.4733C3.80161 11.7701 4.75544 11.375 5.75 11.375H13.25C14.2446 11.375 15.1984 11.7701 15.9016 12.4733C16.6049 13.1766 17 14.1304 17 15.125C17 15.6223 16.8025 16.0992 16.4508 16.4508C16.0992 16.8025 15.6223 17 15.125 17H3.875C3.37772 17 2.90081 16.8025 2.54917 16.4508C2.19754 16.0992 2 15.6223 2 15.125Z" stroke="white" stroke-width="2.5" stroke-linejoin="round"/>
<path d="M9.5 7.625C11.0533 7.625 12.3125 6.3658 12.3125 4.8125C12.3125 3.2592 11.0533 2 9.5 2C7.9467 2 6.6875 3.2592 6.6875 4.8125C6.6875 6.3658 7.9467 7.625 9.5 7.625Z" stroke="white" stroke-width="2.5"/>
</svg>
