<svg width="17" height="17" viewBox="0 0 17 17" fill="none" xmlns="http://www.w3.org/2000/svg">
<path d="M10.0595 6.54699C9.96629 6.28488 9.79428 6.05798 9.56706 5.89735C9.33984 5.73671 9.0685 5.65019 8.79019 5.64963H7.74818C7.4509 5.64807 7.16361 5.75675 6.94185 5.95465C6.72009 6.15255 6.57963 6.42561 6.54762 6.72103C6.51561 7.01645 6.59433 7.31324 6.76855 7.55401C6.94278 7.79477 7.20013 7.96241 7.49085 8.02451L9.07752 8.37054C9.40196 8.44153 9.6887 8.62986 9.88267 8.89933C10.0766 9.1688 10.1641 9.50041 10.1283 9.83045C10.0926 10.1605 9.93603 10.4657 9.68882 10.6873C9.44161 10.909 9.12116 11.0316 8.78904 11.0315H7.89242C7.30622 11.0315 6.80771 10.6578 6.62308 10.1353M8.34131 5.64963V4.30359M8.34131 12.3775V11.0326M2.72852 15.9946V13.1111H5.61338" stroke="white" stroke-linecap="round" stroke-linejoin="round"/>
<path d="M15.8714 7.12051C16.1777 8.75284 15.9332 10.4406 15.176 11.919C14.4189 13.3974 13.1921 14.5826 11.6882 15.2887C10.1843 15.9948 8.48838 16.1817 6.86666 15.8202C5.24494 15.4587 3.78921 14.5692 2.72796 13.2913M1.1286 9.87949C0.822251 8.24716 1.06683 6.55936 1.82395 5.08099C2.58107 3.60263 3.80786 2.41739 5.31178 1.71131C6.8157 1.00522 8.51162 0.818265 10.1333 1.17978C11.7551 1.54129 13.2108 2.4308 14.272 3.7087" stroke="white" stroke-linecap="round" stroke-linejoin="round"/>
<path d="M14.2716 1.00513V3.88867H11.3867" stroke="white" stroke-linecap="round" stroke-linejoin="round"/>
</svg>
