<svg width="20" height="20" viewBox="0 0 20 20" fill="none" xmlns="http://www.w3.org/2000/svg">
<path d="M18.9763 1.15619C18.6343 0.796632 18.2239 0.509127 17.7691 0.310613C17.3143 0.112099 16.8244 0.00658959 16.3283 0.000298921C15.8321 -0.00599175 15.3397 0.0870638 14.88 0.273984C14.4204 0.460905 14.0028 0.737911 13.6518 1.08869L1.93148 12.8084C1.52194 13.218 1.23748 13.7357 1.11137 14.301L0.0149779 19.2389C-0.00790051 19.3416 -0.00452369 19.4483 0.0247955 19.5492C0.0541147 19.6502 0.108429 19.7422 0.182712 19.8166C0.256996 19.891 0.348848 19.9454 0.449769 19.9749C0.550689 20.0044 0.657418 20.008 0.760077 19.9853L5.66948 18.8939C6.2543 18.765 6.78978 18.4708 7.21219 18.0463L18.9112 6.34787C19.597 5.66187 19.9876 4.73512 19.9997 3.76525C20.0119 2.79539 19.6446 1.85915 18.9763 1.15619ZM14.5357 1.97251C14.7643 1.74055 15.0366 1.55612 15.3369 1.42986C15.6372 1.3036 15.9595 1.23799 16.2852 1.23683C16.6109 1.23566 16.9337 1.29895 17.2348 1.42306C17.536 1.54717 17.8096 1.72963 18.0399 1.95995C18.2703 2.19027 18.4527 2.46388 18.5769 2.76503C18.701 3.06617 18.7643 3.3889 18.7631 3.71461C18.7619 4.04033 18.6963 4.3626 18.5701 4.66284C18.4438 4.96309 18.2594 5.23539 18.0274 5.46405L17.1885 6.30287L13.6968 2.81258L14.5357 1.97251ZM12.8129 3.69765L16.3046 7.18794L6.32832 17.1638C6.07399 17.4202 5.75101 17.5978 5.3982 17.6751L1.44767 18.5526L2.33279 14.5736C2.40655 14.2398 2.57407 13.9347 2.81535 13.6935L12.8129 3.69765Z" fill="#1F4E79"/>
</svg>
