<svg width="19" height="15" viewBox="0 0 19 15" fill="none" xmlns="http://www.w3.org/2000/svg">
<path d="M9.57654 4.5C10.2526 4.5 10.9009 4.81607 11.3789 5.37868C11.8569 5.94129 12.1255 6.70435 12.1255 7.5C12.1255 8.29565 11.8569 9.05871 11.3789 9.62132C10.9009 10.1839 10.2526 10.5 9.57654 10.5C8.90051 10.5 8.25217 10.1839 7.77415 9.62132C7.29613 9.05871 7.02758 8.29565 7.02758 7.5C7.02758 6.70435 7.29613 5.94129 7.77415 5.37868C8.25217 4.81607 8.90051 4.5 9.57654 4.5ZM9.57654 0C13.8248 0 17.4528 3.11 18.9227 7.5C17.4528 11.89 13.8248 15 9.57654 15C5.32827 15 1.70025 11.89 0.230347 7.5C1.70025 3.11 5.32827 0 9.57654 0ZM2.08259 7.5C2.76933 9.15031 3.83569 10.5407 5.16044 11.5133C6.4852 12.4858 8.01521 13.0013 9.57654 13.0013C11.1379 13.0013 12.6679 12.4858 13.9926 11.5133C15.3174 10.5407 16.3837 9.15031 17.0705 7.5C16.3837 5.84969 15.3174 4.45925 13.9926 3.48675C12.6679 2.51424 11.1379 1.99868 9.57654 1.99868C8.01521 1.99868 6.4852 2.51424 5.16044 3.48675C3.83569 4.45925 2.76933 5.84969 2.08259 7.5Z" fill="#333333"/>
</svg>
