<svg width="21" height="24" viewBox="0 0 21 24" fill="none" xmlns="http://www.w3.org/2000/svg">
<mask id="mask0_4479_12856" style="mask-type:luminance" maskUnits="userSpaceOnUse" x="0" y="1" width="21" height="20">
<path d="M20.1562 1H0.15625V21H20.1562V1Z" fill="white"/>
</mask>
<g mask="url(#mask0_4479_12856)">
<path d="M20.1562 11.4687C20.1302 9.59373 19.6745 7.91406 18.7891 6.42973C17.9037 4.91926 16.7058 3.72132 15.1954 2.83592C13.711 1.95052 12.0312 1.49479 10.1562 1.46873C8.28125 1.49479 6.60156 1.95052 5.11719 2.83592C3.60677 3.72132 2.40885 4.91926 1.52344 6.42973C0.638019 7.91406 0.182292 9.59373 0.15625 11.4687C0.208333 13.8646 0.924477 15.9349 2.30469 17.6797C3.71093 19.4245 5.52083 20.5964 7.73438 21.1953V14.5156H5.66406V11.4687H7.73438V10.1406C7.70833 6.78123 9.3359 5.12759 12.6171 5.17973C12.9557 5.17973 13.3464 5.20576 13.7891 5.25783C14.2057 5.30989 14.5442 5.36196 14.8046 5.41402V8.18752C14.5442 8.16146 14.1537 8.14842 13.6329 8.14842C12.8255 8.14842 12.2396 8.31769 11.8751 8.65623C11.5365 9.02083 11.3671 9.59376 11.3671 10.375V11.4687H14.6484L14.0624 14.5156H11.3671V21.3906C13.8932 21.026 15.9765 19.9323 17.6171 18.1094C19.2578 16.2865 20.1042 14.0729 20.1562 11.4687Z" fill="#9CA3AF"/>
</g>
</svg>
