<svg width="27" height="25" viewBox="0 0 27 25" fill="none" xmlns="http://www.w3.org/2000/svg">
<path d="M20.66 9.71029L14.5876 4.16589C14.4333 4.02483 14.224 3.94549 14.0056 3.94531H9.09714C8.29625 3.94531 7.52817 4.2358 6.96186 4.75287C6.39554 5.26993 6.07739 5.97123 6.07739 6.70247V18.7337C6.07739 19.465 6.39554 20.1663 6.96186 20.6833C7.52817 21.2004 8.29625 21.4909 9.09714 21.4909H17.8819C18.6827 21.4909 19.4508 21.2004 20.0171 20.6833C20.5835 20.1663 20.9016 19.465 20.9016 18.7337V10.2116C20.893 10.0227 20.8067 9.84372 20.66 9.71029ZM14.8621 6.51198L18.0905 9.45964H14.8621V6.51198ZM17.8819 19.987H9.09714C8.7331 19.987 8.38397 19.8549 8.12656 19.6199C7.86914 19.3849 7.72453 19.0661 7.72453 18.7337V6.70247C7.72453 6.37009 7.86914 6.05132 8.12656 5.81629C8.38397 5.58126 8.7331 5.44922 9.09714 5.44922H13.215V10.2116C13.2178 10.4102 13.3055 10.6 13.4593 10.7404C13.6132 10.8809 13.821 10.9609 14.0385 10.9635H19.2545V18.7337C19.2545 19.0661 19.1099 19.3849 18.8524 19.6199C18.595 19.8549 18.2459 19.987 17.8819 19.987Z" fill="#6E6E6E"/>
<path d="M16.202 12.6292C16.0285 12.5081 15.8105 12.453 15.5935 12.4755C15.3766 12.4979 15.1775 12.5961 15.0381 12.7495L13.4897 14.5241L11.9414 12.7194C11.8693 12.6417 11.7812 12.5778 11.682 12.5312C11.5828 12.4846 11.4746 12.4563 11.3634 12.4479C11.2523 12.4396 11.1404 12.4513 11.0342 12.4823C10.928 12.5134 10.8296 12.5633 10.7445 12.6292C10.6594 12.695 10.5894 12.7755 10.5384 12.866C10.4874 12.9566 10.4564 13.0554 10.4472 13.1569C10.438 13.2584 10.4508 13.3605 10.4849 13.4575C10.519 13.5544 10.5736 13.6443 10.6457 13.722L12.3917 15.7272L10.6457 17.7324C10.5088 17.8893 10.4458 18.0894 10.4705 18.2887C10.4952 18.488 10.6056 18.6702 10.7775 18.7952C10.9493 18.9202 11.1685 18.9777 11.3867 18.9551C11.605 18.9326 11.8046 18.8317 11.9414 18.6749L13.4897 16.9303L15.0381 18.735C15.1169 18.8223 15.2158 18.8927 15.3278 18.9412C15.4397 18.9897 15.562 19.0152 15.6859 19.0157C15.8543 19.0285 16.023 18.9936 16.1689 18.9159C16.3149 18.8381 16.4311 18.7213 16.5018 18.5811C16.5726 18.441 16.5944 18.2844 16.5643 18.1326C16.5343 17.9808 16.4538 17.8411 16.3338 17.7324L14.5878 15.7272L16.3777 13.722C16.4461 13.6402 16.4958 13.5467 16.524 13.447C16.5522 13.3474 16.5583 13.2436 16.5419 13.1418C16.5255 13.04 16.487 12.9422 16.4287 12.8541C16.3703 12.7661 16.2932 12.6896 16.202 12.6292Z" fill="#6E6E6E"/>
</svg>
