<svg width="14" height="16" viewBox="0 0 14 16" fill="none" xmlns="http://www.w3.org/2000/svg">
<g clip-path="url(#clip0_3881_11509)">
<path d="M13.4859 3.06055L10.4271 0.438672C10.099 0.157422 9.65417 -0.00195312 9.19115 -0.00195312H1.75C0.783854 0.00117188 0 0.673047 0 1.50117V14.5012C0 15.3293 0.783854 16.0012 1.75 16.0012H12.25C13.2161 16.0012 14 15.3293 14 14.5012V4.12305C14 3.72617 13.8141 3.3418 13.4859 3.06055ZM12.1078 4.00117H9.33333V1.62305L12.1078 4.00117ZM1.75 14.5012V1.50117H7.58333V4.75117C7.58333 5.1668 7.97344 5.50117 8.45833 5.50117H12.25V14.5012H1.75ZM9.77448 8.00117C9.56667 8.00117 9.38802 8.12617 9.34792 8.29805C8.59687 11.3512 8.60417 11.2793 8.58229 11.5324C8.575 11.4949 8.56771 11.4512 8.55677 11.398C8.5276 11.2387 8.56771 11.4043 7.69635 8.28867C7.64896 8.11992 7.47396 8.00117 7.26979 8.00117H6.7849C6.58437 8.00117 6.40937 8.11992 6.35833 8.28555C5.46875 11.3793 5.48333 11.2918 5.45417 11.5262C5.45052 11.4918 5.44688 11.448 5.43594 11.3949C5.41042 11.2324 4.92188 9.1043 4.73958 8.30117C4.69948 8.12617 4.52083 7.99805 4.30937 7.99805H3.69687C3.4125 7.99805 3.20469 8.22617 3.27031 8.46055C3.56198 9.4793 4.24375 11.8824 4.48073 12.7105C4.52812 12.8793 4.70312 12.9949 4.90729 12.9949H5.82604C6.02656 12.9949 6.20156 12.8793 6.24896 12.7105L6.90156 10.4793C6.95625 10.2855 6.99271 10.1043 7.01094 9.93867L7.11667 10.4793C7.12031 10.4918 7.57604 12.0574 7.76927 12.7105C7.81667 12.8762 7.99167 12.9949 8.19219 12.9949H9.09271C9.29323 12.9949 9.46823 12.8793 9.51562 12.7105C10.274 10.1512 10.6167 8.9918 10.7734 8.46055C10.8427 8.22305 10.6349 7.99492 10.3505 7.99492H9.77448V8.00117Z" fill="#6E6E6E"/>
</g>
<defs>
<clipPath id="clip0_3881_11509">
<rect width="14" height="16" fill="white"/>
</clipPath>
</defs>
</svg>
