<svg width="20" height="22" viewBox="0 0 20 22" fill="none" xmlns="http://www.w3.org/2000/svg">
<path d="M3 11V1M17 21V17.25M3 21V16M17 12.25V1M10 4.75V1M10 21V9.75" stroke="white" stroke-linecap="round"/>
<path d="M3 16C4.10457 16 5 14.8807 5 13.5C5 12.1193 4.10457 11 3 11C1.89543 11 1 12.1193 1 13.5C1 14.8807 1.89543 16 3 16Z" stroke="white" stroke-linecap="round"/>
<path d="M10 9.75C11.1046 9.75 12 8.63071 12 7.25C12 5.86929 11.1046 4.75 10 4.75C8.89543 4.75 8 5.86929 8 7.25C8 8.63071 8.89543 9.75 10 9.75Z" stroke="white" stroke-linecap="round"/>
<path d="M17 17.25C18.1046 17.25 19 16.1307 19 14.75C19 13.3693 18.1046 12.25 17 12.25C15.8954 12.25 15 13.3693 15 14.75C15 16.1307 15.8954 17.25 17 17.25Z" stroke="white" stroke-linecap="round"/>
</svg>
