<svg width="163" height="42" viewBox="0 0 163 42" fill="none" xmlns="http://www.w3.org/2000/svg">
<g clip-path="url(#clip0_71_28)">
<path d="M58.0906 24.4123L57.1254 27.6919H57.045C56.8841 26.9523 56.5892 25.827 56.1066 24.4766L50.9323 8.88238H45.8652V33.7366H49.2165V18.3997C49.2165 17.4351 49.2165 16.3419 49.1897 14.9914C49.1629 14.3162 49.1092 13.8018 49.0824 13.4159H49.1629C49.3237 14.3805 49.5114 15.0879 49.6454 15.538L55.8653 33.6723H58.2246L64.3909 15.3773C64.5249 14.9593 64.659 14.1233 64.793 13.4159H64.8735C64.793 15.2487 64.7394 16.8885 64.7126 17.8852V33.6402H68.2783V8.81807H63.3989L58.0906 24.4123ZM71.6564 15.8274H75.1417V33.6402H71.6564V15.8274ZM73.4258 8.30362C72.836 8.30362 72.3534 8.56085 71.9513 9.01099C71.5491 9.46113 71.3347 10.0399 71.3347 10.7472C71.3347 11.4225 71.5491 12.0012 71.9513 12.4514C72.3534 12.9015 72.836 13.1266 73.4258 13.1266C74.0156 13.1266 74.525 12.8693 74.9004 12.4514C75.3025 12.0012 75.517 11.4225 75.517 10.7472C75.517 10.072 75.3025 9.49328 74.9004 9.01099C74.5518 8.56085 74.0425 8.30362 73.4258 8.30362ZM87.501 15.6666C86.8576 15.5059 86.1874 15.4094 85.5439 15.4094C83.9621 15.4094 82.5144 15.8274 81.3079 16.6634C80.1015 17.4994 79.1363 18.6569 78.5197 20.1038C77.8763 21.5828 77.5546 23.2869 77.5546 25.2482C77.5546 26.9523 77.8763 28.4635 78.4929 29.8461C79.1095 31.1965 79.9675 32.2897 81.1203 33.0292C82.2195 33.7688 83.5064 34.1546 84.9541 34.1546C86.6163 34.1546 88.0372 33.7366 89.1633 32.9649L89.1901 32.9328V29.0744L89.056 29.203C88.5466 29.6532 87.9568 30.039 87.367 30.2641C86.7504 30.5213 86.1874 30.6499 85.7048 30.6499C84.3107 30.6499 83.2115 30.1676 82.434 29.1066C81.6297 28.0777 81.2275 26.663 81.2275 24.8945C81.2275 23.0618 81.6297 21.6149 82.4608 20.5539C83.2919 19.4928 84.3911 18.9462 85.7316 18.9462C86.8576 18.9462 88.0104 19.3964 89.056 20.2967L89.1901 20.4253V16.3419L89.1633 16.3097C88.7075 16.0846 88.1981 15.8274 87.501 15.6666ZM99.0025 15.538C98.1446 15.538 97.3403 15.8596 96.6432 16.5348C96.0534 17.1135 95.6513 17.9495 95.3027 18.9462H95.2759V15.8274H91.7906V33.6402H95.2759V24.5409C95.2759 22.9975 95.544 21.7114 96.1338 20.779C96.7237 19.8144 97.4743 19.3321 98.3859 19.3321C98.7076 19.3321 99.0293 19.4285 99.4315 19.4929C99.8068 19.6215 100.075 19.7501 100.263 19.9108L100.397 20.0395V15.8596L100.316 15.8274C100.075 15.6345 99.5923 15.538 99.0025 15.538ZM108.493 15.4416C106.054 15.4416 104.096 16.3097 102.729 18.0138C101.335 19.7179 100.665 22.0651 100.665 25.0232C100.665 27.7883 101.362 30.039 102.702 31.6788C104.043 33.2865 105.866 34.1224 108.145 34.1224C110.531 34.1224 112.434 33.2543 113.802 31.5181C115.196 29.7818 115.866 27.4668 115.866 24.6052C115.866 21.7757 115.222 19.525 113.909 17.8852C112.649 16.2454 110.799 15.4416 108.493 15.4416ZM111.281 29.1387C110.638 30.1355 109.619 30.6178 108.359 30.6178C107.099 30.6178 106.08 30.1355 105.356 29.0744C104.633 28.0777 104.284 26.6308 104.284 24.7981C104.284 22.9011 104.659 21.4542 105.356 20.4253C106.08 19.3964 107.072 18.8819 108.332 18.8819C109.566 18.8819 110.531 19.3642 111.228 20.361C111.925 21.3577 112.3 22.8046 112.3 24.7016C112.247 26.6308 111.952 28.142 111.281 29.1387ZM123.641 23.2226C122.542 22.676 121.845 22.258 121.523 21.9043C121.255 21.5828 121.121 21.1327 121.121 20.5539C121.121 20.0716 121.282 19.5893 121.684 19.2678C122.086 18.9462 122.542 18.7855 123.212 18.7855C123.802 18.7855 124.418 18.9141 125.008 19.107C125.598 19.2999 126.134 19.5893 126.563 19.9751L126.697 20.1038V16.1811L126.617 16.1489C126.215 15.956 125.678 15.7631 125.035 15.6023C124.391 15.4737 123.802 15.4094 123.319 15.4094C121.657 15.4094 120.29 15.8917 119.217 16.9528C118.145 17.9495 117.635 19.2999 117.635 20.8754C117.635 21.7114 117.743 22.4509 117.984 23.0618C118.225 23.6727 118.574 24.2515 119.056 24.7338C119.539 25.1839 120.236 25.6984 121.201 26.1807C122.005 26.5987 122.622 26.9202 122.997 27.1774C123.373 27.4346 123.614 27.724 123.802 27.9491C123.936 28.2063 124.016 28.5278 124.016 28.9458C124.016 30.1355 123.265 30.7142 121.737 30.7142C121.147 30.7142 120.531 30.5856 119.807 30.2962C119.083 30.0069 118.413 29.5889 117.85 29.1066L117.716 28.978V33.0614L117.796 33.0936C118.306 33.3829 118.922 33.5758 119.673 33.8009C120.424 33.9617 121.094 34.0903 121.684 34.0903C123.48 34.0903 124.955 33.608 126 32.5469C127.072 31.5181 127.635 30.1998 127.635 28.4957C127.635 27.306 127.367 26.245 126.778 25.4411C126 24.6695 125.035 23.8657 123.641 23.2226ZM136.831 15.4416C134.392 15.4416 132.434 16.3097 131.067 18.0138C129.7 19.7179 129.003 22.0651 129.003 25.0232C129.003 27.7883 129.7 30.039 131.04 31.6788C132.381 33.2865 134.204 34.1224 136.483 34.1224C138.869 34.1224 140.772 33.2543 142.14 31.5181C143.534 29.7818 144.204 27.4668 144.204 24.6052C144.204 21.7757 143.561 19.525 142.247 17.8852C140.987 16.2454 139.137 15.4416 136.831 15.4416ZM139.593 29.1387C138.949 30.1355 137.931 30.6178 136.67 30.6178C135.384 30.6178 134.392 30.1355 133.668 29.0744C132.944 28.0777 132.595 26.6308 132.595 24.7981C132.595 22.9011 132.971 21.4542 133.668 20.4253C134.392 19.3964 135.384 18.8819 136.644 18.8819C137.85 18.8819 138.842 19.3642 139.539 20.361C140.236 21.3577 140.611 22.8046 140.611 24.7016C140.611 26.6308 140.263 28.142 139.593 29.1387ZM162.837 19.2678V15.8274H159.325V10.5543L159.218 10.5865L155.893 11.7761L155.813 11.8083V15.8274H150.558V13.5767C150.558 12.5478 150.772 11.744 151.148 11.2295C151.523 10.7151 152.086 10.4579 152.783 10.4579C153.266 10.4579 153.775 10.5865 154.338 10.8759L154.472 10.9723V7.33903L154.392 7.30688C153.909 7.11396 153.266 6.98535 152.435 6.98535C151.389 6.98535 150.478 7.27473 149.646 7.75702C148.815 8.30362 148.199 9.04314 147.743 10.0399C147.287 11.0045 147.046 12.0977 147.046 13.3516V15.8274H144.606V19.2356H147.046V33.6402H150.558V19.2678H155.813V28.4314C155.813 32.1933 157.287 34.0903 160.236 34.0903C160.719 34.0903 161.228 33.9938 161.711 33.8974C162.22 33.7688 162.596 33.608 162.81 33.4794L162.837 33.4472V30.0069L162.703 30.1355C162.488 30.2962 162.301 30.4249 161.979 30.5213C161.711 30.6178 161.47 30.6499 161.282 30.6499C160.585 30.6499 160.102 30.457 159.754 29.9747C159.432 29.5246 159.271 28.7851 159.271 27.6919V19.2678H162.837Z" fill="#737373"/>
<path d="M0.931885 0.522461H17.3664V20.2322H0.931885V0.522461Z" fill="#F25022"/>
<path d="M19.0823 0.522461H35.5168V20.2322H19.0823V0.522461Z" fill="#7FBA00"/>
<path d="M0.931885 22.29H17.3664V41.9998H0.931885V22.29Z" fill="#00A4EF"/>
<path d="M19.0823 22.29H35.5168V41.9998H19.0823V22.29Z" fill="#FFB900"/>
</g>
<defs>
<clipPath id="clip0_71_28">
<rect width="161.932" height="41.4773" fill="white" transform="translate(0.931885 0.522461)"/>
</clipPath>
</defs>
</svg>
