<svg width="92" height="35" viewBox="0 0 92 35" fill="none" xmlns="http://www.w3.org/2000/svg">
<path d="M18.4008 32.3701H0.84082V34.7461H18.4008V32.3701Z" fill="black"/>
<path d="M18.4008 27.8584H0.84082V30.2344H18.4008V27.8584Z" fill="black"/>
<path d="M13.4038 23.3198H5.86597V25.6958H13.4038V23.3198Z" fill="black"/>
<path d="M13.4038 18.7817H5.86597V21.1577H13.4038V18.7817Z" fill="black"/>
<path d="M13.4038 14.27H5.86597V16.646H13.4038V14.27Z" fill="black"/>
<path d="M13.4038 9.73145H5.86597V12.1074H13.4038V9.73145Z" fill="black"/>
<path d="M18.4008 5.19336H0.84082V7.56931H18.4008V5.19336Z" fill="black"/>
<path d="M18.4008 0.681641H0.84082V3.0576H18.4008V0.681641Z" fill="black"/>
<path d="M20.9136 30.2344H47.7053C48.157 29.4869 48.4958 28.686 48.7217 27.8584H20.9418V30.2344H20.9136Z" fill="black"/>
<path d="M45.5879 18.7817H25.9387V21.1577H47.7053C47.1406 20.2767 46.4348 19.4758 45.5879 18.7817Z" fill="black"/>
<path d="M25.9387 14.27V16.646H45.5879C46.4348 15.9786 47.1406 15.1777 47.677 14.27H25.9387Z" fill="black"/>
<path d="M47.7052 5.19336H20.9417V7.56931H48.7215C48.4957 6.74173 48.1569 5.94085 47.7052 5.19336Z" fill="black"/>
<path d="M39.4052 0.681641H20.9136V3.0576H45.8703C44.0917 1.50922 41.7767 0.681641 39.4052 0.681641Z" fill="black"/>
<path d="M33.4765 9.73145H25.9387V12.1074H33.4765V9.73145Z" fill="black"/>
<path d="M40.5344 12.1074H48.6369C48.8627 11.3332 48.9757 10.5323 48.9757 9.73145H40.5344V12.1074Z" fill="black"/>
<path d="M33.4765 23.3198H25.9387V25.6958H33.4765V23.3198Z" fill="black"/>
<path d="M40.5344 23.3198V25.6958H48.9757C48.9757 24.8949 48.8627 24.094 48.6369 23.3198H40.5344Z" fill="black"/>
<path d="M20.9136 34.7457L39.4052 34.7724C41.8049 34.7724 44.1199 33.9182 45.8703 32.3965H20.9136V34.7457Z" fill="black"/>
<path d="M71.1091 34.7461L71.9842 32.3701H70.2339L71.1091 34.7461Z" fill="black"/>
<path d="M69.4435 30.2344H72.7748L73.65 27.8584H68.54L69.4435 30.2344Z" fill="black"/>
<path d="M67.7497 25.6958H74.4688L75.344 23.3198H66.8745L67.7497 25.6958Z" fill="black"/>
<path d="M66.0556 21.1577H76.1343L77.0377 18.7817H65.1804L66.0556 21.1577Z" fill="black"/>
<path d="M56.0618 12.1074H69.6129L68.7377 9.73145H56.0618V12.1074Z" fill="black"/>
<path d="M74.271 7.56931H91.1817V5.19336H75.1462L74.271 7.56931Z" fill="black"/>
<path d="M76.8119 0.681641L75.9368 3.0576H91.1818V0.681641H76.8119Z" fill="black"/>
<path d="M63.5714 32.3701H51.0366V34.7461H63.5714V32.3701Z" fill="black"/>
<path d="M63.5714 27.8584H51.0366V30.2344H63.5714V27.8584Z" fill="black"/>
<path d="M63.5996 23.3198H56.0618V25.6958H63.5996V23.3198Z" fill="black"/>
<path d="M63.5996 18.7817H56.0618V21.1577H63.5996V18.7817Z" fill="black"/>
<path d="M86.1566 9.73145H73.4806L72.6055 12.1074H86.1566V9.73145Z" fill="black"/>
<path d="M78.647 16.646H86.1566V14.27H78.647H71.815L71.1092 16.1921L70.4034 14.27H63.5714H56.0618V16.646H63.5714V14.4569L64.3901 16.646H77.8283L78.647 14.4569V16.646Z" fill="black"/>
<path d="M86.1848 18.7817H78.647V21.1577H86.1848V18.7817Z" fill="black"/>
<path d="M86.1848 23.3198H78.647V25.6958H86.1848V23.3198Z" fill="black"/>
<path d="M91.1818 27.8584H78.647V30.2344H91.1818V27.8584Z" fill="black"/>
<path d="M91.1818 32.3701H78.647V34.7461H91.1818V32.3701Z" fill="black"/>
<path d="M67.9473 7.56931L67.0721 5.19336H51.0366V7.56931H67.9473Z" fill="black"/>
<path d="M66.2817 3.0576L65.4065 0.681641H51.0366V3.0576H66.2817Z" fill="black"/>
</svg>
