<svg width="122" height="63" viewBox="0 0 122 63" fill="none" xmlns="http://www.w3.org/2000/svg">
<g clip-path="url(#clip0_71_58)">
<path d="M121.591 0.817871H0V62.7497H121.591V0.817871Z" fill="white"/>
<path d="M91.6755 49.2518C92.8778 49.2575 93.6708 49.7048 93.6623 50.2725C93.6623 50.6682 93.2018 51.0122 92.5623 51.0122C91.2066 51.0065 91.5476 50.3356 90.9849 50.3356C89.4757 50.3298 88.3587 52.2279 87.2161 53.8852C86.7556 54.5504 86.4913 54.6708 86.1161 54.6708C85.1697 54.6651 84.965 52.9562 84.5898 52.2165C83.7883 53.3289 82.2706 54.6593 79.7808 54.6479C78.3483 54.6421 76.9243 54.1432 76.9414 52.6351C76.9584 50.9549 78.6211 49.7449 80.318 49.7507C81.597 49.7564 82.4582 50.628 82.4496 51.2473C82.4326 52.9046 79.1157 52.939 79.1072 53.2888C79.1072 53.6099 79.9684 53.7361 80.4629 53.7418C82.5775 53.7476 84.01 51.8839 84.4875 50.6166C84.5728 50.3987 84.8712 49.9227 85.4766 49.9284C86.1588 49.9284 85.8262 52.7268 86.7727 52.7326C87.344 52.7268 88.1284 49.2403 91.6755 49.2518ZM60.7321 47.239C60.9794 50.2324 59.4531 51.471 58.6857 52.5433C58.8136 52.9619 59.8794 53.6787 60.9026 53.6787C61.2778 53.6787 61.7382 53.5583 61.8491 53.4608C61.7723 53.2888 61.7041 53.0652 61.7041 52.744C61.7212 51.0122 63.4351 49.5557 64.9017 49.5614C66.0698 49.5672 66.7434 50.5822 66.7349 51.2531C66.7264 52.0444 65.7032 52.6867 64.1854 53.2945C64.4497 53.4666 64.9358 53.5927 65.3536 53.5985C67.5023 53.6099 68.6449 51.9011 69.4976 50.347C69.651 50.0489 69.9239 49.6302 70.444 49.636C71.3479 49.6417 71.6889 53.5526 73.1982 53.5583C73.8377 53.5583 74.3748 52.6982 74.3834 52.0272C74.3919 51.5341 74.1276 51.4825 74.1276 50.7599C74.1361 49.9686 74.7841 49.3034 75.6538 49.3091C76.1825 49.3091 76.3701 49.6589 76.3616 50.0775C76.3445 51.6602 74.5795 54.602 72.0215 54.5905C70.0944 54.5848 70.265 52.4057 69.5914 52.4C68.8325 52.3942 67.7581 54.5963 64.0234 54.5791C63.418 54.5791 62.7785 54.3783 62.2584 53.9769C61.3545 54.3726 60.5957 54.5389 59.7259 54.5389C58.3361 54.5332 57.7392 53.5927 57.1679 53.587C56.4858 53.587 55.7269 54.5446 53.4588 54.5389C51.6511 54.5332 51.3612 52.9505 50.7217 52.9447C50.159 52.9447 49.2722 54.5217 48.3342 54.516C46.7483 54.5102 46.4413 51.7634 45.0429 51.7577C43.9515 51.752 40.4641 54.5274 39.5261 54.4586C39.151 54.43 38.989 54.2465 39.0316 53.9999C39.0913 53.6558 39.5432 52.744 39.7308 52.3082C40.0463 51.557 40.3277 50.7312 40.4897 50.4732C40.6431 50.2094 41.0695 50.0202 41.402 50.0431C41.5726 50.0546 41.6237 50.261 41.6749 50.4331C41.8625 51.0466 42.1183 51.6717 42.4167 51.6717C42.9454 51.6717 44.7189 49.4754 45.7336 49.4811C46.9785 49.4869 47.0979 52.9505 48.7947 52.9619C49.3574 52.9619 49.7838 52.5204 50.159 51.9756C50.2101 51.0581 50.5938 49.7507 51.7279 49.7564C52.5209 49.7621 52.8875 50.9262 52.3077 51.9355C52.2992 53.1454 53.5014 53.4494 54.2944 53.4494C54.8572 53.4494 55.8292 53.3347 56.6052 52.5376C56.1703 51.8953 55.8719 50.6108 55.8377 50.1406C55.6331 47.7379 57.0656 45.49 58.6089 45.4326C59.743 45.3925 60.6468 46.0978 60.7321 47.239ZM38.213 46.8261C38.5456 47.6175 38.5711 48.6554 38.4432 50.1406C38.2727 52.1706 36.7038 54.6135 32.8582 54.5446C29.5414 54.4816 28.0833 53.0652 27.9554 50.9147C27.8872 49.9055 28.0065 48.8905 28.6631 47.4569C29.0127 46.6885 29.3197 46.419 30.3684 46.2756C31.1955 46.1781 31.1188 46.7458 30.9227 47.4167C30.4963 48.902 30.3002 49.613 30.4367 51.299C30.5646 53.0824 31.8095 53.782 33.1652 53.7877C35.2031 53.8221 36.1155 52.7096 36.5077 51.104C36.8232 49.8195 36.6015 49.2002 36.4139 48.8045C36.3116 48.5808 35.9961 48.0705 35.9193 47.6977C35.7403 46.872 36.4054 46.3272 37.0108 46.2068C37.6929 46.0806 37.9487 46.31 38.213 46.8261ZM64.3218 50.7485C63.9808 50.7485 63.1878 50.9893 63.1793 51.7807C63.1707 52.4 63.5033 52.6982 63.6568 52.8243C64.7482 52.6064 65.0637 52.01 65.0637 51.5169C65.0722 51.0983 64.7396 50.7485 64.3218 50.7485ZM79.8234 50.737C78.3909 50.7313 78.4932 52.2623 78.7149 52.6351C79.7722 52.5147 80.4544 52.096 80.6505 51.729C80.8381 51.3563 80.6164 50.7427 79.8234 50.737ZM58.6345 46.9179C57.8842 46.9465 57.5175 48.4948 57.6625 50.1234C57.7477 51.19 57.9865 51.3506 58.2167 51.3448C58.6345 51.3276 59.6492 49.4353 59.5213 47.9042C59.4531 47.2046 59.1973 46.8949 58.6345 46.9179ZM52.2309 45.748C52.8705 45.748 53.3479 46.0233 53.3906 46.419C53.4588 46.9867 52.8534 47.606 52.0263 47.6003C51.3015 47.5945 50.9434 47.2619 50.9008 46.849C50.8326 46.2355 51.5147 45.748 52.2309 45.748ZM59.7089 36.1314C60.5701 36.3206 61.5592 36.8539 61.8065 37.1292C62.1475 37.0489 62.5483 37.0088 63.0172 37.003C63.6653 37.003 64.39 37.0833 65.2513 37.2611C65.2939 37.0833 65.328 36.8654 65.7373 36.8654C66.3427 36.8654 66.1807 37.3184 66.3853 37.5707C66.4876 37.7084 66.9907 37.7886 66.9907 38.0639C66.9907 38.3219 66.6667 38.4194 66.4706 38.4194C66.3938 38.4194 66.2915 38.408 66.2318 38.3908C65.8311 38.4882 65.814 40.4494 64.1172 40.4494C62.8723 40.4494 61.7212 39.7555 61.2181 38.8839C61.0732 38.6259 60.7747 38.4596 60.4933 38.4596C60.1693 38.4596 59.9903 38.4997 59.6066 38.7864C58.5237 39.5892 56.7075 40.2888 54.4735 40.2888C53.7913 40.2888 53.2456 40.2487 53.1007 40.2487C53.0239 40.2487 53.0239 40.2602 53.0239 40.2774C53.0239 40.3749 53.7061 40.7419 55.1982 40.7419C58.7454 40.7419 59.6066 39.3885 60.1693 39.3885C60.2461 39.3885 60.4933 39.3885 60.6298 39.6064C61.4569 40.9139 63.256 41.2121 64.39 41.2121C65.3536 41.2121 65.3024 41.1547 65.6094 41.1547C65.9078 41.1547 65.9334 41.2752 65.9334 41.3612C65.9334 41.6594 64.9443 42.0321 63.1963 42.0321C62.1731 42.0321 61.5421 41.6651 61.3631 41.2522C60.3569 41.688 58.8306 42.0837 57.3129 42.0895C53.1859 42.0895 52.1372 40.8795 50.8496 40.4838C49.8605 40.1856 48.3513 40.7705 46.2367 39.1764C46.518 39.2165 46.9018 39.228 47.2002 39.228C49.0505 39.228 50.0396 38.6144 50.0396 37.6281C50.0396 37.5076 50.0225 37.37 49.9969 37.2496C50.5597 37.3987 51.8472 38.0524 52.1542 39.2108C52.1968 39.3484 53.0239 39.4688 53.5441 39.4688C54.2688 39.4688 55.1982 39.2624 55.3347 38.4596C57.7392 38.3277 59.3678 37.3586 59.7089 36.1314ZM74.2725 37.2496C74.7415 37.2496 75.3895 37.5421 75.3895 38.2646C75.3895 39.5319 72.5672 41.0917 68.7813 41.0974C67.6132 41.0974 66.9822 40.5641 66.9822 40.0308C66.9822 39.2681 67.6046 38.5743 68.0906 38.2015C68.3123 38.0295 68.534 37.8919 68.7387 37.8919C68.9007 37.8919 69.3867 38.1155 70.4781 38.1155C72.516 38.1212 73.7439 37.5191 74.2725 37.2496ZM73.0617 38.4252C72.9423 38.4252 72.2602 38.838 70.6572 38.8438H70.3929C70.4099 38.9642 70.4355 39.0445 70.4355 39.1534C70.4355 39.4746 70.3161 39.8072 70.1541 40.1283L72.3625 39.6982C73.0873 39.3885 73.2834 39.0043 73.2834 38.7119C73.2834 38.4653 73.164 38.4252 73.0617 38.4252ZM63.6226 37.9435C63.1793 37.9435 62.8211 38.19 62.8211 38.4882C62.8211 38.7864 63.1878 39.033 63.6312 39.033C64.0746 39.033 64.4327 38.7864 64.4327 38.4882C64.4242 38.1843 64.066 37.9435 63.6226 37.9435ZM44.8212 32.8169C47.294 32.8169 49.1869 34.2161 49.1954 36.2117C49.1954 37.112 48.4621 38.4481 45.4863 38.4481C41.9563 38.4481 39.8075 36.4583 39.8075 35.1623C39.8075 34.0785 40.8904 33.3903 41.564 33.2814C40.8563 35.2139 42.4508 37.112 45.7165 37.112C47.3537 37.112 48.1467 36.5672 48.1467 35.6325C48.1467 34.5888 47.0638 33.5452 45.2476 33.5452C44.3267 33.5452 43.6957 33.8892 43.6957 34.3652C43.6957 35.1565 44.7019 35.6612 45.7421 35.6612C46.4328 35.6612 46.8847 35.4777 46.8847 35.1737C46.8847 35.1221 46.8676 35.0533 46.825 35.0132C46.7397 35.0418 46.5777 35.0648 46.3731 35.0648C45.5375 35.0648 44.8639 34.7494 44.8639 34.4283C44.8639 34.1759 45.1282 34.0211 45.4948 34.0211C46.7227 34.0211 47.5583 34.8411 47.5583 35.4318C47.5583 36.0396 46.8847 36.5672 45.7421 36.5672C43.312 36.5672 42.2888 35.2598 42.2888 34.3881C42.2632 33.4534 43.474 32.8169 44.8212 32.8169ZM57.7818 33.8089C58.157 33.8089 58.3531 34.0211 58.3958 34.2505C58.5322 34.1645 58.6516 34.1243 58.8306 34.1243C59.2314 34.1243 59.4616 34.325 59.4701 34.5372C59.4701 34.6748 59.3508 34.801 59.1888 34.8755C59.4275 34.9501 59.5639 35.0648 59.5639 35.2311C59.5639 35.4318 59.3252 35.5866 59.0097 35.5866C58.7113 35.5866 58.5322 35.3572 58.2167 35.3572C58.0376 35.3572 57.8415 35.4088 57.7648 35.4834C57.8842 35.6612 57.9439 35.8332 57.9439 35.9995C57.9439 36.9858 55.9827 37.7772 53.9448 37.7829C51.9069 37.7829 51.1651 36.9801 51.1651 36.6475C51.1651 36.5729 51.2418 36.5328 51.3868 36.5328C51.7279 36.5328 51.8046 36.6073 52.717 36.6073C54.8998 36.6073 54.1239 34.7264 56.1618 34.7264C56.4431 34.7264 57.0571 34.8526 57.2702 35.1049C57.4322 34.9788 57.4919 34.8526 57.4919 34.7379C57.4919 34.5257 57.2702 34.3594 57.2702 34.1587C57.2702 33.9523 57.4834 33.8089 57.7818 33.8089ZM71.3223 35.7988C72.5331 35.7988 73.4198 36.0224 73.4198 36.4124V36.722C73.4198 36.8711 73.3857 37.0202 73.2152 37.112C72.6951 37.4044 71.9021 37.5535 71.0324 37.5535C69.9409 37.5535 69.0456 37.3012 69.0456 37.0489V36.4353C69.0542 36.2403 69.8471 35.7988 71.3223 35.7988ZM77.8793 31.1596C79.5079 31.1596 81.3156 31.8879 81.3156 33.528C81.3156 35.277 77.5553 37.4503 76.9925 37.4503C76.5321 37.4503 76.029 37.0145 76.029 36.722C76.029 36.6303 76.0887 36.5099 76.4895 36.4066C78.408 35.902 79.5079 34.7379 79.5079 34.1415C79.5079 34.0096 79.4056 33.8778 79.1498 33.8778C78.8087 33.8778 77.3507 36.074 75.7221 36.0798C74.5965 36.0798 73.454 35.4088 73.454 35.0877C73.454 34.5602 76.7026 33.5738 76.7026 32.8341C76.7026 32.5531 76.498 32.5416 76.3445 32.5416C75.9267 32.5416 73.5989 34.5946 72.0982 34.5946C71.7401 34.5946 71.4331 34.1473 71.4331 33.8032C71.4331 33.6197 71.6122 33.4878 72.2517 33.3903C75.705 32.8742 74.9376 31.1654 77.8793 31.1596ZM65.5241 28.5103C66.4109 28.5103 67.1527 28.7168 67.1527 28.9748C67.1527 29.3304 65.8481 29.1124 65.7458 29.5368C66.6752 29.6171 66.8969 29.835 66.8969 30.0185C66.8969 30.3224 66.4961 30.4142 66.1124 30.4142C65.8311 30.4142 65.507 30.374 65.166 30.374C64.7226 30.374 64.2792 30.4428 63.9211 30.7296C64.1854 30.7582 64.5691 30.8786 64.5691 31.1539C64.5691 31.951 61.329 31.2915 61.329 33.333C61.329 34.4168 62.9831 35.5923 65.4729 35.5923C66.7605 35.5923 67.5876 35.3056 67.5876 34.973C67.5876 34.715 66.9054 34.8927 66.9054 34.6691C66.9054 34.5716 67.1442 34.3939 67.1442 34.2448C67.1442 34.1759 67.0674 34.0555 66.9054 34.0555C66.5388 34.0555 65.8566 34.4512 64.4668 34.4512C63.3839 34.4512 62.3095 34.0268 62.3095 33.4534C62.3095 33.333 62.3863 33.2584 62.5142 33.2584C62.6335 33.2584 62.7956 33.3158 62.9405 33.3158C63.0599 33.3158 63.0855 33.2584 63.0855 33.1093C63.0855 32.9602 63.0855 32.5359 63.4692 32.5302C63.8529 32.5302 64.5776 33.4878 67.3573 33.4878C68.2782 33.4878 70.0688 33.3617 70.7339 32.9488C70.7169 34.4569 68.986 36.4468 65.3621 36.4468C61.6018 36.4468 59.581 34.3939 59.581 32.5015C59.5639 30.4199 62.0793 28.5161 65.5241 28.5103ZM46.7142 31.1596C47.6947 31.1596 48.411 31.3489 49.0761 32.0255C49.6815 32.6334 49.7753 33.6484 50.0993 33.8376C50.2613 33.9294 50.5171 33.958 50.6961 33.958C50.8923 33.958 51.0798 33.9466 51.2163 33.9466C52.6573 33.9466 53.6379 35.0418 53.6379 35.5235C53.6379 35.9708 53.058 36.1314 52.3418 36.1314C51.4806 36.1314 50.5 35.7988 49.9969 35.4203C49.6132 35.1508 49.4171 34.6118 49.2551 33.9466C49.0931 33.2584 48.2916 32.6735 46.6971 32.4097C45.4181 32.1918 45.239 32.0313 45.239 31.8019C45.239 31.4177 46.015 31.1596 46.7142 31.1596ZM51.276 34.4397C51.0543 34.4397 50.7729 34.5487 50.7814 34.7494C50.7814 34.9902 51.6852 35.4261 52.2821 35.4261C52.5805 35.4261 52.6829 35.3056 52.6829 35.2081C52.6743 34.8583 51.779 34.4397 51.276 34.4397ZM39.5944 21.2276C39.8587 21.2276 39.9781 21.4054 39.9866 21.5774C39.9866 22.2254 38.7502 24.0891 38.7502 24.6166C38.7502 24.6969 38.7928 24.7657 38.8952 24.7657C39.4068 24.7657 40.4214 23.3092 40.7455 22.5752C40.9245 22.1967 41.1718 21.996 41.402 21.996C41.6067 21.996 41.7857 22.1451 41.7942 22.4548C41.7942 23.183 40.7796 24.8976 39.8843 26.0503C39.1936 26.9391 38.1107 28.2236 38.1107 28.9404C38.1107 29.3074 38.213 29.6802 39.006 30.1389C37.7014 30.0873 37.1728 30.007 36.6782 29.3303C34.5039 32.209 40.7028 31.9223 38.5797 34.4741C38.1874 34.0154 35.1349 33.5452 35.1264 30.8729C35.1264 28.5619 38.1789 27.2143 38.1789 26.251C38.1789 26.0617 38.0766 25.9012 37.8123 25.7521C37.1387 25.3736 37.1131 25.0639 36.5844 25.0639C36.1922 25.0639 35.7317 25.6603 36.2178 26.1821C36.3798 26.3599 36.5247 26.4631 36.5247 26.6294C36.5247 27.0079 35.6294 28.0229 34.9985 28.0229C34.3675 28.0229 33.8729 26.985 33.8729 25.3105C33.8729 23.8253 34.376 22.3286 35.007 22.3286C35.186 22.3286 35.2543 22.4089 35.2543 22.5178C35.2543 22.6956 35.1775 23.0454 35.1775 23.6361C35.1775 24.2726 35.3992 24.3242 35.5868 24.3242C36.2775 24.3242 36.1325 21.5143 37.258 21.5143C37.5224 21.5143 37.6076 21.6921 37.6076 21.9043C37.6076 22.5408 37.1387 23.4698 37.1387 23.9859C37.1387 24.2439 37.241 24.3242 37.4286 24.3242C37.9061 24.3185 38.7587 21.2276 39.5944 21.2276ZM55.0789 28.0974C55.2579 28.7798 55.6757 29.1354 56.571 29.359C58.3361 29.7891 58.5748 30.4486 58.5748 31.1482C58.5748 32.3352 57.3299 33.8089 54.1068 33.8089C51.5232 33.8089 49.6729 32.2836 49.6729 30.9933C49.6729 30.6378 49.8094 30.2421 50.1504 30.2421C50.4489 30.2421 50.5512 30.397 50.7899 30.5575C51.6852 31.1482 52.6573 31.3087 54.0642 31.303C55.3347 31.303 56.2641 30.9589 56.2641 30.6034C56.2641 30.0127 54.4138 30.0013 54.4138 29.1067C54.4308 28.8888 54.644 28.5046 55.0789 28.0974ZM78.5018 31.7159C78.2204 31.7159 77.922 31.865 77.922 32.2205C77.922 32.6162 78.3824 32.8685 78.6467 32.9488C78.7831 33.0004 79.0048 33.052 79.2265 33.052C79.8064 33.052 80.2668 32.943 80.2668 32.6276C80.2753 32.2205 79.3715 31.7159 78.5018 31.7159ZM57.1679 31.2055C57.0059 31.2055 56.8354 31.4177 56.3579 31.561C55.6757 31.7675 55.4029 31.7331 55.4029 32.1918C55.4029 32.3639 55.3432 32.5875 55.3432 32.7022C55.3432 32.8628 55.3858 32.9545 55.6587 32.9545C56.3749 32.9545 57.5005 32.1517 57.5005 31.4636C57.509 31.2801 57.347 31.2055 57.1679 31.2055ZM65.2598 31.1424C66.4279 31.1424 67.2124 31.6471 67.2124 32.1689C67.2124 32.5244 66.8287 32.8284 66.2659 32.8284C65.7458 32.8284 65.3792 32.5416 65.3792 32.2148C65.3792 31.9797 65.5156 31.7617 65.5156 31.5553C65.5241 31.4177 65.4644 31.2801 65.2598 31.1424ZM82.9698 27.8509C83.9674 27.8509 84.7689 28.7225 84.7689 29.7432C84.7689 30.8328 84.01 32.0141 82.6543 32.8169C82.6287 31.0048 79.3289 31.584 79.3289 30.2708C79.3289 29.7088 79.9257 29.3303 80.6505 29.3303C81.29 29.3303 81.7931 29.4508 82.1512 29.6916C81.7931 29.4622 81.614 29.1411 81.6055 28.8315C81.614 28.3211 82.1 27.8509 82.9698 27.8509ZM41.1377 29.187C41.9136 29.0952 42.4764 29.4622 42.664 29.8751C42.826 29.7776 43.0647 29.7088 43.3291 29.6859C44.0027 29.6285 44.6592 30.0013 44.736 30.5002C44.7957 30.9876 44.3096 31.389 43.5849 31.4865C43.5081 31.498 43.4143 31.5037 43.4143 31.5037C43.474 31.6012 43.5166 31.6872 43.5337 31.8248C43.619 32.3409 43.1074 32.7423 42.3741 32.8112C41.6408 32.88 41.1036 32.5932 40.9416 32.146C40.7796 32.2148 40.5408 32.2664 40.2765 32.2836C39.5517 32.3409 38.9122 31.9797 38.8269 31.5037C38.7332 30.9647 39.3641 30.5575 39.9525 30.4944C40.0377 30.4887 40.1486 30.4715 40.1486 30.4715C40.0889 30.374 40.0548 30.2765 40.0463 30.1962C39.9781 29.6802 40.4385 29.2673 41.1377 29.187ZM71.9191 30.2651C73.4284 30.3339 74.3919 30.9475 74.3919 31.6757C74.3919 32.209 73.8291 32.6621 73.002 32.6621C72.2432 32.6621 71.7401 32.2951 71.7401 31.842C71.7401 31.4464 72.1238 31.0908 72.1238 30.7066C72.1238 30.5633 72.0641 30.4142 71.9191 30.2651ZM67.9372 28.8143C70.0518 29.0895 71.2029 30.1676 71.2029 31.1826C71.2029 31.8822 70.5634 32.5244 69.4293 32.5244C68.4061 32.5244 67.6643 32.0485 67.6558 31.2801C67.6558 30.7066 68.3123 30.0988 68.3123 29.5139C68.3123 29.2787 68.2185 29.0436 67.9372 28.8143ZM41.8028 30.4887L41.726 30.4944C41.3082 30.5288 41.0098 30.7926 41.0524 31.0794C41.1036 31.3718 41.4788 31.5782 41.9051 31.5438C42.3229 31.5094 42.6213 31.2456 42.5787 30.9589C42.5275 30.6665 42.1524 30.46 41.726 30.4944L41.8028 30.4887ZM69.2418 29.8809C69.0797 29.8809 69.1394 30.0472 69.0968 30.2249C69.0797 30.3625 68.9774 30.5288 68.9774 30.6378C68.9774 30.827 69.1821 30.9819 69.4634 30.9819C69.7875 30.9819 69.9836 30.7869 69.9836 30.569C69.9921 30.2765 69.6084 29.8809 69.2418 29.8809ZM73.2493 24.026C73.5563 24.026 73.9826 24.6912 74.1872 24.6912C74.5113 24.6912 74.9547 24.1464 75.2616 24.1464C75.3639 24.1464 75.4066 24.1866 75.4066 24.3127C75.4066 24.8174 75.0229 25.3908 75.0229 25.884C75.0229 26.2223 75.1849 26.618 75.6965 26.618C76.1228 26.618 76.4895 26.1821 76.4895 25.7062C76.4895 25.1614 76.3445 24.7371 76.3445 24.5192C76.3445 24.4217 76.4042 24.3815 76.4895 24.3815C76.7964 24.393 77.0778 24.955 77.4018 24.955C77.7685 24.955 78.3142 24.502 78.5359 24.502C78.5956 24.502 78.6126 24.5593 78.6126 24.5708C78.6126 24.7772 78.1437 25.2245 78.1437 25.4023C78.1437 25.5514 79.3203 25.58 79.3203 25.7177C79.3203 25.9241 78.084 25.9241 77.4956 26.1019C76.9243 26.2682 76.5833 26.4689 76.5833 26.7441C76.5833 27.0194 76.9925 27.071 77.5553 27.071C78.9111 27.071 79.866 26.5778 80.173 26.5778C80.2327 26.5778 80.2753 26.6065 80.2753 26.6466C80.2753 26.7843 79.5847 27.2315 79.5847 27.438C79.5847 27.6674 80.8466 27.9426 80.821 28.0802C80.804 28.1204 80.7187 28.1376 80.5738 28.1376C80.3521 28.1376 80.0025 28.0974 79.7381 28.0974C79.5761 28.0974 79.4312 28.1089 79.3715 28.1663C79.2351 28.2752 79.4141 28.9978 79.1327 28.9978C78.8684 28.9978 78.1778 27.3864 76.6174 27.3921C76.3957 27.3921 76.2337 27.5125 76.2337 27.719C76.2337 28.2637 77.0266 28.8888 77.777 29.1927C78.1181 29.3418 78.6894 29.4909 78.6894 29.5769C78.6894 29.7375 77.3933 29.5941 77.3933 29.8637C77.3933 30.1102 77.5553 30.4772 77.5553 30.6951C77.5553 30.764 77.5382 30.8442 77.4103 30.8442C77.1631 30.8442 76.5747 30.093 76.2934 30.093C76.0461 30.093 75.5259 30.5403 75.2957 30.546C75.236 30.546 75.1934 30.5059 75.1934 30.4658C75.1934 30.1504 75.9438 29.4393 75.9438 28.7454C75.9438 28.4186 75.8841 27.7075 75.2957 27.7075C74.8097 27.7075 74.264 28.2236 74.0167 28.7454C73.8718 29.0436 73.9826 30.2077 73.6501 30.2077C73.3431 30.2077 73.4284 29.4278 73.0191 29.4278C72.7207 29.4278 72.0726 29.7948 71.8424 29.7948C71.7998 29.7948 71.7571 29.7834 71.7571 29.7547C71.7571 29.5941 72.3455 29.0608 72.3455 28.9519C72.3455 28.7454 71.0068 28.7225 71.0068 28.5562C71.0068 28.4587 71.5354 28.3899 72.0215 28.3383C73.0532 28.2121 74.5795 27.7075 74.5795 27.0022C74.5795 26.2108 73.4369 25.8725 72.6951 25.5456C72.3114 25.3793 71.885 25.2474 71.885 25.1385C71.885 25.0295 72.3711 25.0295 72.5757 25.0295C72.8827 25.0295 73.1811 25.0181 73.1811 24.8518C73.1811 24.7313 73.1385 24.4848 73.1385 24.2955C73.147 24.135 73.164 24.026 73.2493 24.026ZM52.7511 21.8871C53.7999 22.2655 54.5758 22.9135 54.5758 23.4411C54.5758 24.3471 53.1518 24.7715 53.1518 25.3392C53.1518 25.9986 54.6781 26.1019 54.6866 26.9162C54.6866 27.5871 53.2371 28.3612 53.2371 29.2329C53.2371 29.9038 53.9533 30.4543 55.0448 30.546C54.6866 30.5977 54.3712 30.6378 54.0301 30.6378C52.0263 30.6378 49.9543 29.5483 49.9543 28.2465C49.9543 27.6043 50.3721 27.0366 51.0031 26.6294C51.5573 26.9448 52.1201 27.157 52.4697 27.157C52.7852 27.157 52.9301 27.0538 52.9301 26.8932C52.9301 26.4058 50.0055 25.9585 50.0055 24.9206C50.0055 24.0776 53.0239 23.6303 53.0239 22.5867C53.0325 22.4146 52.9301 22.1107 52.7511 21.8871ZM45.1111 21.8871C44.6933 22.3745 44.591 23.011 44.591 23.4009C44.591 25.7005 48.6924 27.8451 48.6924 29.2673C48.6924 29.8464 48.0784 30.5002 46.9359 30.5002C45.9382 30.5002 45.3925 29.9611 45.3925 29.5139C45.3925 29.1641 45.7506 28.8888 45.87 28.8888C45.9297 28.8888 45.9468 28.9175 45.9468 29.0092C45.9468 29.1985 46.1685 29.445 46.6289 29.4393C47.0467 29.4393 47.3281 29.2386 47.3281 28.9805C47.3281 27.8566 43.943 25.9012 43.943 23.2117C43.7639 23.5099 43.5422 23.8884 43.5422 24.4561C43.5422 25.7521 44.9491 27.1054 44.9491 28.3211C44.9491 28.82 44.3693 29.2673 43.6531 29.2673C42.8175 29.2673 42.5105 28.82 42.5105 28.539C42.5105 28.3498 42.6299 28.172 42.7066 28.172C42.8089 28.172 42.7663 28.4587 43.2267 28.453C43.7042 28.453 43.8833 28.2236 43.8833 27.805C43.8833 26.681 42.9198 25.884 42.9198 24.7256C42.9198 24.5478 42.9198 24.3586 42.9795 24.1866C42.4593 24.6052 42.3996 25.2016 42.3996 25.7291V27.1111C42.3996 28.0401 41.7005 28.4645 40.8648 28.4645C40.3277 28.4645 39.7819 28.1835 39.7819 27.6788C39.7819 27.61 39.8416 27.3692 39.961 27.3692C40.123 27.3692 40.2424 27.6502 40.7028 27.6502C41.5811 27.6502 41.6408 27.071 41.6408 25.9069C41.6578 24.5708 42.4679 23.0397 45.1111 21.8871ZM65.328 21.8871C65.5497 23.0454 67.8689 22.4605 67.8689 23.8654C67.8689 24.0719 67.7922 24.3701 67.7922 24.6281C67.7922 24.9263 67.8348 25.1901 68.1759 25.1901C68.517 25.1901 68.6022 25.0238 68.6022 24.8059C68.6022 24.588 68.517 24.3127 68.517 24.1636C68.517 23.6877 69.0201 23.5787 69.327 23.5787C70.103 23.5787 70.6913 24.112 71.8509 24.1063C71.5866 24.9779 68.9092 24.7485 68.9092 25.7062C68.9092 26.1821 69.6169 26.2911 70.0859 26.2911C70.5122 26.2911 70.6572 26.251 70.6572 26.0044C70.6572 25.8668 70.6146 25.7177 70.6146 25.6202C70.6146 25.5628 70.6742 25.5112 70.7766 25.5112C71.22 25.5112 73.4113 26.6294 73.4113 26.9678C73.4113 27.2832 71.1006 27.5986 70.427 27.5986C70.2223 27.5986 70.1797 27.5011 70.1797 27.4495C70.1797 27.352 70.5208 27.0653 70.5208 26.9047C70.5208 26.7843 70.2138 26.6982 69.4038 26.6982C69.0201 26.6982 68.7301 26.7269 68.7301 26.9334C68.7301 27.3004 69.6255 27.7534 69.6255 28.0917C69.6255 28.367 69.3782 28.5275 68.7301 28.5275C68.1844 28.5275 67.3488 28.2408 67.3488 27.7649C67.3488 27.3806 67.9372 27.0022 67.9372 26.7671C67.9372 26.6982 67.8604 26.5893 67.6131 26.5893C66.8628 26.5893 66.6582 27.9254 63.9978 28.0802C64.4242 27.8222 64.7908 27.5355 64.7908 26.9506C64.7908 26.6638 64.6885 26.4287 64.6885 26.1191C64.6885 25.7119 64.9699 25.5055 65.3792 25.5055C66.1295 25.5055 66.4962 26.2166 66.9822 26.2166C67.2465 26.2166 67.5279 26.056 67.5279 25.8094C67.5279 24.7715 64.5606 24.9263 64.5606 23.464C64.5776 23.0626 64.7823 22.5695 65.328 21.8871ZM73.4454 16.5884C73.5477 16.5884 73.9656 16.944 75.3213 16.9382C76.0205 16.9382 76.66 16.8178 77.6747 16.8121C80.0622 16.8121 81.1195 17.936 82.5946 19.3754C83.4899 19.7538 85.6216 20.3674 85.6216 22.0935C85.6216 23.6131 83.2511 24.4618 82.6799 26.0904C83.5922 26.0216 84.1294 24.9091 85.0673 24.9091C85.5448 24.9091 85.7665 25.1672 85.7665 25.5743C85.7665 26.1707 85.272 27.071 84.317 27.6272C84.334 27.5699 84.334 27.5068 84.334 27.4208C84.334 27.0423 84.1124 26.4975 83.4728 26.4975C82.4837 26.4975 82.1597 27.2315 81.6055 27.8451C81.0257 26.4574 80.2497 25.2073 78.8514 24.4503C77.4445 23.6762 75.0058 24.1005 75.0058 22.6841C75.0058 22.3057 75.3639 21.7609 75.3639 21.3251C75.3639 21.176 75.3213 21.0384 75.2019 20.9294C77.1204 21.4168 76.4383 22.2885 77.615 23.183C78.3483 23.7565 80.3776 24.2955 81.5629 26.6466C81.5799 26.5778 81.6055 26.4001 81.6055 26.2796C81.6055 24.2668 77.7003 22.2999 77.3592 21.4856C79.6273 21.6634 80.028 22.0419 81.1024 24.0776C81.3241 24.502 82.0404 25.5456 82.0404 26.0617C82.3558 25.3851 82.7566 24.9034 83.4046 24.1694C82.7481 23.94 81.0172 23.4526 81.0172 22.6497C81.0172 21.7093 82.731 20.9753 83.0806 20.9753C83.2426 20.9753 83.2767 21.0728 83.2767 21.2448C83.2767 21.7322 82.9357 22.5236 82.9357 22.9422C82.9357 23.3207 83.2938 23.6877 83.6178 23.6877C83.9589 23.6877 84.8883 22.8734 84.8883 22.0706C84.8883 20.6312 83.0295 20.1954 82.4582 20.1954C81.921 20.1954 80.9404 20.7918 78.6553 20.7975C74.3748 20.7975 73.3943 17.9074 73.3943 16.6458C73.4113 16.6056 73.4284 16.5884 73.4454 16.5884ZM48.9567 18.2457C49.4427 18.2457 50.3551 18.8134 50.5938 19.3983C50.4915 19.3868 50.3892 19.3696 50.2869 19.3696C49.6388 19.3696 49.2807 19.794 48.752 20.5108C49.9202 19.9947 51.0116 19.5703 52.248 19.5703C53.2968 19.5703 54.1239 19.9947 54.1239 20.6427C54.1239 20.9179 53.9192 21.2276 53.6634 21.4914C53.5014 20.895 52.7511 20.6312 51.4635 20.6312C50.7132 20.6312 49.8264 20.723 49.1187 20.895C51.4039 21.1072 51.7449 21.6462 51.7449 22.1394C51.7449 22.9766 50.4744 23.3837 49.6218 23.6647C49.6985 23.4239 49.7667 23.1716 49.7582 22.9078C49.7582 22.4032 49.4768 21.8354 48.3257 21.2792C48.1467 21.824 47.4986 22.1566 47.4986 22.5752C47.4986 22.7358 47.6606 22.7874 47.78 22.7874C47.78 23.0282 47.618 23.6991 47.618 23.8769C47.618 24.2324 47.7374 24.3013 48.0017 24.3414C48.1637 24.6453 48.1722 25.1557 48.2831 25.4309C48.3428 25.5858 48.5304 25.6259 48.6753 25.6259C48.8373 25.8897 49.042 26.2854 49.4257 26.4746C49.5024 26.5147 49.6047 26.6065 49.6047 26.6868C49.6047 26.9276 49.059 27.1914 48.7179 27.1914C48.6156 27.1914 48.4451 27.1513 48.2831 26.9047C48.1552 26.704 47.1746 26.3026 47.1149 26.0675C47.1746 26.0273 47.2172 25.947 47.2172 25.8553C47.2172 25.4825 46.3305 25.0582 46.3305 24.479C46.4328 24.4503 46.5351 24.3471 46.5351 24.2267C46.5351 23.8941 46.0064 23.2461 46.0064 22.8103C46.2281 22.8103 46.3475 22.7988 46.3731 22.5867C46.4157 22.1508 46.5522 21.5028 47.1746 21.1301C47.0297 21.1186 46.8506 21.1014 46.6118 21.1014C45.401 21.1014 43.5252 21.5659 42.8175 22.5981C42.7748 22.4376 42.7578 22.2942 42.7578 22.1623C42.7578 21.3021 43.5422 20.7287 44.1306 20.5567C44.429 20.4649 44.7957 20.4362 45.2049 20.4362C45.853 20.4362 46.6204 20.528 47.4048 20.6197C46.7142 20.0234 45.6654 19.5876 44.7957 19.5876C44.3949 19.5876 44.0709 19.6793 43.9686 19.9029C43.9259 19.7825 43.9089 19.5876 43.9089 19.4499C43.9089 18.8019 44.2329 18.4292 45.077 18.4292C46.3305 18.4292 47.3963 19.4098 48.0443 20.3216V20.2069C48.0443 18.9338 48.104 18.2858 48.8799 18.2457H48.9567ZM73.0361 22.5523C73.4795 22.5523 73.8206 22.7759 73.8206 23.0339C73.8206 23.3321 73.4795 23.5443 73.0361 23.5443C72.6354 23.5443 72.2773 23.3379 72.2773 23.0339C72.2773 22.7759 72.6354 22.5523 73.0361 22.5523ZM70.4952 21.629C71.2626 21.629 71.885 22.0304 71.885 22.5293C71.885 23.0225 71.2626 23.4296 70.4952 23.4296C69.7278 23.4296 69.1053 23.0282 69.1053 22.5293C69.1053 22.0362 69.7278 21.629 70.4952 21.629ZM68.0139 21.2161C68.4573 21.2161 68.8239 21.4512 68.8239 21.738C68.8239 22.0247 68.4573 22.2598 68.0139 22.2598C67.579 22.2598 67.2124 22.0247 67.2124 21.738C67.2124 21.4512 67.579 21.2161 68.0139 21.2161ZM72.9509 20.809C73.471 20.809 73.8973 21.0842 73.8973 21.4226C73.8973 21.7609 73.471 22.0362 72.9509 22.0362C72.4307 22.0362 72.0044 21.7609 72.0044 21.4226C72.0129 21.0842 72.4307 20.809 72.9509 20.809ZM33.3698 20.3846C34.0008 21.004 34.5806 21.1875 35.331 21.1875C35.8938 21.1875 36.5162 21.1072 37.3348 20.9868C36.2689 21.5774 35.3736 21.8871 34.7085 21.8871C33.8559 21.8871 33.3784 21.4054 33.3698 20.3846ZM65.6605 20.1209C66.283 20.1209 66.8116 20.4592 66.8116 20.8606C66.8116 21.2677 66.2915 21.6003 65.6605 21.6061C65.0381 21.6061 64.5094 21.2677 64.5094 20.8663C64.5094 20.4649 65.0381 20.1266 65.6605 20.1209ZM70.6572 20.1725C71.1006 20.1725 71.4672 20.4076 71.4672 20.6943C71.4672 20.981 71.1091 21.2161 70.6657 21.2161C70.2223 21.2161 69.8557 20.981 69.8557 20.6943C69.8471 20.4076 70.2138 20.1725 70.6572 20.1725ZM39.2107 19.0026C39.1254 19.1632 39.0657 19.3352 39.0657 19.622C39.0657 20.0234 39.2789 20.4248 39.8587 20.786C39.6881 20.8663 39.4238 20.9179 39.0486 20.9179C38.3153 20.9179 37.7355 20.6083 37.7355 20.1266C37.727 19.4614 38.7332 19.0829 39.2107 19.0026ZM68.2782 19.2377C68.9604 19.2377 69.5061 19.5875 69.5146 20.0291C69.5146 20.4707 68.9689 20.8262 68.2868 20.8262C67.6046 20.8262 67.0589 20.4764 67.0589 20.0348C67.0504 19.5876 67.5961 19.2377 68.2782 19.2377ZM40.9416 17.8902C41.9818 18.0909 43.2608 18.7217 43.2608 19.622C43.2608 20.2011 42.7833 20.7631 41.7601 20.7631C40.6943 20.7631 40.0036 20.161 40.0036 19.4385C40.0036 18.8249 40.4811 18.2342 40.9416 17.8902ZM34.1031 19.1919C34.6062 19.6334 35.4418 19.7653 36.2092 19.7653C36.4565 19.7653 36.7294 19.7538 36.9596 19.7252C36.4224 20.1667 35.817 20.3674 35.2969 20.3732C34.6062 20.3732 34.0861 20.0234 34.0861 19.3926C34.0776 19.3295 34.0776 19.2607 34.1031 19.1919ZM72.7889 19.232C73.2493 19.232 73.633 19.4786 73.6415 19.7768C73.6415 20.075 73.2578 20.3273 72.7974 20.3273C72.337 20.3273 71.9532 20.0807 71.9532 19.7825C71.9447 19.4843 72.3284 19.232 72.7889 19.232ZM78.0243 17.5518C77.9475 17.5518 77.8452 17.592 77.8452 17.7583C77.8452 17.9074 77.8878 18.0048 77.8878 18.1769C77.8878 18.3546 77.8282 18.4751 77.5894 18.4751C77.0522 18.4751 76.5747 17.6206 76.1143 17.6206C76.012 17.6206 75.9182 17.6608 75.9182 17.7296C75.9182 17.8902 76.3189 18.1883 76.3189 18.3432C76.3189 18.67 75.0229 18.4923 75.0229 18.7675C75.0229 18.8879 75.2019 18.9281 75.4407 18.9281C75.8585 18.9281 76.515 18.8077 76.8561 18.8077C77.0522 18.8077 77.3507 18.8363 77.3507 19.0084C77.3507 19.1976 76.6344 19.4442 76.6344 19.622C76.6344 19.7022 76.7538 19.7424 76.8561 19.7424C77.3933 19.7424 78.3483 19.1059 79.0219 19.1059C79.1413 19.1059 79.4397 19.146 79.4397 19.2664C79.4397 19.4442 78.7661 19.7538 78.7661 20.0119C78.7661 20.0807 78.8258 20.161 78.9452 20.161C79.3033 20.161 79.7808 19.5245 80.4544 19.5245C80.7102 19.5245 81.0939 19.5933 81.29 19.5933C81.452 19.5933 81.5117 19.5245 81.5117 19.4843C81.5117 19.1976 80.4544 19.1747 80.3521 18.3719C80.335 18.2514 80.2753 18.0335 80.0536 18.0335C79.6955 18.0335 79.9769 18.779 79.5761 18.779C78.6638 18.7733 78.3653 17.5518 78.0243 17.5518ZM66.0016 18.5095C66.445 18.5095 66.8116 18.7446 66.8116 19.0313C66.8116 19.318 66.4535 19.5531 66.0016 19.5531C65.5582 19.5531 65.1916 19.318 65.1916 19.0313C65.1916 18.7446 65.5582 18.5095 66.0016 18.5095ZM70.5719 17.8558C71.2796 17.8558 71.8595 18.2342 71.868 18.6872C71.868 19.1403 71.2882 19.5187 70.5804 19.5187C69.8727 19.5187 69.2929 19.1403 69.2844 18.6872C69.2844 18.2342 69.8642 17.8558 70.5719 17.8558ZM38.2642 15.7168C38.4347 15.7168 38.5967 15.7225 38.7246 15.7283C39.0998 15.7569 39.3982 15.7569 39.492 15.82C39.6626 15.929 39.5602 16.1354 39.8246 16.3705C40.0889 16.6056 40.4129 16.5712 40.4129 16.8293C40.4129 17.03 39.8331 18.2228 38.3324 18.7102C37.6247 18.9396 37.0619 19.0313 36.5844 19.0313C35.7744 19.0313 35.2116 18.8019 34.7085 18.8077C34.6233 18.8077 34.521 18.8363 34.3504 18.8363C34.1628 18.8363 33.9582 18.7044 33.9582 18.584C33.9582 18.5324 33.9838 18.4751 34.0179 18.4349C34.3078 18.1253 34.0435 16.8981 35.8511 16.1526C36.7635 15.7684 37.582 15.7168 38.2642 15.7168ZM84.7774 14.6502C85.3231 14.7821 85.272 15.3383 85.272 16.0494C85.272 17.2938 85.0844 18.8765 84.5984 18.9052C83.8651 18.9453 81.1451 17.288 80.8978 16.0551C81.6311 16.1067 83.9077 15.8602 84.7774 14.6502ZM67.9116 17.8443C68.3379 17.8443 68.679 18.0679 68.679 18.3374C68.679 18.6127 68.3379 18.8306 67.9116 18.8363C67.4938 18.8363 67.1527 18.6127 67.1527 18.3432C67.1527 18.0679 67.4938 17.8443 67.9116 17.8443ZM47.8653 13.2797C49.4086 13.2797 50.2272 14.2144 50.2272 15.2523C50.2272 15.4014 50.2101 15.562 50.1675 15.7053C50.8326 14.9599 51.7449 14.3807 52.7426 14.3807C54.0301 14.3807 54.6184 15.1376 54.6184 15.9978C54.6184 16.3705 54.465 16.921 54.2091 16.921C53.9533 16.921 53.996 16.6114 53.9533 16.3304C53.9107 15.9691 53.8169 15.8888 53.6379 15.8888C53.3053 15.8888 53.0921 16.4221 53.0921 16.9153C53.0921 17.2192 53.1689 17.569 53.5185 17.569C53.7146 17.569 53.8937 17.5002 54.0045 17.4199C53.9278 18.0335 53.2627 18.5668 52.3247 18.5668C50.6109 18.5668 49.9628 17.1906 49.7667 16.3935C48.735 17.1447 47.78 17.6895 46.0576 17.6895C44.4546 17.6895 43.7298 16.8924 43.7298 16.1297C43.7298 15.9003 43.8492 15.3154 44.2585 15.3154C44.7445 15.3154 44.3182 16.4107 45.2731 16.4107C45.5119 16.4107 45.9382 16.2788 46.1685 15.8372C46.3049 15.5677 46.3816 15.2925 46.3816 15.0516C46.3816 14.6903 46.2622 14.4667 45.87 14.4667C45.5375 14.4667 45.1282 14.6387 44.9918 14.7362C45.4863 13.7728 46.6204 13.2797 47.8653 13.2797ZM36.0984 16.749C35.8682 16.749 35.5612 17.0873 35.5612 17.3511C35.5612 17.85 36.3116 18.3948 37.0022 18.3948C37.3774 18.3948 37.7782 18.2572 37.7782 18.1654C37.7782 18.1367 37.7355 18.1253 37.6758 18.0966C37.0534 17.9074 36.3798 17.5346 36.2519 16.8752C36.2263 16.7891 36.1837 16.749 36.0984 16.749ZM52.6317 15.2523C52.2224 15.2523 51.5403 16.577 51.5403 17.2938C51.5403 17.5748 51.6426 17.6952 51.7535 17.6952C52.2395 17.6952 52.7852 16.4107 52.7852 15.6136C52.7937 15.4358 52.7511 15.2523 52.6317 15.2523ZM70.0774 14.3807C70.3076 14.5986 70.444 15.0459 70.444 15.2466C70.444 16.7261 68.9007 17.2938 67.4767 17.2995C66.5473 17.2995 66.0869 17.0816 65.9675 17.0816C65.6008 17.0816 65.6179 17.5977 65.3706 17.5862C64.9272 17.5346 64.518 16.8408 64.518 16.1067C64.518 15.6709 64.6714 15.2122 65.021 14.8738C65.5241 15.2122 65.9675 15.3613 66.5132 15.3613C66.7264 15.3613 66.9822 15.3211 67.1101 15.3211C67.2806 15.3211 67.4 15.3727 67.4 15.4702C67.4 15.6193 67.2039 15.8659 66.9736 15.9978C67.2039 16.0666 67.4597 16.0953 67.724 16.0953C68.8154 16.0895 70.0774 15.5964 70.0774 14.3807ZM71.561 16.5884C71.9874 16.5884 72.3284 16.8121 72.3284 17.0816C72.3284 17.3569 71.9874 17.5748 71.561 17.5748C71.1347 17.5748 70.7936 17.3511 70.7936 17.0816C70.7936 16.8121 71.1347 16.5884 71.561 16.5884ZM38.1874 16.1698C37.872 16.1698 37.6503 16.1985 37.6503 16.4508C37.6503 16.8522 38.2386 17.5633 38.9634 17.5633C39.2959 17.5633 39.4665 17.3224 39.4665 17.1332C39.4665 17.0415 39.0657 16.8809 38.9207 16.7547C38.6905 16.554 38.6905 16.2845 38.5029 16.2214C38.3921 16.187 38.3324 16.1698 38.1874 16.1698ZM41.8795 15.9921C42.34 15.9921 42.7151 16.2329 42.7151 16.5254C42.7151 16.8236 42.34 17.0644 41.8795 17.0644C41.4191 17.0644 41.0439 16.8236 41.0439 16.5254C41.0439 16.2386 41.4191 15.9978 41.8795 15.9921ZM48.1978 13.9047C47.5924 13.9047 46.7568 16.2444 46.7568 16.7605C46.7568 16.8522 46.7994 16.9612 46.97 16.9612C47.635 16.9612 48.3939 14.5011 48.3854 14.0882C48.3939 13.985 48.3342 13.9047 48.1978 13.9047ZM51.0884 15.6824C50.8923 15.6824 50.6791 15.843 50.3636 16.2042C50.4062 16.6859 50.5171 16.8981 50.7132 16.8981C50.9264 16.8981 51.2418 16.4279 51.2418 15.9634C51.2504 15.734 51.1736 15.6824 51.0884 15.6824ZM49.221 14.8681C48.6327 14.8681 48.3428 15.9347 48.3428 16.2157C48.3428 16.3763 48.4621 16.5082 48.573 16.5082C48.7862 16.5082 49.059 16.3476 49.5706 15.9577C49.6132 15.7856 49.6132 15.6251 49.6132 15.4244C49.6047 15.1606 49.4512 14.8681 49.221 14.8681ZM74.8182 12.6145C75.5004 12.6145 75.3213 13.1707 75.9523 13.1707C76.4383 13.1707 77.0608 12.8783 77.4359 12.8783C78.0157 12.8783 78.8514 14.18 78.8514 14.7878C78.8514 15.4932 77.3592 15.9232 75.5856 15.929C73.002 15.929 71.4416 14.3233 71.4416 13.2854C71.4416 13.2051 71.5013 13.1765 71.561 13.1478C71.8083 13.0274 72.9082 13.2166 74.3237 12.7177C74.4857 12.6432 74.6562 12.6145 74.8182 12.6145ZM40.7881 14.7878C41.2485 14.7878 41.6237 15.0287 41.6237 15.3269C41.6237 15.6193 41.2485 15.8659 40.7881 15.8659C40.3277 15.8659 39.9525 15.6251 39.9525 15.3326C39.9525 15.0287 40.3277 14.7878 40.7881 14.7878ZM34.6147 13.5148C34.5977 13.5951 34.5977 13.6639 34.5977 13.7442C34.5977 14.5068 35.2628 15.086 36.4736 15.3154C36.4736 15.3154 35.8682 15.6079 35.1178 15.6136C34.2225 15.6136 33.5148 15.1835 33.5148 14.5814C33.5063 14.1628 33.8473 13.7327 34.6147 13.5148ZM83.7201 12.6145C84.4961 12.6776 84.7945 13.0446 84.7945 13.4861C84.7945 14.4323 83.0039 15.5104 81.0427 15.5104C80.3094 15.5104 79.7978 15.3555 79.7978 14.9943C79.7978 14.8394 79.9854 14.5412 80.6079 14.5412C82.3303 14.5412 83.9077 13.7499 83.9077 13.0331C83.9077 12.8267 83.848 12.7349 83.7201 12.6145ZM67.2294 12.6145C68.4658 12.6145 68.9433 13.0732 69.1224 13.0732C69.3185 13.0732 69.5061 12.9356 69.6596 12.9356C69.8727 12.9356 69.8727 13.165 69.8727 13.3313C69.8727 13.8761 69.5231 14.8108 68.6534 15.1491C68.4999 14.9197 68.193 14.6617 67.6899 14.5011C67.5535 14.461 67.4938 14.3807 67.4938 14.3004C67.4938 14.1513 67.6899 13.9621 67.9116 13.8761C67.7581 13.6983 67.1783 13.6065 66.914 13.6065C66.0613 13.6065 65.4815 14.0252 65.3706 14.4094C65.2939 14.2717 65.2342 14.1112 65.2342 13.9506C65.2427 13.3485 65.8225 12.6145 67.2294 12.6145ZM37.0704 12.6145C38.4859 12.6145 38.9463 13.5951 38.9463 14.2373C38.9463 14.5355 38.8611 14.7993 38.7587 15.0172C37.3177 15.0172 35.6721 14.5871 35.6721 13.532C35.6806 13.0331 36.2604 12.6145 37.0704 12.6145ZM35.817 5.99121C36.8146 5.99121 39.3982 6.16324 39.3982 6.55892C39.3982 7.00621 37.2154 7.45349 37.2239 7.88357C37.2239 8.39967 40.2765 8.09575 40.2765 8.54303C40.2765 9.00179 38.0595 10.0283 38.0595 10.3551C38.0595 10.4067 38.1619 10.4354 38.2471 10.4354C38.7758 10.4354 40.1571 9.75873 40.7881 9.75873C41.0354 9.75873 41.1121 9.86769 41.1121 10.0569C41.1121 10.4354 40.771 11.0719 40.771 11.4619C40.771 11.5593 40.8137 11.6626 40.9757 11.6626C41.4276 11.6626 42.1353 10.3781 42.7663 10.3781C43.3376 10.3781 42.826 12.3106 43.4228 12.3106C43.9345 12.3106 44.0282 10.5558 44.5569 10.5558C45.0685 10.5558 45.3073 11.5421 45.8444 11.5421C46.0661 11.5421 46.0917 11.3529 46.0832 11.0432V10.5845C46.0832 10.2863 46.1002 10.0856 46.3305 10.0856C46.9444 10.0856 48.6753 11.4332 49.042 11.4332C49.1272 11.4332 49.1443 11.3816 49.1443 11.3357C49.1443 10.9687 47.9846 9.74153 47.9846 9.09354C47.9846 8.87563 48.104 8.72653 48.4366 8.72653C49.1528 8.72653 50.6535 9.27704 51.3442 9.27704C51.5659 9.27704 51.7108 9.22543 51.7108 9.07634C51.7108 8.5201 49.221 7.40188 49.221 6.94313C49.221 6.49584 51.9922 6.03709 53.8851 6.03709C54.1324 6.03709 54.6184 6.03709 54.6184 6.20912C54.6184 6.54745 52.2736 6.83417 51.7023 7.23558C51.6256 7.28719 51.5829 7.34454 51.5829 7.40188C51.617 8.0384 54.9254 9.50642 54.9254 10.3207C54.9254 10.4985 54.7037 10.6304 54.337 10.6304C53.2371 10.6304 50.9178 9.90209 50.1248 9.90209C49.9032 9.90209 49.8435 9.94223 49.8435 10.0799C49.8435 10.596 51.3527 12.2131 51.3527 12.9299C51.3527 13.1191 51.2504 13.2682 50.969 13.2682C50.0481 13.2682 48.0102 11.6511 47.3025 11.6511C46.6545 11.6511 46.9359 13.0159 46.3305 13.0159C45.8444 13.0159 45.4096 12.2303 44.8809 12.2303C44.3523 12.2303 44.0112 14.9312 43.1756 14.9369C42.195 14.9369 42.5787 12.4367 41.9307 12.4367C41.4191 12.4367 40.7284 13.2911 39.9781 13.2911C39.5688 13.2911 39.4494 13.0732 39.4494 12.7636C39.4494 12.3736 39.6285 11.8289 39.6285 11.4791C39.6285 11.2898 39.6114 11.0719 39.3386 11.0719C38.5882 11.0719 35.8426 12.4138 34.7768 12.4138C34.5551 12.4138 34.3931 12.345 34.3931 12.1959C34.3931 11.5364 37.872 9.54656 37.872 9.0878C37.872 8.66919 33.8815 9.04766 33.8815 8.64625C33.8815 8.1875 36.7123 7.39041 36.7123 7.09222C36.7123 6.78256 33.9838 6.67361 33.9838 6.32381C33.9667 6.0887 34.6147 5.99121 35.817 5.99121ZM73.5307 13.9219C73.4539 13.9219 73.4113 13.9506 73.4113 13.9907C73.4113 14.352 74.3493 14.9025 75.7903 14.9025C76.6515 14.9025 77.291 14.6215 77.291 14.4552C77.291 14.3979 77.1716 14.3577 76.9243 14.3577C76.6685 14.3577 76.1654 14.3463 75.2105 14.2316C74.3919 14.1398 73.7694 13.9219 73.5307 13.9219ZM82.552 12.6432C82.9612 12.6432 83.0977 12.8267 83.0977 13.0044C83.0977 13.5779 81.4264 14.0424 80.6249 14.0424C80.3606 14.0424 79.9854 14.0424 79.7723 13.7556C79.6017 13.5205 79.6614 13.1478 79.3374 12.9757C79.6614 13.0388 79.9939 13.0388 80.2583 13.0388C81.1109 13.0446 81.9295 12.6432 82.552 12.6432ZM51.3953 10.8483C51.9666 10.8483 54.5502 12.1959 54.9169 12.5342C54.9936 12.6145 55.0362 12.7234 55.0362 12.8324C55.0362 13.2395 54.7293 13.7098 54.3285 13.7098C53.8425 13.7098 51.293 11.3988 51.293 10.9286C51.3015 10.8884 51.3356 10.8483 51.3953 10.8483ZM83.4643 6.32381C84.1294 6.32381 84.2914 6.52451 85.272 6.52451C84.7433 6.74242 84.5472 7.12663 84.5472 7.31586C84.5472 7.87784 85.0759 8.26778 85.0844 9.4204C85.0844 11.5364 82.1853 12.2876 78.6297 12.2876C77.6491 12.2876 76.6088 12.236 75.5856 12.1271C75.4322 12.1156 75.3895 12.0869 75.3895 12.0181C75.3895 11.8461 76.7879 11.7486 76.7794 10.8942C76.7794 10.5616 76.6174 10.2404 76.6174 10.12C76.6174 10.0512 76.6941 10.011 76.7708 10.011C77.0693 10.011 77.6576 10.7852 78.749 10.7852C79.039 10.7852 79.7723 10.7164 79.7637 10.1028C79.7637 9.15088 76.4298 8.91004 76.4298 8.69786C76.4298 8.52583 78.2886 8.22764 79.2521 8.21617C77.777 6.93166 75.6794 7.06928 75.6794 6.83991C75.6794 6.70801 77.2483 6.4385 78.6979 6.43276C79.9172 6.43276 81.0513 6.61626 81.0513 7.24705C81.0513 7.59685 80.642 7.95812 80.642 8.49142C80.642 8.78388 80.8551 9.04193 81.4264 9.04193C82.0318 9.04193 82.1683 8.60038 82.1683 8.13015C82.1683 7.74021 82.0659 7.44776 82.0659 7.25852C82.0915 6.70228 82.6543 6.32381 83.4643 6.32381ZM67.3915 6.00841C67.6387 6.00841 68.1248 6.54172 68.4488 6.52451C68.9774 6.52451 69.9751 6.08296 71.3393 6.08296C74.2043 6.08296 76.2848 7.21264 76.2848 9.14515C76.2848 11.1407 73.9656 12.2761 71.5099 12.2761C69.7789 12.2761 68.7387 11.5708 68.355 11.5708C68.0906 11.5708 67.7069 12.1844 67.4682 12.1844C67.3659 12.1844 67.3232 12.1729 67.2806 12.0124C67.2209 11.7084 67.1527 11.1866 66.8287 11.1866C66.5473 11.1866 65.3877 12.0525 64.9954 12.0525C64.9102 12.0525 64.8931 12.0525 64.8931 11.9837C64.8931 11.7199 65.9078 10.7852 65.9078 10.5042C65.9078 10.2232 64.5265 10.3838 64.5265 10.1601C64.5265 9.87916 65.9078 9.5867 65.9078 9.21396C65.9078 8.84122 64.5862 8.78961 64.5862 8.49716C64.5862 8.33659 65.8225 8.10722 65.8225 7.8721C65.8225 7.63126 64.5606 6.70228 64.5606 6.39262C64.5606 6.06002 66.4535 6.97753 66.9395 6.97753C67.1527 6.97753 67.1783 6.622 67.1868 6.43276V6.36395C67.1868 6.14031 67.2891 6.00841 67.3915 6.00841ZM71.3137 6.71375C70.0688 6.71375 69.2759 7.04635 69.2759 7.35601C69.2759 7.54524 69.5231 7.56818 69.7278 7.56818C70.1371 7.56818 71.1091 7.31586 71.2967 7.31586C71.4416 7.31586 71.5184 7.34454 71.5184 7.40762C71.5184 7.55671 71.0921 7.8721 71.0921 8.06134C71.0921 8.31366 73.3261 8.12442 73.3261 8.39394C73.3261 8.64625 71.6804 8.8871 71.6804 9.04766C71.6804 9.2197 73.002 9.79314 73.002 10.0856C73.002 10.1372 72.9594 10.1945 72.823 10.1945C72.3966 10.1945 71.5781 10.0512 71.0324 10.0512C70.913 10.0512 70.8533 10.0913 70.8533 10.1429C70.8533 10.3436 71.2029 10.7393 71.2029 10.9802C71.2029 11.0604 71.1432 11.0834 71.0579 11.0834C70.7339 11.0834 69.7534 10.6304 69.31 10.6304C69.148 10.6304 69.0286 10.7106 69.0286 10.8311C69.0286 11.0719 69.9665 11.5364 71.3905 11.5364C72.4904 11.5364 74.5454 11.0547 74.5368 9.13941C74.5283 7.61979 73.326 6.71375 71.3137 6.71375ZM83.0891 8.74947C83.0891 9.94223 81.8187 10.854 79.5164 11.1063C79.7723 11.1178 80.011 11.1178 80.2412 11.1178C82.9271 11.1178 83.9077 10.2863 83.9077 9.59243C83.9162 9.20249 83.6007 8.85269 83.0891 8.74947ZM35.7232 9.39746C36.0046 9.39746 36.3371 9.4376 36.3371 9.54656C36.3371 9.81608 34.7938 10.7221 34.2396 10.7221C34.0349 10.7221 33.9752 10.5616 33.9752 10.4125C33.9752 10.1429 34.1543 9.76447 34.3845 9.64404C34.6403 9.47775 35.2543 9.39746 35.7232 9.39746ZM68.1418 7.6886C67.9457 7.6886 67.9031 8.43408 67.6387 8.43408C67.3318 8.43408 66.9481 8.38247 66.7178 8.38247C66.6582 8.38247 66.6155 8.39394 66.6155 8.42261C66.6155 8.58317 67.4085 8.86416 67.4085 9.00752C67.4085 9.09927 66.5899 9.47201 66.5899 9.58097C66.5899 9.60964 66.6326 9.62111 66.7349 9.62111C66.8799 9.62111 67.3488 9.63258 67.5876 9.63258C67.6899 9.63258 67.7325 9.68419 67.7325 9.74153L67.7752 10.2748C67.7752 10.3436 67.8178 10.3953 67.8775 10.3953C68.0565 10.3953 68.4232 9.85048 68.6449 9.85048C68.8239 9.85048 69.4634 10.0397 69.6255 10.0397C69.6681 10.0397 69.6851 10.0283 69.6851 9.99958C69.6851 9.87916 69.2588 9.50642 69.2588 9.41467C69.2588 9.29424 70.4184 9.30571 70.4184 9.17382C70.4184 9.06487 69.2759 8.92151 69.2759 8.80108C69.2759 8.69213 69.7875 8.33659 69.7875 8.23911C69.7875 8.21044 69.7448 8.19897 69.7022 8.19897C69.4976 8.19897 69.0115 8.39967 68.7472 8.39967C68.5255 8.39394 68.2782 7.6886 68.1418 7.6886ZM42.2717 6.08296C43.619 6.08296 43.3546 6.83991 44.4119 6.83991C45.4266 6.83991 45.2476 6.11163 46.5692 6.1059C47.4048 6.1059 48.0102 6.18618 48.0188 6.26646C48.0188 6.4557 47.0211 6.4557 47.0211 6.87431C47.0211 7.29293 48.8288 7.64273 48.8373 7.96959C48.8373 8.06134 48.7179 8.09001 48.59 8.09001C48.249 8.09001 47.6095 7.90078 47.149 7.90078C46.825 7.90078 46.5777 8.00973 46.5777 8.23911C46.5777 8.61758 47.1917 9.19676 47.1917 9.48348C47.1917 9.58097 47.0893 9.64404 46.97 9.64404C46.4839 9.64404 45.9468 8.60611 45.239 8.60611C44.3608 8.60611 44.6336 10.1085 44.0197 10.1085C43.4314 10.1085 44.1391 8.58317 43.0647 8.58317C42.4167 8.58317 41.726 9.27131 41.3168 9.27131C41.2144 9.27131 41.1121 9.24263 41.1121 9.16235C41.1121 8.89283 42.2121 8.28498 42.2121 7.94665C42.2121 7.76888 41.9477 7.72874 41.6578 7.72874C41.1462 7.72874 40.4385 7.86637 39.9866 7.86637C39.7819 7.86637 39.6199 7.82623 39.6199 7.73448C39.6199 7.44776 41.6749 7.31586 41.6749 6.83991C41.6749 6.39262 40.7199 6.46143 40.7199 6.30087C40.7028 6.18045 41.4617 6.08296 42.2717 6.08296ZM54.3285 7.36174C54.8572 7.36174 55.1215 7.37321 55.1215 7.78035C55.1215 8.10722 55.0192 8.41688 54.6781 8.41688C54.0898 8.41688 52.8022 7.88931 52.8022 7.64846C52.8022 7.48216 53.6549 7.36174 54.3285 7.36174ZM83.4643 6.8055C83.1915 6.8055 82.9698 6.9546 82.9783 7.14383C82.9783 7.33307 83.1915 7.47643 83.4728 7.47643C83.7457 7.47643 83.9674 7.32733 83.9674 7.14383C83.9589 6.9546 83.7372 6.8055 83.4643 6.8055Z" fill="#1F36C7"/>
</g>
<defs>
<clipPath id="clip0_71_58">
<rect width="121.591" height="61.9319" fill="white" transform="translate(0 0.817871)"/>
</clipPath>
</defs>
</svg>
