<svg width="133" height="33" viewBox="0 0 133 33" fill="none" xmlns="http://www.w3.org/2000/svg">
<path d="M6.83801 19.8589V0.20459H0.295166V20.1062C0.295166 27.5847 7.51779 32.5292 16.8647 32.5292C21.4532 32.5292 25.4469 31.2312 28.4209 29.0062V31.9729H34.8788V0.20459H28.3359V19.8589C28.3359 24.927 23.6625 28.3264 17.6295 28.3264C11.5115 28.2646 6.83801 24.9888 6.83801 19.8589ZM41.3367 32.0347H47.5396V29.1298C50.4287 31.2931 54.5073 32.591 58.9259 32.591C68.2728 32.591 75.6654 27.2139 75.6654 20.477C75.6654 13.7401 68.2728 8.36299 58.9259 8.36299C54.5073 8.36299 50.5136 9.66092 47.6246 11.8241V0.20459H41.3367V32.0347ZM47.5396 20.477C47.5396 15.9651 52.468 12.4422 58.501 12.4422C64.534 12.4422 69.4624 15.9651 69.4624 20.477C69.4624 24.927 64.534 28.5118 58.501 28.5118C52.383 28.5118 47.5396 24.927 47.5396 20.477ZM79.4041 20.4152C79.4041 27.3375 86.7967 32.5292 96.3136 32.5292C102.092 32.5292 106.85 30.675 110.079 27.5847L105.491 25.1124C103.111 27.3993 99.9674 28.5118 96.3136 28.5118C90.9604 28.5118 86.6268 25.6687 85.7771 21.8985H111.694V20.4152C111.694 13.4929 104.981 8.36299 95.8038 8.36299C86.4568 8.36299 79.4041 13.8637 79.4041 20.4152ZM95.6338 12.3804C100.307 12.3804 104.216 14.729 105.321 18.3138H85.862C87.0516 14.729 90.9603 12.3804 95.6338 12.3804ZM132.682 12.9366V8.67202H130.472C126.988 8.67202 124.439 9.84634 122.825 11.7005V8.85744H116.707V32.0347H122.995V18.8082C122.995 15.2235 125.969 12.8748 130.132 12.8748H132.682V12.9366Z" fill="black"/>
</svg>
