<svg width="188" height="37" viewBox="0 0 188 37" fill="none" xmlns="http://www.w3.org/2000/svg">
<g clip-path="url(#clip0_71_103)">
<path d="M8.34947 33.2299H0.272461V3.47994H14.2416L30.2677 25.6902V3.47994H38.3447V33.2299H24.6587L8.34947 10.6404V33.2299ZM76.9894 24.0301C76.9894 28.1656 76.3142 29.5918 75.1966 30.9589C73.4835 32.9937 70.9903 33.6069 66.1865 33.6069H52.3956C47.5917 33.6069 45.0944 32.9937 43.3834 30.9589C42.2658 29.5918 41.5906 28.1656 41.5906 24.0301V12.5616C41.5906 8.42843 42.2658 7.00452 43.3834 5.63511C45.0965 3.59803 47.5917 2.98486 52.3956 2.98486H66.1865C70.9903 2.98486 73.4835 3.59803 75.1966 5.63511C76.3142 7.00452 76.9894 8.42843 76.9894 12.5616V24.0301ZM65.8468 26.0695C67.692 26.0695 68.342 25.9514 68.7845 25.5154C69.1975 25.1089 69.38 24.5843 69.38 22.8356V13.7562C69.38 12.0075 69.1975 11.4875 68.7845 11.0787C68.342 10.6404 67.692 10.5246 65.8468 10.5246H52.7332C50.888 10.5246 50.238 10.6404 49.7976 11.0787C49.3824 11.4875 49.2 12.0075 49.2 13.7562V22.8356C49.2 24.5843 49.3824 25.1089 49.7976 25.5154C50.238 25.9514 50.888 26.0695 52.7332 26.0695H65.8468ZM88.7275 3.47994V33.2299H80.2877V3.47994H88.7275ZM102.986 3.47994H114.129L99.09 17.3943L116.051 33.2299H104.129L88.7275 17.7145L102.986 3.47994ZM117.607 3.47994H126.049V33.2299H117.607M158.229 33.2299L155.732 28.0475H139.4L136.932 33.2276H127.607L142.568 3.47994H153.06L168.019 33.2299H158.229ZM142.333 21.5865H152.828L147.579 10.8152L142.333 21.5865Z" fill="#124191"/>
</g>
<defs>
<clipPath id="clip0_71_103">
<rect width="186.932" height="36.3637" fill="white" transform="translate(0.272461 0.11377)"/>
</clipPath>
</defs>
</svg>
