<svg width="172" height="86" viewBox="0 0 172 86" fill="none" xmlns="http://www.w3.org/2000/svg">
<path d="M69.2233 50.9388H65.7432V35.6647H69.2233V41.8536H76.9676V35.6647H80.4477V50.9374H76.9676V44.5454H69.2233V50.9388ZM86.7588 44.811C86.7588 47.5127 87.6111 48.6377 90.4889 48.6377C93.3668 48.6377 94.1821 47.5013 94.1821 44.811V35.6633H97.6594V44.8962C97.8384 46.3351 97.496 47.7897 96.6935 48.9971C95.3298 50.4914 93.3511 51.1065 90.4747 51.1065C87.5983 51.1065 85.594 50.4914 84.2361 48.9971C83.4747 48.1761 83.2872 46.8309 83.2872 44.8962V35.6633H86.7432L86.7588 44.811ZM109.036 35.6633L116.081 50.9374H112.228L110.708 47.2982H103.52L102.047 50.9374H98.3497L105.345 35.6633H109.036ZM104.637 44.578H109.566L107.056 38.7087L104.637 44.578ZM139.642 35.6647L134.529 50.9374H130.267L126.759 39.551L123.676 50.953H119.436L113.929 35.6803H117.665L121.5 47.4218L124.725 35.6803H128.826L132.53 47.4218L136.1 35.6803L139.642 35.6647ZM144.337 41.8749H153.963V44.5226H144.304C144.323 47.267 145.497 48.2641 148.239 48.2641H153.949V50.9246H148.077C146.253 51.0951 144.426 50.6221 142.918 49.5851C142.036 48.8653 141.344 47.94 140.902 46.8905C140.461 45.841 140.284 44.6992 140.387 43.5653C140.387 38.1675 142.851 35.6533 148.171 35.6533H153.948V38.3153H148.238C145.732 38.3138 144.466 39.4601 144.324 41.8636M157.029 35.6647H160.665V50.9388H157.029V35.6647Z" fill="#0A0808"/>
<path d="M31.9476 53.3979C31.9988 53.3553 32.0144 53.2843 31.9874 53.2232C28.433 45.5955 24.0021 38.4079 18.7843 31.8056C18.7843 31.8056 14.6365 35.7402 14.9306 39.6891C15.0718 41.5292 15.9365 43.2382 17.3354 44.442C20.9533 47.9689 29.7147 52.4207 31.753 53.4278C31.8169 53.4633 31.8979 53.4505 31.949 53.3993M30.5939 56.4164C30.5804 56.3774 30.555 56.3437 30.5215 56.3197C30.4879 56.2958 30.4477 56.2829 30.4064 56.2829V56.28L15.8183 56.7886C17.3993 59.6096 20.0797 61.7999 22.8397 61.128C24.7544 60.6494 29.0953 57.6224 30.5101 56.6011V56.5968C30.6195 56.4974 30.5811 56.4178 30.5811 56.4178M30.8141 55.1053C30.8851 54.9917 30.7573 54.8922 30.7573 54.8922L30.7587 54.8866C24.3666 50.5684 11.9348 43.9306 11.9348 43.9306C11.2628 46.0108 11.4046 48.2685 12.3318 50.2483C13.2589 52.228 14.9023 53.7825 16.9306 54.5982C17.8215 54.9513 18.7635 55.1585 19.7203 55.2118C19.9391 55.2545 28.3965 55.2161 30.6607 55.2062C30.7246 55.1991 30.7814 55.1607 30.8113 55.1039M31.7828 25.5073C31.1465 25.5641 29.4334 25.9533 29.4334 25.9533C27.1706 26.53 25.3666 28.2331 24.6578 30.4561C24.2575 31.9732 24.2643 33.569 24.6777 35.0826C25.9661 40.8013 32.3113 50.2019 33.6721 52.1735C33.7686 52.2701 33.8482 52.2346 33.8482 52.2346C33.9306 52.2147 33.9874 52.138 33.9831 52.0528H33.986C36.0826 31.0684 31.7843 25.4902 31.7843 25.4902M36.6096 52.2289C36.6891 52.2616 36.78 52.2275 36.8198 52.1508H36.8212C38.2218 50.1252 44.5272 40.7772 45.8084 35.0826C46.1919 33.5655 46.2005 31.9775 45.8326 30.4561C45.4792 29.357 44.8508 28.3664 44.0071 27.5784C43.1633 26.7903 42.1322 26.2309 41.0115 25.9533C41.0115 25.9533 39.8965 25.6721 38.7147 25.5059C38.7147 25.5059 34.3908 31.0712 36.4931 52.0684H36.4959C36.4973 52.1394 36.5414 52.2033 36.6096 52.2275M40.0613 56.2957C40.0613 56.2957 39.9192 56.3127 39.8965 56.4065C39.8794 56.4775 39.9007 56.5542 39.9533 56.6053C41.3453 57.6067 45.5783 60.5826 47.6238 61.1408C47.6238 61.1408 51.3951 62.4249 54.6692 56.7999L40.0641 56.2886L40.0613 56.2957ZM58.5556 43.8979C58.5556 43.8979 46.155 50.5513 39.7417 54.878C39.7095 54.9021 39.6853 54.9353 39.6724 54.9733C39.6595 55.0114 39.6584 55.0524 39.6692 55.0911C39.6692 55.0911 39.7303 55.2005 39.8198 55.2005V55.2033L51.0215 55.1749C51.8827 55.1072 52.7291 54.9119 53.5329 54.5954C55.628 53.7743 57.3141 52.1607 58.2289 50.1039C59.0874 48.1429 59.2035 45.9367 58.5556 43.8965M38.5698 53.4135C38.6266 53.4562 38.7047 53.4618 38.7686 53.4278C40.8567 52.3851 49.5542 47.9633 53.155 44.4547C54.5534 43.2418 55.417 41.5263 55.5584 39.6806C55.8212 35.5968 51.7232 31.8184 51.7232 31.8184C46.5158 38.4034 42.0922 45.5719 38.5414 53.1792H38.5456C38.5073 53.2573 38.5229 53.3496 38.5854 53.4121" fill="#E12229"/>
</svg>
