<svg width="139" height="47" viewBox="0 0 139 47" fill="none" xmlns="http://www.w3.org/2000/svg">
<g clip-path="url(#clip0_71_39)">
<path fill-rule="evenodd" clip-rule="evenodd" d="M0.295166 21.6916L0.305426 8.11872C0.305914 3.63501 4.53728 -0.000839736 9.75455 1.4548e-07L129.486 0.0239368C134.704 0.0247767 138.933 3.66272 138.932 8.14643L138.922 21.7198L138.932 37.6973C138.933 42.1814 134.704 45.8189 129.486 45.8202L9.75455 45.8441C4.53728 45.845 0.305914 42.2087 0.305426 37.725L0.295166 21.6916Z" fill="#010202"/>
<path fill-rule="evenodd" clip-rule="evenodd" d="M107.361 29.4586C106.943 29.4586 106.583 29.4007 106.307 29.2793C104.979 28.6876 103.923 25.8329 103.948 22.8962C103.953 20.9809 105.367 19.9243 107.48 19.9243C108.608 19.9243 109.936 20.225 111.361 20.8599C115.451 22.6774 116.507 25.5318 113.728 27.243C111.526 28.5999 108.983 29.4586 107.361 29.4586ZM106.843 16.9822C106.239 16.9822 105.687 17.0452 105.219 17.18C103.378 17.665 102.651 19.1436 102.792 21.1934C102.938 23.2494 103.676 25.3776 104.222 26.9234C104.827 28.494 105.243 29.4876 105.992 29.8181C106.217 29.9185 106.484 29.9626 106.793 29.9626C107.507 29.9626 108.471 29.7249 109.756 29.386C111.542 28.8724 113.987 28.1543 116.017 27.0696C118.044 25.9832 119.026 24.6167 118.421 23.047C117.87 21.4945 115.735 19.7404 112.823 18.4457C110.669 17.4907 108.534 16.9822 106.843 16.9822ZM99.4272 15.2075C98.3801 16.3855 98.3523 18.3239 99.0499 20.7234C100.03 24.1014 101.726 27.5202 102.516 29.7979C103.423 32.1345 103.429 33.3326 103.783 33.4867L103.908 33.5106C104.369 33.5106 105.542 32.8862 108.01 32.2407C110.629 31.4756 114.85 30.6857 118.619 29.415C121.279 28.523 123.094 27.3934 123.618 25.9874C122.772 26.9667 121.227 27.7952 119.188 28.4793C115.414 29.7497 111.198 30.5404 108.579 31.3055C106.11 31.9497 104.945 32.5759 104.477 32.5759L104.352 32.5507C103.996 32.3961 103.992 31.1993 103.085 28.8627C102.295 26.5833 100.601 23.1671 99.6201 19.7878C99.0836 17.9413 98.9772 16.3703 99.4272 15.2075Z" fill="#BDCE1D"/>
<path fill-rule="evenodd" clip-rule="evenodd" d="M103.923 12.9683C103.124 12.9683 102.42 13.056 101.828 13.2257C100.582 13.5503 99.8114 14.2386 99.4272 15.2074C99.8612 14.7274 100.466 14.3742 101.26 14.1659C101.85 13.9917 102.56 13.9093 103.361 13.9093C106.105 13.9093 109.936 14.8929 113.886 16.6516C118.997 18.9201 122.772 21.79 123.556 24.0681C123.825 24.7623 123.836 25.3964 123.618 25.9877C124.333 25.1537 124.546 24.2046 124.13 23.1338C123.342 20.8548 119.566 17.9845 114.455 15.7159C110.5 13.9572 106.669 12.9683 103.923 12.9683Z" fill="#7E9D3D"/>
<path fill-rule="evenodd" clip-rule="evenodd" d="M123.618 25.9877C123.719 25.7118 123.775 25.4216 123.769 25.1247C123.769 24.7858 123.702 24.4373 123.556 24.0686C122.772 21.79 118.997 18.9201 113.886 16.6516C109.936 14.8933 106.105 13.9093 103.361 13.9093C102.56 13.9093 101.85 13.9917 101.26 14.1659C100.466 14.3746 99.8612 14.7278 99.4277 15.2074C99.8114 14.239 100.582 13.5503 101.828 13.2257C102.421 13.056 103.124 12.9683 103.923 12.9683C106.669 12.9683 110.501 13.9572 114.455 15.7164C119.566 17.9849 123.342 20.8552 124.13 23.1338C124.271 23.5008 124.346 23.8552 124.346 24.1945C124.339 24.8438 124.085 25.4405 123.618 25.9877Z" fill="#7E9D3D"/>
<path fill-rule="evenodd" clip-rule="evenodd" d="M103.923 12.9683C103.124 12.9683 102.42 13.056 101.828 13.2257C100.582 13.5503 99.8114 14.2386 99.4272 15.2074C99.8612 14.7274 100.466 14.3742 101.26 14.1659C101.85 13.9917 102.56 13.9093 103.361 13.9093C106.105 13.9093 109.936 14.8929 113.886 16.6516C118.997 18.9201 122.772 21.79 123.556 24.0681C123.702 24.4364 123.769 24.7854 123.769 25.1247V25.1814C123.768 25.4581 123.712 25.729 123.618 25.9877C124.085 25.4405 124.339 24.8434 124.346 24.1945C124.346 23.8552 124.271 23.5012 124.13 23.1338C123.342 20.8548 119.566 17.9845 114.455 15.7159C110.5 13.9572 106.669 12.9683 103.923 12.9683Z" fill="#45701F"/>
<path fill-rule="evenodd" clip-rule="evenodd" d="M106.792 29.9634C106.48 29.9634 106.216 29.9197 105.993 29.8185C105.24 29.4876 104.828 28.4944 104.224 26.9255C103.675 25.3772 102.937 23.2473 102.794 21.1959C102.652 19.1419 103.378 17.6658 105.218 17.1804C105.69 17.0452 106.239 16.9788 106.844 16.9788C108.534 16.9788 110.671 17.4895 112.819 18.444C115.737 19.7424 117.869 21.4965 118.42 23.0436C119.024 24.6154 118.044 25.9819 116.016 27.0683C113.989 28.1564 111.542 28.872 109.758 29.383C108.471 29.7232 107.507 29.9634 106.792 29.9634ZM103.361 13.9082C102.56 13.9082 101.852 13.9897 101.26 14.1656C100.465 14.3714 99.8608 14.7258 99.4303 15.2079C98.9753 16.372 99.0837 17.9426 99.6197 19.787C100.602 23.1671 102.293 26.5824 103.084 28.8631C103.994 31.1972 104 32.3936 104.351 32.549L104.479 32.5742C104.943 32.5742 106.109 31.9493 108.579 31.3043C111.199 30.54 115.414 29.7471 119.19 28.4797C121.228 27.7935 122.772 26.9696 123.618 25.987C123.835 25.3974 123.828 24.7582 123.557 24.0687C122.77 21.7901 118.998 18.9189 113.889 16.6496C109.936 14.8942 106.105 13.9082 103.361 13.9082Z" fill="#6F9C2E"/>
<path fill-rule="evenodd" clip-rule="evenodd" d="M24.8555 27.6899L16.8243 28.3984C17.1421 30.5774 19.0347 31.3938 21.0493 31.4005H26.1974C26.9282 31.4005 27.4144 31.8238 27.4144 32.4294V33.3159H20.9966C17.4199 33.3159 14.4124 31.3132 14.4124 27.2108C14.4124 23.7143 17.2564 21.335 21.2949 21.335C24.1955 21.335 26.5518 22.8585 27.1923 25.1585C27.5775 26.5531 26.7037 27.5127 24.8555 27.6899ZM23.3715 26.1231C24.0207 26.0601 24.5001 25.956 24.7334 25.7561C24.9697 25.5537 24.9424 25.1405 24.7867 24.8259C24.297 23.8332 22.9658 23.108 21.2671 23.108C18.6666 23.108 16.8331 24.5483 16.8331 26.753C16.8331 26.753 23.0498 26.1546 23.3715 26.1231Z" fill="#FEFEFE"/>
<path fill-rule="evenodd" clip-rule="evenodd" d="M52.8816 21.3398C53.6417 21.3398 54.1908 21.6451 54.1908 22.3007C54.1908 22.9604 53.6417 23.2665 52.8816 23.2665H47.2878C46.1133 23.3417 45.9634 24.3538 46.0601 24.9812C46.0918 25.1827 46.2036 25.3553 46.3676 25.4763C46.7328 25.7412 47.3688 25.8357 48.0239 25.9323L52.2821 26.5782C54.5174 26.928 55.3634 27.9065 55.3634 29.6429C55.3634 32.3406 53.4283 33.3422 50.3964 33.3422H43.3289C43.3289 33.3422 43.3323 32.6694 43.3323 32.3805C43.3323 31.7237 43.8497 31.418 44.6415 31.418H50.2353C52.4174 31.418 52.9783 30.8397 52.9758 29.8063C52.9758 28.8723 52.6741 28.5255 51.216 28.3155L46.9061 27.707C44.7235 27.3996 43.7755 26.4127 43.6598 25.1542C43.4851 23.3077 44.3735 21.3398 47.3156 21.3398H52.8816Z" fill="#FEFEFE"/>
<path fill-rule="evenodd" clip-rule="evenodd" d="M68.2773 25.5608C68.2773 23.472 67.6202 21.335 64.0196 21.335H58.9716C58.1808 21.335 57.6604 21.6403 57.6604 22.2958C57.6604 22.9551 58.1808 23.26 58.9716 23.26H63.6667C65.3308 23.26 65.8756 23.5909 65.8756 24.5987V24.9032C65.7804 25.5188 64.973 25.665 64.5658 25.7469C61.1942 26.4272 56.6553 25.6813 56.6553 29.8564C56.6553 32.085 58.8622 33.4007 61.8927 33.4007C61.9269 33.4007 64.9354 33.5284 66.0435 32.2215C66.0435 32.2215 66.0435 32.261 66.0498 32.3357C66.1245 32.9925 66.4892 33.3377 67.2717 33.3377H68.2695L68.2773 25.5608ZM65.8756 29.0321C65.8756 31.0755 64.5405 31.8058 62.274 31.8058C60.2281 31.8058 59.0551 31.1704 59.0551 29.7636C59.0551 28.7142 60.0904 28.0372 61.3269 27.8512C62.5634 27.6605 64.4433 27.5887 65.8756 27.3082V29.0321Z" fill="#FEFEFE"/>
<path fill-rule="evenodd" clip-rule="evenodd" d="M86.5066 25.5608C86.5066 23.472 85.85 21.335 82.2503 21.335H77.2023C76.412 21.335 75.8931 21.6403 75.8931 22.2958C75.8931 22.9551 76.412 23.26 77.2023 23.26H81.8959C83.56 23.26 84.1078 23.5909 84.1078 24.5987V24.9032C84.0087 25.5188 83.2027 25.665 82.7961 25.7469C79.4234 26.4272 74.8845 25.6813 74.8845 29.8564C74.8845 32.085 77.0915 33.4007 80.122 33.4007C80.1591 33.4007 83.1646 33.5284 84.2727 32.2215C84.2727 32.2215 84.2727 32.261 84.2796 32.3357C84.3548 32.9925 84.7194 33.3377 85.5009 33.3377H86.4997L86.5066 25.5608ZM84.1078 29.0321C84.1078 31.0755 82.7702 31.8058 80.5032 31.8058C78.4588 31.8058 77.2863 31.1704 77.2863 29.7636C77.2863 28.7142 78.3216 28.0372 79.5567 27.8512C80.7937 27.6605 82.674 27.5887 84.1078 27.3082V29.0321Z" fill="#FEFEFE"/>
<path fill-rule="evenodd" clip-rule="evenodd" d="M73.0301 18.0859H71.6877C70.5186 18.0859 70.6318 18.9955 70.6318 18.9955V30.1408L70.6221 33.3353L73.0301 33.3394V18.0859Z" fill="#FEFEFE"/>
<path fill-rule="evenodd" clip-rule="evenodd" d="M35.2421 31.5442C33.415 31.5442 32.735 31.4724 32.735 30.3243V23.2617H34.8609C35.6244 23.2617 36.1687 22.9564 36.1687 22.3005C36.1687 21.6449 35.6244 21.3396 34.8609 21.3396H32.735V19.3705V19.3609V18.1535L31.7133 18.1519C31.5073 18.1548 31.3667 18.164 31.2124 18.1779C30.24 18.2686 30.3362 19.0782 30.3362 19.0782V21.3396H29.6835C28.9225 21.3396 28.3752 21.6449 28.3752 22.3005C28.3752 22.9564 28.9225 23.2617 29.6835 23.2617H30.3362V29.2463V30.7681C30.3362 33.3016 32.3825 33.3323 35.2421 33.3323C35.7157 33.3323 36.6602 33.3298 36.6602 33.3298C36.6602 33.3298 36.6598 32.7717 36.6598 32.505C36.6598 31.9184 36.1145 31.5442 35.2421 31.5442Z" fill="#FEFEFE"/>
<path fill-rule="evenodd" clip-rule="evenodd" d="M94.664 31.5442C92.8364 31.5442 92.1573 31.4724 92.1573 30.3243V23.2617H94.2813C95.0448 23.2617 95.5896 22.9564 95.5896 22.3005C95.5896 21.6449 95.0448 21.3396 94.2813 21.3396H92.1573V19.3705V19.3609V18.1535L91.1317 18.1519C90.9286 18.1548 90.7885 18.164 90.6333 18.1779C89.6609 18.2686 89.7595 19.0782 89.7595 19.0782V21.3396H89.1049C88.3439 21.3396 87.7947 21.6449 87.7947 22.3005C87.7947 22.9564 88.3439 23.2617 89.1049 23.2617H89.7595V29.2463V30.7681C89.7595 33.3016 91.8024 33.3323 94.664 33.3323C95.1366 33.3323 96.0821 33.3298 96.0821 33.3298V32.505C96.0821 31.9184 95.5359 31.5442 94.664 31.5442Z" fill="#FEFEFE"/>
<path fill-rule="evenodd" clip-rule="evenodd" d="M41.1324 33.3374L41.129 21.3464L39.7861 21.3418C38.882 21.3536 38.7268 21.8411 38.7268 22.2619C38.7268 22.4206 38.7292 33.3374 38.7292 33.3374H41.1324Z" fill="#FEFEFE"/>
<path fill-rule="evenodd" clip-rule="evenodd" d="M39.6653 20.4339C40.2491 20.4339 40.5547 20.4486 40.8784 20.1887C41.1327 19.9871 41.1327 19.6247 41.1327 19.2136C41.1327 18.9725 41.1293 18.1587 41.1293 18.1587H39.7805C38.874 18.1721 38.7271 18.653 38.7271 19.0712C38.7271 19.2337 38.7236 20.4344 38.7236 20.4344C38.7236 20.4344 39.4149 20.4339 39.6653 20.4339Z" fill="#FEFEFE"/>
</g>
<defs>
<clipPath id="clip0_71_39">
<rect width="138.636" height="46.5909" fill="white" transform="translate(0.295166)"/>
</clipPath>
</defs>
</svg>
