<svg width="15" height="15" viewBox="0 0 15 15" fill="none" xmlns="http://www.w3.org/2000/svg">
<path fill-rule="evenodd" clip-rule="evenodd" d="M2.07692 0H2.01923C1.755 0 1.52769 8.59616e-09 1.32692 0.0473041C1.01612 0.121565 0.731942 0.280417 0.505881 0.506256C0.27982 0.732096 0.120701 1.01611 0.0461538 1.32682C-4.29841e-08 1.52757 0 1.75371 0 2.01908V4.90347C0 5.16768 8.59682e-09 5.39497 0.0473077 5.59572C0.121575 5.9065 0.280438 6.19066 0.506295 6.4167C0.732153 6.64275 1.01619 6.80185 1.32692 6.87639C1.52769 6.92254 1.75385 6.92254 2.01923 6.92254H4.90385C5.16808 6.92254 5.39538 6.92254 5.59615 6.87524C5.90696 6.80098 6.19113 6.64213 6.4172 6.41629C6.64326 6.19045 6.80238 5.90644 6.87692 5.59572C6.92308 5.39497 6.92308 5.16883 6.92308 4.90347V2.01908C6.92308 1.75486 6.92308 1.52757 6.87577 1.32682C6.8015 1.01604 6.64264 0.731886 6.41678 0.505842C6.19092 0.279799 5.90689 0.120692 5.59615 0.0461502C5.39538 -4.29808e-08 5.16923 0 4.90385 0H2.07692ZM1.59577 1.16991C1.64538 1.15837 1.72269 1.15376 2.07692 1.15376H4.84615C5.20154 1.15376 5.27769 1.15722 5.32731 1.16991C5.43096 1.19469 5.52572 1.2477 5.60107 1.32305C5.67643 1.39841 5.72944 1.49316 5.75423 1.5968C5.76577 1.64526 5.76923 1.72141 5.76923 2.07676V4.84578C5.76923 5.20114 5.76577 5.27729 5.75308 5.3269C5.72829 5.43054 5.67528 5.52529 5.59992 5.60064C5.52456 5.676 5.4298 5.729 5.32615 5.75379C5.27885 5.76417 5.20269 5.76879 4.84615 5.76879H2.07692C1.72154 5.76879 1.64538 5.76533 1.59577 5.75263C1.49212 5.72785 1.39736 5.67484 1.322 5.59949C1.24664 5.52414 1.19363 5.42939 1.16885 5.32574C1.15846 5.27844 1.15385 5.20229 1.15385 4.84578V2.07676C1.15385 1.72141 1.15731 1.64526 1.17 1.59565C1.19479 1.492 1.2478 1.39725 1.32316 1.3219C1.39851 1.24655 1.49327 1.19354 1.59692 1.16876M10.1538 0H10.0962C9.83192 0 9.60462 8.59616e-09 9.40385 0.0473041C9.09304 0.121565 8.80887 0.280417 8.5828 0.506256C8.35674 0.732096 8.19762 1.01611 8.12308 1.32682C8.07692 1.52757 8.07692 1.75371 8.07692 2.01908V4.90347C8.07692 5.16768 8.07692 5.39497 8.12423 5.59572C8.1985 5.9065 8.35736 6.19066 8.58322 6.4167C8.80908 6.64275 9.09311 6.80185 9.40385 6.87639C9.60462 6.92254 9.83077 6.92254 10.0962 6.92254H12.9808C13.245 6.92254 13.4723 6.92254 13.6731 6.87524C13.9839 6.80098 14.2681 6.64213 14.4941 6.41629C14.7202 6.19045 14.8793 5.90644 14.9538 5.59572C15 5.39497 15 5.16883 15 4.90347V2.01908C15 1.75486 15 1.52757 14.9527 1.32682C14.8784 1.01604 14.7196 0.731886 14.4937 0.505842C14.2678 0.279799 13.9838 0.120692 13.6731 0.0461502C13.4723 -4.29808e-08 13.2462 0 12.9808 0H10.1538ZM9.67269 1.16991C9.72231 1.15837 9.79962 1.15376 10.1538 1.15376H12.9231C13.2785 1.15376 13.3546 1.15722 13.4042 1.16991C13.5079 1.19469 13.6026 1.2477 13.678 1.32305C13.7534 1.39841 13.8064 1.49316 13.8312 1.5968C13.8427 1.64526 13.8462 1.72141 13.8462 2.07676V4.84578C13.8462 5.20114 13.8415 5.27729 13.83 5.3269C13.8052 5.43054 13.7522 5.52529 13.6768 5.60064C13.6015 5.676 13.5067 5.729 13.4031 5.75379C13.3546 5.76533 13.2785 5.76879 12.9231 5.76879H10.1538C9.79846 5.76879 9.72231 5.76533 9.67269 5.75263C9.56904 5.72785 9.47428 5.67484 9.39893 5.59949C9.32357 5.52414 9.27055 5.42939 9.24577 5.32574C9.23538 5.27844 9.23077 5.20229 9.23077 4.84578V2.07676C9.23077 1.72141 9.23423 1.64526 9.24692 1.59565C9.27171 1.492 9.32472 1.39725 9.40008 1.3219C9.47544 1.24655 9.5702 1.19354 9.67385 1.16876M2.01923 8.0763H4.90385C5.16808 8.0763 5.39538 8.0763 5.59615 8.12361C5.90696 8.19787 6.19113 8.35672 6.4172 8.58256C6.64326 8.8084 6.80238 9.09241 6.87692 9.40312C6.92308 9.60388 6.92308 9.83001 6.92308 10.0954V12.9798C6.92308 13.244 6.92308 13.4713 6.87577 13.672C6.8015 13.9828 6.64264 14.267 6.41678 14.493C6.19092 14.719 5.90689 14.8782 5.59615 14.9527C5.39538 14.9988 5.16923 14.9988 4.90385 14.9988H2.01923C1.755 14.9988 1.52769 14.9988 1.32692 14.9515C1.01612 14.8773 0.731942 14.7184 0.505881 14.4926C0.27982 14.2667 0.120701 13.9827 0.0461538 13.672C-4.29841e-08 13.4713 0 13.2451 0 12.9798V10.0954C0 9.83117 8.59682e-09 9.60388 0.0473077 9.40312C0.121575 9.09234 0.280438 8.80819 0.506295 8.58214C0.732153 8.3561 1.01619 8.19699 1.32692 8.12245C1.52769 8.0763 1.75385 8.0763 2.01923 8.0763ZM2.07692 9.23006C1.72154 9.23006 1.64538 9.23352 1.59577 9.24621C1.49212 9.271 1.39736 9.324 1.322 9.39936C1.24664 9.47471 1.19363 9.56946 1.16885 9.6731C1.15846 9.72041 1.15385 9.79655 1.15385 10.1531V12.9221C1.15385 13.2774 1.15731 13.3536 1.17 13.4032C1.19479 13.5068 1.2478 13.6016 1.32316 13.6769C1.39851 13.7523 1.49327 13.8053 1.59692 13.8301C1.64538 13.8416 1.72154 13.8451 2.07692 13.8451H4.84615C5.20154 13.8451 5.27769 13.8405 5.32731 13.8289C5.43096 13.8042 5.52572 13.7511 5.60107 13.6758C5.67643 13.6004 5.72944 13.5057 5.75423 13.402C5.76577 13.3536 5.76923 13.2774 5.76923 12.9221V10.1531C5.76923 9.79771 5.76577 9.72156 5.75308 9.67195C5.72829 9.56831 5.67528 9.47355 5.59992 9.3982C5.52456 9.32285 5.4298 9.26984 5.32615 9.24506C5.27885 9.23467 5.20269 9.23006 4.84615 9.23006H2.07692ZM10.1538 8.0763H10.0962C9.83192 8.0763 9.60462 8.0763 9.40385 8.12361C9.09304 8.19787 8.80887 8.35672 8.5828 8.58256C8.35674 8.8084 8.19762 9.09241 8.12308 9.40312C8.07692 9.60388 8.07692 9.83001 8.07692 10.0954V12.9798C8.07692 13.244 8.07692 13.4713 8.12423 13.672C8.1985 13.9828 8.35736 14.267 8.58322 14.493C8.80908 14.719 9.09311 14.8782 9.40385 14.9527C9.60462 15 9.83192 15 10.0962 15H12.9808C13.245 15 13.4723 15 13.6731 14.9527C13.9837 14.8782 14.2676 14.7193 14.4934 14.4935C14.7193 14.2677 14.8782 13.9837 14.9527 13.6732C15 13.4724 15 13.2451 15 12.9809V10.0965C15 9.83232 15 9.60503 14.9527 9.40428C14.8786 9.09328 14.7198 8.80889 14.494 8.58262C14.2681 8.35636 13.984 8.19709 13.6731 8.12245C13.4723 8.0763 13.2462 8.0763 12.9808 8.0763H10.1538ZM9.67269 9.24621C9.72231 9.23467 9.79962 9.23006 10.1538 9.23006H12.9231C13.2785 9.23006 13.3546 9.23352 13.4042 9.24621C13.5079 9.271 13.6026 9.324 13.678 9.39936C13.7534 9.47471 13.8064 9.56946 13.8312 9.6731C13.8427 9.72156 13.8462 9.79771 13.8462 10.1531V12.9221C13.8462 13.2774 13.8415 13.3536 13.83 13.4032C13.8052 13.5068 13.7522 13.6016 13.6768 13.6769C13.6015 13.7523 13.5067 13.8053 13.4031 13.8301C13.3546 13.8416 13.2785 13.8451 12.9231 13.8451H10.1538C9.79846 13.8451 9.72231 13.8405 9.67269 13.8289C9.56904 13.8042 9.47428 13.7511 9.39893 13.6758C9.32357 13.6004 9.27055 13.5057 9.24577 13.402C9.23538 13.3547 9.23077 13.2786 9.23077 12.9221V10.1531C9.23077 9.79771 9.23423 9.72156 9.24692 9.67195C9.27171 9.56831 9.32472 9.47355 9.40008 9.3982C9.47544 9.32285 9.5702 9.26984 9.67385 9.24506" fill="white"/>
</svg>
