<svg width="24" height="24" viewBox="0 0 24 24" fill="none" xmlns="http://www.w3.org/2000/svg">
<path d="M8.48858 12.7642L14.1486 18.4142C14.2415 18.5079 14.3521 18.5823 14.474 18.6331C14.5959 18.6838 14.7266 18.71 14.8586 18.71C14.9906 18.71 15.1213 18.6838 15.2432 18.6331C15.365 18.5823 15.4756 18.5079 15.5686 18.4142C15.7548 18.2268 15.8594 17.9733 15.8594 17.7092C15.8594 17.445 15.7548 17.1915 15.5686 17.0042L10.6186 12.0042L15.5686 7.05416C15.7548 6.8668 15.8594 6.61335 15.8594 6.34916C15.8594 6.08498 15.7548 5.83153 15.5686 5.64416C15.476 5.54967 15.3655 5.4745 15.2436 5.42301C15.1218 5.37151 14.9909 5.34471 14.8586 5.34416C14.7263 5.34471 14.5954 5.37151 14.4735 5.42301C14.3516 5.4745 14.2412 5.54967 14.1486 5.64416L8.48858 11.2942C8.38708 11.3878 8.30607 11.5015 8.25066 11.628C8.19525 11.7545 8.16665 11.8911 8.16665 12.0292C8.16665 12.1673 8.19525 12.3039 8.25066 12.4304C8.30607 12.5569 8.38708 12.6705 8.48858 12.7642Z" fill="#1F4E79"/>
</svg>
