<svg width="30" height="24" viewBox="0 0 30 24" fill="none" xmlns="http://www.w3.org/2000/svg">
<g clip-path="url(#clip0_3057_10512)">
<path d="M16.7422 11.9802L19.5809 15.225L23.3984 17.6642L24.0624 12.0007L23.3984 6.46484L19.5078 8.60767L16.7422 11.9802Z" fill="#00832D"/>
<path d="M0.269531 17.1371V21.9632C0.269531 23.0652 1.16401 23.9599 2.26619 23.9599H7.09236L8.09171 20.3134L7.09236 17.1371L3.78127 16.1377L0.269531 17.1371Z" fill="#0066DA"/>
<path d="M7.09236 0L0.269531 6.82282L3.78149 7.81979L7.09236 6.82282L8.07351 3.68974L7.09236 0Z" fill="#E94235"/>
<path d="M0.269531 17.1384H7.09224V6.82227H0.269531V17.1384Z" fill="#2684FC"/>
<path d="M27.757 2.88912L23.3984 6.46477V17.664L27.775 21.2536C28.4301 21.7668 29.3885 21.299 29.3885 20.4662V3.66053C29.3885 2.81848 28.4073 2.35304 27.7569 2.88923" fill="#00AC47"/>
<path d="M16.7426 11.9795V17.1364H7.09277V23.9592H21.4022C22.5044 23.9592 23.3988 23.0645 23.3988 21.9626V17.6635L16.7426 11.9795Z" fill="#00AC47"/>
<path d="M21.4022 0H7.09277V6.82282H16.7426V11.9798L23.3989 6.4643V1.99678C23.3989 0.894597 22.5044 0.000113744 21.4022 0.000113744" fill="#FFBA00"/>
</g>
<defs>
<clipPath id="clip0_3057_10512">
<rect width="29.1185" height="24" fill="white" transform="translate(0.269531)"/>
</clipPath>
</defs>
</svg>
