<svg width="25" height="25" viewBox="0 0 25 25" fill="none" xmlns="http://www.w3.org/2000/svg">
<path d="M23.5 12.7605C23.5 11.948 23.4271 11.1667 23.2917 10.4167H12.5V14.849H18.6667C18.401 16.2813 17.5938 17.4949 16.3802 18.3074V21.1824H20.0833C22.25 19.1876 23.5 16.2501 23.5 12.7605Z" fill="#4285F4"/>
<path d="M12.5001 23.9584C15.5938 23.9584 18.1876 22.9323 20.0834 21.1823L16.3803 18.3073C15.3542 18.9948 14.0417 19.4011 12.5001 19.4011C9.51571 19.4011 6.98966 17.3855 6.08862 14.6771H2.2605V17.6459C4.14591 21.3907 8.02091 23.9584 12.5001 23.9584Z" fill="#34A853"/>
<path d="M6.08862 14.677C5.85946 13.9895 5.72925 13.2552 5.72925 12.5C5.72925 11.7448 5.85946 11.0104 6.08862 10.3229V7.35413H2.2605C1.45841 8.95085 1.04104 10.7131 1.04175 12.5C1.04175 14.3489 1.48446 16.0989 2.2605 17.6458L6.08862 14.677Z" fill="#FBBC05"/>
<path d="M12.5001 5.59904C14.1824 5.59904 15.6928 6.17716 16.8803 7.31258L20.1667 4.02612C18.1824 2.17716 15.5886 1.04175 12.5001 1.04175C8.02091 1.04175 4.14591 3.60946 2.2605 7.35425L6.08862 10.323C6.98966 7.61466 9.51571 5.59904 12.5001 5.59904Z" fill="#EA4335"/>
</svg>
