<svg width="18" height="18" viewBox="0 0 18 18" fill="none" xmlns="http://www.w3.org/2000/svg">
<g clip-path="url(#clip0_1397_1955)">
<path d="M13.2689 4.48257H4.2334V13.5181H13.2689V4.48257Z" fill="white"/>
<path d="M13.269 17.5838L17.335 13.5177L15.302 13.1709L13.269 13.5177L12.8979 15.3773L13.269 17.5838Z" fill="#EA4335"/>
<path d="M0.16748 13.5177V16.2284C0.16748 16.9773 0.773981 17.5838 1.52279 17.5838H4.23353L4.65099 15.5508L4.23353 13.5177L2.0183 13.1709L0.16748 13.5177Z" fill="#188038"/>
<path d="M17.335 4.48222V1.77147C17.335 1.02267 16.7285 0.416168 15.9797 0.416168H13.269C13.0217 1.4245 12.898 2.16655 12.8979 2.64233C12.8979 3.11806 13.0216 3.73136 13.269 4.48222C14.1683 4.73973 14.846 4.86849 15.302 4.86849C15.7581 4.86849 16.4358 4.73978 17.335 4.48222Z" fill="#1967D2"/>
<path d="M17.3351 4.48257H13.269V13.5181H17.3351V4.48257Z" fill="#FBBC04"/>
<path d="M13.2689 13.5178H4.2334V17.5838H13.2689V13.5178Z" fill="#34A853"/>
<path d="M13.2691 0.416168H1.52285C0.773982 0.416168 0.16748 1.02267 0.16748 1.77147V13.5178H4.23353V4.48222H13.2691V0.416168Z" fill="#4285F4"/>
<path d="M6.08687 11.4912C5.74915 11.2631 5.51531 10.9299 5.3877 10.4893L6.17157 10.1663C6.24266 10.4374 6.3669 10.6475 6.5443 10.7966C6.72047 10.9457 6.93506 11.0191 7.18581 11.0191C7.44216 11.0191 7.66239 10.9411 7.84649 10.7853C8.03064 10.6294 8.12325 10.4306 8.12325 10.1901C8.12325 9.94384 8.02613 9.74279 7.83187 9.58694C7.6376 9.43109 7.39363 9.35316 7.10225 9.35316H6.64932V8.57727H7.05591C7.30663 8.57727 7.51783 8.50947 7.6895 8.37387C7.86118 8.23841 7.94702 8.05312 7.94702 7.81706C7.94702 7.60702 7.87023 7.43984 7.71666 7.3145C7.56309 7.1891 7.36875 7.12586 7.13269 7.12586C6.90227 7.12586 6.71933 7.18689 6.5838 7.30994C6.44831 7.43336 6.34646 7.58923 6.28786 7.76287L5.51196 7.43984C5.6147 7.14846 5.80334 6.89095 6.08003 6.66844C6.35673 6.44593 6.71028 6.33414 7.13947 6.33414C7.45687 6.33414 7.74261 6.39516 7.99564 6.51822C8.24859 6.64134 8.44736 6.81188 8.5908 7.02876C8.73431 7.24671 8.8054 7.49067 8.8054 7.76173C8.8054 8.03843 8.73881 8.27227 8.60556 8.46427C8.47231 8.65626 8.30848 8.80306 8.1142 8.90586V8.95214C8.36505 9.05557 8.58294 9.22545 8.74444 9.44349C8.9082 9.66372 8.99069 9.92687 8.99069 10.2341C8.99069 10.5413 8.9127 10.8158 8.75685 11.0563C8.601 11.2969 8.38533 11.4866 8.11192 11.6245C7.83751 11.7623 7.52916 11.8323 7.18695 11.8323C6.79048 11.8334 6.42459 11.7193 6.08687 11.4912ZM10.9016 7.60132L10.041 8.22365L9.61067 7.57088L11.1546 6.45719H11.7464V11.7103H10.9016V7.60132Z" fill="#4285F4"/>
</g>
<defs>
<clipPath id="clip0_1397_1955">
<rect width="17.1677" height="17.1677" fill="white" transform="translate(0.16748 0.416168)"/>
</clipPath>
</defs>
</svg>
