<svg width="218" height="30" viewBox="0 0 218 30" fill="none" xmlns="http://www.w3.org/2000/svg">
<path d="M8.95899 23.2371C7.66272 23.2371 6.46921 23.0316 5.37845 22.6206C4.30349 22.1938 3.36291 21.601 2.55669 20.8422C1.75047 20.0676 1.12605 19.1586 0.683424 18.1153C0.240795 17.0719 0.0194811 15.9338 0.0194811 14.7007C0.0194811 13.4677 0.240795 12.3295 0.683424 11.2862C1.12605 10.2428 1.75047 9.34175 2.55669 8.58296C3.37871 7.80836 4.33511 7.21556 5.42587 6.80455C6.51663 6.37773 7.71015 6.16432 9.00642 6.16432C10.4133 6.16432 11.678 6.39353 12.8004 6.85197C13.9386 7.31041 14.895 7.98225 15.6696 8.86751L13.7252 10.7645C13.077 10.1164 12.3736 9.64211 11.6148 9.34175C10.8718 9.02559 10.0498 8.86751 9.14869 8.86751C8.27924 8.86751 7.47303 9.00978 6.73004 9.29433C5.98706 9.57888 5.34683 9.98199 4.80935 10.5037C4.27187 11.0253 3.85296 11.6418 3.5526 12.3532C3.26806 13.0646 3.12578 13.8471 3.12578 14.7007C3.12578 15.5386 3.26806 16.3132 3.5526 17.0245C3.85296 17.7359 4.27187 18.3603 4.80935 18.8978C5.34683 19.4195 5.97916 19.8226 6.70633 20.1071C7.43351 20.3917 8.23972 20.5339 9.12498 20.5339C9.947 20.5339 10.7374 20.4075 11.4962 20.1545C12.2708 19.8858 13.0059 19.4432 13.7014 18.8266L15.4561 21.1267C14.5867 21.8223 13.575 22.3519 12.421 22.7155C11.2828 23.0632 10.1288 23.2371 8.95899 23.2371ZM12.5395 20.7236V14.511H15.4561V21.1267L12.5395 20.7236ZM19.5219 23V6.40144H26.351C27.8211 6.40144 29.0779 6.63856 30.1212 7.11281C31.1804 7.58705 31.9945 8.2668 32.5636 9.15206C33.1327 10.0373 33.4172 11.0886 33.4172 12.3058C33.4172 13.523 33.1327 14.5743 32.5636 15.4595C31.9945 16.329 31.1804 17.0008 30.1212 17.4751C29.0779 17.9335 27.8211 18.1627 26.351 18.1627H21.2291L22.6045 16.7637V23H19.5219ZM30.3821 23L26.185 16.9771H29.481L33.7018 23H30.3821ZM22.6045 17.0957L21.2291 15.6255H26.2087C27.5682 15.6255 28.5878 15.333 29.2676 14.7481C29.9632 14.1632 30.3109 13.3491 30.3109 12.3058C30.3109 11.2466 29.9632 10.4325 29.2676 9.86342C28.5878 9.29433 27.5682 9.00978 26.2087 9.00978H21.2291L22.6045 7.4922V17.0957ZM34.5186 23L41.9879 6.40144H45.0231L52.5161 23H49.2913L42.8653 8.03758H44.0983L37.696 23H34.5186ZM37.9568 19.1586L38.7868 16.74H47.75L48.5799 19.1586H37.9568ZM54.6271 23V6.40144H57.1643L67.574 19.1823H66.3172V6.40144H69.3761V23H66.8389L56.4292 10.2191H57.686V23H54.6271ZM77.1909 23V9.00978H71.6897V6.40144H85.7748V9.00978H80.2735V23H77.1909ZM93.0716 23.2371C91.7754 23.2371 90.5344 23.0553 89.3488 22.6917C88.1632 22.3123 87.2226 21.8302 86.5271 21.2453L87.5941 18.8504C88.2581 19.372 89.0801 19.8068 90.0602 20.1545C91.0403 20.5023 92.0441 20.6762 93.0716 20.6762C93.9411 20.6762 94.6446 20.5814 95.182 20.3917C95.7195 20.202 96.1147 19.949 96.3676 19.6329C96.6206 19.3009 96.747 18.9294 96.747 18.5184C96.747 18.0125 96.5652 17.6094 96.2017 17.3091C95.8381 16.9929 95.3638 16.7479 94.7789 16.574C94.2098 16.3843 93.5696 16.2104 92.8582 16.0523C92.1627 15.8942 91.4592 15.7124 90.7478 15.5069C90.0523 15.2856 89.4121 15.009 88.8272 14.677C88.2581 14.3292 87.7917 13.8708 87.4281 13.3017C87.0645 12.7326 86.8828 12.0054 86.8828 11.1202C86.8828 10.2191 87.1199 9.39708 87.5941 8.6541C88.0842 7.89531 88.8193 7.2946 89.7994 6.85197C90.7953 6.39353 92.052 6.16432 93.5696 6.16432C94.5655 6.16432 95.5535 6.29078 96.5336 6.54371C97.5137 6.79664 98.3674 7.16023 99.0946 7.63447L98.1224 10.0294C97.3794 9.58678 96.6127 9.26271 95.8223 9.05721C95.0319 8.83589 94.2731 8.72524 93.5459 8.72524C92.6923 8.72524 91.9967 8.82799 91.4592 9.0335C90.9375 9.239 90.5502 9.50774 90.2973 9.83971C90.0602 10.1717 89.9416 10.5511 89.9416 10.9779C89.9416 11.4838 90.1155 11.8948 90.4633 12.2109C90.8269 12.5113 91.2932 12.7484 91.8623 12.9223C92.4472 13.0962 93.0954 13.2701 93.8067 13.444C94.5181 13.6021 95.2216 13.7838 95.9171 13.9894C96.6285 14.1949 97.2687 14.4636 97.8378 14.7956C98.4227 15.1275 98.889 15.5781 99.2368 16.1472C99.6004 16.7163 99.7822 17.4355 99.7822 18.305C99.7822 19.1902 99.5372 20.0123 99.0471 20.7711C98.5729 21.514 97.8378 22.1147 96.8419 22.5732C95.846 23.0158 94.5892 23.2371 93.0716 23.2371Z" fill="#27AE60"/>
<path d="M110.522 23.2371C109.257 23.2371 108.079 23.0316 106.989 22.6206C105.914 22.1938 104.973 21.601 104.167 20.8422C103.376 20.0676 102.76 19.1586 102.317 18.1153C101.875 17.0719 101.653 15.9338 101.653 14.7007C101.653 13.4677 101.875 12.3295 102.317 11.2862C102.76 10.2428 103.384 9.34175 104.19 8.58296C104.997 7.80836 105.937 7.21556 107.012 6.80455C108.087 6.37773 109.265 6.16432 110.545 6.16432C111.905 6.16432 113.146 6.40144 114.268 6.87568C115.391 7.33412 116.339 8.02177 117.114 8.93865L115.122 10.8119C114.521 10.1638 113.849 9.68163 113.106 9.36547C112.363 9.0335 111.557 8.86751 110.688 8.86751C109.818 8.86751 109.02 9.00978 108.293 9.29433C107.581 9.57888 106.957 9.98199 106.419 10.5037C105.898 11.0253 105.487 11.6418 105.186 12.3532C104.902 13.0646 104.76 13.8471 104.76 14.7007C104.76 15.5544 104.902 16.3369 105.186 17.0482C105.487 17.7596 105.898 18.3761 106.419 18.8978C106.957 19.4195 107.581 19.8226 108.293 20.1071C109.02 20.3917 109.818 20.5339 110.688 20.5339C111.557 20.5339 112.363 20.3758 113.106 20.0597C113.849 19.7277 114.521 19.2298 115.122 18.5658L117.114 20.4628C116.339 21.3639 115.391 22.0515 114.268 22.5258C113.146 23 111.897 23.2371 110.522 23.2371ZM127.498 23.2371C126.201 23.2371 125.008 23.0237 123.917 22.5969C122.826 22.1701 121.878 21.5773 121.072 20.8185C120.265 20.0439 119.641 19.1428 119.198 18.1153C118.756 17.0719 118.534 15.9338 118.534 14.7007C118.534 13.4677 118.756 12.3374 119.198 11.3099C119.641 10.2665 120.265 9.36547 121.072 8.60667C121.878 7.83208 122.826 7.23137 123.917 6.80455C125.008 6.37773 126.193 6.16432 127.474 6.16432C128.77 6.16432 129.956 6.37773 131.031 6.80455C132.121 7.23137 133.07 7.83208 133.876 8.60667C134.682 9.36547 135.307 10.2665 135.749 11.3099C136.192 12.3374 136.413 13.4677 136.413 14.7007C136.413 15.9338 136.192 17.0719 135.749 18.1153C135.307 19.1586 134.682 20.0597 133.876 20.8185C133.07 21.5773 132.121 22.1701 131.031 22.5969C129.956 23.0237 128.778 23.2371 127.498 23.2371ZM127.474 20.5339C128.312 20.5339 129.086 20.3917 129.798 20.1071C130.509 19.8226 131.126 19.4195 131.647 18.8978C132.169 18.3603 132.572 17.7438 132.857 17.0482C133.157 16.3369 133.307 15.5544 133.307 14.7007C133.307 13.8471 133.157 13.0725 132.857 12.3769C132.572 11.6656 132.169 11.049 131.647 10.5274C131.126 9.98989 130.509 9.57888 129.798 9.29433C129.086 9.00978 128.312 8.86751 127.474 8.86751C126.636 8.86751 125.861 9.00978 125.15 9.29433C124.454 9.57888 123.838 9.98989 123.3 10.5274C122.779 11.049 122.368 11.6656 122.067 12.3769C121.783 13.0725 121.641 13.8471 121.641 14.7007C121.641 15.5386 121.783 16.3132 122.067 17.0245C122.368 17.7359 122.779 18.3603 123.3 18.8978C123.822 19.4195 124.439 19.8226 125.15 20.1071C125.861 20.3917 126.636 20.5339 127.474 20.5339ZM139.681 23V6.40144H142.218L152.628 19.1823H151.371V6.40144H154.43V23H151.893L141.483 10.2191H142.74V23H139.681ZM164.023 23.2371C162.727 23.2371 161.486 23.0553 160.3 22.6917C159.115 22.3123 158.174 21.8302 157.479 21.2453L158.546 18.8504C159.21 19.372 160.032 19.8068 161.012 20.1545C161.992 20.5023 162.996 20.6762 164.023 20.6762C164.893 20.6762 165.596 20.5814 166.133 20.3917C166.671 20.202 167.066 19.949 167.319 19.6329C167.572 19.3009 167.698 18.9294 167.698 18.5184C167.698 18.0125 167.517 17.6094 167.153 17.3091C166.79 16.9929 166.315 16.7479 165.73 16.574C165.161 16.3843 164.521 16.2104 163.81 16.0523C163.114 15.8942 162.411 15.7124 161.699 15.5069C161.004 15.2856 160.364 15.009 159.779 14.677C159.21 14.3292 158.743 13.8708 158.38 13.3017C158.016 12.7326 157.834 12.0054 157.834 11.1202C157.834 10.2191 158.071 9.39708 158.546 8.6541C159.036 7.89531 159.771 7.2946 160.751 6.85197C161.747 6.39353 163.003 6.16432 164.521 6.16432C165.517 6.16432 166.505 6.29078 167.485 6.54371C168.465 6.79664 169.319 7.16023 170.046 7.63447L169.074 10.0294C168.331 9.58678 167.564 9.26271 166.774 9.05721C165.983 8.83589 165.225 8.72524 164.497 8.72524C163.644 8.72524 162.948 8.82799 162.411 9.0335C161.889 9.239 161.502 9.50774 161.249 9.83971C161.012 10.1717 160.893 10.5511 160.893 10.9779C160.893 11.4838 161.067 11.8948 161.415 12.2109C161.778 12.5113 162.245 12.7484 162.814 12.9223C163.399 13.0962 164.047 13.2701 164.758 13.444C165.47 13.6021 166.173 13.7838 166.869 13.9894C167.58 14.1949 168.22 14.4636 168.789 14.7956C169.374 15.1275 169.84 15.5781 170.188 16.1472C170.552 16.7163 170.734 17.4355 170.734 18.305C170.734 19.1902 170.489 20.0123 169.999 20.7711C169.524 21.514 168.789 22.1147 167.793 22.5732C166.797 23.0158 165.541 23.2371 164.023 23.2371ZM180.928 23.2371C178.651 23.2371 176.865 22.5969 175.569 21.3164C174.288 20.036 173.648 18.1864 173.648 15.7678V6.40144H176.731V15.6492C176.731 17.3565 177.094 18.5974 177.821 19.372C178.564 20.1466 179.608 20.5339 180.951 20.5339C182.295 20.5339 183.331 20.1466 184.058 19.372C184.785 18.5974 185.148 17.3565 185.148 15.6492V6.40144H188.184V15.7678C188.184 18.1864 187.535 20.036 186.239 21.3164C184.959 22.5969 183.188 23.2371 180.928 23.2371ZM192.501 23V6.40144H195.583V20.3917H204.262V23H192.501ZM208.511 23V9.00978H203.01V6.40144H217.095V9.00978H211.594V23H208.511Z" fill="#1F4E79"/>
</svg>
