<svg width="49" height="48" viewBox="0 0 49 48" fill="none" xmlns="http://www.w3.org/2000/svg">
<path d="M42.5 0H6.5C3.18629 0 0.5 2.68629 0.5 6V42C0.5 45.3137 3.18629 48 6.5 48H42.5C45.8137 48 48.5 45.3137 48.5 42V6C48.5 2.68629 45.8137 0 42.5 0Z" fill="#1B9AF5"/>
<mask id="mask0_3896_11358" style="mask-type:luminance" maskUnits="userSpaceOnUse" x="14" y="14" width="21" height="20">
<path d="M34.5 14H14.5V34H34.5V14Z" fill="white"/>
</mask>
<g mask="url(#mask0_3896_11358)">
<path d="M20.627 15.9141C21.0123 16.3307 21.038 16.7735 20.704 17.2422L17.9295 20.3672C17.7496 20.5755 17.5313 20.6797 17.2744 20.6797C16.9918 20.6797 16.7605 20.5885 16.5807 20.4062L15.0393 18.8438C14.6796 18.401 14.6796 17.9583 15.0393 17.5156C15.476 17.151 15.9128 17.151 16.3495 17.5156L17.1973 18.375L19.3167 15.9922C19.7278 15.6016 20.1645 15.5755 20.627 15.9141ZM20.627 22.1641C21.0123 22.5807 21.038 23.0234 20.704 23.4922L17.9295 26.6172C17.7496 26.8255 17.5313 26.9297 17.2744 26.9297C16.9918 26.9297 16.7605 26.8385 16.5807 26.6562L15.0393 25.0938C14.6796 24.651 14.6796 24.2083 15.0393 23.7656C15.476 23.401 15.9128 23.401 16.3495 23.7656L17.1973 24.625L19.3167 22.2422C19.7278 21.8516 20.1645 21.8255 20.627 22.1641ZM23.4015 18.1797C23.4015 17.8151 23.5171 17.5156 23.7483 17.2812C23.9796 17.0469 24.275 16.9297 24.6347 16.9297H33.2666C33.6263 16.9297 33.9217 17.0469 34.1529 17.2812C34.3842 17.5156 34.4998 17.8151 34.4998 18.1797C34.4998 18.5443 34.3842 18.8437 34.1529 19.0781C33.9217 19.3125 33.6263 19.4297 33.2666 19.4297H24.6347C24.275 19.4297 23.9796 19.3125 23.7483 19.0781C23.5171 18.8437 23.4015 18.5443 23.4015 18.1797ZM23.4015 24.4297C23.4015 24.0651 23.5171 23.7656 23.7483 23.5312C23.9796 23.2969 24.275 23.1797 24.6347 23.1797H33.2666C33.6263 23.1797 33.9217 23.2969 34.1529 23.5312C34.3842 23.7656 34.4998 24.0651 34.4998 24.4297C34.4998 24.7943 34.3842 25.0938 34.1529 25.3281C33.9217 25.5625 33.6263 25.6797 33.2666 25.6797H24.6347C24.275 25.6797 23.9796 25.5625 23.7483 25.3281C23.5171 25.0938 23.4015 24.7943 23.4015 24.4297ZM20.9352 30.6797C20.9352 30.3151 21.0508 30.0156 21.2821 29.7812C21.5133 29.5469 21.8087 29.4297 22.1684 29.4297H33.2666C33.6263 29.4297 33.9217 29.5469 34.1529 29.7812C34.3842 30.0156 34.4998 30.3151 34.4998 30.6797C34.4998 31.0443 34.3842 31.3437 34.1529 31.5781C33.9217 31.8125 33.6263 31.9297 33.2666 31.9297H22.1684C21.8087 31.9297 21.5133 31.8125 21.2821 31.5781C21.0508 31.3437 20.9352 31.0443 20.9352 30.6797ZM16.6192 28.8047C17.3129 28.8307 17.8524 29.1432 18.2377 29.7422C18.546 30.3672 18.546 30.9922 18.2377 31.6172C17.8524 32.2161 17.3129 32.5286 16.6192 32.5547C15.9256 32.5286 15.3861 32.2161 15.0007 31.6172C14.6925 30.9922 14.6925 30.3672 15.0007 29.7422C15.3861 29.1432 15.9256 28.8307 16.6192 28.8047Z" fill="white"/>
</g>
</svg>
