<svg width="49" height="48" viewBox="0 0 49 48" fill="none" xmlns="http://www.w3.org/2000/svg">
<path d="M42.5 0H6.5C3.18629 0 0.5 2.68629 0.5 6V42C0.5 45.3137 3.18629 48 6.5 48H42.5C45.8137 48 48.5 45.3137 48.5 42V6C48.5 2.68629 45.8137 0 42.5 0Z" fill="#1B9AF5"/>
<mask id="mask0_3896_11370" style="mask-type:luminance" maskUnits="userSpaceOnUse" x="14" y="14" width="21" height="20">
<path d="M34.5 14H14.5V34H34.5V14Z" fill="white"/>
</mask>
<g mask="url(#mask0_3896_11370)">
<path d="M24.5 14.4297C26.3229 14.4558 27.9896 14.8985 29.5 15.7578C31.0104 16.6432 32.2343 17.8672 33.1719 19.4297C34.0573 21.0182 34.5 22.6849 34.5 24.4297C34.5 26.1745 34.0573 27.8411 33.1719 29.4297C32.2343 30.9922 31.0104 32.2161 29.5 33.1016C27.9896 33.9609 26.3229 34.4036 24.5 34.4297C22.6771 34.4036 21.0104 33.9609 19.5 33.1016C17.9896 32.2161 16.7656 30.9922 15.8281 29.4297C14.9427 27.8411 14.5 26.1745 14.5 24.4297C14.5 22.6849 14.9427 21.0182 15.8281 19.4297C16.7656 17.8672 17.9896 16.6432 19.5 15.7578C21.0104 14.8985 22.6771 14.4558 24.5 14.4297ZM23.5625 19.1172V24.4297C23.5625 24.7682 23.7057 25.0286 23.9922 25.2109L27.7422 27.7109C28.237 27.9974 28.6667 27.9063 29.0312 27.4375C29.3177 26.9427 29.2265 26.513 28.7578 26.1484L25.4375 23.9219V19.1172C25.3854 18.5443 25.0729 18.2318 24.5 18.1797C23.9271 18.2318 23.6146 18.5443 23.5625 19.1172Z" fill="white"/>
</g>
</svg>
