<svg width="24" height="30" viewBox="0 0 24 30" fill="none" xmlns="http://www.w3.org/2000/svg">
<path d="M12 0C9.50752 0 7.11713 1.01424 5.35468 2.8196C3.59223 4.62496 2.6021 7.07356 2.6021 9.62672V14.4786C2.60229 14.6919 2.55403 14.9024 2.46113 15.0933L0.155955 19.8145C0.0433501 20.0452 -0.00982099 20.3015 0.00149197 20.5591C0.0128049 20.8168 0.0882263 21.0672 0.220593 21.2865C0.352959 21.5059 0.537876 21.687 0.75778 21.8125C0.977683 21.9381 1.22527 22.004 1.47703 22.0039H22.523C22.7747 22.004 23.0223 21.9381 23.2422 21.8125C23.4621 21.687 23.647 21.5059 23.7794 21.2865C23.9118 21.0672 23.9872 20.8168 23.9985 20.5591C24.0098 20.3015 23.9567 20.0452 23.844 19.8145L21.5402 15.0933C21.4469 14.9025 21.3981 14.692 21.3979 14.4786V9.62672C21.3979 7.07356 20.4078 4.62496 18.6453 2.8196C16.8829 1.01424 14.4925 0 12 0ZM12 26.1297C11.1667 26.1301 10.3539 25.8658 9.67337 25.3732C8.99289 24.8806 8.47832 24.1839 8.20056 23.3792H15.7994C15.5217 24.1839 15.0071 24.8806 14.3266 25.3732C13.6461 25.8658 12.8333 26.1301 12 26.1297Z" fill="#1F4E79"/>
</svg>
