<svg width="49" height="48" viewBox="0 0 49 48" fill="none" xmlns="http://www.w3.org/2000/svg">
<path d="M42.5 0H6.5C3.18629 0 0.5 2.68629 0.5 6V42C0.5 45.3137 3.18629 48 6.5 48H42.5C45.8137 48 48.5 45.3137 48.5 42V6C48.5 2.68629 45.8137 0 42.5 0Z" fill="#1B9AF5"/>
<mask id="mask0_3896_11346" style="mask-type:luminance" maskUnits="userSpaceOnUse" x="14" y="14" width="21" height="20">
<path d="M34.5 14H14.5V34H34.5V14Z" fill="white"/>
</mask>
<g mask="url(#mask0_3896_11346)">
<path d="M17 16.9297C17 16.5651 16.8828 16.2656 16.6484 16.0313C16.4141 15.7969 16.1146 15.6797 15.75 15.6797C15.3854 15.6797 15.0859 15.7969 14.8516 16.0313C14.6172 16.2656 14.5 16.5651 14.5 16.9297V30.0547C14.526 30.9401 14.8255 31.6823 15.3984 32.2812C15.9974 32.8542 16.7396 33.1536 17.625 33.1797H33.25C33.6146 33.1797 33.914 33.0625 34.1484 32.8281C34.3828 32.5937 34.5 32.2943 34.5 31.9297C34.5 31.5651 34.3828 31.2656 34.1484 31.0312C33.914 30.7969 33.6146 30.6797 33.25 30.6797H17.625C17.2344 30.6536 17.026 30.4453 17 30.0547V16.9297ZM32.8984 20.3281C33.1328 20.0677 33.25 19.7682 33.25 19.4297C33.25 19.0912 33.1328 18.7917 32.8984 18.5313C32.638 18.2969 32.3385 18.1797 32 18.1797C31.6615 18.1797 31.362 18.2969 31.1016 18.5313L27 22.6719L24.7734 20.4063C24.513 20.1719 24.2135 20.0547 23.875 20.0547C23.5365 20.0547 23.237 20.1719 22.9766 20.4063L18.6016 24.7812C18.3672 25.0417 18.25 25.3411 18.25 25.6797C18.25 26.0182 18.3672 26.3177 18.6016 26.5781C18.862 26.8125 19.1615 26.9297 19.5 26.9297C19.8385 26.9297 20.138 26.8125 20.3984 26.5781L23.875 23.0625L26.1016 25.3281C26.362 25.5625 26.6615 25.6797 27 25.6797C27.3385 25.6797 27.638 25.5625 27.8984 25.3281L32.8984 20.3281Z" fill="white"/>
</g>
</svg>
