<svg width="12" height="12" viewBox="0 0 12 12" fill="none" xmlns="http://www.w3.org/2000/svg">
<mask id="mask0_3881_11531" style="mask-type:luminance" maskUnits="userSpaceOnUse" x="0" y="0" width="12" height="12">
<path d="M11.8031 0.335938H0V11.6588H11.8031V0.335938Z" fill="white"/>
</mask>
<g mask="url(#mask0_3881_11531)">
<path d="M5.90186 0.514994C6.12289 0.529767 6.28498 0.632966 6.38813 0.824593L7.89114 3.94282L11.2729 4.42934C11.494 4.47357 11.6413 4.59889 11.7149 4.8053C11.7739 5.01171 11.7297 5.18863 11.5824 5.33606L9.12888 7.7687L9.70359 11.2186C9.73309 11.425 9.65941 11.602 9.48256 11.7494C9.30576 11.8673 9.12158 11.8747 8.93 11.7715L5.90186 10.1571L2.87373 11.7715C2.68217 11.8747 2.49798 11.86 2.32115 11.7273C2.14433 11.5946 2.07065 11.425 2.10012 11.2186L2.6748 7.7687L0.221354 5.33606C0.0739994 5.18863 0.0297962 5.01171 0.0887379 4.8053C0.162415 4.59889 0.309771 4.47357 0.530802 4.42934L3.91258 3.94282L5.41559 0.824593C5.51874 0.632966 5.68083 0.529767 5.90186 0.514994ZM5.90186 2.26211L4.7304 4.6505C4.65672 4.81267 4.5241 4.91587 4.33254 4.9601L1.72437 5.33606L3.62524 7.21583C3.74313 7.34852 3.7947 7.50332 3.77996 7.68024L3.31579 10.334L5.65872 9.0956C5.82081 9.00714 5.9829 9.00714 6.14499 9.0956L8.46585 10.334L8.02376 7.68024C7.99429 7.50332 8.04587 7.34852 8.17849 7.21583L10.0794 5.33606L7.47118 4.9601C7.27962 4.91587 7.147 4.81267 7.07332 4.6505L5.90186 2.26211Z" fill="#1B9AF5"/>
</g>
</svg>
