<svg width="12" height="10" viewBox="0 0 12 10" fill="none" xmlns="http://www.w3.org/2000/svg">
<path d="M1.41536 1.81547C1.19421 1.83021 1.07626 1.94816 1.06152 2.16931V2.65584L4.8874 5.79617C5.1233 5.97308 5.38131 6.06154 5.66143 6.06154C5.9563 6.06154 6.22168 5.97308 6.45757 5.79617L10.2613 2.65584V2.16931C10.2466 1.94816 10.1287 1.83021 9.9075 1.81547H1.41536ZM1.06152 4.02697V7.83074C1.07626 8.05189 1.19421 8.16983 1.41536 8.18458H9.9075C10.1287 8.16983 10.2466 8.05189 10.2613 7.83074V4.02697L7.12102 6.61441C6.67872 6.95351 6.19219 7.12306 5.66143 7.12306C5.13067 7.12306 4.64414 6.95351 4.20184 6.61441L1.06152 4.02697ZM0 2.16931C0.0147433 1.77124 0.154805 1.43952 0.420184 1.17414C0.685564 0.908733 1.01729 0.768673 1.41536 0.753954H9.9075C10.3056 0.768673 10.6373 0.908733 10.9027 1.17414C11.1681 1.43952 11.3081 1.77124 11.3229 2.16931V7.83074C11.3081 8.22881 11.1681 8.56053 10.9027 8.82591C10.6373 9.09129 10.3056 9.23135 9.9075 9.24609H1.41536C1.01729 9.23135 0.685564 9.09129 0.420184 8.82591C0.154805 8.56053 0.0147433 8.22881 0 7.83074V2.16931Z" fill="#1B9AF5"/>
</svg>
