<svg width="9" height="12" viewBox="0 0 9 12" fill="none" xmlns="http://www.w3.org/2000/svg">
<mask id="mask0_3881_11549" style="mask-type:luminance" maskUnits="userSpaceOnUse" x="0" y="0" width="9" height="12">
<path d="M8.49214 0.337891H0V11.6607H8.49214V0.337891Z" fill="white"/>
</mask>
<g mask="url(#mask0_3881_11549)">
<mask id="mask1_3881_11549" style="mask-type:luminance" maskUnits="userSpaceOnUse" x="-1" y="0" width="11" height="13">
<path d="M9.23733 0.746094H-0.670166V12.0689H9.23733V0.746094Z" fill="white"/>
</mask>
<g mask="url(#mask1_3881_11549)">
<path d="M0.391596 1.45396C0.362108 1.12964 0.185188 0.952733 -0.139163 0.92324C-0.463516 0.952733 -0.640435 1.12964 -0.669922 1.45396V2.3386V8.68559V9.76922V11.7153C-0.640435 12.0397 -0.463516 12.2166 -0.139163 12.2461C0.185188 12.2166 0.362108 12.0397 0.391596 11.7153V9.50384L2.16079 9.06154C3.10436 8.84039 4.01108 8.93622 4.88093 9.34904C5.89822 9.85031 6.94499 9.90928 8.02125 9.52596L8.77316 9.23846C9.06804 9.10577 9.22286 8.88462 9.23757 8.57501V2.38284C9.22286 2.11745 9.11226 1.9258 8.9058 1.80788C8.71418 1.67518 8.49302 1.66044 8.24235 1.76364L8.04332 1.8742C7.51258 2.12481 6.96711 2.25012 6.40686 2.25012C5.84662 2.25012 5.30849 2.12481 4.79247 1.8742C3.98159 1.49084 3.14122 1.40238 2.27137 1.60884L0.391596 2.07324V1.45396ZM0.391596 3.179L2.53675 2.62611C3.14122 2.47865 3.73096 2.545 4.30594 2.82516C4.92516 3.13476 5.56649 3.29691 6.22994 3.31163C6.89339 3.34113 7.5421 3.23057 8.17606 2.97995V8.33175L7.64525 8.53078C6.86388 8.8109 6.09725 8.76667 5.34534 8.39809C4.2396 7.86733 3.09699 7.74201 1.91753 8.02214L0.391596 8.42021V3.179Z" fill="#1B9AF5"/>
</g>
</g>
</svg>
