<svg width="9" height="12" viewBox="0 0 9 12" fill="none" xmlns="http://www.w3.org/2000/svg">
<path d="M6.77876 6.02166C7.13259 5.54987 7.31754 5.01174 7.33363 4.40727C7.31754 3.61111 7.01999 2.94028 6.44098 2.39479C5.84589 1.86402 5.1141 1.59127 4.24558 1.57655C3.37706 1.59127 2.64527 1.86402 2.05018 2.39479C1.47117 2.94028 1.17362 3.61111 1.15754 4.40727C1.17362 5.01174 1.35857 5.54987 1.71241 6.02166C1.79283 6.1396 1.89738 6.27229 2.02604 6.41973C2.3638 6.81779 2.67743 7.25272 2.96694 7.72451C3.2082 8.15206 3.36099 8.57962 3.42533 9.00718H2.24317C2.19492 8.7418 2.09843 8.49116 1.95367 8.25527C1.71242 7.8572 1.43898 7.47387 1.1334 7.10529C1.00473 6.94312 0.876064 6.78094 0.747397 6.61877C0.264889 5.9848 0.0155953 5.24763 -0.000488281 4.40727C0.0316789 3.30151 0.44986 2.38743 1.25404 1.66503C2.04213 0.927862 3.03931 0.54453 4.24558 0.515037C5.45185 0.54453 6.44903 0.927862 7.23712 1.66503C8.04128 2.38743 8.45946 3.30151 8.49165 4.40727C8.47558 5.24763 8.22629 5.9848 7.74377 6.61877C7.6151 6.78094 7.48644 6.93574 7.35777 7.08317C7.35777 7.09792 7.35777 7.10529 7.35777 7.10529C7.05218 7.47387 6.77874 7.84983 6.53749 8.23316C6.39274 8.48379 6.29625 8.7418 6.248 9.00718H5.06583C5.13017 8.57962 5.28297 8.15206 5.52423 7.72451C5.81373 7.25272 6.12737 6.81779 6.46512 6.41973C6.59379 6.27229 6.69834 6.1396 6.77876 6.02166ZM4.24558 3.34575C3.92391 3.36047 3.6505 3.46367 3.42533 3.65535C3.21624 3.86176 3.10364 4.1124 3.08756 4.40727C3.07147 4.62842 2.94281 4.74637 2.70156 4.76111C2.46031 4.74637 2.33164 4.62842 2.31556 4.40727C2.33164 3.90599 2.51659 3.4858 2.87043 3.14671C3.24035 2.82234 3.69874 2.65279 4.24558 2.63807C4.48683 2.65279 4.6155 2.77074 4.63158 2.99191C4.6155 3.21308 4.48683 3.33103 4.24558 3.34575ZM4.24558 11.8379C3.69874 11.8231 3.24035 11.6536 2.87043 11.3292C2.51659 10.9902 2.33164 10.57 2.31556 10.0687V9.71486H6.1756V10.0687C6.15952 10.57 5.97457 10.9902 5.62073 11.3292C5.25081 11.6536 4.79242 11.8231 4.24558 11.8379Z" fill="#1B9AF5"/>
</svg>
