<svg width="14" height="14" viewBox="0 0 14 14" fill="none" xmlns="http://www.w3.org/2000/svg">
<g clip-path="url(#clip0_3881_11581)">
<path d="M11.256 5.80493H7.4817V4.72656H6.40333V5.80493H2.33789V7.96166H3.41626V6.8833H6.40333V7.96166H7.4817V6.8833H10.4472V7.96166H11.5256V5.80493H11.256Z" fill="#329DFD"/>
<path d="M6.9422 3.65295C7.68665 3.65295 8.29016 3.04945 8.29016 2.30499C8.29016 1.56053 7.68665 0.957031 6.9422 0.957031C6.19774 0.957031 5.59424 1.56053 5.59424 2.30499C5.59424 3.04945 6.19774 3.65295 6.9422 3.65295Z" fill="#329DFD"/>
<path d="M2.87677 11.733C3.62122 11.733 4.22473 11.1295 4.22473 10.3851C4.22473 9.64061 3.62122 9.03711 2.87677 9.03711C2.13231 9.03711 1.52881 9.64061 1.52881 10.3851C1.52881 11.1295 2.13231 11.733 2.87677 11.733Z" fill="#329DFD"/>
<path d="M6.9422 11.733C7.68665 11.733 8.29016 11.1295 8.29016 10.3851C8.29016 9.64061 7.68665 9.03711 6.9422 9.03711C6.19774 9.03711 5.59424 9.64061 5.59424 10.3851C5.59424 11.1295 6.19774 11.733 6.9422 11.733Z" fill="#329DFD"/>
<path d="M10.9861 11.733C11.7306 11.733 12.3341 11.1295 12.3341 10.3851C12.3341 9.64061 11.7306 9.03711 10.9861 9.03711C10.2417 9.03711 9.63818 9.64061 9.63818 10.3851C9.63818 11.1295 10.2417 11.733 10.9861 11.733Z" fill="#329DFD"/>
</g>
<defs>
<clipPath id="clip0_3881_11581">
<rect width="12.9404" height="12.9404" fill="white" transform="translate(0.466797 0.283203)"/>
</clipPath>
</defs>
</svg>
