<svg width="13" height="14" viewBox="0 0 13 14" fill="none" xmlns="http://www.w3.org/2000/svg">
<g clip-path="url(#clip0_3881_11575)">
<path d="M11.5008 8.34347V9.93217C11.5008 10.0719 11.4734 10.2103 11.4199 10.3394C11.3665 10.4685 11.2881 10.5858 11.1893 10.6846C11.0905 10.7834 10.9732 10.8618 10.8442 10.9152C10.7151 10.9687 10.5767 10.9963 10.437 10.9963H2.33334C2.19362 10.9963 2.05526 10.9687 1.92618 10.9152C1.79709 10.8618 1.67981 10.7834 1.58102 10.6846C1.48223 10.5858 1.40388 10.4685 1.35043 10.3394C1.29699 10.2103 1.2695 10.0719 1.26953 9.93217V3.56603C1.2695 3.42628 1.29699 3.2879 1.35046 3.15878C1.40392 3.02967 1.4823 2.91235 1.58111 2.81354C1.67993 2.71472 1.79725 2.63634 1.92636 2.58288C2.05548 2.52942 2.19386 2.50192 2.33361 2.50195H10.437C10.5767 2.50195 10.7151 2.52948 10.8442 2.58296C10.9732 2.63643 11.0905 2.71482 11.1893 2.81363C11.2881 2.91244 11.3665 3.02975 11.4199 3.15885C11.4734 3.28795 11.5008 3.42631 11.5008 3.56603V5.21" stroke="#329DFD" stroke-width="0.808775" stroke-linecap="round" stroke-linejoin="round"/>
<path d="M11.4585 8.35033H8.66307C8.45693 8.3504 8.2528 8.30985 8.06234 8.231C7.87188 8.15215 7.69882 8.03654 7.55306 7.89078C7.4073 7.74502 7.29169 7.57196 7.21284 7.3815C7.13398 7.19104 7.09344 6.98691 7.09351 6.78077C7.0934 6.57461 7.13392 6.37045 7.21276 6.17996C7.2916 5.98947 7.4072 5.81638 7.55297 5.67059C7.69873 5.5248 7.8718 5.40916 8.06228 5.33029C8.25276 5.25143 8.45691 5.21087 8.66307 5.21094H11.4587C11.638 5.21094 11.7836 5.35652 11.7836 5.53607V8.02547C11.7836 8.20475 11.638 8.35033 11.4585 8.35033Z" stroke="#329DFD" stroke-width="0.269592" stroke-linecap="round" stroke-linejoin="round"/>
<path d="M8.80688 7.52294C9.20963 7.52294 9.53613 7.19645 9.53613 6.7937C9.53613 6.39095 9.20963 6.06445 8.80688 6.06445C8.40413 6.06445 8.07764 6.39095 8.07764 6.7937C8.07764 7.19645 8.40413 7.52294 8.80688 7.52294Z" stroke="#329DFD" stroke-width="0.808775" stroke-linecap="round" stroke-linejoin="round"/>
</g>
<defs>
<clipPath id="clip0_3881_11575">
<rect width="12.9404" height="12.9404" fill="white" transform="translate(0.0563965 0.283203)"/>
</clipPath>
</defs>
</svg>
