<svg width="14" height="14" viewBox="0 0 14 14" fill="none" xmlns="http://www.w3.org/2000/svg">
<g clip-path="url(#clip0_3881_11565)">
<mask id="mask0_3881_11565" style="mask-type:luminance" maskUnits="userSpaceOnUse" x="0" y="0" width="13" height="13">
<path d="M12.3099 0.685547H0.987061V12.0084H12.3099V0.685547Z" fill="white"/>
</mask>
<g mask="url(#mask0_3881_11565)">
<path d="M1.51782 1.57297C1.84217 1.60247 2.01909 1.77937 2.04858 2.10369V9.88819C2.07807 10.2125 2.25499 10.3895 2.57934 10.419H11.7792C12.1035 10.4484 12.2804 10.6254 12.3099 10.9497C12.2804 11.2741 12.1035 11.451 11.7792 11.4805H2.57934C2.12229 11.4657 1.74634 11.3109 1.45147 11.0161C1.15661 10.7212 1.0018 10.3452 0.987061 9.88819V2.10369C1.01655 1.77937 1.19347 1.60247 1.51782 1.57297ZM3.81777 3.87293C3.84726 3.54858 4.02418 3.37166 4.34853 3.34217H8.94844C9.27279 3.37166 9.44971 3.54858 9.4792 3.87293C9.44971 4.19728 9.27279 4.3742 8.94844 4.40369H4.34853C4.02418 4.3742 3.84726 4.19728 3.81777 3.87293ZM4.34853 5.4652H7.53309C7.85744 5.49469 8.03436 5.67161 8.06384 5.99596C8.03436 6.32031 7.85744 6.49723 7.53309 6.52672H4.34853C4.02418 6.49723 3.84726 6.32031 3.81777 5.99596C3.84726 5.67161 4.02418 5.49469 4.34853 5.4652ZM4.34853 7.58824H10.3638C10.6882 7.61773 10.8651 7.79465 10.8946 8.119C10.8651 8.44335 10.6882 8.62027 10.3638 8.64976H4.34853C4.02418 8.62027 3.84726 8.44335 3.81777 8.119C3.84726 7.79465 4.02418 7.61773 4.34853 7.58824Z" fill="#1B9AF5"/>
</g>
</g>
<defs>
<clipPath id="clip0_3881_11565">
<rect width="12.9404" height="12.9404" fill="white" transform="translate(0.645752 0.283203)"/>
</clipPath>
</defs>
</svg>
