<svg width="15" height="15" viewBox="0 0 15 15" fill="none" xmlns="http://www.w3.org/2000/svg">
<path d="M7.46875 11.25C7.6875 11.25 7.8725 11.1744 8.02375 11.0231C8.175 10.8719 8.25042 10.6871 8.25 10.4688C8.24958 10.2504 8.17417 10.0654 8.02375 9.91375C7.87333 9.76209 7.68833 9.68667 7.46875 9.6875C7.24917 9.68834 7.06438 9.76396 6.91438 9.91438C6.76438 10.0648 6.68875 10.2496 6.6875 10.4688C6.68625 10.6879 6.76188 10.8729 6.91438 11.0238C7.06688 11.1746 7.25167 11.25 7.46875 11.25ZM6.90625 8.84375H8.0625C8.0625 8.5 8.10167 8.22917 8.18 8.03125C8.25833 7.83334 8.47958 7.5625 8.84375 7.21875C9.11458 6.94792 9.32813 6.69 9.48438 6.445C9.64063 6.2 9.71875 5.90584 9.71875 5.5625C9.71875 4.97917 9.50521 4.53125 9.07813 4.21875C8.65104 3.90625 8.14583 3.75 7.5625 3.75C6.96875 3.75 6.48708 3.90625 6.1175 4.21875C5.74792 4.53125 5.49 4.90625 5.34375 5.34375L6.375 5.75C6.42708 5.5625 6.54438 5.35938 6.72688 5.14063C6.90938 4.92188 7.18792 4.8125 7.5625 4.8125C7.89583 4.8125 8.14583 4.90375 8.3125 5.08625C8.47917 5.26875 8.5625 5.46917 8.5625 5.6875C8.5625 5.89584 8.5 6.09125 8.375 6.27375C8.25 6.45625 8.09375 6.62542 7.90625 6.78125C7.44792 7.1875 7.16667 7.49479 7.0625 7.70313C6.95833 7.91146 6.90625 8.29167 6.90625 8.84375ZM7.5 13.75C6.63542 13.75 5.82292 13.586 5.0625 13.2581C4.30208 12.9302 3.64063 12.4848 3.07813 11.9219C2.51563 11.359 2.07042 10.6975 1.7425 9.9375C1.41458 9.1775 1.25042 8.365 1.25 7.5C1.24958 6.635 1.41375 5.8225 1.7425 5.0625C2.07125 4.3025 2.51646 3.64104 3.07813 3.07813C3.63979 2.51521 4.30125 2.07 5.0625 1.7425C5.82375 1.415 6.63625 1.25084 7.5 1.25C8.36375 1.24917 9.17625 1.41334 9.9375 1.7425C10.6988 2.07167 11.3602 2.51688 11.9219 3.07813C12.4835 3.63938 12.929 4.30084 13.2581 5.0625C13.5873 5.82417 13.7513 6.63667 13.75 7.5C13.7488 8.36334 13.5846 9.17584 13.2575 9.9375C12.9304 10.6992 12.4852 11.3606 11.9219 11.9219C11.3585 12.4831 10.6971 12.9285 9.9375 13.2581C9.17792 13.5877 8.36542 13.7517 7.5 13.75Z" fill="white"/>
</svg>
