<svg width="14" height="13" viewBox="0 0 14 13" fill="none" xmlns="http://www.w3.org/2000/svg">
<path d="M8.55859 0.203079C8.92318 0.276012 9.20573 0.458318 9.40625 0.749985C9.60677 1.04165 9.67057 1.36978 9.59766 1.73438L9.54297 2.06248C9.39714 2.79167 9.13281 3.47526 8.75 4.11328H12.6875C13.0521 4.13151 13.362 4.25911 13.6172 4.49609C13.8542 4.7513 13.9818 5.06119 14 5.42578C13.9818 5.95443 13.7448 6.34636 13.2891 6.60156C13.599 6.85677 13.763 7.19401 13.7812 7.61328C13.7812 7.94141 13.681 8.22396 13.4805 8.46094C13.28 8.69791 13.0247 8.84375 12.7148 8.89844C12.8424 9.09896 12.9062 9.32682 12.9062 9.58203C12.8698 10.2018 12.569 10.6211 12.0039 10.8398C12.0221 10.931 12.0312 11.0221 12.0312 11.1133C12.013 11.4779 11.8854 11.7878 11.6484 12.043C11.3932 12.2799 11.0833 12.4076 10.7188 12.4258H8.06641C7.51953 12.4258 7.02734 12.2799 6.58984 11.9883L5.55078 11.2773C4.78515 10.7487 4.39323 10.0195 4.375 9.08984V8.05078V6.73828V6.05469C4.39323 5.21614 4.72135 4.53255 5.35938 4.0039L5.55078 3.83984C6.29818 3.23828 6.77214 2.47266 6.97266 1.54298L7.02734 1.24218C7.10026 0.87758 7.28255 0.595052 7.57422 0.394585C7.86589 0.194052 8.19401 0.130213 8.55859 0.203079ZM0.875 4.55078H2.625C2.88021 4.55078 3.08984 4.63281 3.25391 4.79688C3.41797 4.96094 3.5 5.17057 3.5 5.42578V11.5508C3.5 11.806 3.41797 12.0156 3.25391 12.1797C3.08984 12.3438 2.88021 12.4258 2.625 12.4258H0.875C0.619792 12.4258 0.410156 12.3438 0.246094 12.1797C0.0820311 12.0156 0 11.806 0 11.5508V5.42578C0 5.17057 0.0820311 4.96094 0.246094 4.79688C0.410156 4.63281 0.619792 4.55078 0.875 4.55078Z" fill="#6E6E6E"/>
</svg>
