<svg width="18" height="20" viewBox="0 0 18 20" fill="none" xmlns="http://www.w3.org/2000/svg">
<mask id="mask0_4479_12880" style="mask-type:luminance" maskUnits="userSpaceOnUse" x="0" y="0" width="18" height="20">
<path d="M17.6562 0H0.15625V20H17.6562V0Z" fill="white"/>
</mask>
<g mask="url(#mask0_4479_12880)">
<path d="M16.4062 1.71875H1.40625C1.04167 1.71875 0.742188 1.83595 0.507812 2.07035C0.273438 2.33075 0.15625 2.63022 0.15625 2.96875V17.9688C0.15625 18.3073 0.273438 18.6068 0.507812 18.8672C0.742188 19.1016 1.04167 19.2188 1.40625 19.2188H16.4062C16.7708 19.2188 17.0703 19.1016 17.3046 18.8672C17.539 18.6068 17.6562 18.3073 17.6562 17.9688V2.96875C17.6562 2.63022 17.539 2.33075 17.3046 2.07035C17.0703 1.83595 16.7708 1.71875 16.4062 1.71875ZM5.42969 16.7188H2.85156V8.35935H5.46875V16.7188H5.42969ZM4.14062 7.22655C3.72396 7.22655 3.3724 7.08332 3.08594 6.79685C2.79948 6.51039 2.65625 6.15882 2.65625 5.74215C2.65625 5.29948 2.79948 4.93492 3.08594 4.64845C3.3724 4.36199 3.72396 4.21875 4.14062 4.21875C4.58333 4.21875 4.9349 4.36199 5.19531 4.64845C5.48177 4.93492 5.63802 5.29948 5.66406 5.74215C5.63802 6.15882 5.48177 6.51039 5.19531 6.79685C4.9349 7.08332 4.58333 7.22655 4.14062 7.22655ZM15.1562 16.7188H12.5781V12.6562C12.6041 12.1354 12.5391 11.6406 12.3829 11.1719C12.2526 10.7292 11.8619 10.4818 11.2109 10.4297C10.5599 10.4557 10.1302 10.6771 9.92188 11.0938C9.73959 11.5104 9.66146 12.0052 9.6875 12.5781V16.7188H7.07031V8.35935H9.57031V9.49219H9.60938C9.76563 9.15363 10.0521 8.85415 10.4688 8.59375C10.8854 8.30728 11.4193 8.16405 12.0704 8.16405C13.3464 8.19011 14.1927 8.56772 14.6094 9.29687C15.026 10.0521 15.2083 11.0026 15.1562 12.1484V16.7188Z" fill="#9CA3AF"/>
</g>
</svg>
