<svg width="12" height="18" viewBox="0 0 12 18" fill="none" xmlns="http://www.w3.org/2000/svg">
<path d="M6.00008 8.58329C5.44755 8.58329 4.91764 8.3638 4.52694 7.9731C4.13624 7.5824 3.91675 7.05249 3.91675 6.49996C3.91675 5.94742 4.13624 5.41752 4.52694 5.02682C4.91764 4.63612 5.44755 4.41663 6.00008 4.41663C6.55262 4.41663 7.08252 4.63612 7.47322 5.02682C7.86392 5.41752 8.08342 5.94742 8.08342 6.49996C8.08342 6.77355 8.02953 7.04446 7.92483 7.29722C7.82013 7.54998 7.66668 7.77964 7.47322 7.9731C7.27977 8.16655 7.0501 8.32001 6.79734 8.42471C6.54458 8.52941 6.27367 8.58329 6.00008 8.58329ZM6.00008 0.666626C4.45299 0.666626 2.96925 1.28121 1.87529 2.37517C0.78133 3.46913 0.166748 4.95286 0.166748 6.49996C0.166748 10.875 6.00008 17.3333 6.00008 17.3333C6.00008 17.3333 11.8334 10.875 11.8334 6.49996C11.8334 4.95286 11.2188 3.46913 10.1249 2.37517C9.03091 1.28121 7.54718 0.666626 6.00008 0.666626Z" fill="#6E6E6E"/>
</svg>
