<svg width="15" height="18" viewBox="0 0 15 18" fill="none" xmlns="http://www.w3.org/2000/svg">
<path d="M7.5 8.55C6.7896 8.55 6.10829 8.31295 5.60596 7.89099C5.10363 7.46903 4.82143 6.89674 4.82143 6.3C4.82143 5.70326 5.10363 5.13097 5.60596 4.70901C6.10829 4.28705 6.7896 4.05 7.5 4.05C8.2104 4.05 8.89171 4.28705 9.39404 4.70901C9.89637 5.13097 10.1786 5.70326 10.1786 6.3C10.1786 6.59547 10.1093 6.88806 9.97468 7.16104C9.84007 7.43402 9.64276 7.68206 9.39404 7.89099C9.14531 8.09992 8.85002 8.26566 8.52505 8.37873C8.20007 8.4918 7.85175 8.55 7.5 8.55ZM7.5 0C5.51088 0 3.60322 0.663748 2.1967 1.84523C0.790176 3.02671 0 4.62914 0 6.3C0 11.025 7.5 18 7.5 18C7.5 18 15 11.025 15 6.3C15 4.62914 14.2098 3.02671 12.8033 1.84523C11.3968 0.663748 9.48912 0 7.5 0Z" fill="#1F4E79"/>
</svg>
