<svg width="13" height="13" viewBox="0 0 13 13" fill="none" xmlns="http://www.w3.org/2000/svg">
<path d="M3.25033 11.917C2.95241 11.917 2.69746 11.811 2.48549 11.599C2.27352 11.3871 2.16735 11.1319 2.16699 10.8337V5.41699C2.16699 5.11908 2.27316 4.86413 2.48549 4.65216C2.69783 4.44019 2.95277 4.33402 3.25033 4.33366H3.79199V3.25033C3.79199 2.50102 4.05615 1.8624 4.58445 1.33445C5.11276 0.806507 5.75138 0.542354 6.50033 0.541993C7.24927 0.541631 7.88808 0.805784 8.41674 1.33445C8.94541 1.86312 9.20938 2.50174 9.20866 3.25033V4.33366H9.75033C10.0482 4.33366 10.3034 4.43983 10.5157 4.65216C10.728 4.86449 10.834 5.11944 10.8337 5.41699V10.8337C10.8337 11.1316 10.7277 11.3867 10.5157 11.599C10.3037 11.8114 10.0486 11.9174 9.75033 11.917H3.25033ZM6.50033 9.20866C6.79824 9.20866 7.05337 9.10267 7.2657 8.8907C7.47803 8.67873 7.58402 8.4236 7.58366 8.12533C7.5833 7.82705 7.47731 7.5721 7.2657 7.36049C7.05409 7.14888 6.79896 7.04272 6.50033 7.04199C6.20169 7.04127 5.94674 7.14744 5.73549 7.36049C5.52424 7.57355 5.41808 7.82849 5.41699 8.12533C5.41591 8.42216 5.52208 8.67729 5.73549 8.8907C5.94891 9.10412 6.20385 9.2101 6.50033 9.20866ZM4.87533 4.33366H8.12533V3.25033C8.12533 2.79894 7.96734 2.41526 7.65137 2.09928C7.3354 1.78331 6.95171 1.62533 6.50033 1.62533C6.04894 1.62533 5.66526 1.78331 5.34928 2.09928C5.03331 2.41526 4.87533 2.79894 4.87533 3.25033V4.33366Z" fill="white"/>
</svg>
