<svg width="73" height="39" viewBox="0 0 73 39" fill="none" xmlns="http://www.w3.org/2000/svg">
<g filter="url(#filter0_dd_5833_25458)">
<rect x="7.40137" y="4.00009" width="57.5989" height="23.6756" rx="4.24041" fill="white"/>
<rect x="7.31303" y="3.91175" width="57.7756" height="23.8523" rx="4.32875" stroke="#D6DCE5" stroke-width="0.176684"/>
<path d="M20.0853 19.9084L20.2385 18.9359L19.8974 18.928H18.2688L19.4006 11.7522C19.404 11.7305 19.4155 11.7103 19.4322 11.696C19.4489 11.6816 19.4703 11.6737 19.4925 11.6737H22.2387C23.1504 11.6737 23.7795 11.8634 24.108 12.2378C24.262 12.4135 24.3601 12.597 24.4075 12.799C24.4572 13.0109 24.4582 13.2641 24.4095 13.573L24.406 13.5955V13.7934L24.5601 13.8807C24.6898 13.9494 24.7927 14.0282 24.8718 14.1184C25.0036 14.2685 25.0888 14.4594 25.1248 14.6857C25.162 14.9184 25.1496 15.1953 25.0888 15.5089C25.0185 15.8695 24.9049 16.1836 24.7515 16.4406C24.6104 16.6775 24.4306 16.8738 24.2172 17.0261C24.0134 17.1707 23.7713 17.2805 23.4976 17.3508C23.2323 17.4198 22.9299 17.4547 22.5982 17.4547H22.3845C22.2317 17.4547 22.0832 17.5097 21.9667 17.6084C21.8499 17.7091 21.7725 17.8466 21.7489 17.9971L21.7328 18.0847L21.4622 19.7986L21.4499 19.8615C21.4467 19.8815 21.4412 19.8914 21.433 19.8982C21.4257 19.9043 21.4151 19.9084 21.4048 19.9084H20.0853Z" fill="#253B80"/>
<path d="M24.7053 13.6188C24.6972 13.6712 24.6878 13.7247 24.6773 13.7798C24.3151 15.6389 23.0761 16.2812 21.4937 16.2812H20.688C20.4945 16.2812 20.3314 16.4217 20.3012 16.6126L19.7719 19.97C19.7523 20.0953 19.8489 20.2083 19.9753 20.2083H21.4044C21.5736 20.2083 21.7173 20.0853 21.744 19.9185L21.758 19.8458L22.0271 18.1386L22.0444 18.045C22.0707 17.8775 22.2147 17.7546 22.3839 17.7546H22.5977C23.9822 17.7546 25.066 17.1925 25.3828 15.566C25.5151 14.8866 25.4466 14.3193 25.0965 13.9203C24.9905 13.8 24.8591 13.7001 24.7053 13.6188Z" fill="#179BD7"/>
<path d="M24.3257 13.4672C24.2705 13.4511 24.2133 13.4365 24.1547 13.4233C24.0959 13.4105 24.0356 13.399 23.9736 13.3891C23.7563 13.354 23.5183 13.3373 23.2633 13.3373H21.1109C21.0579 13.3373 21.0075 13.3493 20.9625 13.3709C20.8632 13.4187 20.7894 13.5126 20.7716 13.6277L20.3136 16.5275L20.3005 16.6121C20.3306 16.4213 20.4937 16.2807 20.6872 16.2807H21.4929C23.0753 16.2807 24.3144 15.6382 24.6765 13.7793C24.6873 13.7243 24.6964 13.6707 24.7046 13.6183C24.613 13.5697 24.5137 13.5281 24.4068 13.4927C24.3805 13.4839 24.3533 13.4754 24.3257 13.4672Z" fill="#222D65"/>
<path d="M20.7726 13.6279C20.7905 13.5128 20.8643 13.4188 20.9635 13.3714C21.009 13.3498 21.059 13.3378 21.1119 13.3378H23.2644C23.5195 13.3378 23.7575 13.3544 23.9746 13.3896C24.0367 13.3995 24.0971 13.4109 24.1559 13.4238C24.2145 13.437 24.2715 13.4516 24.3269 13.4677C24.3544 13.4759 24.3816 13.4844 24.4082 13.4929C24.5151 13.5283 24.6144 13.5702 24.706 13.6185C24.8138 12.9314 24.7051 12.4636 24.3336 12.0401C23.9241 11.5737 23.1848 11.3741 22.2389 11.3741H19.4927C19.2994 11.3741 19.1347 11.5146 19.1047 11.7058L17.9609 18.9554C17.9384 19.0988 18.049 19.2282 18.1936 19.2282H19.8891L20.7726 13.6279Z" fill="#253B80"/>
<path fill-rule="evenodd" clip-rule="evenodd" d="M31.5146 13.2691H29.5038C29.3662 13.2691 29.2492 13.3691 29.2277 13.5049L28.4144 18.6607C28.3983 18.7625 28.4771 18.8542 28.5803 18.8542H29.5403C29.6779 18.8542 29.7949 18.7542 29.8163 18.6181L30.0357 17.2275C30.0569 17.0913 30.1742 16.9915 30.3115 16.9915H30.948C32.2726 16.9915 33.0371 16.3505 33.2368 15.0805C33.3267 14.5249 33.2406 14.0883 32.9803 13.7824C32.6946 13.4468 32.1876 13.2691 31.5146 13.2691ZM31.7466 15.1522C31.6367 15.8737 31.0854 15.8737 30.5523 15.8737H30.2489L30.4617 14.5262C30.4744 14.4449 30.5449 14.3849 30.6273 14.3849H30.7663C31.1295 14.3849 31.472 14.3849 31.6491 14.5918C31.7545 14.7153 31.7869 14.8987 31.7466 15.1522ZM37.5255 15.1291H36.5625C36.4805 15.1291 36.4096 15.1891 36.3969 15.2706L36.3543 15.5398L36.287 15.4423C36.0785 15.1397 35.6137 15.0386 35.1498 15.0386C34.0856 15.0386 33.1768 15.8444 32.9998 16.9749C32.9078 17.5387 33.0386 18.0778 33.3585 18.4539C33.6519 18.7996 34.0718 18.9437 34.5713 18.9437C35.4287 18.9437 35.9042 18.3924 35.9042 18.3924L35.8612 18.66C35.8451 18.7623 35.9238 18.854 36.0264 18.854H36.8938C37.0318 18.854 37.1482 18.754 37.1699 18.618L37.6904 15.3225C37.7068 15.2212 37.6283 15.1291 37.5255 15.1291ZM36.1832 17.003C36.0902 17.5531 35.6536 17.9223 35.0968 17.9223C34.8172 17.9223 34.5937 17.8327 34.4502 17.6628C34.3079 17.4941 34.2538 17.2538 34.2991 16.9863C34.3859 16.4409 34.8299 16.0597 35.3782 16.0597C35.6516 16.0597 35.8739 16.1504 36.0203 16.3218C36.167 16.495 36.2252 16.7367 36.1832 17.003ZM41.6862 15.1289H42.6539C42.7894 15.1289 42.8685 15.2809 42.7915 15.3921L39.5731 20.0371C39.521 20.1124 39.4351 20.1571 39.3434 20.1571H38.377C38.2409 20.1571 38.1614 20.0039 38.2402 19.8925L39.2423 18.4781L38.1765 15.3506C38.1397 15.2419 38.2199 15.1289 38.3356 15.1289H39.2864C39.41 15.1289 39.519 15.21 39.5546 15.3283L40.1202 17.2172L41.4549 15.2515C41.5072 15.1748 41.594 15.1289 41.6862 15.1289Z" fill="#253B80"/>
<path fill-rule="evenodd" clip-rule="evenodd" d="M52.1781 18.6602L53.0033 13.4102C53.016 13.3287 53.0866 13.2687 53.1686 13.2684H54.0977C54.2003 13.2684 54.2791 13.3604 54.2629 13.4621L53.4491 18.6176C53.4278 18.7537 53.3108 18.8537 53.173 18.8537H52.3433C52.2407 18.8537 52.1619 18.762 52.1781 18.6602ZM45.858 13.2687H43.8468C43.7095 13.2687 43.5925 13.3687 43.571 13.5044L42.7577 18.6602C42.7415 18.762 42.8203 18.8537 42.923 18.8537H43.9549C44.0509 18.8537 44.1329 18.7838 44.1479 18.6885L44.3787 17.2271C44.3999 17.0909 44.5172 16.991 44.6545 16.991H45.2907C46.6156 16.991 47.3799 16.3501 47.5797 15.08C47.6699 14.5244 47.5833 14.0878 47.3231 13.782C47.0375 13.4463 46.5309 13.2687 45.858 13.2687ZM46.09 15.1517C45.9803 15.8732 45.4289 15.8732 44.8956 15.8732H44.5924L44.8056 14.5258C44.8183 14.4444 44.8882 14.3844 44.9708 14.3844H45.1099C45.4728 14.3844 45.8156 14.3844 45.9925 14.5914C46.0981 14.7149 46.1302 14.8983 46.09 15.1517ZM51.8683 15.1286H50.906C50.8233 15.1286 50.7531 15.1886 50.7407 15.2701L50.6981 15.5394L50.6305 15.4418C50.422 15.1392 49.9575 15.0381 49.4935 15.0381C48.4293 15.0381 47.5208 15.844 47.3438 16.9744C47.2521 17.5382 47.3823 18.0774 47.7022 18.4534C47.9962 18.7991 48.4156 18.9432 48.9151 18.9432C49.7724 18.9432 50.2478 18.3919 50.2478 18.3919L50.205 18.6596C50.1888 18.7619 50.2676 18.8536 50.3709 18.8536H51.2379C51.3752 18.8536 51.4922 18.7536 51.5137 18.6175L52.0344 15.3221C52.0503 15.2207 51.9715 15.1286 51.8683 15.1286ZM50.5261 17.0026C50.4337 17.5526 49.9965 17.9219 49.4396 17.9219C49.1605 17.9219 48.9366 17.8322 48.793 17.6623C48.6507 17.4936 48.5972 17.2533 48.642 16.9859C48.7292 16.4404 49.1727 16.0592 49.721 16.0592C49.9945 16.0592 50.2167 16.15 50.3632 16.3214C50.5105 16.4946 50.5687 16.7362 50.5261 17.0026Z" fill="#179BD7"/>
</g>
<defs>
<filter id="filter0_dd_5833_25458" x="0.157257" y="0.289719" width="72.0869" height="38.1637" filterUnits="userSpaceOnUse" color-interpolation-filters="sRGB">
<feFlood flood-opacity="0" result="BackgroundImageFix"/>
<feColorMatrix in="SourceAlpha" type="matrix" values="0 0 0 0 0 0 0 0 0 0 0 0 0 0 0 0 0 0 127 0" result="hardAlpha"/>
<feOffset dy="0.353368"/>
<feGaussianBlur stdDeviation="1.76684"/>
<feColorMatrix type="matrix" values="0 0 0 0 0.717647 0 0 0 0 0.717647 0 0 0 0 0.717647 0 0 0 0.08 0"/>
<feBlend mode="normal" in2="BackgroundImageFix" result="effect1_dropShadow_5833_25458"/>
<feColorMatrix in="SourceAlpha" type="matrix" values="0 0 0 0 0 0 0 0 0 0 0 0 0 0 0 0 0 0 127 0" result="hardAlpha"/>
<feOffset dy="3.53368"/>
<feGaussianBlur stdDeviation="3.53368"/>
<feColorMatrix type="matrix" values="0 0 0 0 0.717647 0 0 0 0 0.717647 0 0 0 0 0.717647 0 0 0 0.08 0"/>
<feBlend mode="normal" in2="effect1_dropShadow_5833_25458" result="effect2_dropShadow_5833_25458"/>
<feBlend mode="normal" in="SourceGraphic" in2="effect2_dropShadow_5833_25458" result="shape"/>
</filter>
</defs>
</svg>
