<svg width="73" height="39" viewBox="0 0 73 39" fill="none" xmlns="http://www.w3.org/2000/svg">
<g filter="url(#filter0_dd_5833_25456)">
<rect x="7.7002" y="4.00009" width="57.5989" height="23.6756" rx="4.24041" fill="white"/>
<rect x="7.61185" y="3.91175" width="57.7756" height="23.8523" rx="4.32875" stroke="#D6DCE5" stroke-width="0.176684"/>
<path d="M33.8399 17.2937V15.5254C33.8399 14.8482 33.4261 14.4061 32.7207 14.4061C32.3633 14.4061 31.987 14.5284 31.7143 14.9046C31.5074 14.5849 31.2158 14.4061 30.7737 14.4061C30.4821 14.4061 30.1812 14.4908 29.946 14.82V14.4626H29.3347V17.2937H29.9554V15.7323C29.9554 15.2338 30.2188 14.9987 30.6326 14.9987C31.0465 14.9987 31.2534 15.2621 31.2534 15.7323V17.2937H31.8742V15.7323C31.8742 15.2338 32.1657 14.9987 32.5514 14.9987C32.9652 14.9987 33.1721 15.2621 33.1721 15.7323V17.2937H33.8399ZM43.0104 14.4626H42.004V13.6067H41.3832V14.4626H40.8189V15.0269H41.3832V16.3249C41.3832 16.9739 41.6466 17.3595 42.352 17.3595C42.6154 17.3595 42.9164 17.2749 43.1139 17.1526L42.9352 16.6259C42.7565 16.7481 42.5495 16.7764 42.4085 16.7764C42.1169 16.7764 41.9946 16.5977 41.9946 16.3061V15.0363H43.001V14.4626H43.0104ZM48.2493 14.4061C47.8919 14.4061 47.6568 14.5849 47.5157 14.82V14.4626H46.8949V17.2937H47.5157V15.7041C47.5157 15.2338 47.7226 14.9705 48.1082 14.9705C48.2305 14.9705 48.3716 14.9987 48.4939 15.0269L48.6726 14.4344C48.5503 14.4061 48.3716 14.4061 48.2493 14.4061ZM40.3204 14.6977C40.0288 14.4908 39.615 14.4061 39.1729 14.4061C38.4675 14.4061 37.9972 14.7636 37.9972 15.3185C37.9972 15.7888 38.3546 16.0521 38.966 16.1462L39.2576 16.1744C39.5774 16.2308 39.7561 16.3249 39.7561 16.466C39.7561 16.6729 39.5209 16.8234 39.1071 16.8234C38.6932 16.8234 38.3734 16.6729 38.1665 16.5318L37.8749 17.0021C38.1947 17.2372 38.6368 17.3595 39.0789 17.3595C39.9066 17.3595 40.3768 16.9739 40.3768 16.4472C40.3768 15.9487 39.9912 15.6853 39.4081 15.5913L39.1165 15.563C38.8531 15.5348 38.6462 15.4784 38.6462 15.2997C38.6462 15.0928 38.8531 14.9799 39.1729 14.9799C39.5303 14.9799 39.8783 15.1304 40.057 15.215L40.3204 14.6977ZM56.7708 14.4061C56.4134 14.4061 56.1783 14.5849 56.0372 14.82V14.4626H55.4164V17.2937H56.0372V15.7041C56.0372 15.2338 56.2441 14.9705 56.6297 14.9705C56.752 14.9705 56.8931 14.9987 57.0154 15.0269L57.1941 14.4344C57.0624 14.4061 56.8837 14.4061 56.7708 14.4061ZM48.8701 15.8734C48.8701 16.7293 49.4627 17.3501 50.375 17.3501C50.7888 17.3501 51.0804 17.2655 51.3814 17.0303L51.0898 16.5318C50.8547 16.7105 50.6195 16.7952 50.3562 16.7952C49.8577 16.7952 49.5003 16.4378 49.5003 15.8828C49.5003 15.3561 49.8577 14.9987 50.3562 14.9705C50.6195 14.9705 50.8547 15.0551 51.0898 15.2338L51.3814 14.7353C51.0898 14.5002 50.7888 14.4155 50.375 14.4155C49.4627 14.4061 48.8701 15.0269 48.8701 15.8734ZM54.5887 14.4626H53.9679V14.82C53.761 14.5566 53.4694 14.4061 53.0838 14.4061C52.2843 14.4061 51.673 15.0269 51.673 15.8828C51.673 16.7387 52.2937 17.3595 53.0838 17.3595C53.4977 17.3595 53.7892 17.209 53.9679 16.9457V17.3031H54.5887V14.4626ZM52.322 15.8734C52.322 15.3749 52.6417 14.9611 53.1779 14.9611C53.6764 14.9611 54.0338 15.3467 54.0338 15.8734C54.0338 16.3719 53.6764 16.7858 53.1779 16.7858C52.6417 16.7575 52.322 16.3813 52.322 15.8734ZM44.9197 14.4061C44.0921 14.4061 43.5089 14.9987 43.5089 15.8828C43.5089 16.767 44.1015 17.3595 44.9574 17.3595C45.3712 17.3595 45.7851 17.2372 46.1049 16.9739L45.8133 16.5318C45.5781 16.7105 45.2866 16.8234 44.9856 16.8234C44.6 16.8234 44.2237 16.6447 44.1297 16.1462H46.2177V15.911C46.2459 14.9893 45.7192 14.4061 44.9197 14.4061ZM44.9197 14.9329C45.3054 14.9329 45.5687 15.168 45.6252 15.6101H44.1485C44.2143 15.2338 44.4777 14.9329 44.9197 14.9329ZM60.2791 13.3433H59.6583V14.82C59.4514 14.5566 59.1598 14.4061 58.7742 14.4061C57.9747 14.4061 57.3634 15.0269 57.3634 15.8828C57.3634 16.7387 57.9841 17.3595 58.7742 17.3595C59.188 17.3595 59.4796 17.209 59.6583 16.9457V17.3031H60.2791V13.3433ZM58.0029 15.8734C58.0029 15.3749 58.3227 14.9611 58.8589 14.9611C59.3573 14.9611 59.7148 15.3467 59.7148 15.8734C59.7148 16.3719 59.3573 16.7858 58.8589 16.7858C58.3321 16.7575 58.0029 16.3813 58.0029 15.8734ZM37.32 14.4626H36.6993V14.82C36.4923 14.5566 36.2008 14.4061 35.8151 14.4061C35.0156 14.4061 34.4043 15.0269 34.4043 15.8828C34.4043 16.7387 35.0251 17.3595 35.8151 17.3595C36.229 17.3595 36.5205 17.209 36.6993 16.9457V17.3031H37.32V14.4626ZM35.0251 15.8734C35.0251 15.3749 35.3448 14.9611 35.881 14.9611C36.3795 14.9611 36.7369 15.3467 36.7369 15.8734C36.7369 16.3719 36.3795 16.7858 35.881 16.7858C35.3448 16.7575 35.0251 16.3813 35.0251 15.8734Z" fill="#000008"/>
<path d="M21.5456 12.5035H17.8353V19.1686H21.5456V12.5035Z" fill="#FF5F00"/>
<path d="M18.0683 15.8379C18.0683 14.4846 18.7037 13.2816 19.6811 12.5034C18.963 11.9396 18.0571 11.5975 17.0646 11.5975C14.7226 11.5975 12.8242 13.4921 12.8242 15.8379C12.8242 18.1799 14.7189 20.0783 17.0646 20.0783C18.0533 20.0783 18.9593 19.7362 19.6811 19.1723C18.7037 18.4054 18.0683 17.1912 18.0683 15.8379Z" fill="#EB001B"/>
<path d="M26.5492 15.8379C26.5492 18.1799 24.6545 20.0783 22.3087 20.0783C21.3201 20.0783 20.4141 19.7362 19.6923 19.1723C20.681 18.3942 21.305 17.195 21.305 15.8379C21.305 14.4846 20.6697 13.2816 19.6923 12.5034C20.4103 11.9396 21.3163 11.5975 22.3087 11.5975C24.6545 11.5975 26.5492 13.5034 26.5492 15.8379Z" fill="#F79E1B"/>
</g>
<defs>
<filter id="filter0_dd_5833_25456" x="0.456085" y="0.289719" width="72.0869" height="38.1637" filterUnits="userSpaceOnUse" color-interpolation-filters="sRGB">
<feFlood flood-opacity="0" result="BackgroundImageFix"/>
<feColorMatrix in="SourceAlpha" type="matrix" values="0 0 0 0 0 0 0 0 0 0 0 0 0 0 0 0 0 0 127 0" result="hardAlpha"/>
<feOffset dy="0.353368"/>
<feGaussianBlur stdDeviation="1.76684"/>
<feColorMatrix type="matrix" values="0 0 0 0 0.717647 0 0 0 0 0.717647 0 0 0 0 0.717647 0 0 0 0.08 0"/>
<feBlend mode="normal" in2="BackgroundImageFix" result="effect1_dropShadow_5833_25456"/>
<feColorMatrix in="SourceAlpha" type="matrix" values="0 0 0 0 0 0 0 0 0 0 0 0 0 0 0 0 0 0 127 0" result="hardAlpha"/>
<feOffset dy="3.53368"/>
<feGaussianBlur stdDeviation="3.53368"/>
<feColorMatrix type="matrix" values="0 0 0 0 0.717647 0 0 0 0 0.717647 0 0 0 0 0.717647 0 0 0 0.08 0"/>
<feBlend mode="normal" in2="effect1_dropShadow_5833_25456" result="effect2_dropShadow_5833_25456"/>
<feBlend mode="normal" in="SourceGraphic" in2="effect2_dropShadow_5833_25456" result="shape"/>
</filter>
</defs>
</svg>
