<svg width="680" height="702" viewBox="0 0 680 702" fill="none" xmlns="http://www.w3.org/2000/svg">
<g opacity="0.7" filter="url(#filter0_f_1069_5027)">
<path fill-rule="evenodd" clip-rule="evenodd" d="M349.45 155.177C389.396 151.02 398.749 221.008 422.952 255.988C438.28 278.142 450.993 300.281 465.583 323.023C484.141 351.948 514.072 373.199 520.38 407.847C527.652 447.793 529.348 497.679 502.529 525.958C475.413 554.549 430.208 547.342 392.806 542.365C364.269 538.568 343.801 513.012 317.131 501.286C293.957 491.097 268.407 491.919 246.821 478.181C217.972 459.821 185.761 442.092 171.938 408.882C156.717 372.312 144.44 320.887 168.845 290.843C195.291 258.286 251.597 295.064 284.425 270.404C319.156 244.315 307.497 159.543 349.45 155.177Z" fill="#27AE60" fill-opacity="0.2"/>
</g>
<defs>
<filter id="filter0_f_1069_5027" x="0.199997" y="0.199997" width="679.6" height="701.6" filterUnits="userSpaceOnUse" color-interpolation-filters="sRGB">
<feFlood flood-opacity="0" result="BackgroundImageFix"/>
<feBlend mode="normal" in="SourceGraphic" in2="BackgroundImageFix" result="shape"/>
<feGaussianBlur stdDeviation="77.4" result="effect1_foregroundBlur_1069_5027"/>
</filter>
</defs>
</svg>
