<svg width="140" height="37" viewBox="0 0 140 37" fill="none" xmlns="http://www.w3.org/2000/svg">
<rect width="140" height="37" rx="6.16667" fill="white"/>
<rect x="0.308333" y="0.308333" width="139.383" height="36.3833" rx="5.85833" stroke="#6E6E6E" stroke-opacity="0.5" stroke-width="0.616667"/>
<path d="M101.28 13.1013L99.4875 24.3364C99.4808 24.3777 99.4832 24.4199 99.4946 24.4601C99.5059 24.5004 99.526 24.5376 99.5533 24.5693C99.5806 24.601 99.6146 24.6263 99.6528 24.6435C99.691 24.6607 99.7324 24.6694 99.7743 24.6689H101.896C101.971 24.6696 102.043 24.6435 102.1 24.5953C102.158 24.5471 102.196 24.4801 102.208 24.4064L104 13.1713C104.007 13.13 104.005 13.0878 103.993 13.0476C103.982 13.0074 103.962 12.9701 103.934 12.9384C103.907 12.9067 103.873 12.8814 103.835 12.8642C103.797 12.847 103.755 12.8383 103.713 12.8388H101.592C101.517 12.8373 101.444 12.8631 101.386 12.9114C101.329 12.9597 101.291 13.0272 101.28 13.1013ZM99.0148 16.38H97.0019C96.9271 16.3793 96.8546 16.4053 96.7974 16.4534C96.7403 16.5015 96.7023 16.5684 96.6905 16.6421L96.6239 17.0557C96.6239 17.0557 95.0605 15.3647 92.2925 16.5075C90.7046 17.1618 89.9423 18.5136 89.6179 19.504C89.6179 19.504 88.5885 22.5139 90.9168 24.1706C90.9168 24.1706 93.0758 25.7641 95.5069 24.0726L95.4649 24.3364C95.4551 24.3984 95.466 24.4619 95.4959 24.5171C95.5258 24.5723 95.5729 24.6163 95.6302 24.6422C95.6682 24.66 95.7097 24.6689 95.7517 24.6689H97.7659C97.841 24.6704 97.9141 24.6446 97.9714 24.5963C98.0288 24.548 98.0666 24.4805 98.0778 24.4064L99.303 16.7125C99.3098 16.6713 99.3074 16.6291 99.2959 16.5889C99.2844 16.5487 99.264 16.5116 99.2364 16.4803C99.2091 16.4483 99.1751 16.4227 99.1368 16.4053C99.0985 16.3879 99.0568 16.3796 99.0148 16.38ZM96.0529 20.6321C95.9743 21.1697 95.7019 21.6602 95.2866 22.0116C94.8695 22.3643 94.3387 22.5547 93.792 22.5478C93.5776 22.5503 93.3641 22.5193 93.1593 22.456C92.2903 22.1796 91.7943 21.3533 91.9369 20.4574C92.016 19.9201 92.2888 19.43 92.704 19.0788C93.1207 18.7259 93.6511 18.5349 94.1977 18.5408C94.4122 18.5386 94.6256 18.5699 94.8304 18.6335C95.7048 18.9081 96.1985 19.7358 96.0551 20.6326H96.0529V20.6321ZM85.3044 20.8447C86.396 20.8447 87.4518 20.4578 88.2811 19.7545C89.1086 19.0535 89.6566 18.0796 89.8253 17.0098C90.1778 14.7843 88.4223 12.8419 85.9335 12.8419H81.9243C81.8495 12.8412 81.7769 12.8673 81.7198 12.9155C81.6626 12.9637 81.6247 13.0307 81.6129 13.1044L79.8199 24.3396C79.8101 24.4015 79.821 24.465 79.8509 24.5202C79.8808 24.5754 79.9279 24.6194 79.9852 24.6453C80.0236 24.6631 80.0647 24.6721 80.1067 24.6721H82.2295C82.3043 24.6728 82.3769 24.6467 82.4341 24.5985C82.4912 24.5503 82.5292 24.4833 82.5409 24.4095L83.0673 21.1104C83.0783 21.0362 83.1161 20.9686 83.1735 20.9202C83.2309 20.8718 83.304 20.8459 83.3791 20.8474L85.3044 20.8447ZM87.0801 16.9086C86.9491 17.7314 86.3066 18.3371 85.0775 18.3371H83.506L83.9832 15.345H85.5265C86.7972 15.3473 87.211 16.0894 87.0801 16.9108V16.9086Z" fill="#0070E0"/>
<path d="M77.4015 16.5719L74.9736 20.6301L73.7413 16.6018C73.722 16.5375 73.6823 16.4812 73.6281 16.4414C73.5739 16.4016 73.5083 16.3805 73.441 16.3811H71.2499C71.1932 16.3804 71.1381 16.4001 71.0948 16.4366C71.0516 16.4731 71.023 16.524 71.0144 16.5799C71.0091 16.617 71.0129 16.6548 71.0256 16.69L73.2337 23.4756L71.2364 26.6731C71.2195 26.6995 71.2081 26.729 71.203 26.7598C71.1978 26.7907 71.1991 26.8223 71.2066 26.8526C71.2141 26.883 71.2278 26.9115 71.2468 26.9365C71.2657 26.9614 71.2896 26.9822 71.3169 26.9976C71.3534 27.0186 71.3949 27.0293 71.4371 27.0288H73.7971C73.8645 27.029 73.9307 27.0119 73.9895 26.9791C74.0483 26.9463 74.0976 26.899 74.1327 26.8416L80.3004 16.7386C80.3228 16.7034 80.335 16.6628 80.3359 16.6212C80.3368 16.5795 80.3262 16.5384 80.3053 16.5024C80.2845 16.4662 80.2543 16.4362 80.2179 16.4156C80.1815 16.395 80.1403 16.3845 80.0984 16.3852H77.7393C77.6716 16.3845 77.6049 16.4014 77.5457 16.4341C77.4865 16.4669 77.4369 16.5143 77.4015 16.5719ZM70.0077 16.3811H67.9931C67.9181 16.3804 67.8454 16.4066 67.7882 16.4548C67.7309 16.5031 67.693 16.5703 67.6812 16.6441L67.616 17.0573C67.616 17.0573 66.0512 15.3662 63.2833 16.5091C61.6957 17.1634 60.933 18.5152 60.61 19.5056C60.61 19.5056 59.5797 22.5155 61.9075 24.1722C61.9075 24.1722 64.067 25.7657 66.498 24.0742L66.456 24.338C66.4462 24.4 66.457 24.4635 66.4869 24.5188C66.5167 24.5741 66.564 24.618 66.6214 24.6438C66.6593 24.6616 66.7009 24.6705 66.7429 24.6705H68.7571C68.8319 24.6711 68.9044 24.6449 68.9615 24.5967C69.0186 24.5486 69.0566 24.4816 69.0685 24.408L70.2941 16.7141C70.3041 16.652 70.2933 16.5884 70.2635 16.5331C70.2336 16.4777 70.1863 16.4337 70.1288 16.4079C70.0907 16.3904 70.0497 16.3813 70.0077 16.3811ZM67.0454 20.6341C66.9661 21.1711 66.6935 21.6608 66.2787 22.0118C65.8618 22.3645 65.3315 22.5554 64.785 22.5494C64.5709 22.5518 64.3577 22.5208 64.1532 22.4576C63.2846 22.1812 62.7891 21.3549 62.9316 20.4585C63.011 19.9201 63.2848 19.429 63.7015 19.0777C64.1198 18.7248 64.6519 18.5347 65.1996 18.5424C65.4141 18.5402 65.6281 18.5714 65.8327 18.6351C66.6982 18.9097 67.191 19.7369 67.0481 20.6341H67.0454ZM56.2974 20.8463C57.3871 20.8457 58.4412 20.4589 59.2714 19.7548C60.0982 19.0538 60.6454 18.0802 60.8137 17.0109C61.1667 14.7859 59.4108 12.8435 56.9229 12.8435H52.9133C52.8385 12.8428 52.7659 12.8688 52.7086 12.9169C52.6514 12.965 52.6134 13.0319 52.6014 13.1056L50.8142 24.3376C50.8042 24.3997 50.815 24.4633 50.8448 24.5186C50.8747 24.574 50.922 24.618 50.9795 24.6438C51.0175 24.6612 51.059 24.6705 51.101 24.6705H53.2225C53.2974 24.6713 53.3701 24.6451 53.4274 24.5968C53.4846 24.5486 53.5226 24.4814 53.5343 24.4076L54.0598 21.1084C54.071 21.0343 54.1088 20.9668 54.1661 20.9185C54.2235 20.8702 54.2966 20.8444 54.3717 20.8459L56.2974 20.8463ZM58.073 16.9098C57.9421 17.7325 57.3 18.3383 56.0709 18.3383H54.4994L54.9757 15.3462H56.519C57.7902 15.3484 58.2035 16.091 58.073 16.912V16.9098Z" fill="#003087"/>
<path d="M42.5815 13.4197C42.6293 10.9389 40.578 9.03569 37.7573 9.03569H31.9229C31.7869 9.03563 31.6554 9.084 31.552 9.17209C31.4486 9.26018 31.3802 9.3822 31.359 9.51617L29.0213 24.0879C29.0108 24.1539 29.0149 24.2214 29.0331 24.2858C29.0513 24.3501 29.0832 24.4098 29.1268 24.4606C29.1703 24.5114 29.2243 24.5522 29.2852 24.5802C29.3461 24.6082 29.4123 24.6227 29.4793 24.6228H32.9358L32.3956 27.9968C32.3851 28.0629 32.3892 28.1304 32.4074 28.1947C32.4256 28.259 32.4575 28.3187 32.5011 28.3695C32.5446 28.4203 32.5986 28.4612 32.6595 28.4892C32.7204 28.5172 32.7866 28.5317 32.8536 28.5317H35.6694C35.8052 28.5317 35.9263 28.4831 36.0299 28.3953C36.1327 28.307 36.1497 28.1854 36.1711 28.0512L36.9977 23.2C37.0187 23.0663 37.0871 22.8925 37.1903 22.8042C37.2935 22.716 37.3838 22.6679 37.5201 22.6679H39.2429C42.0056 22.6679 44.3491 20.7089 44.7776 17.9847C45.0809 16.0512 44.2499 14.292 42.5815 13.4197Z" fill="#001C64"/>
<path d="M33.6846 19.2478L32.8236 24.6936L32.283 28.1095C32.2726 28.1756 32.2766 28.2431 32.2949 28.3074C32.3132 28.3717 32.3452 28.4313 32.3887 28.4821C32.4323 28.5329 32.4864 28.5737 32.5473 28.6016C32.6082 28.6295 32.6744 28.644 32.7414 28.644H35.7216C35.8574 28.6439 35.9888 28.5955 36.092 28.5074C36.1952 28.4193 36.2635 28.2973 36.2846 28.1635L37.0701 23.1987C37.0912 23.0648 37.1596 22.9428 37.2629 22.8547C37.3662 22.7666 37.4976 22.7182 37.6335 22.7182H39.3877C42.1503 22.7182 44.4938 20.708 44.9227 17.9838C45.2266 16.0503 44.2507 14.2906 42.5823 13.4184C42.5779 13.6243 42.56 13.8297 42.5283 14.0334C42.0998 16.7568 39.7554 18.7674 36.9937 18.7674H34.248C34.1121 18.7675 33.9807 18.816 33.8774 18.9042C33.7741 18.9923 33.7058 19.1139 33.6846 19.2478Z" fill="#0070E0"/>
<path d="M32.8221 24.694H29.3549C29.2879 24.694 29.2217 24.6795 29.1608 24.6515C29.1 24.6235 29.046 24.5827 29.0025 24.5318C28.959 24.481 28.9271 24.4214 28.9089 24.357C28.8908 24.2927 28.8868 24.2252 28.8974 24.1592L31.2351 9.37126C31.2562 9.23736 31.3246 9.1154 31.4279 9.02732C31.5312 8.93924 31.6626 8.89082 31.7985 8.89078H37.7571C40.5778 8.89078 42.6291 10.9384 42.5813 13.4188C41.8794 13.0515 41.0546 12.8416 40.1511 12.8416H35.1835C35.0475 12.8415 34.916 12.8899 34.8127 12.978C34.7093 13.0661 34.6408 13.1881 34.6196 13.3221L33.684 19.2483L32.8217 24.694H32.8221Z" fill="#003087"/>
</svg>
