<svg width="17" height="19" viewBox="0 0 17 19" fill="none" xmlns="http://www.w3.org/2000/svg">
<path d="M4.1465 17.4444H12.4017C13.3122 17.4444 14.1854 17.1167 14.8293 16.5332C15.4731 15.9498 15.8348 15.1585 15.8348 14.3333V9.41778C15.8351 8.59276 15.4738 7.80142 14.8304 7.21778L8.97543 1.91111C8.65661 1.62222 8.27812 1.39307 7.86157 1.23675C7.44503 1.08042 6.99858 0.999971 6.54772 1H4.1465C3.23598 1 2.36275 1.32778 1.71892 1.91122C1.07508 2.49467 0.713379 3.28599 0.713379 4.11111V14.3333C0.713379 15.1585 1.07508 15.9498 1.71892 16.5332C2.36275 17.1167 3.23598 17.4444 4.1465 17.4444Z" stroke="#6E6E6E" stroke-width="1.36624" stroke-linecap="round" stroke-linejoin="round"/>
<path d="M7.96802 1.31836V6.34947C7.96802 6.82097 8.17471 7.27315 8.54261 7.60655C8.91052 7.93995 9.4095 8.12725 9.9298 8.12725H15.4836" stroke="#6E6E6E" stroke-width="1.36624" stroke-linecap="round" stroke-linejoin="round"/>
<path d="M3.61475 13.2214V12.3325M3.61475 12.3325V10.5547H4.59564C4.85579 10.5547 5.10528 10.6483 5.28923 10.815C5.47319 10.9817 5.57653 11.2078 5.57653 11.4436C5.57653 11.6793 5.47319 11.9054 5.28923 12.0721C5.10528 12.2388 4.85579 12.3325 4.59564 12.3325H3.61475ZM11.4619 13.2214V12.1102M11.4619 12.1102V10.5547H12.9332M11.4619 12.1102H12.9332M7.53831 13.2214V10.5547H8.02876C8.41898 10.5547 8.79322 10.6952 9.06915 10.9452C9.34508 11.1953 9.5001 11.5344 9.5001 11.888C9.5001 12.2416 9.34508 12.5808 9.06915 12.8308C8.79322 13.0809 8.41898 13.2214 8.02876 13.2214H7.53831Z" stroke="#6E6E6E" stroke-width="0.910828" stroke-linecap="round" stroke-linejoin="round"/>
</svg>
