<svg width="476" height="421" viewBox="0 0 476 421" fill="none" xmlns="http://www.w3.org/2000/svg">
<path d="M413.987 367.464C405.515 373.163 391.658 340.134 390.706 330.913C389.755 321.692 396.779 327.006 396.779 327.006C396.779 327.006 390.129 297.176 394.31 288.086C398.49 278.996 402.205 289.362 402.205 289.362C402.205 289.362 405.363 258.59 418.947 255.817C432.531 253.043 421.386 287.104 421.386 287.104C421.386 287.104 426.933 278.581 432.399 280.859C437.865 283.136 421.811 321.773 421.811 321.773C421.811 321.773 427.996 314.94 433.158 317.076C438.321 319.212 427.085 358.668 413.987 367.464Z" fill="#404B7C"/>
<path d="M412.307 365.267C412.187 365.266 412.072 365.223 411.981 365.146C411.89 365.068 411.83 364.96 411.811 364.842C411.709 364.255 401.982 305.719 417.358 262.022C417.375 261.954 417.406 261.89 417.45 261.835C417.493 261.78 417.547 261.734 417.609 261.701C417.671 261.668 417.739 261.648 417.809 261.643C417.879 261.637 417.949 261.646 418.016 261.67C418.082 261.693 418.142 261.73 418.194 261.778C418.245 261.826 418.286 261.884 418.313 261.948C418.341 262.013 418.355 262.082 418.354 262.152C418.353 262.222 418.338 262.292 418.309 262.356C403.025 305.8 412.701 364.083 412.803 364.67C412.814 364.736 412.813 364.803 412.798 364.869C412.784 364.934 412.756 364.996 412.718 365.05C412.679 365.105 412.63 365.151 412.573 365.187C412.517 365.222 412.454 365.246 412.388 365.257H412.307V365.267Z" fill="#9AB3DA"/>
<path d="M409.169 319.272C409.063 319.27 408.96 319.235 408.875 319.171C399.259 312.157 397.954 294.787 397.893 294.048C397.888 293.982 397.897 293.915 397.918 293.852C397.939 293.788 397.972 293.73 398.016 293.68C398.06 293.63 398.113 293.588 398.173 293.559C398.232 293.529 398.297 293.511 398.364 293.506C398.43 293.502 398.497 293.51 398.56 293.531C398.623 293.553 398.681 293.586 398.732 293.63C398.782 293.673 398.823 293.727 398.853 293.786C398.883 293.846 398.9 293.911 398.905 293.977C398.905 294.149 400.211 311.276 409.199 318.149C410.839 317.137 419.645 310.638 425.526 291.113C425.546 291.046 425.578 290.984 425.621 290.93C425.664 290.876 425.718 290.831 425.778 290.798C425.839 290.764 425.906 290.743 425.974 290.736C426.043 290.728 426.113 290.734 426.179 290.753C426.246 290.773 426.308 290.805 426.362 290.848C426.416 290.891 426.461 290.945 426.494 291.005C426.527 291.066 426.548 291.133 426.556 291.201C426.564 291.27 426.558 291.34 426.538 291.406C419.919 313.361 409.877 318.979 409.452 319.212C409.366 319.259 409.267 319.28 409.169 319.272Z" fill="#9AB3DA"/>
<path d="M410.363 349.224H410.212C404.371 347.422 399.927 336.156 399.745 335.681C399.708 335.558 399.719 335.427 399.774 335.312C399.83 335.197 399.928 335.108 400.047 335.061C400.166 335.015 400.298 335.016 400.417 335.063C400.535 335.11 400.632 335.201 400.687 335.316C400.687 335.428 405.009 346.289 410.282 348.181C411.386 347.372 417.125 342.705 421.538 330.154C421.59 330.039 421.684 329.947 421.8 329.897C421.917 329.847 422.048 329.843 422.167 329.885C422.287 329.927 422.386 330.012 422.446 330.124C422.505 330.235 422.521 330.365 422.49 330.488C417.429 344.74 410.9 348.991 410.627 349.173C410.545 349.213 410.454 349.231 410.363 349.224Z" fill="#9AB3DA"/>
<path d="M411.112 291.69C411.043 291.687 410.975 291.67 410.913 291.641C410.85 291.611 410.794 291.569 410.748 291.518C407.964 288.299 407.337 278.136 407.306 277.711C407.302 277.645 407.311 277.578 407.333 277.515C407.355 277.452 407.389 277.394 407.433 277.344C407.477 277.294 407.531 277.254 407.591 277.225C407.651 277.196 407.716 277.178 407.782 277.174C407.849 277.171 407.915 277.18 407.978 277.201C408.041 277.223 408.099 277.257 408.149 277.301C408.199 277.345 408.239 277.399 408.268 277.459C408.298 277.519 408.315 277.584 408.319 277.65C408.319 277.751 408.896 286.993 411.173 290.414C412.539 288.957 417.034 283.855 418.633 277.843C418.65 277.776 418.681 277.714 418.722 277.659C418.763 277.604 418.815 277.558 418.874 277.523C418.934 277.488 418.999 277.466 419.067 277.456C419.135 277.447 419.204 277.451 419.271 277.468C419.337 277.485 419.4 277.516 419.454 277.557C419.509 277.598 419.555 277.65 419.59 277.709C419.625 277.769 419.648 277.834 419.657 277.902C419.667 277.97 419.662 278.039 419.645 278.106C417.692 285.475 411.77 291.265 411.548 291.558C411.49 291.612 411.421 291.653 411.345 291.675C411.27 291.698 411.19 291.703 411.112 291.69Z" fill="#9AB3DA"/>
<path d="M424.14 368.618C414.422 370.359 415.03 335.751 417.753 327.208C420.475 318.665 424.615 326.105 424.615 326.105C424.615 326.105 430.344 297.125 437.572 290.678C444.799 284.23 444.06 294.878 444.06 294.878C444.06 294.878 458.828 268.895 471.926 271.729C485.024 274.563 461.905 300.354 461.905 300.354C461.905 300.354 470.124 294.969 474.052 299.119C477.979 303.269 448.747 331.196 448.747 331.196C448.747 331.196 456.925 327.583 460.64 331.47C464.355 335.357 439.13 365.926 424.14 368.618Z" fill="#9AB3DA"/>
<path d="M423.704 366.077H423.583C423.518 366.061 423.458 366.032 423.404 365.992C423.351 365.952 423.306 365.902 423.272 365.844C423.239 365.787 423.216 365.723 423.207 365.658C423.198 365.592 423.202 365.524 423.218 365.46C423.36 364.903 437.541 309.333 468.151 276.658C468.194 276.605 468.249 276.56 468.31 276.528C468.372 276.496 468.439 276.477 468.508 276.472C468.578 276.467 468.647 276.477 468.712 276.5C468.778 276.523 468.838 276.56 468.889 276.607C468.939 276.654 468.98 276.711 469.008 276.775C469.035 276.839 469.05 276.907 469.05 276.977C469.05 277.046 469.036 277.115 469.008 277.178C468.981 277.242 468.94 277.299 468.889 277.347C438.452 309.829 424.352 365.146 424.2 365.703C424.171 365.812 424.106 365.907 424.016 365.975C423.927 366.043 423.817 366.079 423.704 366.077Z" fill="#404B7C"/>
<path d="M438.827 324.162C438.738 324.161 438.652 324.137 438.575 324.093C438.499 324.049 438.436 323.985 438.391 323.909C432.612 313.958 438.219 298.077 438.452 297.399C438.473 297.334 438.507 297.275 438.552 297.224C438.596 297.173 438.651 297.132 438.712 297.102C438.772 297.072 438.839 297.055 438.906 297.052C438.974 297.048 439.041 297.058 439.105 297.081C439.169 297.104 439.227 297.14 439.277 297.186C439.326 297.232 439.366 297.287 439.394 297.349C439.422 297.411 439.437 297.477 439.439 297.545C439.44 297.613 439.428 297.68 439.404 297.743C439.343 297.905 433.826 313.533 439.1 323.109C440.993 322.805 451.247 320.497 464.051 305.557C464.138 305.455 464.263 305.392 464.396 305.381C464.53 305.371 464.663 305.414 464.765 305.501C464.867 305.589 464.93 305.713 464.94 305.847C464.951 305.98 464.908 306.113 464.82 306.215C450.366 323.068 439.333 324.162 438.867 324.162H438.827Z" fill="#404B7C"/>
<path d="M428.219 351.127C428.096 351.128 427.978 351.085 427.885 351.005C423.411 347.129 423.836 335.438 423.887 334.942C423.888 334.875 423.903 334.809 423.93 334.748C423.957 334.687 423.997 334.632 424.046 334.586C424.095 334.541 424.153 334.506 424.216 334.484C424.279 334.461 424.346 334.452 424.413 334.456C424.479 334.458 424.545 334.474 424.605 334.502C424.665 334.53 424.72 334.569 424.765 334.618C424.81 334.667 424.845 334.724 424.868 334.787C424.891 334.849 424.901 334.916 424.899 334.982C424.899 335.093 424.453 346.339 428.361 350.074C429.676 349.781 436.549 347.878 445.315 338.515C445.359 338.461 445.413 338.417 445.475 338.384C445.536 338.352 445.604 338.333 445.673 338.329C445.742 338.324 445.812 338.333 445.877 338.356C445.942 338.38 446.002 338.416 446.053 338.463C446.104 338.51 446.144 338.568 446.172 338.631C446.2 338.695 446.214 338.764 446.214 338.833C446.214 338.902 446.2 338.971 446.173 339.035C446.145 339.098 446.105 339.156 446.054 339.203C436.063 349.862 428.593 351.066 428.28 351.117H428.209L428.219 351.127Z" fill="#404B7C"/>
<path d="M451.277 300.516C451.169 300.517 451.063 300.483 450.976 300.419C450.888 300.355 450.824 300.265 450.791 300.162C449.587 296.224 452.977 287.003 453.119 286.598C453.142 286.536 453.178 286.478 453.223 286.43C453.269 286.381 453.323 286.341 453.384 286.314C453.444 286.286 453.51 286.27 453.576 286.268C453.643 286.266 453.71 286.276 453.772 286.3C453.834 286.323 453.892 286.358 453.941 286.404C453.989 286.449 454.029 286.504 454.057 286.564C454.084 286.625 454.1 286.69 454.102 286.757C454.105 286.824 454.094 286.89 454.071 286.952C454.071 287.044 450.963 295.415 451.631 299.322C453.433 298.563 459.364 295.789 463.089 291.113C463.128 291.054 463.179 291.005 463.238 290.967C463.297 290.929 463.363 290.904 463.432 290.893C463.501 290.882 463.572 290.886 463.64 290.903C463.708 290.921 463.771 290.953 463.826 290.997C463.881 291.04 463.926 291.095 463.959 291.157C463.991 291.219 464.011 291.287 464.016 291.357C464.021 291.427 464.011 291.497 463.988 291.563C463.964 291.629 463.927 291.689 463.879 291.74C459.284 297.5 451.732 300.364 451.449 300.486C451.394 300.506 451.336 300.516 451.277 300.516Z" fill="#404B7C"/>
<path d="M409.392 373.223C408.59 373.67 407.644 373.782 406.76 373.537C392.012 369.731 369.105 337.381 373.094 333.777C377.082 330.174 384.582 334.202 384.957 334.385C384.39 333.757 357.931 304.322 362.152 300.526C366.372 296.73 373.802 302.378 374.187 302.662C373.822 302.186 360.836 285.171 362.04 277.265C362.156 276.648 362.449 276.077 362.885 275.624C363.32 275.17 363.878 274.854 364.491 274.713C365.103 274.572 365.744 274.613 366.333 274.831C366.923 275.049 367.436 275.434 367.81 275.939C395.17 311.448 406.557 359.427 409.392 373.223Z" fill="#9AB3DA"/>
<path d="M394.886 327.988H394.765C392.022 327.279 382.214 323.777 370.857 308.29C370.777 308.181 370.745 308.046 370.765 307.913C370.786 307.78 370.859 307.661 370.968 307.581C371.077 307.502 371.212 307.47 371.345 307.49C371.478 307.511 371.597 307.584 371.676 307.693C382.811 322.876 392.366 326.328 395.018 327.006C395.128 327.045 395.22 327.12 395.281 327.219C395.342 327.318 395.366 327.435 395.351 327.55C395.335 327.665 395.281 327.772 395.196 327.851C395.112 327.931 395.002 327.979 394.886 327.988Z" fill="#404B7C"/>
<path d="M404.027 355.803H403.916C403.612 355.732 396.253 353.971 387.082 342.594C387.041 342.542 387.009 342.482 386.99 342.418C386.972 342.354 386.966 342.288 386.973 342.221C386.98 342.155 387 342.091 387.032 342.032C387.063 341.974 387.106 341.922 387.158 341.88C387.21 341.838 387.27 341.807 387.334 341.788C387.398 341.769 387.465 341.763 387.531 341.77C387.597 341.777 387.661 341.797 387.72 341.829C387.778 341.861 387.83 341.904 387.872 341.956C396.82 353.09 404.067 354.801 404.138 354.811C404.253 354.844 404.353 354.917 404.42 355.016C404.486 355.116 404.515 355.235 404.502 355.354C404.489 355.473 404.434 355.584 404.347 355.666C404.26 355.748 404.146 355.797 404.027 355.803Z" fill="#404B7C"/>
<path d="M383.489 302.905C383.404 302.906 383.32 302.885 383.246 302.844C380.675 301.427 375.907 298.38 372.851 293.906C372.775 293.795 372.748 293.658 372.773 293.526C372.799 293.394 372.876 293.278 372.987 293.203C373.099 293.128 373.235 293.1 373.367 293.126C373.499 293.151 373.616 293.228 373.691 293.34C376.636 297.641 381.252 300.597 383.742 301.964C383.837 302.02 383.911 302.106 383.953 302.208C383.994 302.31 384.001 302.424 383.973 302.53C383.944 302.637 383.881 302.731 383.794 302.799C383.706 302.867 383.599 302.904 383.489 302.905Z" fill="#404B7C"/>
<path d="M430.213 420.322H394.988C392.175 420.324 389.472 419.233 387.448 417.281C385.424 415.328 384.237 412.666 384.137 409.856L382.619 367.251C382.601 366.751 382.684 366.252 382.863 365.784C383.042 365.316 383.314 364.889 383.661 364.528C384.009 364.168 384.425 363.881 384.886 363.684C385.347 363.488 385.843 363.386 386.343 363.385H438.837C439.338 363.386 439.833 363.488 440.294 363.684C440.755 363.881 441.171 364.168 441.519 364.528C441.867 364.889 442.138 365.316 442.317 365.784C442.496 366.252 442.579 366.751 442.562 367.251L441.044 409.856C440.944 412.663 439.76 415.322 437.74 417.274C435.72 419.226 433.022 420.318 430.213 420.322Z" fill="#F68D88"/>
<path d="M438.847 363.385H428.563C427.773 366.826 428.006 371.786 434.737 374.145C437.162 375.031 439.789 375.203 442.309 374.641L442.572 367.251C442.589 366.751 442.506 366.252 442.327 365.784C442.148 365.316 441.877 364.889 441.529 364.528C441.181 364.168 440.765 363.881 440.304 363.684C439.843 363.488 439.348 363.386 438.847 363.385Z" fill="#ECBDBB"/>
<path d="M416.021 377.181C414.645 372.333 417.236 366.786 419.301 363.395H408.005C401.506 374.286 405.434 394.085 423.107 389.844C431.863 387.739 437.825 388.832 441.752 390.725L442.056 382.161C431.863 375.784 417.975 384.135 416.021 377.181Z" fill="#ECBDBB"/>
<path d="M439.434 415.19C430.83 396.292 415.414 414.825 405.272 395.016C398.338 381.463 389.076 381.443 383.206 383.204L383.54 392.516C401.658 385.431 400.869 415.048 416.285 412.761C424.524 411.516 429.201 415.898 431.761 420.231C433.331 420.003 434.832 419.434 436.158 418.563C437.483 417.692 438.602 416.54 439.434 415.19Z" fill="#ECBDBB"/>
<path d="M391.728 402.608C387.052 403.772 391.475 414.249 395.524 411.465C399.573 408.681 395.271 401.728 391.728 402.608Z" fill="#ECBDBB"/>
<path d="M430.749 395.441C427.54 397.355 433.158 404.136 435.547 401.16C437.936 398.185 433.158 394.004 430.749 395.441Z" fill="#ECBDBB"/>
<path d="M51.8473 376.068C58.9328 380.835 70.5429 353.192 71.3628 345.469C72.1827 337.745 66.3017 342.199 66.3017 342.199C66.3017 342.199 71.8689 317.218 68.3261 309.616C64.7834 302.014 61.7164 310.679 61.7164 310.679C61.7164 310.679 59.0745 284.918 47.6972 282.6C36.3199 280.282 45.6728 308.796 45.6728 308.796C45.6728 308.796 41.0267 301.711 36.4515 303.563C31.8763 305.415 45.3185 337.816 45.3185 337.816C45.3185 337.816 40.0854 332.097 35.7936 333.889C31.5018 335.68 40.8951 368.699 51.8473 376.068Z" fill="#404B7C"/>
<path d="M53.2541 374.307H53.1731C53.1072 374.296 53.0441 374.272 52.9875 374.236C52.9309 374.201 52.8819 374.154 52.8433 374.1C52.8047 374.045 52.7773 373.983 52.7627 373.918C52.7481 373.853 52.7465 373.785 52.7581 373.72C52.8391 373.234 60.947 324.455 48.1526 288.096C48.1211 287.974 48.1368 287.844 48.1965 287.732C48.2563 287.62 48.3557 287.535 48.4752 287.493C48.5947 287.451 48.7255 287.456 48.842 287.505C48.9584 287.555 49.0519 287.647 49.1041 287.762C61.9895 324.374 53.8412 373.396 53.7501 373.892C53.7289 374.008 53.6676 374.113 53.5771 374.189C53.4865 374.264 53.3722 374.306 53.2541 374.307Z" fill="#9AB3DA"/>
<path d="M55.8859 335.792C55.8011 335.792 55.7176 335.771 55.643 335.731C55.2887 335.539 46.8468 330.822 41.2999 312.45C41.261 312.316 41.277 312.172 41.3444 312.049C41.4117 311.927 41.525 311.836 41.6592 311.797C41.7935 311.758 41.9377 311.774 42.0601 311.842C42.1825 311.909 42.2732 312.022 42.3121 312.157C47.191 328.352 54.4587 333.757 55.9062 334.719C63.3662 328.959 64.4391 314.717 64.4492 314.576C64.4539 314.509 64.4716 314.444 64.5013 314.385C64.531 314.325 64.5722 314.272 64.6225 314.228C64.6728 314.185 64.7312 314.151 64.7944 314.13C64.8576 314.109 64.9243 314.1 64.9908 314.105C65.0572 314.11 65.1221 314.127 65.1818 314.157C65.2414 314.187 65.2946 314.228 65.3383 314.278C65.382 314.329 65.4153 314.387 65.4365 314.45C65.4576 314.513 65.4661 314.58 65.4614 314.647C65.4614 315.264 64.3176 329.83 56.2402 335.741C56.1322 335.801 56.0062 335.819 55.8859 335.792Z" fill="#9AB3DA"/>
<path d="M54.8839 360.875C54.7812 360.881 54.679 360.856 54.5904 360.804C54.3576 360.662 48.841 357.079 44.6201 345.125C44.5912 345.061 44.5759 344.991 44.5752 344.921C44.5745 344.851 44.5884 344.781 44.616 344.717C44.6436 344.652 44.6843 344.594 44.7356 344.547C44.7868 344.499 44.8475 344.462 44.9137 344.439C44.9799 344.415 45.0502 344.406 45.1201 344.412C45.1901 344.417 45.2581 344.437 45.32 344.47C45.3819 344.503 45.4362 344.549 45.4795 344.604C45.5228 344.659 45.5541 344.723 45.5716 344.79C49.2256 355.156 53.9426 359.083 54.9345 359.822C59.2972 358.202 62.8399 349.204 62.8804 349.113C62.9352 348.997 63.0316 348.907 63.1503 348.86C63.269 348.812 63.4011 348.812 63.5203 348.858C63.6394 348.904 63.7366 348.993 63.7926 349.108C63.8485 349.223 63.8589 349.355 63.8218 349.477C63.6699 349.882 59.9349 359.346 55.0054 360.864L54.8839 360.875Z" fill="#9AB3DA"/>
<path d="M54.2563 312.703C54.1242 312.704 53.9971 312.653 53.902 312.561C53.6894 312.359 48.7093 307.5 47.0696 301.265C47.0347 301.131 47.0545 300.988 47.1247 300.869C47.195 300.749 47.3099 300.662 47.4441 300.627C47.5783 300.593 47.7209 300.612 47.8405 300.683C47.9601 300.753 48.0469 300.868 48.0818 301.002C49.3875 305.921 53.0113 310.112 54.236 311.418C56.0884 308.513 56.554 300.941 56.554 300.86C56.5565 300.793 56.5726 300.727 56.6012 300.667C56.6298 300.606 56.6704 300.552 56.7206 300.508C56.7707 300.463 56.8293 300.429 56.8929 300.408C56.9565 300.387 57.0237 300.379 57.0905 300.384C57.157 300.388 57.2221 300.405 57.282 300.434C57.3419 300.463 57.3955 300.504 57.4397 300.554C57.4839 300.604 57.5179 300.662 57.5396 300.725C57.5613 300.788 57.5703 300.854 57.5662 300.921C57.5662 301.285 57.0196 309.808 54.6713 312.531C54.6252 312.583 54.5692 312.625 54.5066 312.654C54.444 312.684 54.3761 312.7 54.3069 312.703H54.2563Z" fill="#9AB3DA"/>
<path d="M43.3547 377.029C51.4524 378.487 50.9868 349.517 48.7093 342.361C46.4319 335.205 42.9701 341.43 42.9701 341.43C42.9701 341.43 38.1722 317.137 32.1192 311.792C26.0661 306.448 26.6937 315.305 26.6937 315.305C26.6937 315.305 14.3244 293.552 3.36215 295.921C-7.60012 298.289 11.7534 319.89 11.7534 319.89C11.7534 319.89 4.87035 315.386 1.56042 318.878C-1.74952 322.37 22.7359 345.732 22.7359 345.732C22.7359 345.732 15.8832 342.695 12.7757 345.964C9.66825 349.234 30.7932 374.772 43.3547 377.029Z" fill="#9AB3DA"/>
<path d="M43.7192 374.985C43.6071 374.983 43.4985 374.945 43.4105 374.875C43.3226 374.806 43.2603 374.709 43.2334 374.6C43.1119 374.134 31.2994 327.836 5.84218 300.708C5.79152 300.661 5.75115 300.604 5.72357 300.54C5.69599 300.476 5.68181 300.408 5.68189 300.338C5.68196 300.269 5.69631 300.2 5.72403 300.137C5.75175 300.073 5.79226 300.016 5.84303 299.969C5.8938 299.921 5.95375 299.885 6.01916 299.862C6.08457 299.839 6.15405 299.829 6.22326 299.834C6.29248 299.839 6.35997 299.858 6.42152 299.89C6.48308 299.922 6.5374 299.966 6.5811 300.02C32.2306 327.35 44.1039 373.912 44.2152 374.408C44.2319 374.472 44.2358 374.539 44.2265 374.605C44.2172 374.671 44.195 374.735 44.1612 374.792C44.1273 374.849 44.0825 374.9 44.0292 374.94C43.976 374.98 43.9153 375.009 43.8508 375.025H43.7192V374.985Z" fill="#404B7C"/>
<path d="M31.0564 339.891C30.6617 339.891 21.3594 338.97 9.27359 324.84C9.18634 324.738 9.14319 324.605 9.15363 324.471C9.16407 324.338 9.22725 324.213 9.32926 324.126C9.43128 324.039 9.56377 323.996 9.6976 324.006C9.83143 324.017 9.95563 324.08 10.0429 324.182C20.6003 336.541 29.113 338.555 30.8236 338.839C35.1761 330.852 30.5807 317.855 30.5301 317.724C30.5053 317.661 30.4933 317.594 30.495 317.526C30.4967 317.458 30.5119 317.392 30.5397 317.33C30.5676 317.268 30.6075 317.213 30.6571 317.167C30.7068 317.121 30.7652 317.085 30.8288 317.062C30.8924 317.039 30.96 317.029 31.0276 317.033C31.0952 317.036 31.1614 317.054 31.2222 317.083C31.2831 317.113 31.3374 317.154 31.3819 317.205C31.4265 317.256 31.4604 317.315 31.4816 317.38C31.684 317.947 36.3908 331.277 31.4816 339.648C31.437 339.722 31.3747 339.782 31.3003 339.825C31.226 339.867 31.1421 339.89 31.0564 339.891Z" fill="#404B7C"/>
<path d="M39.9334 362.474H39.8524C39.5892 362.474 33.3135 361.461 24.9223 352.473C24.8716 352.426 24.8312 352.368 24.8036 352.305C24.7761 352.241 24.7619 352.172 24.762 352.103C24.762 352.033 24.7764 351.965 24.8041 351.901C24.8318 351.838 24.8723 351.78 24.9231 351.733C24.9739 351.686 25.0338 351.649 25.0992 351.626C25.1647 351.603 25.2341 351.594 25.3033 351.599C25.3726 351.603 25.44 351.622 25.5016 351.654C25.5632 351.686 25.6175 351.731 25.6612 351.785C32.8985 359.508 38.5871 361.158 39.7714 361.431C42.9903 358.303 42.6158 348.981 42.6158 348.89C42.613 348.823 42.6235 348.757 42.6464 348.694C42.6694 348.632 42.7044 348.575 42.7496 348.526C42.7947 348.477 42.849 348.437 42.9094 348.41C42.9698 348.382 43.0351 348.366 43.1016 348.363C43.1687 348.358 43.2363 348.366 43.3 348.388C43.3637 348.41 43.4222 348.445 43.4717 348.491C43.5212 348.536 43.5606 348.592 43.5875 348.653C43.6144 348.715 43.6282 348.782 43.628 348.849C43.628 349.264 44.0329 359.093 40.2573 362.372C40.1642 362.442 40.0498 362.478 39.9334 362.474Z" fill="#404B7C"/>
<path d="M20.6203 320.113C20.56 320.123 20.4984 320.123 20.4381 320.113C20.1749 320.011 13.8587 317.612 9.99207 312.764C9.94396 312.713 9.90697 312.653 9.88342 312.587C9.85988 312.521 9.8503 312.45 9.85529 312.38C9.86028 312.311 9.87974 312.242 9.91243 312.18C9.94512 312.118 9.99033 312.064 10.0452 312.02C10.1001 311.977 10.1634 311.945 10.2311 311.927C10.2989 311.909 10.3697 311.906 10.4389 311.917C10.5081 311.927 10.5743 311.953 10.6333 311.99C10.6923 312.028 10.7428 312.078 10.7816 312.136C13.8182 315.963 18.6465 318.21 20.2458 318.938C20.7418 315.649 18.2214 308.816 18.2214 308.725C18.1981 308.663 18.1874 308.596 18.1898 308.53C18.1922 308.463 18.2077 308.398 18.2355 308.337C18.2632 308.276 18.3026 308.222 18.3514 308.176C18.4002 308.131 18.4575 308.096 18.52 308.072C18.5824 308.049 18.6489 308.038 18.7155 308.041C18.7821 308.043 18.8476 308.059 18.9083 308.086C18.9689 308.114 19.0234 308.154 19.0688 308.202C19.1142 308.251 19.1496 308.308 19.1728 308.371C19.2943 308.695 22.1488 316.469 21.1264 319.779C21.0894 319.881 21.0202 319.97 20.9289 320.03C20.8377 320.09 20.7294 320.119 20.6203 320.113Z" fill="#404B7C"/>
<path d="M62.6879 420.322H33.1718C30.8141 420.324 28.5476 419.411 26.8488 417.776C25.1499 416.142 24.1509 413.912 24.0618 411.556L22.8269 375.886C22.812 375.467 22.8815 375.049 23.0314 374.657C23.1812 374.265 23.4083 373.908 23.6992 373.605C23.9901 373.303 24.3387 373.063 24.7245 372.898C25.1102 372.733 25.5251 372.648 25.9446 372.647H69.8949C70.3143 372.648 70.7292 372.733 71.115 372.898C71.5007 373.063 71.8494 373.303 72.1402 373.605C72.4311 373.908 72.6582 374.265 72.8081 374.657C72.9579 375.049 73.0274 375.467 73.0125 375.886L71.7978 411.556C71.7088 413.912 70.7098 416.142 69.0109 417.776C67.312 419.411 65.0456 420.324 62.6879 420.322Z" fill="#F68D88"/>
<path d="M69.8949 372.647H61.281C60.6129 375.531 60.8153 379.732 66.4534 381.655C68.4824 382.397 70.6815 382.541 72.7898 382.07L73.0125 375.886C73.0274 375.467 72.9579 375.049 72.8081 374.657C72.6582 374.265 72.4311 373.908 72.1403 373.605C71.8494 373.303 71.5007 373.063 71.115 372.898C70.7292 372.733 70.3143 372.648 69.8949 372.647Z" fill="#ECBDBB"/>
<path d="M50.7845 384.196C49.6306 380.147 51.7967 375.491 53.5276 372.647H44.0634C38.6177 381.757 41.9175 398.347 56.7059 394.784C64.0344 393.022 69.0347 393.954 72.3143 395.523L72.5673 388.356C64.0445 383.052 52.4344 390.026 50.7845 384.196Z" fill="#ECBDBB"/>
<path d="M70.3809 416.02C63.1739 400.189 50.2682 415.716 41.7757 399.126C35.9656 387.779 28.1817 387.759 23.2927 389.237L23.566 397.031C38.7492 391.099 38.0812 415.898 50.9869 413.955C57.8801 412.943 61.7973 416.587 63.9432 420.21C65.2567 420.023 66.5134 419.551 67.6253 418.827C68.7373 418.103 69.6778 417.145 70.3809 416.02Z" fill="#ECBDBB"/>
<path d="M30.439 405.493C26.5217 406.505 30.2264 415.24 33.6173 412.912C37.0082 410.584 33.4047 404.754 30.439 405.493Z" fill="#ECBDBB"/>
<path d="M63.1133 399.49C60.4309 401.09 65.1377 406.768 67.1621 404.278C69.1866 401.788 65.1478 398.286 63.1133 399.49Z" fill="#ECBDBB"/>
<path d="M218.569 317.754H72.8102C72.8102 317.754 48.7195 248.124 50.2378 208.263C51.1589 184.061 59.7931 167.198 75.6343 158.665C85.8677 153.097 99.1278 151.073 115.262 152.763C156.996 157.146 174.406 202.139 177.119 224.914H214.52C215.286 224.914 216.051 224.975 216.808 225.096H216.909C217.674 225.219 218.426 225.412 219.156 225.673C219.609 225.833 220.051 226.019 220.482 226.23C224.733 228.356 228.701 233.619 229.147 246.302C229.784 265.554 226.383 289.412 218.569 317.754Z" fill="#404B7C"/>
<path d="M199.205 318.26H199.084C198.954 318.229 198.842 318.148 198.771 318.034C198.701 317.92 198.679 317.783 198.709 317.653C201.938 304.413 205.167 274.725 205.896 260.888C206.028 258.317 206.058 255.543 206.088 252.598C206.2 241.15 206.321 228.173 213.478 225.268C213.54 225.235 213.608 225.215 213.679 225.21C213.749 225.205 213.82 225.215 213.886 225.239C213.953 225.263 214.013 225.3 214.064 225.349C214.115 225.398 214.156 225.457 214.183 225.522C214.209 225.587 214.222 225.657 214.221 225.728C214.219 225.798 214.202 225.868 214.172 225.932C214.142 225.995 214.099 226.052 214.046 226.098C213.992 226.144 213.93 226.179 213.862 226.199C207.333 228.892 207.202 241.514 207.101 252.649C207.101 255.604 207.04 258.388 206.908 260.979C206.19 274.846 202.94 304.636 199.701 317.926C199.665 318.027 199.597 318.114 199.508 318.174C199.419 318.234 199.313 318.264 199.205 318.26Z" fill="#9AB3DA"/>
<path d="M139.181 324.161L156.935 416.799C157.032 417.31 157.015 417.836 156.885 418.339C156.756 418.842 156.516 419.311 156.185 419.711C155.853 420.111 155.437 420.433 154.967 420.654C154.496 420.876 153.983 420.99 153.463 420.99C152.699 420.99 151.956 420.742 151.345 420.284C150.733 419.826 150.287 419.182 150.072 418.449L122.479 324.161H139.181Z" fill="#9AB3DA"/>
<path d="M84.2684 324.161L66.5142 416.799C66.4174 417.31 66.4345 417.836 66.5642 418.339C66.6939 418.842 66.9331 419.311 67.2647 419.711C67.5963 420.111 68.0122 420.433 68.4826 420.654C68.953 420.876 69.4663 420.99 69.9861 420.99C70.75 420.99 71.4934 420.742 72.1047 420.284C72.7161 419.826 73.1625 419.182 73.377 418.449L100.97 324.161H84.2684Z" fill="#9AB3DA"/>
<path d="M208.771 324.161L226.525 416.799C226.622 417.31 226.605 417.836 226.475 418.339C226.345 418.842 226.106 419.311 225.774 419.711C225.443 420.111 225.027 420.433 224.556 420.654C224.086 420.876 223.573 420.99 223.053 420.99C222.289 420.99 221.546 420.742 220.934 420.284C220.323 419.826 219.877 419.182 219.662 418.449L192.069 324.161H208.771Z" fill="#404B7C"/>
<path d="M153.858 324.161L136.104 416.799C136.007 417.31 136.024 417.836 136.154 418.339C136.284 418.842 136.523 419.311 136.855 419.711C137.186 420.111 137.602 420.433 138.072 420.654C138.543 420.876 139.056 420.99 139.576 420.99C140.34 420.99 141.083 420.742 141.695 420.284C142.306 419.826 142.752 419.182 142.967 418.449L170.56 324.161H153.858Z" fill="#404B7C"/>
<path d="M218.559 317.754L212.486 329.222H76.7376L72.8 317.754H218.559Z" fill="#9AB3DA"/>
<path d="M98.3584 329.729H84.8149C84.6807 329.729 84.552 329.675 84.4571 329.58C84.3622 329.485 84.3088 329.357 84.3088 329.223C84.3088 329.088 84.3622 328.96 84.4571 328.865C84.552 328.77 84.6807 328.716 84.8149 328.716H98.3584C98.4926 328.716 98.6213 328.77 98.7162 328.865C98.8111 328.96 98.8645 329.088 98.8645 329.223C98.8645 329.357 98.8111 329.485 98.7162 329.58C98.6213 329.675 98.4926 329.729 98.3584 329.729Z" fill="#404B7C"/>
<path d="M137.956 329.729H125.81C125.675 329.729 125.547 329.675 125.452 329.58C125.357 329.485 125.303 329.357 125.303 329.223C125.303 329.088 125.357 328.96 125.452 328.865C125.547 328.77 125.675 328.716 125.81 328.716H137.956C138.09 328.716 138.219 328.77 138.314 328.865C138.409 328.96 138.462 329.088 138.462 329.223C138.462 329.357 138.409 329.485 138.314 329.58C138.219 329.675 138.09 329.729 137.956 329.729Z" fill="#404B7C"/>
<path d="M218.569 317.754L214.206 329.222H139.161C138.3 326.368 137.197 322.471 136.033 317.754H218.569Z" fill="#404B7C"/>
<path d="M159.132 65.0348C159.132 65.0348 159.051 64.883 158.879 64.6097C157.684 62.7067 152.006 55.1151 138.381 56.512C122.824 58.1619 116.75 77.1409 121.558 84.9856C126.366 92.8302 117.347 96.4135 108.015 100.341C98.6822 104.268 91.1919 117.042 100.049 128.561C108.906 140.08 154.071 142.732 156.986 129.067C159.901 115.403 150.659 104.39 151.763 93.3768L159.132 65.0348Z" fill="#404B7C"/>
<path d="M150.042 95.2798L148.595 102.689L147.127 110.2L139.282 109.188L140.639 94.8344L141.054 90.4617L150.042 95.2798Z" fill="#ECBDBB"/>
<path d="M150.042 95.2798L148.595 102.689C143.908 102.082 141.691 98.2355 140.639 94.8344L141.054 90.4617L150.042 95.2798Z" fill="#404B7C"/>
<path d="M122.074 109.066C122.074 109.066 140.294 101.353 159.152 110.584L155.609 121.466L124.615 120.332L122.074 109.066Z" fill="#F68D88"/>
<path d="M101.324 133.359C101.324 133.359 117.773 116.405 139.535 116.911C161.298 117.417 173.951 134.877 173.951 134.877C173.951 134.877 185.085 152.338 184.832 160.942C184.579 169.546 178.506 193.333 178.506 193.333C180.288 200.385 182.746 207.249 185.844 213.83C190.652 223.699 215.704 241.919 219.753 245.968C223.802 250.017 227.092 289.625 173.698 289.625C120.303 289.625 99.8059 275.575 99.8059 241.16C99.8059 206.745 101.324 133.359 101.324 133.359Z" fill="#F68D88"/>
<path d="M154.617 120.656C154.554 120.668 154.488 120.668 154.425 120.656C149.702 118.669 144.648 117.584 139.525 117.457C135.039 117.376 130.567 117.984 126.265 119.259C126.199 119.278 126.129 119.283 126.061 119.275C125.992 119.267 125.926 119.245 125.866 119.211C125.806 119.177 125.753 119.132 125.71 119.078C125.668 119.023 125.636 118.961 125.617 118.895C125.599 118.828 125.593 118.759 125.602 118.69C125.61 118.622 125.632 118.556 125.665 118.495C125.699 118.435 125.745 118.382 125.799 118.34C125.853 118.297 125.915 118.266 125.982 118.247C130.385 116.941 134.963 116.319 139.556 116.405C144.798 116.541 149.968 117.657 154.799 119.694C154.9 119.743 154.982 119.823 155.033 119.922C155.083 120.022 155.1 120.136 155.079 120.245C155.058 120.355 155.001 120.455 154.918 120.529C154.834 120.604 154.729 120.648 154.617 120.656Z" fill="#ECBDBB"/>
<path d="M216.383 381.179L214.621 388.002L211.322 400.746H202.04L205.157 386.322L206.26 381.179H216.383Z" fill="#ECBDBB"/>
<path d="M216.383 381.179L214.621 388.002L205.157 386.322L206.261 381.179H216.383Z" fill="#404B7C"/>
<path d="M243.196 421H195.288C195.25 419.65 195.284 418.298 195.389 416.951C195.96 410.16 197.753 403.528 200.683 397.375C206.594 398.893 213.508 397.547 213.508 397.547C213.508 397.547 239.998 411.04 241.172 412.902C241.811 414.178 242.254 415.543 242.488 416.951C242.933 419.016 243.196 421 243.196 421Z" fill="#F68D88"/>
<path d="M243.196 421H195.288C195.25 419.65 195.284 418.298 195.389 416.951H242.488C242.933 419.016 243.196 421 243.196 421Z" fill="#404B7C"/>
<path d="M197.859 246.93C180.763 245.695 168.738 264.026 177.24 278.906C179.386 282.661 182.301 285.485 185.338 286.7C195.46 290.748 216.717 289.402 216.717 289.402L201.534 383.538H220.087C220.087 383.538 256.193 285.019 257.873 272.195C259.554 259.37 250.96 251.444 235.433 249.926C226.383 249.045 209.935 247.81 197.859 246.93Z" fill="#404B7C"/>
<path d="M208.194 379.074H208.093C208.027 379.062 207.964 379.037 207.907 379C207.851 378.963 207.803 378.916 207.765 378.86C207.727 378.805 207.701 378.742 207.688 378.676C207.675 378.611 207.675 378.543 207.688 378.477L228.084 273.743L183.334 268.49C183.267 268.482 183.203 268.462 183.144 268.429C183.086 268.396 183.034 268.352 182.993 268.3C182.951 268.247 182.921 268.186 182.903 268.122C182.885 268.057 182.88 267.989 182.889 267.923C182.906 267.791 182.974 267.672 183.078 267.589C183.181 267.506 183.313 267.466 183.445 267.478L228.742 272.792C228.811 272.8 228.877 272.823 228.937 272.858C228.996 272.893 229.048 272.94 229.089 272.996C229.13 273.052 229.159 273.116 229.174 273.183C229.189 273.251 229.19 273.321 229.177 273.389L208.68 378.659C208.659 378.774 208.599 378.877 208.511 378.953C208.422 379.029 208.31 379.071 208.194 379.074Z" fill="#9AB3DA"/>
<path d="M217.729 288.39C217.652 288.391 217.575 288.373 217.506 288.339C217.387 288.279 217.296 288.173 217.255 288.046C217.213 287.919 217.223 287.781 217.283 287.661C217.607 287.003 225.442 271.567 237.143 267.67C237.206 267.649 237.273 267.64 237.339 267.644C237.406 267.649 237.471 267.667 237.53 267.696C237.59 267.726 237.643 267.767 237.687 267.817C237.731 267.867 237.764 267.926 237.786 267.989C237.807 268.052 237.816 268.119 237.811 268.185C237.807 268.251 237.789 268.316 237.759 268.376C237.73 268.436 237.689 268.489 237.639 268.533C237.588 268.577 237.53 268.61 237.467 268.631C226.16 272.397 218.235 287.955 218.235 288.117C218.188 288.208 218.115 288.283 218.024 288.332C217.934 288.381 217.831 288.401 217.729 288.39Z" fill="#9AB3DA"/>
<path d="M164.922 381.179L163.201 387.82L159.861 400.746H150.589L153.605 386.706L154.799 381.179H164.922Z" fill="#ECBDBB"/>
<path d="M164.922 381.179L163.201 387.82L153.605 386.706L154.799 381.179H164.922Z" fill="#404B7C"/>
<path d="M191.745 421H143.837C143.8 419.65 143.834 418.298 143.939 416.951C144.509 410.16 146.302 403.528 149.232 397.375C155.144 398.893 162.057 397.547 162.057 397.547C162.057 397.547 188.547 411.04 189.721 412.902C190.36 414.178 190.804 415.543 191.037 416.951C191.482 419.016 191.745 421 191.745 421Z" fill="#F68D88"/>
<path d="M191.745 421H143.837C143.8 419.65 143.834 418.298 143.939 416.951H191.037C191.482 419.016 191.745 421 191.745 421Z" fill="#404B7C"/>
<path d="M206.423 272.194C204.742 285.019 168.637 383.538 168.637 383.538H150.083L165.266 289.402C159.639 289.725 153.999 289.725 148.372 289.402C143.119 289.048 137.713 288.289 133.887 286.76C123.765 282.711 114.989 260.777 131.519 245.927C131.519 245.927 168.525 248.468 183.992 249.976C199.459 251.485 208.113 259.38 206.423 272.194Z" fill="#9AB3DA"/>
<path d="M177.24 273.298C172.289 277.881 168.229 283.341 165.266 289.402C159.639 289.725 153.998 289.725 148.372 289.402L177.24 273.298Z" fill="#404B7C"/>
<path d="M156.743 379.074H156.642C156.576 379.062 156.513 379.037 156.457 379C156.4 378.963 156.352 378.916 156.314 378.86C156.277 378.805 156.25 378.742 156.237 378.676C156.224 378.611 156.224 378.543 156.237 378.477L176.633 273.743L131.883 268.49C131.816 268.482 131.752 268.462 131.693 268.429C131.635 268.396 131.583 268.352 131.542 268.3C131.5 268.247 131.47 268.186 131.452 268.122C131.434 268.057 131.429 267.989 131.438 267.923C131.455 267.791 131.523 267.672 131.627 267.589C131.73 267.506 131.862 267.466 131.994 267.478L177.291 272.792C177.36 272.8 177.426 272.823 177.486 272.858C177.545 272.893 177.597 272.94 177.638 272.996C177.679 273.052 177.708 273.116 177.723 273.183C177.738 273.251 177.739 273.321 177.726 273.389L157.229 378.659C157.208 378.774 157.148 378.877 157.06 378.953C156.971 379.029 156.859 379.071 156.743 379.074Z" fill="#404B7C"/>
<path d="M166.268 288.39C166.191 288.391 166.115 288.373 166.045 288.339C165.926 288.279 165.836 288.173 165.794 288.046C165.752 287.919 165.763 287.781 165.823 287.661C166.147 287.003 173.981 271.567 185.682 267.67C185.81 267.627 185.949 267.636 186.07 267.696C186.19 267.756 186.282 267.861 186.325 267.989C186.368 268.116 186.359 268.256 186.299 268.376C186.239 268.497 186.134 268.589 186.006 268.631C174.7 272.397 166.774 287.955 166.774 288.117C166.727 288.208 166.654 288.283 166.564 288.332C166.473 288.381 166.37 288.401 166.268 288.39Z" fill="#404B7C"/>
<path d="M168.303 129.482C158.778 124.421 144.85 133.865 151.267 150.405C157.684 166.944 201.189 204.133 208.862 204.386C216.535 204.639 216.049 183.808 216.049 183.808C216.049 183.808 185.004 138.42 168.303 129.482Z" fill="#F68D88"/>
<path d="M181.917 191.44L191.533 133.744H157.37L147.754 191.44H181.917Z" fill="#404B7C"/>
<path d="M153.899 131.396L157.371 133.744H191.533L188.061 131.396H153.899Z" fill="#E9F3FF"/>
<path d="M153.899 131.396L144.283 189.092L147.755 191.44L157.371 133.744L153.899 131.396Z" fill="#9AB3DA"/>
<path d="M208.862 204.386C206.503 204.093 200.764 198.465 196.837 194.264C194.438 191.723 192.677 189.709 192.677 189.709C188.628 177.218 197.91 172.248 197.91 172.248C197.91 172.248 200.157 173.331 203.224 175.022L203.345 175.082C209.196 178.322 217.911 183.696 219.672 187.938C222.365 194.426 221.727 205.985 208.862 204.386Z" fill="#F68D88"/>
<path d="M204.914 202.554C204.796 202.556 204.682 202.516 204.59 202.443C202.229 200.452 199.981 198.33 197.859 196.086C197.812 196.038 197.776 195.982 197.751 195.92C197.726 195.858 197.714 195.791 197.715 195.725C197.716 195.658 197.73 195.592 197.757 195.531C197.783 195.469 197.821 195.414 197.869 195.367C197.917 195.321 197.973 195.284 198.035 195.26C198.097 195.235 198.164 195.223 198.23 195.224C198.297 195.225 198.363 195.239 198.424 195.265C198.486 195.292 198.541 195.33 198.588 195.378C200.682 197.592 202.898 199.688 205.228 201.653C205.309 201.719 205.369 201.808 205.398 201.908C205.426 202.009 205.423 202.116 205.389 202.215C205.355 202.313 205.291 202.399 205.205 202.46C205.12 202.521 205.019 202.554 204.914 202.554Z" fill="#ECBDBB"/>
<path d="M212.384 181.176C212.279 181.177 212.177 181.145 212.091 181.085C209.945 179.567 207.364 177.947 204.418 176.277C204.309 176.207 204.231 176.099 204.199 175.973C204.168 175.848 204.186 175.715 204.249 175.602C204.313 175.489 204.417 175.405 204.541 175.367C204.665 175.329 204.798 175.339 204.914 175.396C207.89 177.087 210.502 178.727 212.668 180.265C212.752 180.328 212.814 180.415 212.846 180.514C212.878 180.614 212.879 180.721 212.848 180.821C212.817 180.921 212.756 181.008 212.673 181.072C212.59 181.136 212.489 181.172 212.384 181.176Z" fill="#ECBDBB"/>
<path d="M196.837 194.264C194.438 191.723 192.677 189.709 192.677 189.709C188.628 177.218 197.91 172.248 197.91 172.248C197.91 172.248 200.157 173.331 203.224 175.022C204.074 179.162 204.692 187.998 196.837 194.264Z" fill="#9AB3DA"/>
<path d="M185.166 178.656L188.628 179.587L195.126 186.085C195.126 186.085 199.853 180.599 197.657 174.87L191.756 170.821L188.213 162.552L185.166 178.656Z" fill="#ECBDBB"/>
<path d="M187.737 160.77C186.032 158.567 183.875 156.755 181.411 155.456C179.771 154.575 178.121 156.701 179.7 159.606C179.7 159.606 177.129 161.63 179.599 164.859C179.599 164.859 177.048 167.015 179.518 169.92C179.518 169.92 176.542 171.034 178.637 174.141C180.732 177.249 184.71 179.962 186.107 179.283C187.504 178.605 186.492 175.235 186.492 175.235C186.492 175.235 189.235 173.595 187.504 169.88C187.504 169.88 189.448 168.028 187.757 165.031C187.737 165.031 190.014 163.898 187.737 160.77Z" fill="#ECBDBB"/>
<path d="M185.166 174.678C185.087 174.678 185.01 174.66 184.939 174.624C184.869 174.589 184.808 174.538 184.761 174.475C183.537 172.989 182.021 171.769 180.307 170.892C180.196 170.829 180.113 170.726 180.074 170.604C180.036 170.482 180.046 170.35 180.101 170.234C180.156 170.119 180.253 170.028 180.372 169.981C180.491 169.934 180.623 169.934 180.742 169.981C182.607 170.923 184.253 172.247 185.571 173.868C185.627 173.943 185.661 174.033 185.67 174.126C185.678 174.22 185.66 174.314 185.618 174.398C185.576 174.482 185.512 174.553 185.432 174.602C185.352 174.652 185.26 174.678 185.166 174.678Z" fill="#404B7C"/>
<path d="M186.057 169.718C185.972 169.718 185.889 169.696 185.814 169.656C185.74 169.615 185.677 169.556 185.632 169.485C184.333 167.728 182.585 166.354 180.571 165.507C180.446 165.457 180.346 165.36 180.293 165.237C180.239 165.113 180.237 164.974 180.287 164.849C180.337 164.724 180.434 164.624 180.557 164.571C180.681 164.518 180.82 164.516 180.945 164.566C183.165 165.483 185.088 166.997 186.502 168.938C186.552 169.016 186.58 169.106 186.582 169.199C186.585 169.291 186.562 169.383 186.516 169.463C186.47 169.544 186.403 169.61 186.322 169.655C186.241 169.7 186.149 169.721 186.057 169.718Z" fill="#404B7C"/>
<path d="M186.057 164.657C185.972 164.657 185.889 164.635 185.814 164.595C185.74 164.554 185.677 164.495 185.631 164.424C184.338 162.633 182.661 161.153 180.722 160.092C180.603 160.03 180.513 159.923 180.472 159.795C180.431 159.667 180.443 159.528 180.505 159.409C180.566 159.289 180.673 159.199 180.801 159.158C180.929 159.118 181.068 159.129 181.188 159.191C183.288 160.328 185.099 161.931 186.482 163.878C186.531 163.954 186.558 164.042 186.562 164.133C186.565 164.224 186.544 164.314 186.5 164.393C186.457 164.473 186.392 164.539 186.314 164.586C186.236 164.632 186.147 164.657 186.057 164.657Z" fill="#404B7C"/>
<path d="M139.11 189.537C139.11 189.537 136.246 191.653 131.802 194.598C123.826 199.821 110.768 207.615 100.14 210.328C83.6104 214.549 72.304 212.352 71.4639 201.724C70.6237 191.096 85.6349 149.403 101.324 133.4C110.768 123.784 125.951 148.249 118.866 159.889C114.422 167.187 108.41 177.765 108.41 177.765L120.799 174.212L127.814 172.188C139.616 176.712 139.11 189.537 139.11 189.537Z" fill="#F68D88"/>
<path d="M100.14 210.794C100.006 210.81 99.8705 210.772 99.7641 210.688C99.6578 210.605 99.5891 210.482 99.573 210.348C99.5569 210.214 99.5947 210.079 99.6783 209.972C99.7618 209.866 99.8841 209.797 100.018 209.781C109.594 207.342 121.184 200.722 129.221 195.61C129.333 195.546 129.466 195.528 129.592 195.558C129.718 195.589 129.827 195.667 129.897 195.776C129.967 195.885 129.993 196.017 129.969 196.144C129.945 196.272 129.872 196.385 129.767 196.461C121.67 201.613 109.968 208.283 100.271 210.763L100.14 210.794Z" fill="#ECBDBB"/>
<path d="M108.41 178.231C108.321 178.23 108.234 178.206 108.158 178.162C108.081 178.117 108.018 178.053 107.974 177.976C107.93 177.899 107.907 177.812 107.907 177.724C107.907 177.635 107.93 177.548 107.974 177.472C108.035 177.37 114.048 166.803 118.441 159.586C121.153 155.132 120.658 147.905 117.186 141.174C114.341 135.667 110.171 131.942 106.557 131.689C106.423 131.68 106.298 131.617 106.21 131.516C106.122 131.414 106.077 131.282 106.087 131.148C106.096 131.013 106.158 130.888 106.26 130.8C106.362 130.712 106.494 130.668 106.628 130.677C110.677 130.96 115.04 134.807 118.086 140.708C121.72 147.793 122.206 155.365 119.311 160.112C115.748 165.963 111.122 174.01 109.483 176.895L118.076 174.425C118.143 174.406 118.212 174.401 118.281 174.409C118.349 174.417 118.416 174.439 118.476 174.473C118.536 174.507 118.589 174.552 118.631 174.606C118.674 174.661 118.706 174.723 118.724 174.789C118.743 174.856 118.748 174.925 118.74 174.994C118.732 175.062 118.71 175.128 118.676 175.189C118.642 175.249 118.597 175.302 118.543 175.344C118.488 175.387 118.426 175.418 118.36 175.437L108.562 178.241L108.41 178.231Z" fill="#ECBDBB"/>
<path d="M139.11 189.537C139.11 189.537 136.246 191.653 131.802 194.598C120.921 189.061 120.516 178.322 120.799 174.212L127.814 172.188C139.616 176.712 139.11 189.537 139.11 189.537Z" fill="#9AB3DA"/>
<path d="M128.654 174.941C128.654 174.941 130.425 183.545 136.327 186.075L147.542 176.287C147.542 176.287 158.757 175.801 160.154 174.789C160.583 174.41 160.923 173.941 161.152 173.417C161.381 172.892 161.493 172.324 161.48 171.752C162.122 171.205 162.595 170.485 162.842 169.678C163.09 168.872 163.102 168.011 162.877 167.197C163.54 166.451 163.984 165.537 164.163 164.556C164.341 163.574 164.247 162.562 163.889 161.63C163.889 161.63 166.987 156.377 167.432 154.545C167.877 152.713 165.661 152.146 164.021 153.917C163.071 155.116 161.886 156.108 160.539 156.832C159.658 157.217 151.176 158.917 151.176 158.917C150.456 158.596 149.884 158.014 149.577 157.288L150.498 151.771C149.409 152.265 148.432 152.973 147.623 153.853C146.814 154.733 146.191 155.767 145.791 156.893C144.718 160.497 142.886 168.159 142.886 168.159L128.654 174.941Z" fill="#ECBDBB"/>
<path d="M159.506 317.754H72.8102C72.8102 317.754 48.7195 248.124 50.2378 208.263C50.3593 204.943 50.6292 201.761 51.0476 198.718C52.5558 187.705 68.8018 188.424 69.2674 199.528C69.642 208.142 70.6137 217.424 72.0004 226.949H131.832L135.021 227.03C145.882 227.03 149.789 233.538 151.064 245.887C153.099 265.453 159.506 317.754 159.506 317.754Z" fill="#404B7C"/>
<path d="M131.843 227.455H72.0106C71.8896 227.453 71.773 227.409 71.682 227.329C71.591 227.249 71.5316 227.139 71.5147 227.019C70.0571 216.988 69.1359 207.787 68.7817 199.548C68.779 199.481 68.7894 199.415 68.8123 199.353C68.8353 199.29 68.8703 199.233 68.9155 199.184C68.9606 199.135 69.0149 199.095 69.0753 199.068C69.1357 199.04 69.2011 199.024 69.2675 199.021C69.3343 199.017 69.4013 199.027 69.4643 199.049C69.5274 199.072 69.5852 199.107 69.6344 199.152C69.6836 199.197 69.7231 199.252 69.7505 199.313C69.7779 199.374 69.7926 199.44 69.7939 199.507C70.1482 207.554 71.0389 216.614 72.456 226.442H131.853C131.919 226.443 131.985 226.457 132.046 226.483C132.107 226.509 132.163 226.547 132.209 226.594C132.256 226.642 132.292 226.698 132.317 226.759C132.342 226.821 132.354 226.887 132.354 226.953C132.353 227.02 132.339 227.086 132.313 227.147C132.287 227.208 132.249 227.263 132.202 227.31C132.154 227.356 132.098 227.393 132.037 227.418C131.975 227.443 131.909 227.455 131.843 227.455Z" fill="#9AB3DA"/>
<path d="M135.76 317.005C135.643 317.005 135.53 316.965 135.44 316.891C135.349 316.817 135.287 316.715 135.264 316.6C132.551 303.958 119.585 240.31 130.436 228.588C130.479 228.534 130.534 228.49 130.595 228.458C130.657 228.426 130.724 228.407 130.793 228.402C130.863 228.397 130.932 228.407 130.997 228.43C131.063 228.453 131.123 228.489 131.174 228.537C131.224 228.584 131.265 228.641 131.293 228.705C131.32 228.769 131.335 228.837 131.335 228.907C131.335 228.976 131.321 229.045 131.293 229.108C131.265 229.172 131.225 229.229 131.174 229.277C120.435 240.866 134.596 308.685 136.236 316.388C136.263 316.518 136.238 316.653 136.166 316.765C136.094 316.877 135.981 316.956 135.851 316.985H135.74L135.76 317.005Z" fill="#9AB3DA"/>
<path d="M147.249 67.95C138.807 72.5454 134.343 98.448 149.405 99.7132C164.466 100.978 164.456 58.587 147.249 67.95Z" fill="#ECBDBB"/>
<path d="M137.592 88.8218C137.592 88.8218 140.507 81.4833 144.171 76.9283C144.171 76.9283 153.16 82.6271 160.873 79.8435C168.586 77.0599 172.898 62.2613 166.318 59.3462C159.739 56.431 156.196 63.0205 156.196 63.0205C156.196 63.0205 127.895 54.7912 137.592 88.8218Z" fill="#404B7C"/>
<path d="M140.801 86.5442C140.801 86.5442 138.402 77.0597 130.81 78.9526C123.218 80.8454 130.182 95.2796 141.064 90.4716L140.801 86.5442Z" fill="#ECBDBB"/>
<path d="M137.865 88.7814C137.762 88.7821 137.662 88.7515 137.577 88.6936C137.492 88.6358 137.427 88.5534 137.39 88.4575C137.39 88.4069 135.223 83.0523 130.719 82.3842C130.653 82.3742 130.589 82.3513 130.531 82.3166C130.474 82.282 130.423 82.2363 130.383 82.1823C130.343 82.1282 130.315 82.0669 130.298 82.0016C130.282 81.9364 130.279 81.8687 130.289 81.8022C130.299 81.7357 130.322 81.6719 130.356 81.6143C130.391 81.5567 130.437 81.5065 130.491 81.4665C130.545 81.4266 130.606 81.3977 130.671 81.3815C130.737 81.3652 130.804 81.362 130.871 81.372C135.932 82.1413 138.24 87.8502 138.331 88.0931C138.36 88.1693 138.371 88.2514 138.362 88.3325C138.352 88.4136 138.324 88.4913 138.278 88.5589C138.232 88.6265 138.171 88.6821 138.099 88.7208C138.027 88.7596 137.947 88.7804 137.865 88.7814Z" fill="#404B7C"/>
<path d="M133.766 87.8601C133.633 87.8601 133.506 87.8082 133.411 87.7155C133.317 87.6227 133.262 87.4966 133.26 87.3641C133.315 86.0486 133.732 84.7738 134.464 83.6796C134.535 83.5656 134.649 83.4844 134.78 83.454C134.911 83.4237 135.048 83.4466 135.162 83.5177C135.277 83.5888 135.358 83.7024 135.388 83.8334C135.418 83.9643 135.396 84.102 135.324 84.2161C134.717 85.1475 134.368 86.2233 134.312 87.3337C134.314 87.4002 134.302 87.4663 134.278 87.5282C134.253 87.5901 134.217 87.6467 134.171 87.6946C134.125 87.7425 134.07 87.7809 134.009 87.8076C133.948 87.8343 133.883 87.8487 133.816 87.85L133.766 87.8601Z" fill="#404B7C"/>
<path d="M144.961 82.5967C144.961 82.5967 146.762 79.3374 149.232 80.7241C149.251 80.5295 149.339 80.348 149.48 80.2125C149.621 80.077 149.806 79.9964 150.002 79.9852C150.659 79.9852 150.639 82.0704 150.639 82.0704C148.73 81.8634 146.799 82.0424 144.961 82.5967Z" fill="#404B7C"/>
<path d="M159.112 84.8234C159.112 84.8234 159.061 81.4224 157.087 82.2727C157.09 82.1227 157.049 81.9752 156.97 81.8477C156.891 81.7202 156.777 81.6182 156.642 81.554C155.913 81.4022 155.63 83.3456 155.63 83.3456C156.918 83.455 158.138 83.9727 159.112 84.8234Z" fill="#404B7C"/>
<path d="M149.752 86.8019C149.825 85.8487 149.261 85.0283 148.491 84.9693C147.722 84.9104 147.039 85.6353 146.966 86.5885C146.893 87.5416 147.458 88.3621 148.227 88.421C148.996 88.4799 149.679 87.755 149.752 86.8019Z" fill="#404B7C"/>
<path d="M149.095 86.1335C149.111 85.9272 148.957 85.7472 148.75 85.7315C148.544 85.7157 148.364 85.87 148.348 86.0763C148.333 86.2825 148.487 86.4625 148.693 86.4783C148.899 86.4941 149.079 86.3397 149.095 86.1335Z" fill="white"/>
<path d="M159 87.3865C159.077 86.4306 158.513 85.6056 157.742 85.5439C156.97 85.4822 156.283 86.2071 156.207 87.163C156.13 88.119 156.694 88.944 157.465 89.0057C158.236 89.0674 158.924 88.3425 159 87.3865Z" fill="#404B7C"/>
<path d="M157.302 86.762C157.318 86.5558 157.163 86.3758 156.957 86.36C156.751 86.3442 156.571 86.4986 156.555 86.7048C156.539 86.911 156.694 87.0911 156.9 87.1068C157.106 87.1226 157.286 86.9683 157.302 86.762Z" fill="white"/>
<path d="M152.947 92.9414C152.579 92.9406 152.214 92.8826 151.864 92.7693C151.741 92.7241 151.64 92.633 151.583 92.5151C151.526 92.3973 151.517 92.2619 151.558 92.1374C151.598 92.0129 151.686 91.909 151.801 91.8476C151.917 91.7861 152.052 91.7718 152.178 91.8077C152.178 91.8077 153.615 92.2632 154.04 91.3725C154.067 91.3282 154.081 91.2775 154.081 91.2257C154.081 91.174 154.067 91.1232 154.04 91.0789C153.649 90.7552 153.161 90.5733 152.653 90.5627C152.521 90.5523 152.398 90.4903 152.311 90.3899C152.224 90.2895 152.179 90.1589 152.188 90.0262L152.421 86.6556C152.433 86.524 152.496 86.4024 152.596 86.3158C152.696 86.2292 152.825 86.1841 152.957 86.19C153.09 86.2003 153.213 86.2624 153.3 86.3628C153.387 86.4632 153.431 86.5938 153.423 86.7264L153.22 89.6315C153.552 89.6702 153.873 89.7752 154.163 89.9404C154.454 90.1056 154.708 90.3276 154.911 90.5931C155.016 90.7818 155.072 90.9944 155.072 91.2105C155.072 91.4267 155.016 91.6393 154.911 91.828C154.725 92.1825 154.441 92.476 154.093 92.6734C153.744 92.8709 153.347 92.9639 152.947 92.9414Z" fill="#404B7C"/>
<path d="M152.775 96.0388C152.775 96.0388 148.939 98.2656 146.803 93.569L152.775 96.0388Z" fill="white"/>
<path d="M195.582 214.083V409.066C195.582 412.28 198.187 414.886 201.402 414.886C204.616 414.886 207.222 412.28 207.222 409.066V214.083C207.222 210.869 204.616 208.263 201.402 208.263C198.187 208.263 195.582 210.869 195.582 214.083Z" fill="#404B7C"/>
<path d="M314.082 208.263H129.606C126.391 208.263 123.785 210.869 123.785 214.083C123.785 217.298 126.391 219.904 129.606 219.904H314.082C317.296 219.904 319.902 217.298 319.902 214.083C319.902 210.869 317.296 208.263 314.082 208.263Z" fill="#9AB3DA"/>
<path d="M158.828 208.263H88.7323C85.5179 208.263 82.9121 210.869 82.9121 214.083C82.9121 217.298 85.5179 219.904 88.7323 219.904H158.828C162.043 219.904 164.648 217.298 164.648 214.083C164.648 210.869 162.043 208.263 158.828 208.263Z" fill="#E9F3FF"/>
<path d="M279.15 401.302H269.21L265.313 387.303L263.572 381.058L275.091 379.671L276.134 385.228L279.15 401.302Z" fill="#ECBDBB"/>
<path d="M276.134 385.228L265.313 387.303L263.572 381.058L275.091 379.671L276.134 385.228Z" fill="#404B7C"/>
<path d="M280.314 397.77C275.461 397.808 270.61 397.595 265.779 397.132C260.282 405.989 241.162 412.568 240.372 413.914C240.031 414.889 239.89 415.921 239.957 416.951C239.957 418.905 240.149 421 240.149 421H282.46C282.445 413.208 281.726 405.433 280.314 397.77Z" fill="#404B7C"/>
<path d="M282.419 416.951H239.977C239.977 418.905 240.17 421 240.17 421H282.48C282.48 419.634 282.46 418.297 282.419 416.951Z" fill="#9AB3DA"/>
<path d="M313.444 256.181C313.444 256.181 235.119 254.491 228.418 256.181C221.717 257.871 222.243 268.328 223.154 275.079C224.065 281.831 260.606 383.72 260.606 383.72H277.379C277.379 383.72 267.368 319.272 262.742 297.348C262.742 297.348 335.045 310.507 349.792 306.458C364.54 302.409 363.801 273.389 363.801 273.389L313.444 256.181Z" fill="#404B7C"/>
<path d="M266.619 380.177C266.514 380.177 266.411 380.143 266.326 380.081C266.241 380.02 266.177 379.933 266.143 379.833L241.243 281.649C241.224 281.574 241.223 281.497 241.239 281.422C241.254 281.348 241.287 281.278 241.334 281.217C241.38 281.157 241.44 281.108 241.509 281.074C241.577 281.04 241.652 281.022 241.728 281.021H318.14L325.702 267.113C325.734 267.055 325.777 267.003 325.829 266.961C325.88 266.919 325.94 266.888 326.004 266.869C326.068 266.851 326.135 266.845 326.201 266.852C326.267 266.859 326.332 266.879 326.39 266.911C326.448 266.943 326.5 266.986 326.542 267.038C326.584 267.089 326.615 267.149 326.634 267.213C326.653 267.277 326.659 267.344 326.652 267.41C326.644 267.476 326.624 267.541 326.592 267.599L318.879 281.77C318.836 281.85 318.771 281.916 318.693 281.963C318.614 282.009 318.525 282.033 318.434 282.033H242.386L267.155 379.54C267.172 379.604 267.176 379.671 267.167 379.737C267.157 379.803 267.135 379.867 267.101 379.924C267.067 379.981 267.023 380.032 266.969 380.072C266.916 380.112 266.855 380.141 266.791 380.157L266.619 380.177Z" fill="#9AB3DA"/>
<path d="M260.556 295.911C260.474 295.909 260.394 295.889 260.323 295.85C260.171 295.769 245.261 287.813 236.688 276.213C236.639 276.161 236.603 276.099 236.58 276.031C236.557 275.964 236.549 275.893 236.556 275.822C236.563 275.751 236.584 275.682 236.619 275.62C236.654 275.559 236.702 275.505 236.759 275.463C236.817 275.42 236.882 275.391 236.952 275.375C237.021 275.36 237.093 275.36 237.163 275.374C237.232 275.389 237.298 275.418 237.356 275.459C237.413 275.501 237.462 275.554 237.497 275.616C245.919 287.023 260.637 294.848 260.778 294.949C260.882 294.999 260.965 295.083 261.014 295.186C261.064 295.29 261.077 295.407 261.051 295.519C261.025 295.63 260.962 295.73 260.872 295.801C260.782 295.873 260.67 295.911 260.556 295.911Z" fill="#9AB3DA"/>
<path d="M318.454 281.993C318.37 281.993 318.286 281.971 318.212 281.931C318.138 281.89 318.075 281.831 318.029 281.76C309.932 269.401 317.452 262.204 317.533 262.133C317.633 262.052 317.759 262.012 317.887 262.021C318.015 262.03 318.135 262.087 318.222 262.181C318.31 262.275 318.358 262.399 318.358 262.527C318.358 262.655 318.309 262.778 318.222 262.872C317.928 263.145 311.247 269.583 318.88 281.203C318.931 281.28 318.961 281.369 318.966 281.461C318.97 281.554 318.95 281.645 318.906 281.727C318.862 281.808 318.797 281.876 318.717 281.923C318.638 281.97 318.547 281.994 318.454 281.993Z" fill="#9AB3DA"/>
<path d="M220.644 379.671V401.302H210.137L208.649 388.781L207.738 381.058L220.644 379.671Z" fill="#ECBDBB"/>
<path d="M207.738 381.058L220.644 379.671V386.301L208.649 388.781L207.738 381.058Z" fill="#404B7C"/>
<path d="M225.148 421H169.983C170.151 419.637 170.398 418.285 170.722 416.951C170.918 415.856 171.357 414.818 172.007 413.914C173.363 412.568 197.404 405.989 206.716 397.132C212.144 397.623 217.593 397.836 223.043 397.77C224.231 404.099 224.908 410.513 225.067 416.951C225.128 418.297 225.148 419.613 225.148 421Z" fill="#404B7C"/>
<path d="M225.148 421H169.983C170.151 419.637 170.398 418.285 170.722 416.951H225.088C225.128 418.297 225.148 419.613 225.148 421Z" fill="#9AB3DA"/>
<path d="M277.277 256.181C277.277 256.181 204.064 254.491 194.954 256.181C185.844 257.871 183.951 268.328 183.486 275.079C183.02 281.831 205.754 383.72 205.754 383.72H222.618C222.618 383.72 225.32 319.272 224.642 297.348C224.642 297.348 292.127 310.507 312.371 306.458C332.615 302.409 338.688 273.389 338.688 273.389L277.277 256.181Z" fill="#9AB3DA"/>
<path d="M205.744 384.226C205.629 384.227 205.517 384.188 205.427 384.116C205.337 384.045 205.274 383.944 205.248 383.832C204.317 379.661 182.514 281.649 182.98 275.039C183.769 263.51 187.767 256.991 194.863 255.685C203.922 254.005 274.301 255.604 277.298 255.685C277.364 255.687 277.43 255.701 277.491 255.728C277.551 255.754 277.606 255.793 277.653 255.841C277.699 255.889 277.735 255.945 277.759 256.007C277.783 256.069 277.795 256.135 277.794 256.202C277.788 256.335 277.732 256.461 277.635 256.554C277.539 256.646 277.411 256.698 277.277 256.698C276.549 256.698 204.013 255.027 195.055 256.698C188.476 257.912 184.751 264.117 184.002 275.13C183.556 281.598 206.028 382.607 206.271 383.629C206.285 383.694 206.287 383.762 206.276 383.828C206.265 383.894 206.241 383.957 206.205 384.013C206.169 384.07 206.122 384.118 206.068 384.157C206.013 384.195 205.951 384.222 205.886 384.237H205.775L205.744 384.226Z" fill="#404B7C"/>
<path d="M214.52 380.177C214.393 380.178 214.27 380.13 214.176 380.044C214.082 379.957 214.024 379.839 214.014 379.712L205.582 281.527C205.577 281.457 205.586 281.387 205.608 281.321C205.631 281.255 205.668 281.194 205.715 281.143C205.763 281.091 205.821 281.05 205.885 281.022C205.949 280.994 206.018 280.98 206.088 280.98H277.399L290.75 266.971C290.845 266.886 290.969 266.84 291.096 266.842C291.224 266.844 291.346 266.894 291.438 266.982C291.531 267.071 291.586 267.191 291.594 267.318C291.601 267.446 291.56 267.571 291.479 267.67L277.986 281.841C277.939 281.891 277.883 281.931 277.82 281.959C277.758 281.987 277.69 282.002 277.621 282.003H206.635L215.026 379.641C215.032 379.707 215.024 379.774 215.004 379.838C214.983 379.901 214.95 379.96 214.907 380.011C214.864 380.062 214.811 380.104 214.751 380.134C214.692 380.164 214.627 380.182 214.561 380.187L214.52 380.177Z" fill="#404B7C"/>
<path d="M222.284 295.911C222.19 295.909 222.099 295.881 222.021 295.83C221.899 295.749 209.317 287.803 200.997 276.213C200.951 276.16 200.917 276.097 200.897 276.03C200.877 275.963 200.87 275.892 200.879 275.823C200.887 275.753 200.91 275.686 200.946 275.626C200.982 275.565 201.03 275.513 201.087 275.472C201.144 275.431 201.209 275.403 201.277 275.388C201.346 275.374 201.417 275.374 201.486 275.388C201.554 275.403 201.619 275.431 201.676 275.472C201.733 275.513 201.781 275.565 201.817 275.626C210.006 287.044 222.425 294.858 222.547 294.979C222.638 295.038 222.708 295.124 222.746 295.226C222.784 295.327 222.789 295.438 222.76 295.542C222.73 295.646 222.668 295.738 222.582 295.805C222.497 295.871 222.392 295.908 222.284 295.911Z" fill="#404B7C"/>
<path d="M277.611 281.993C277.524 281.993 277.438 281.971 277.362 281.929C277.285 281.886 277.222 281.824 277.176 281.75C274.818 277.893 274.058 274.148 274.919 270.615C275.91 267.092 278.152 264.051 281.225 262.062C281.34 261.992 281.479 261.971 281.61 262.004C281.741 262.036 281.854 262.119 281.923 262.234C281.993 262.35 282.014 262.488 281.982 262.619C281.95 262.75 281.867 262.863 281.751 262.933C278.92 264.798 276.846 267.612 275.901 270.869C275.111 274.118 275.83 277.6 278.047 281.213C278.096 281.29 278.124 281.38 278.127 281.471C278.129 281.563 278.107 281.653 278.063 281.733C278.018 281.814 277.952 281.88 277.873 281.926C277.793 281.971 277.703 281.994 277.611 281.993Z" fill="#404B7C"/>
<path d="M304.091 87.4755C304.091 87.4755 302.492 90.1578 301.56 91.7673C300.629 93.3767 305.943 94.0549 305.943 94.0549L304.091 87.4755Z" fill="#ECBDBB"/>
<path d="M305.943 94.5608H305.883C305.194 94.4697 301.722 93.9636 301.065 92.6477C300.976 92.4699 300.935 92.2726 300.944 92.0744C300.953 91.8761 301.012 91.6834 301.115 91.5141C302.046 89.9046 303.646 87.2122 303.646 87.2122L304.516 87.7284C304.516 87.7284 302.917 90.4108 301.986 92.0202C301.969 92.046 301.961 92.0758 301.961 92.1062C301.961 92.1366 301.969 92.1665 301.986 92.1922C302.259 92.749 304.294 93.3259 306.035 93.5486C306.101 93.5546 306.166 93.5736 306.225 93.6046C306.284 93.6355 306.336 93.6778 306.379 93.7291C306.422 93.7803 306.454 93.8394 306.474 93.9031C306.494 93.9668 306.501 94.0338 306.495 94.1003C306.489 94.1667 306.47 94.2314 306.439 94.2905C306.408 94.3496 306.366 94.402 306.315 94.4448C306.263 94.4876 306.204 94.5198 306.141 94.5397C306.077 94.5596 306.01 94.5668 305.943 94.5608Z" fill="#404B7C"/>
<path d="M330.722 84.854C329.953 97.7091 319.173 103.286 312.016 102.213C311.271 102.11 310.541 101.92 309.84 101.647C302.249 98.61 301.186 81.4023 304.273 72.6264C306.297 66.8872 328.566 62.5043 330.591 80.218C330.773 81.7563 330.817 83.3078 330.722 84.854Z" fill="#ECBDBB"/>
<path d="M330.722 84.854C329.953 97.7091 319.173 103.286 312.017 102.213C318.09 97.3346 319.477 85.4512 319.477 85.4512C319.477 85.4512 325.297 84.9856 330.722 84.854Z" fill="#404B7C"/>
<path d="M326.603 95.0265L327.422 110.777L316.926 111.343L317.402 94.0548L326.603 95.0265Z" fill="#ECBDBB"/>
<path d="M297.016 52.5541C297.016 52.5541 286.559 60.1457 292.633 72.4643C298.706 84.783 313.717 79.3777 313.717 79.3777L315.408 88.7407C315.408 88.7407 317.26 98.6098 325.449 98.6098C333.638 98.6098 341.563 82.7484 341.472 80.643C341.381 78.5376 337.423 73.2235 337.423 73.2235C337.423 73.2235 337.676 61.7551 333.546 59.8116C329.417 57.8682 317.432 62.2612 317.432 62.2612C317.432 62.2612 308.322 54.0724 297.016 52.5541Z" fill="#404B7C"/>
<path d="M314.334 90.745C314.334 90.745 317.199 83.0724 322.938 84.4186C328.678 85.7649 324.629 95.887 315.6 94.9659L314.334 90.745Z" fill="#ECBDBB"/>
<path d="M316.44 93.063C316.38 93.0742 316.318 93.0742 316.258 93.063C316.196 93.0385 316.139 93.002 316.092 92.9556C316.044 92.9092 316.006 92.8539 315.98 92.7928C315.953 92.7317 315.939 92.666 315.938 92.5995C315.937 92.5329 315.95 92.4669 315.974 92.4051C316.055 92.1925 317.999 87.2529 322.442 86.5848C322.575 86.5672 322.709 86.6017 322.817 86.681C322.924 86.7602 322.997 86.8782 323.019 87.01C323.029 87.0758 323.026 87.1429 323.01 87.2076C322.994 87.2722 322.966 87.3331 322.926 87.3866C322.887 87.4402 322.837 87.4855 322.78 87.5199C322.723 87.5543 322.66 87.577 322.594 87.5869C318.748 88.174 316.936 92.729 316.916 92.7694C316.874 92.8597 316.807 92.9357 316.722 92.9879C316.637 93.0401 316.539 93.0662 316.44 93.063Z" fill="#404B7C"/>
<path d="M319.963 92.2734C319.896 92.2721 319.831 92.2577 319.77 92.231C319.709 92.2044 319.654 92.166 319.608 92.118C319.562 92.0701 319.525 92.0136 319.501 91.9516C319.477 91.8897 319.465 91.8236 319.467 91.7572C319.408 90.8133 319.101 89.9018 318.576 89.1153C318.505 89.0012 318.482 88.8635 318.512 88.7325C318.543 88.6016 318.624 88.488 318.738 88.4169C318.852 88.3457 318.99 88.3228 319.121 88.3532C319.251 88.3836 319.365 88.4647 319.436 88.5788C320.061 89.5354 320.411 90.6454 320.448 91.7875C320.443 91.9148 320.391 92.0355 320.301 92.1255C320.21 92.2156 320.09 92.2684 319.963 92.2734Z" fill="#404B7C"/>
<path d="M304.901 112.103C304.901 112.103 326.603 100.341 343.304 108.752L339.893 119.887L309.466 121.911L304.901 112.103Z" fill="#404B7C"/>
<path d="M300.558 123.743C310.32 117.965 321.65 115.398 332.949 116.405C352.06 118.054 358.386 127.539 360.411 132.732C362.435 137.924 373.569 216.877 369.521 275.079C369.521 275.079 342.525 285.201 314.78 282.165C287.035 279.128 265.809 251.282 265.809 251.282C265.809 251.282 286.559 201.684 288.078 176.378C289.596 151.073 291.914 131.365 300.558 123.743Z" fill="#404B7C"/>
<path d="M310.832 119.552C310.698 119.574 310.561 119.541 310.451 119.461C310.341 119.382 310.267 119.262 310.245 119.127C310.224 118.993 310.256 118.856 310.336 118.746C310.416 118.636 310.536 118.562 310.67 118.54C317.864 116.137 325.473 115.231 333.03 115.878C335.165 116.057 337.288 116.361 339.387 116.789C339.452 116.802 339.514 116.828 339.569 116.866C339.624 116.903 339.671 116.95 339.708 117.006C339.745 117.061 339.77 117.123 339.783 117.189C339.795 117.254 339.795 117.321 339.782 117.386C339.752 117.517 339.674 117.63 339.563 117.704C339.451 117.778 339.316 117.805 339.184 117.781C337.125 117.362 335.043 117.065 332.949 116.89C325.529 116.258 318.057 117.15 310.994 119.512L310.832 119.552Z" fill="#9AB3DA"/>
<path d="M227.264 137.58C227.011 137.499 218.326 131.254 218.326 131.254C218.326 131.254 214.955 127.286 213.437 126.871C211.18 126.207 209.001 125.301 206.939 124.168C205.926 123.409 202.89 119.867 201.291 119.36C199.691 118.854 199.691 121.972 201.544 124.422C203.396 126.871 203.902 128.136 202.556 128.977C201.21 129.817 195.298 129.402 193.527 128.804C191.755 128.207 186.947 125.596 185.601 125.515C184.255 125.434 184.255 127.711 185.773 128.723C187.292 129.736 194.964 135.475 197.839 136.234C200.714 136.993 212.344 136.74 212.344 136.74L223.225 146.528L227.264 137.58Z" fill="#ECBDBB"/>
<path d="M237.588 140.323L227.345 134.503C227.345 134.503 216.848 136.153 216.848 151.204L225.452 159.555C225.452 159.555 238.479 153.097 237.588 140.323Z" fill="#9AB3DA"/>
<path d="M303.767 122.903C293.108 122.691 268.339 162.207 268.339 162.207L233.246 140.779C233.246 140.779 225.654 143.815 225.32 154.444C225.32 154.444 256.193 193.748 268.339 196.785C280.486 199.821 311.693 166.418 317.26 155.79C322.827 145.162 320.296 123.237 303.767 122.903Z" fill="#404B7C"/>
<path d="M266.386 184.223C266.265 184.222 266.148 184.177 266.057 184.097C265.966 184.017 265.907 183.908 265.89 183.788C265.05 176.994 265.633 170.1 267.601 163.543C267.644 163.416 267.735 163.311 267.856 163.251C267.976 163.191 268.116 163.182 268.243 163.225C268.371 163.267 268.476 163.359 268.536 163.48C268.596 163.6 268.605 163.74 268.562 163.867C266.644 170.267 266.075 176.995 266.892 183.626C266.902 183.692 266.899 183.759 266.883 183.823C266.867 183.888 266.839 183.949 266.799 184.002C266.76 184.056 266.71 184.101 266.653 184.136C266.596 184.17 266.533 184.193 266.467 184.203H266.396L266.386 184.223Z" fill="#9AB3DA"/>
<path d="M289.424 187.067C289.319 187.069 289.215 187.037 289.129 186.977C289.042 186.917 288.976 186.832 288.94 186.732C288.905 186.633 288.901 186.525 288.93 186.424C288.958 186.322 289.018 186.232 289.1 186.166C300.892 176.429 313.464 161.974 316.815 155.557C320.276 148.947 320.307 138.795 316.885 131.932C314.567 127.266 310.812 124.401 306.156 123.622C306.089 123.611 306.026 123.587 305.968 123.552C305.911 123.517 305.861 123.471 305.822 123.416C305.782 123.362 305.754 123.3 305.738 123.234C305.723 123.169 305.72 123.101 305.731 123.034C305.741 122.968 305.765 122.904 305.8 122.847C305.836 122.79 305.882 122.74 305.936 122.7C305.991 122.661 306.053 122.632 306.118 122.617C306.183 122.601 306.251 122.599 306.318 122.609C311.379 123.439 315.316 126.506 317.796 131.466C321.349 138.552 321.319 149.15 317.715 156.012C314.314 162.511 301.631 177.117 289.748 186.925C289.661 187.01 289.546 187.06 289.424 187.067Z" fill="#9AB3DA"/>
<path d="M301.49 324.161L319.244 416.799C319.341 417.31 319.324 417.836 319.194 418.339C319.064 418.842 318.825 419.311 318.493 419.711C318.162 420.111 317.746 420.433 317.275 420.654C316.805 420.876 316.292 420.99 315.772 420.99C315.008 420.99 314.265 420.742 313.653 420.284C313.042 419.826 312.596 419.182 312.381 418.449L284.788 324.161H301.49Z" fill="#404B7C"/>
<path d="M246.577 324.161L228.823 416.799C228.726 417.31 228.743 417.836 228.873 418.339C229.002 418.842 229.241 419.311 229.573 419.711C229.905 420.111 230.32 420.433 230.791 420.654C231.261 420.876 231.775 420.99 232.294 420.99C233.058 420.99 233.802 420.742 234.413 420.284C235.024 419.826 235.471 419.182 235.685 418.449L263.278 324.161H246.577Z" fill="#9AB3DA"/>
<path d="M371.079 324.161L388.833 416.799C388.93 417.31 388.913 417.836 388.783 418.339C388.654 418.842 388.415 419.311 388.083 419.711C387.751 420.111 387.335 420.433 386.865 420.654C386.395 420.876 385.881 420.99 385.362 420.99C384.598 420.99 383.854 420.742 383.243 420.284C382.632 419.826 382.185 419.182 381.971 418.449L354.378 324.161H371.079Z" fill="#9AB3DA"/>
<path d="M316.167 324.161L298.412 416.799C298.316 417.31 298.333 417.836 298.462 418.339C298.592 418.842 298.831 419.311 299.163 419.711C299.495 420.111 299.91 420.433 300.381 420.654C300.851 420.876 301.365 420.99 301.884 420.99C302.648 420.99 303.392 420.742 304.003 420.284C304.614 419.826 305.061 419.182 305.275 418.449L332.868 324.161H316.167Z" fill="#9AB3DA"/>
<path d="M380.867 317.754L374.794 329.222H240.585L235.109 317.754H380.867Z" fill="#9AB3DA"/>
<path d="M260.556 329.729H247.397C247.263 329.729 247.134 329.675 247.039 329.58C246.944 329.485 246.891 329.357 246.891 329.223C246.891 329.088 246.944 328.96 247.039 328.865C247.134 328.77 247.263 328.716 247.397 328.716H260.556C260.69 328.716 260.819 328.77 260.914 328.865C261.009 328.96 261.062 329.088 261.062 329.223C261.062 329.357 261.009 329.485 260.914 329.58C260.819 329.675 260.69 329.729 260.556 329.729Z" fill="#404B7C"/>
<path d="M380.867 317.754L376.262 329.222H309.911C309.051 326.368 307.947 322.471 306.783 317.754H380.867Z" fill="#404B7C"/>
<path d="M401.78 230.704C397.397 276.253 380.867 317.754 380.867 317.754H235.109C213.913 272.539 213.002 254.045 216.454 240.148C217.53 235.891 219.999 232.117 223.467 229.424C226.935 226.732 231.204 225.276 235.594 225.288H283.948C283.948 225.288 300.224 154.778 345.44 154.778C351.809 154.715 358.162 155.429 364.358 156.903C383.135 161.6 394.35 173.807 399.371 191.43C400.972 197.265 401.946 203.254 402.276 209.295C402.276 209.295 402.276 209.407 402.276 209.457C402.276 210.115 402.347 210.783 402.377 211.482C402.407 212.18 402.428 212.605 402.438 213.162C402.586 219.017 402.366 224.876 401.78 230.704Z" fill="#9AB3DA"/>
<path d="M374.905 318.26H235.109C235.013 318.26 234.919 318.232 234.838 318.18C234.758 318.128 234.693 318.054 234.653 317.967C214.004 273.956 212.253 254.987 215.968 240.026C216.096 239.507 216.244 238.994 216.413 238.488C216.434 238.425 216.468 238.366 216.512 238.316C216.555 238.266 216.609 238.225 216.668 238.195C216.728 238.166 216.793 238.148 216.859 238.143C216.926 238.139 216.993 238.148 217.056 238.169C217.119 238.19 217.177 238.224 217.227 238.267C217.278 238.311 217.319 238.365 217.348 238.424C217.378 238.484 217.395 238.549 217.4 238.615C217.405 238.682 217.396 238.748 217.375 238.812C217.213 239.291 217.071 239.777 216.949 240.269C213.295 254.977 215.036 273.672 235.433 317.197H374.916C375.057 317.199 375.191 317.256 375.29 317.357C375.389 317.457 375.443 317.593 375.442 317.734C375.441 317.875 375.383 318.01 375.283 318.108C375.182 318.207 375.046 318.262 374.905 318.26Z" fill="#404B7C"/>
<path d="M401.78 230.704C397.397 276.254 380.867 317.754 380.867 317.754H306.783C303.559 304.794 301.403 291.591 300.336 278.278C299.263 264.309 299.546 249.187 302.583 234.753C312.371 188.191 336.33 165.578 365.006 169.627C365.289 169.627 365.573 169.708 365.856 169.769L366.342 169.839C375.91 171.393 384.67 176.141 391.195 183.309C397.72 190.478 401.626 199.644 402.276 209.316C402.276 209.316 402.276 209.427 402.276 209.478C402.276 210.136 402.346 210.804 402.377 211.502C402.407 212.201 402.427 212.616 402.438 213.182C402.585 219.031 402.365 224.883 401.78 230.704Z" fill="#404B7C"/>
<path d="M378.742 318.23H309.668C309.534 318.23 309.405 318.177 309.31 318.082C309.215 317.987 309.162 317.858 309.162 317.724C309.162 317.59 309.215 317.461 309.31 317.366C309.405 317.271 309.534 317.218 309.668 317.218H378.752C378.818 317.218 378.884 317.232 378.945 317.258C379.006 317.284 379.062 317.322 379.108 317.37C379.155 317.417 379.191 317.473 379.216 317.535C379.241 317.597 379.254 317.662 379.253 317.729C379.252 317.795 379.238 317.861 379.212 317.922C379.186 317.983 379.149 318.039 379.101 318.085C379.054 318.132 378.997 318.169 378.936 318.193C378.874 318.218 378.808 318.231 378.742 318.23Z" fill="#9AB3DA"/>
<path d="M304.536 84.6211C304.536 84.6211 304.536 82.4651 305.235 82.2829C305.933 82.1007 305.771 82.8801 305.771 82.8801C305.771 82.8801 309.284 82.2525 310.205 84.5097C308.344 84.0027 306.376 84.0414 304.536 84.6211Z" fill="#404B7C"/>
<path d="M306.571 89.2974C307.364 89.2974 308.008 88.5043 308.008 87.526C308.008 86.5477 307.364 85.7546 306.571 85.7546C305.777 85.7546 305.133 86.5477 305.133 87.526C305.133 88.5043 305.777 89.2974 306.571 89.2974Z" fill="#404B7C"/>
<path d="M306.864 97.2232C306.73 97.2339 306.597 97.1909 306.495 97.1036C306.392 97.0163 306.329 96.8918 306.318 96.7576C306.307 96.6233 306.35 96.4903 306.437 96.3878C306.525 96.2853 306.649 96.2217 306.783 96.211C308.018 95.8937 309.116 95.183 309.911 94.1865C309.95 94.1275 310.001 94.0773 310.061 94.0393C310.121 94.0012 310.187 93.976 310.257 93.9654C310.327 93.9548 310.399 93.959 310.467 93.9778C310.535 93.9965 310.599 94.0293 310.654 94.0741C310.708 94.1189 310.753 94.1748 310.785 94.2379C310.817 94.3011 310.835 94.3703 310.839 94.441C310.842 94.5117 310.831 94.5823 310.805 94.6483C310.78 94.7143 310.741 94.7743 310.691 94.8242C309.755 96.0296 308.438 96.8823 306.955 97.2434H306.874L306.864 97.2232Z" fill="#404B7C"/>
<path d="M306.864 87.1212C307.138 87.1212 307.36 86.8992 307.36 86.6253C307.36 86.3513 307.138 86.1293 306.864 86.1293C306.59 86.1293 306.368 86.3513 306.368 86.6253C306.368 86.8992 306.59 87.1212 306.864 87.1212Z" fill="white"/>
<path d="M294.738 9.74762V31.247C294.738 33.8305 295.764 36.3083 297.589 38.1361C299.415 39.9638 301.892 40.992 304.476 40.9947H306.125V48.8393C306.115 49.2542 306.229 49.6626 306.453 50.0119C306.677 50.3612 307.001 50.6353 307.382 50.7987C307.764 50.9622 308.186 51.0075 308.593 50.9289C309 50.8503 309.375 50.6513 309.668 50.3576L319.031 40.9947H343.952C346.537 40.9947 349.016 39.9677 350.844 38.1396C352.673 36.3116 353.699 33.8323 353.699 31.247V9.74762C353.699 7.16239 352.673 4.68304 350.844 2.85501C349.016 1.02698 346.537 0 343.952 0H304.476C301.892 0.00268274 299.415 1.03085 297.589 2.85859C295.764 4.68633 294.738 7.16414 294.738 9.74762Z" fill="#E9F3FF"/>
<path d="M341.806 7.84473H307.735C306.382 7.84473 305.285 8.93917 305.285 10.2892C305.285 11.6393 306.382 12.7337 307.735 12.7337H341.806C343.159 12.7337 344.256 11.6393 344.256 10.2892C344.256 8.93917 343.159 7.84473 341.806 7.84473Z" fill="#404B7C"/>
<path d="M341.806 17.7948H307.735C306.382 17.7948 305.285 18.8892 305.285 20.2393C305.285 21.5894 306.382 22.6838 307.735 22.6838H341.806C343.159 22.6838 344.256 21.5894 344.256 20.2393C344.256 18.8892 343.159 17.7948 341.806 17.7948Z" fill="#404B7C"/>
<path d="M323.586 27.7548H307.735C306.382 27.7548 305.285 28.8492 305.285 30.1993C305.285 31.5493 306.382 32.6438 307.735 32.6438H323.586C324.939 32.6438 326.036 31.5493 326.036 30.1993C326.036 28.8492 324.939 27.7548 323.586 27.7548Z" fill="#404B7C"/>
<path d="M210.39 37.5836V59.083C210.39 61.6665 211.416 64.1443 213.242 65.972C215.067 67.7998 217.544 68.8279 220.128 68.8306H221.778V76.7259C221.777 77.1364 221.899 77.5378 222.127 77.8792C222.355 78.2206 222.679 78.4867 223.058 78.6438C223.438 78.8009 223.855 78.842 224.258 78.7619C224.66 78.6817 225.03 78.484 225.32 78.1936L234.683 68.8306H259.604C262.189 68.8306 264.669 67.8036 266.497 65.9756C268.325 64.1475 269.352 61.6682 269.352 59.083V37.5836C269.352 34.9983 268.325 32.519 266.497 30.691C264.669 28.8629 262.189 27.8359 259.604 27.8359H220.128C217.544 27.8386 215.067 28.8668 213.242 30.6945C211.416 32.5223 210.39 35.0001 210.39 37.5836Z" fill="#9AB3DA"/>
<path d="M255.9 52.544C258.32 52.544 260.282 50.5817 260.282 48.1611C260.282 45.7405 258.32 43.7782 255.9 43.7782C253.479 43.7782 251.517 45.7405 251.517 48.1611C251.517 50.5817 253.479 52.544 255.9 52.544Z" fill="white"/>
<path d="M239.866 52.544C242.287 52.544 244.249 50.5817 244.249 48.1611C244.249 45.7405 242.287 43.7782 239.866 43.7782C237.445 43.7782 235.483 45.7405 235.483 48.1611C235.483 50.5817 237.445 52.544 239.866 52.544Z" fill="white"/>
<path d="M223.843 52.544C226.263 52.544 228.225 50.5817 228.225 48.1611C228.225 45.7405 226.263 43.7782 223.843 43.7782C221.422 43.7782 219.46 45.7405 219.46 48.1611C219.46 50.5817 221.422 52.544 223.843 52.544Z" fill="white"/>
<path d="M91.8297 83.0117C95.3964 83.0117 98.2877 80.1204 98.2877 76.5537C98.2877 72.9871 95.3964 70.0958 91.8297 70.0958C88.2631 70.0958 85.3718 72.9871 85.3718 76.5537C85.3718 80.1204 88.2631 83.0117 91.8297 83.0117Z" fill="#9AB3DA"/>
<path d="M97.0224 54.9125C98.5597 54.9125 99.8059 53.6663 99.8059 52.1289C99.8059 50.5916 98.5597 49.3453 97.0224 49.3453C95.485 49.3453 94.2388 50.5916 94.2388 52.1289C94.2388 53.6663 95.485 54.9125 97.0224 54.9125Z" fill="#E9F3FF"/>
<path d="M183.314 59.2146C186.388 59.2146 188.881 56.722 188.881 53.6474C188.881 50.5727 186.388 48.0802 183.314 48.0802C180.239 48.0802 177.746 50.5727 177.746 53.6474C177.746 56.722 180.239 59.2146 183.314 59.2146Z" fill="#E9F3FF"/>
<path d="M275.931 105.523C279.66 105.523 282.683 102.5 282.683 98.7717C282.683 95.043 279.66 92.0203 275.931 92.0203C272.202 92.0203 269.18 95.043 269.18 98.7717C269.18 102.5 272.202 105.523 275.931 105.523Z" fill="#E9F3FF"/>
<path d="M412.58 231.706C414.252 231.706 415.607 230.351 415.607 228.679C415.607 227.008 414.252 225.653 412.58 225.653C410.909 225.653 409.553 227.008 409.553 228.679C409.553 230.351 410.909 231.706 412.58 231.706Z" fill="#9AB3DA"/>
<path d="M368.255 118.186C370.424 118.186 372.182 116.428 372.182 114.259C372.182 112.09 370.424 110.331 368.255 110.331C366.086 110.331 364.328 112.09 364.328 114.259C364.328 116.428 366.086 118.186 368.255 118.186Z" fill="#9AB3DA"/>
<path d="M427.662 220.157C429.831 220.157 431.589 218.398 431.589 216.229C431.589 214.06 429.831 212.302 427.662 212.302C425.493 212.302 423.735 214.06 423.735 216.229C423.735 218.398 425.493 220.157 427.662 220.157Z" fill="#E9F3FF"/>
<path d="M387.022 134.877C388 134.877 388.793 134.084 388.793 133.106C388.793 132.128 388 131.335 387.022 131.335C386.043 131.335 385.25 132.128 385.25 133.106C385.25 134.084 386.043 134.877 387.022 134.877Z" fill="#E9F3FF"/>
<path d="M77.6587 55.4896C77.5245 55.4896 77.3957 55.4363 77.3008 55.3413C77.2059 55.2464 77.1526 55.1177 77.1526 54.9835V50.722C77.1526 50.5878 77.2059 50.4591 77.3008 50.3642C77.3957 50.2693 77.5245 50.2159 77.6587 50.2159C77.7929 50.2159 77.9217 50.2693 78.0166 50.3642C78.1115 50.4591 78.1648 50.5878 78.1648 50.722V54.9835C78.1648 55.1177 78.1115 55.2464 78.0166 55.3413C77.9217 55.4363 77.7929 55.4896 77.6587 55.4896Z" fill="#9AB3DA"/>
<path d="M84.8353 58.3948H80.5637C80.4295 58.3948 80.3008 58.3415 80.2059 58.2466C80.1109 58.1517 80.0576 58.0229 80.0576 57.8887C80.0576 57.7545 80.1109 57.6257 80.2059 57.5308C80.3008 57.4359 80.4295 57.3826 80.5637 57.3826H84.8251C84.8916 57.3819 84.9575 57.3944 85.0192 57.4192C85.0809 57.444 85.137 57.4807 85.1845 57.5272C85.232 57.5738 85.2698 57.6292 85.2958 57.6903C85.3219 57.7515 85.3356 57.8172 85.3363 57.8836C85.337 57.9501 85.3245 58.016 85.2997 58.0777C85.2749 58.1394 85.2382 58.1955 85.1916 58.243C85.1451 58.2905 85.0897 58.3283 85.0286 58.3543C84.9674 58.3804 84.9017 58.3941 84.8353 58.3948Z" fill="#9AB3DA"/>
<path d="M77.6587 65.561C77.5245 65.561 77.3957 65.5077 77.3008 65.4128C77.2059 65.3178 77.1526 65.1891 77.1526 65.0549V60.7935C77.1526 60.6592 77.2059 60.5305 77.3008 60.4356C77.3957 60.3407 77.5245 60.2874 77.6587 60.2874C77.7929 60.2874 77.9217 60.3407 78.0166 60.4356C78.1115 60.5305 78.1648 60.6592 78.1648 60.7935V65.0346C78.1675 65.1028 78.1565 65.1708 78.1322 65.2345C78.108 65.2983 78.0712 65.3565 78.0239 65.4057C77.9766 65.4548 77.9199 65.4939 77.8572 65.5206C77.7944 65.5473 77.7269 65.561 77.6587 65.561Z" fill="#9AB3DA"/>
<path d="M74.7637 58.3948H70.4922C70.358 58.3948 70.2292 58.3415 70.1343 58.2466C70.0394 58.1517 69.9861 58.0229 69.9861 57.8887C69.9861 57.7545 70.0394 57.6257 70.1343 57.5308C70.2292 57.4359 70.358 57.3826 70.4922 57.3826H74.7536C74.8201 57.3819 74.886 57.3944 74.9477 57.4192C75.0093 57.444 75.0655 57.4807 75.113 57.5272C75.1604 57.5738 75.1983 57.6292 75.2243 57.6903C75.2504 57.7515 75.2641 57.8172 75.2648 57.8836C75.2654 57.9501 75.253 58.016 75.2282 58.0777C75.2034 58.1394 75.1667 58.1955 75.1201 58.243C75.0736 58.2905 75.0182 58.3283 74.957 58.3543C74.8959 58.3804 74.8302 58.3941 74.7637 58.3948Z" fill="#9AB3DA"/>
<path d="M392.802 118.247C392.667 118.247 392.539 118.194 392.444 118.099C392.349 118.004 392.295 117.875 392.295 117.741V113.479C392.295 113.345 392.349 113.216 392.444 113.121C392.539 113.027 392.667 112.973 392.802 112.973C392.936 112.973 393.064 113.027 393.159 113.121C393.254 113.216 393.308 113.345 393.308 113.479V117.741C393.308 117.875 393.254 118.004 393.159 118.099C393.064 118.194 392.936 118.247 392.802 118.247Z" fill="#9AB3DA"/>
<path d="M399.968 121.152H395.707C395.572 121.152 395.444 121.099 395.349 121.004C395.254 120.909 395.2 120.78 395.2 120.646C395.2 120.512 395.254 120.383 395.349 120.288C395.444 120.193 395.572 120.14 395.707 120.14H399.968C400.102 120.14 400.231 120.193 400.326 120.288C400.421 120.383 400.474 120.512 400.474 120.646C400.474 120.78 400.421 120.909 400.326 121.004C400.231 121.099 400.102 121.152 399.968 121.152Z" fill="#9AB3DA"/>
<path d="M392.802 128.318C392.667 128.318 392.539 128.265 392.444 128.17C392.349 128.075 392.295 127.946 392.295 127.812V123.551C392.295 123.417 392.349 123.288 392.444 123.193C392.539 123.098 392.667 123.045 392.802 123.045C392.936 123.045 393.064 123.098 393.159 123.193C393.254 123.288 393.308 123.417 393.308 123.551V127.792C393.31 127.86 393.299 127.928 393.275 127.992C393.251 128.056 393.214 128.114 393.167 128.163C393.119 128.212 393.063 128.251 393 128.278C392.937 128.305 392.87 128.318 392.802 128.318Z" fill="#9AB3DA"/>
<path d="M389.896 121.152H385.584C385.45 121.152 385.321 121.098 385.226 121.004C385.131 120.909 385.078 120.78 385.078 120.646C385.078 120.511 385.131 120.383 385.226 120.288C385.321 120.193 385.45 120.14 385.584 120.14H389.846C389.98 120.133 390.111 120.18 390.211 120.27C390.311 120.36 390.37 120.486 390.377 120.62C390.384 120.755 390.337 120.886 390.247 120.986C390.157 121.085 390.031 121.145 389.896 121.152Z" fill="#9AB3DA"/>
<path d="M179.649 111.728C179.515 111.728 179.386 111.675 179.292 111.58C179.197 111.485 179.143 111.356 179.143 111.222V106.961C179.143 106.826 179.197 106.698 179.292 106.603C179.386 106.508 179.515 106.455 179.649 106.455C179.784 106.455 179.912 106.508 180.007 106.603C180.102 106.698 180.156 106.826 180.156 106.961V111.222C180.156 111.356 180.102 111.485 180.007 111.58C179.912 111.675 179.784 111.728 179.649 111.728Z" fill="#9AB3DA"/>
<path d="M186.816 114.633H182.554C182.42 114.633 182.291 114.58 182.197 114.485C182.102 114.39 182.048 114.261 182.048 114.127C182.048 113.993 182.102 113.864 182.197 113.769C182.291 113.674 182.42 113.621 182.554 113.621H186.816C186.95 113.621 187.079 113.674 187.174 113.769C187.269 113.864 187.322 113.993 187.322 114.127C187.322 114.261 187.269 114.39 187.174 114.485C187.079 114.58 186.95 114.633 186.816 114.633Z" fill="#9AB3DA"/>
<path d="M179.649 121.8C179.515 121.8 179.386 121.746 179.292 121.652C179.197 121.557 179.143 121.428 179.143 121.294V117.032C179.143 116.898 179.197 116.769 179.292 116.674C179.386 116.579 179.515 116.526 179.649 116.526C179.784 116.526 179.912 116.579 180.007 116.674C180.102 116.769 180.156 116.898 180.156 117.032V121.294C180.156 121.428 180.102 121.557 180.007 121.652C179.912 121.746 179.784 121.8 179.649 121.8Z" fill="#9AB3DA"/>
<path d="M176.744 114.633H172.483C172.349 114.633 172.22 114.58 172.125 114.485C172.03 114.39 171.977 114.261 171.977 114.127C171.977 113.993 172.03 113.864 172.125 113.769C172.22 113.674 172.349 113.621 172.483 113.621H176.744C176.879 113.621 177.007 113.674 177.102 113.769C177.197 113.864 177.25 113.993 177.25 114.127C177.25 114.261 177.197 114.39 177.102 114.485C177.007 114.58 176.879 114.633 176.744 114.633Z" fill="#9AB3DA"/>
</svg>
