<svg width="25" height="19" viewBox="0 0 25 19" fill="none" xmlns="http://www.w3.org/2000/svg">
<g clip-path="url(#clip0_2252_5746)">
<path d="M10 0H25V18.75H10V0Z" fill="#FF0000"/>
<path d="M0 0H10V18.75H0V0Z" fill="#006600"/>
<path fill-rule="evenodd" clip-rule="evenodd" d="M13.2617 11.9609C12 11.9219 6.23047 8.32031 6.19141 7.74219L6.50781 7.21484C7.08203 8.04688 12.9805 11.5508 13.5625 11.4258L13.2617 11.9609Z" fill="#FFFF00" stroke="black" stroke-width="0.075" stroke-linecap="round" stroke-linejoin="round"/>
<path fill-rule="evenodd" clip-rule="evenodd" d="M6.44134 7.14062C6.32806 7.44531 7.94915 8.44531 9.89446 9.63281C11.8437 10.8164 13.5234 11.5469 13.6445 11.4453L13.7031 11.3359C13.6796 11.375 13.6249 11.3867 13.5351 11.3594C13.0077 11.207 11.6367 10.5781 9.93743 9.54687C8.23431 8.51562 6.75775 7.56641 6.52728 7.16406C6.50931 7.12634 6.50125 7.08467 6.50384 7.04297H6.49603L6.44915 7.12891L6.44134 7.14062ZM13.289 11.9766C13.2695 12.0156 13.2265 12.0156 13.1523 12.0078C12.6835 11.957 11.2538 11.2617 9.56243 10.25C7.59368 9.07031 5.96868 8 6.14837 7.71875L6.19525 7.63281L6.20306 7.63672C6.04681 8.11328 9.41009 10.0352 9.60931 10.1602C11.5546 11.3633 13.1952 12.0703 13.3398 11.8867L13.289 11.9766Z" fill="#FFFF00" stroke="black" stroke-width="0.075" stroke-linecap="round" stroke-linejoin="round"/>
<path fill-rule="evenodd" clip-rule="evenodd" d="M10.0078 8.09375C11.2656 8.08203 12.8203 7.92188 13.7188 7.5625L13.5234 7.25C12.9961 7.54297 11.4336 7.73828 9.99609 7.76563C8.30078 7.75 7.10156 7.58984 6.5 7.1875L6.32031 7.52344C7.42188 7.99219 8.55469 8.08984 10.0078 8.09375Z" fill="#FFFF00" stroke="black" stroke-width="0.075" stroke-linecap="round" stroke-linejoin="round"/>
<path fill-rule="evenodd" clip-rule="evenodd" d="M13.7695 7.57031C13.7383 7.62109 13.1523 7.82031 12.293 7.96875C11.5354 8.08358 10.7701 8.13974 10.0039 8.13672C9.2698 8.13949 8.53635 8.0925 7.80859 7.99609C6.90625 7.85547 6.44141 7.66016 6.26562 7.58984L6.30859 7.50391C6.80469 7.69922 7.27344 7.81641 7.82031 7.90234C8.54276 7.99989 9.271 8.04818 10 8.04687C10.7622 8.04764 11.5235 7.9915 12.2773 7.87891C13.1562 7.73437 13.6367 7.55078 13.707 7.46875L13.7695 7.57031ZM13.5977 7.25391C13.5039 7.33203 13.0273 7.5 12.1914 7.63281C11.4696 7.73727 10.7411 7.78949 10.0117 7.78906C9.15234 7.78906 8.44531 7.72656 7.91016 7.64844C7.05859 7.53906 6.60547 7.33594 6.44141 7.28125L6.49219 7.19531C6.62109 7.26172 7.05469 7.4375 7.91797 7.55859C8.61194 7.65155 9.31156 7.69593 10.0117 7.69141C10.7359 7.69163 11.4591 7.63941 12.1758 7.53516C13.0156 7.41797 13.4688 7.20703 13.5391 7.15234L13.5977 7.25391ZM5.87109 9.60937C6.64453 10.0273 8.36719 10.2344 9.99609 10.25C11.4805 10.2539 13.4102 10.0234 14.1328 9.64062L14.1133 9.22266C13.8867 9.57422 11.8164 9.91406 9.98047 9.90234C8.14453 9.88672 6.4375 9.60547 5.86719 9.23828V9.60937" fill="#FFFF00"/>
<path d="M5.87109 9.60937C6.64453 10.0273 8.36719 10.2344 9.99609 10.25C11.4805 10.2539 13.4102 10.0234 14.1328 9.64062L14.1133 9.22266C13.8867 9.57422 11.8164 9.91406 9.98047 9.90234C8.14453 9.88672 6.4375 9.60547 5.86719 9.23828V9.60937M13.7695 7.57031C13.7383 7.62109 13.1523 7.82031 12.293 7.96875C11.5354 8.08358 10.7701 8.13974 10.0039 8.13672C9.2698 8.13949 8.53635 8.0925 7.80859 7.99609C6.90625 7.85547 6.44141 7.66016 6.26562 7.58984L6.30859 7.50391C6.80469 7.69922 7.27344 7.81641 7.82031 7.90234C8.54276 7.99989 9.271 8.04818 10 8.04687C10.7622 8.04764 11.5235 7.9915 12.2773 7.87891C13.1562 7.73437 13.6367 7.55078 13.707 7.46875L13.7695 7.57031ZM13.5977 7.25391C13.5039 7.33203 13.0273 7.5 12.1914 7.63281C11.4696 7.73727 10.7411 7.78949 10.0117 7.78906C9.15234 7.78906 8.44531 7.72656 7.91016 7.64844C7.05859 7.53906 6.60547 7.33594 6.44141 7.28125L6.49219 7.19531C6.62109 7.26172 7.05469 7.4375 7.91797 7.55859C8.61194 7.65155 9.31156 7.69593 10.0117 7.69141C10.7359 7.69163 11.4591 7.63941 12.1758 7.53516C13.0156 7.41797 13.4688 7.20703 13.5391 7.15234L13.5977 7.25391Z" stroke="black" stroke-width="0.075" stroke-linecap="round" stroke-linejoin="round"/>
<path fill-rule="evenodd" clip-rule="evenodd" d="M14.1719 9.55078V9.64844C14.0625 9.78125 13.3828 9.97656 12.5312 10.1172C11.6852 10.2388 10.8312 10.2963 9.97656 10.2891C9.16614 10.296 8.3564 10.2398 7.55469 10.1211C6.95647 10.052 6.37191 9.89397 5.82031 9.65234V9.53906C6.19922 9.78906 7.22266 9.97656 7.56641 10.0312C8.18359 10.125 8.97656 10.1953 9.97656 10.1953C11.0273 10.1953 11.8672 10.1211 12.5156 10.0234C13.1289 9.93359 14 9.70312 14.1719 9.55078ZM14.1719 9.19922V9.29687C14.0625 9.42578 13.3828 9.62109 12.5312 9.76172C11.6853 9.88463 10.8313 9.94339 9.97656 9.9375C9.1662 9.94227 8.35663 9.88612 7.55469 9.76953C6.95647 9.7004 6.37191 9.54241 5.82031 9.30078V9.18359C6.19922 9.4375 7.22656 9.62109 7.56641 9.67578C8.36438 9.79267 9.17008 9.84882 9.97656 9.84375C11.0273 9.84375 11.8711 9.76562 12.5156 9.66797C13.1289 9.58203 14 9.35156 14.1719 9.19922ZM9.99219 11.8867C8.21094 11.8789 6.68359 11.4023 6.35938 11.3242L6.59375 11.6914C7.68942 12.0795 8.84561 12.2686 10.0078 12.25C11.3633 12.2109 12.5469 12.1055 13.3789 11.6992L13.6211 11.3164C13.0547 11.5859 11.1211 11.8867 9.98828 11.8867" fill="#FFFF00"/>
<path d="M9.99219 11.8867C8.21094 11.8789 6.68359 11.4023 6.35938 11.3242L6.59375 11.6914C7.68942 12.0795 8.84561 12.2686 10.0078 12.25C11.3633 12.2109 12.5469 12.1055 13.3789 11.6992L13.6211 11.3164C13.0547 11.5859 11.1211 11.8867 9.98828 11.8867M14.1719 9.55078V9.64844C14.0625 9.78125 13.3828 9.97656 12.5313 10.1172C11.6852 10.2388 10.8312 10.2963 9.97656 10.2891C9.16614 10.296 8.3564 10.2398 7.55469 10.1211C6.95647 10.052 6.37191 9.89397 5.82031 9.65234V9.53906C6.19922 9.78906 7.22266 9.97656 7.56641 10.0312C8.18359 10.125 8.97656 10.1953 9.97656 10.1953C11.0273 10.1953 11.8672 10.1211 12.5156 10.0234C13.1289 9.93359 14 9.70312 14.1719 9.55078ZM14.1719 9.19922V9.29687C14.0625 9.42578 13.3828 9.62109 12.5313 9.76172C11.6853 9.88463 10.8313 9.94339 9.97656 9.9375C9.1662 9.94227 8.35663 9.88612 7.55469 9.76953C6.95647 9.7004 6.37191 9.54241 5.82031 9.30078V9.18359C6.19922 9.4375 7.22656 9.62109 7.56641 9.67578C8.36438 9.79267 9.17008 9.84882 9.97656 9.84375C11.0273 9.84375 11.8711 9.76562 12.5156 9.66797C13.1289 9.58203 14 9.35156 14.1719 9.19922Z" stroke="black" stroke-width="0.075" stroke-linecap="round" stroke-linejoin="round"/>
<path fill-rule="evenodd" clip-rule="evenodd" d="M13.4727 11.6133C13.4371 11.666 13.4006 11.7181 13.3633 11.7695C12.9727 11.9102 12.3477 12.0586 12.0898 12.0977C11.398 12.2266 10.6959 12.2919 9.99219 12.293C8.41406 12.2695 7.12109 11.9609 6.51563 11.6953L6.46484 11.6133L6.47266 11.5977L6.55469 11.6328C7.66642 12.0007 8.829 12.1918 10 12.1992C10.7344 12.1992 11.4648 12.1172 12.0547 12.0117C12.9609 11.8281 13.3281 11.6914 13.4414 11.6289L13.4687 11.6133H13.4727ZM13.6797 11.2695C13.654 11.3153 13.6279 11.3609 13.6016 11.4063C13.3906 11.4844 12.8203 11.6484 11.9883 11.7656C11.4414 11.8398 11.1016 11.9141 10.0117 11.9336C8.76587 11.9211 7.52767 11.7371 6.33203 11.3867L6.28906 11.2891C7.50385 11.6248 8.7556 11.8085 10.0156 11.8359C11.0117 11.8164 11.4375 11.7422 11.9805 11.668C12.9492 11.5195 13.4375 11.3555 13.582 11.3125C13.5821 11.3099 13.5821 11.3073 13.582 11.3047L13.6836 11.2656L13.6797 11.2695Z" fill="#FFFF00" stroke="black" stroke-width="0.075" stroke-linecap="round" stroke-linejoin="round"/>
<path fill-rule="evenodd" clip-rule="evenodd" d="M13.7031 9.28125C13.707 10.4531 13.1055 11.5078 12.625 11.9688C11.9154 12.6609 10.9677 13.055 9.97657 13.0703C8.79298 13.0898 7.67969 12.3203 7.37891 11.9805C6.70603 11.2669 6.32306 10.3283 6.30469 9.34766C6.37501 8.06641 6.87891 7.17578 7.60548 6.5625C8.31127 5.98147 9.19913 5.66754 10.1133 5.67578C10.6469 5.70165 11.1693 5.83872 11.6469 6.07819C12.1245 6.31765 12.5468 6.65425 12.8867 7.06641C13.375 7.66016 13.5899 8.30469 13.7031 9.28125ZM9.98438 5.27344C11.0772 5.27341 12.1256 5.70536 12.9013 6.47513C13.6769 7.2449 14.1168 8.29007 14.125 9.38281C14.125 9.92503 14.0182 10.4619 13.8107 10.9629C13.6032 11.4638 13.2991 11.919 12.9157 12.3024C12.5323 12.6858 12.0771 12.9899 11.5762 13.1974C11.0752 13.4049 10.5383 13.5117 9.9961 13.5117C9.45388 13.5117 8.91698 13.4049 8.41604 13.1974C7.91509 12.9899 7.45993 12.6858 7.07652 12.3024C6.69312 11.919 6.38898 11.4638 6.18149 10.9629C5.97399 10.4619 5.86719 9.92503 5.86719 9.38281C5.86329 7.11719 7.71485 5.27344 9.98438 5.27344Z" fill="#FFFF00" stroke="black" stroke-width="0.075" stroke-linecap="round" stroke-linejoin="round"/>
<path fill-rule="evenodd" clip-rule="evenodd" d="M9.99609 5.25391C12.2695 5.25391 14.1211 7.10547 14.1211 9.37891C14.1211 11.6523 12.2695 13.5039 10 13.5039C7.73047 13.5039 5.875 11.6523 5.875 9.37891C5.875 7.10547 7.72656 5.25391 10 5.25391H9.99609ZM5.96094 9.375C5.96094 11.5937 7.78516 13.4102 9.99609 13.4102C12.207 13.4102 14.0313 11.5937 14.0313 9.375C14.0313 7.15625 12.207 5.33984 9.99609 5.33984C7.78516 5.33984 5.96094 7.15625 5.96094 9.375Z" fill="#FFFF00" stroke="black" stroke-width="0.075" stroke-linecap="round" stroke-linejoin="round"/>
<path fill-rule="evenodd" clip-rule="evenodd" d="M10 5.59766C11.0009 5.60075 11.9599 5.99971 12.6676 6.70743C13.3753 7.41515 13.7743 8.37414 13.7773 9.375C13.7743 10.3762 13.3754 11.3356 12.6678 12.044C11.9602 12.7523 11.0012 13.1521 10 13.1562C7.92969 13.1562 6.22266 11.4531 6.22266 9.375C6.22677 8.37445 6.62606 7.41606 7.33356 6.70856C8.04106 6.00106 8.99945 5.60177 10 5.59766ZM6.3125 9.375C6.3125 11.4062 7.97656 13.0625 10 13.0625C12.0234 13.0625 13.6875 11.4023 13.6875 9.375C13.6875 7.34375 12.0234 5.6875 10 5.6875C9.02328 5.69161 8.08774 6.08144 7.39709 6.77209C6.70644 7.46274 6.31661 8.39828 6.3125 9.375Z" fill="#FFFF00" stroke="black" stroke-width="0.075" stroke-linecap="round" stroke-linejoin="round"/>
<path fill-rule="evenodd" clip-rule="evenodd" d="M10.168 5.23438H9.8125V13.5273H10.1641L10.168 5.23438Z" fill="#FFFF00" stroke="black" stroke-width="0.075" stroke-linecap="round" stroke-linejoin="round"/>
<path fill-rule="evenodd" clip-rule="evenodd" d="M10.1289 5.1875H10.2188V13.5742H10.1328V5.1875H10.1289ZM9.77734 5.1875H9.87109V13.5742H9.78125L9.77734 5.1875Z" fill="#FFFF00" stroke="black" stroke-width="0.075" stroke-linecap="round" stroke-linejoin="round"/>
<path fill-rule="evenodd" clip-rule="evenodd" d="M14.125 9.53906V9.23437L13.875 9L12.457 8.625L10.418 8.41797L7.95703 8.54297L6.20703 8.95703L5.85547 9.21875V9.52734L6.75 9.125L8.875 8.79297H10.918L12.418 8.95703L13.457 9.20703L14.125 9.53906Z" fill="#FFFF00" stroke="black" stroke-width="0.075" stroke-linecap="round" stroke-linejoin="round"/>
<path fill-rule="evenodd" clip-rule="evenodd" d="M10 8.7422C10.9727 8.7422 11.9141 8.83205 12.668 8.97658C13.4414 9.13283 13.9844 9.32814 14.1719 9.54299V9.65236C13.9453 9.37892 13.2148 9.18361 12.6484 9.06642C11.9062 8.9258 10.9688 8.83205 9.99609 8.83205C8.97656 8.83205 8.02344 8.93361 7.28906 9.07424C6.70313 9.19142 5.91797 9.4258 5.82031 9.65236V9.53908C5.87109 9.38283 6.45703 9.14845 7.27734 8.98048C8.01563 8.83595 8.96875 8.7422 9.99609 8.7422H10ZM10 8.38673C10.8945 8.38494 11.7874 8.46338 12.668 8.62111C13.4414 8.77736 13.9844 8.97267 14.1719 9.19142V9.29689C13.9453 9.02736 13.2148 8.82814 12.6484 8.71486C11.9062 8.57033 10.9688 8.48049 9.99609 8.48049C9.08951 8.47762 8.1846 8.55869 7.29297 8.72267C6.72656 8.82814 5.91016 9.07033 5.82031 9.29689V9.18752C5.875 9.03127 6.46875 8.78517 7.27734 8.62892C8.01953 8.48439 8.96875 8.38673 10 8.38673ZM9.97656 6.58205C11.5117 6.57423 12.8516 6.79689 13.4648 7.10939L13.6875 7.50002C13.1563 7.21095 11.7109 6.91408 9.98047 6.95314C8.57031 6.96486 7.0625 7.10939 6.30859 7.51564L6.57422 7.07033C7.19531 6.74611 8.65625 6.58205 9.97656 6.58205Z" fill="#FFFF00" stroke="black" stroke-width="0.075" stroke-linecap="round" stroke-linejoin="round"/>
<path fill-rule="evenodd" clip-rule="evenodd" d="M10 6.90232C10.8015 6.88879 11.6027 6.94499 12.3945 7.07029C13.0195 7.18747 13.6172 7.35935 13.7031 7.4531L13.7695 7.57029C13.5625 7.43747 13.043 7.28513 12.3789 7.16013C11.7148 7.03513 10.8672 6.99216 9.99609 6.99607C9.00781 6.99216 8.23828 7.04294 7.58203 7.16013C7.12965 7.22353 6.69043 7.35939 6.28125 7.56247L6.34766 7.44138C6.58203 7.32419 6.94531 7.17966 7.5625 7.06638C8.24609 6.94138 9.02344 6.90622 10 6.90232ZM10 6.55075C10.8359 6.54294 11.6641 6.58982 12.3086 6.707C12.7262 6.769 13.1303 6.90107 13.5039 7.09763L13.6016 7.25388C13.4375 7.07029 12.8203 6.8945 12.2695 6.80075C11.6289 6.68747 10.8359 6.6445 10 6.63669C9.22185 6.62975 8.44445 6.68724 7.67578 6.80857C7.27386 6.86457 6.8835 6.98458 6.51953 7.16404L6.60547 7.03513C6.83203 6.91794 7.19922 6.80857 7.66016 6.71872C8.43389 6.59581 9.21661 6.53831 10 6.54685V6.55075ZM12.0469 11.0937C11.3698 10.9765 10.6831 10.9242 9.99609 10.9375C7.4375 10.9687 6.61328 11.4648 6.51172 11.6133L6.31641 11.3008C6.97266 10.832 8.36328 10.5664 10.0117 10.5898C10.8672 10.6054 11.6055 10.664 12.2227 10.7851L12.0469 11.0976" fill="#FFFF00"/>
<path d="M12.0469 11.0937C11.3698 10.9765 10.6831 10.9242 9.99609 10.9375C7.4375 10.9687 6.61328 11.4648 6.51172 11.6133L6.31641 11.3008C6.97266 10.832 8.36328 10.5664 10.0117 10.5898C10.8672 10.6054 11.6055 10.664 12.2227 10.7851L12.0469 11.0976M10 6.90232C10.8015 6.88879 11.6027 6.94499 12.3945 7.07029C13.0195 7.18747 13.6172 7.35935 13.7031 7.4531L13.7695 7.57029C13.5625 7.43747 13.043 7.28513 12.3789 7.16013C11.7148 7.03513 10.8672 6.99216 9.99609 6.99607C9.00781 6.99216 8.23828 7.04294 7.58203 7.16013C7.12965 7.22353 6.69043 7.35939 6.28125 7.56247L6.34766 7.44138C6.58203 7.32419 6.94531 7.17966 7.5625 7.06638C8.24609 6.94138 9.02344 6.90622 10 6.90232ZM10 6.55075C10.8359 6.54294 11.6641 6.58982 12.3086 6.707C12.7262 6.769 13.1303 6.90107 13.5039 7.09763L13.6016 7.25388C13.4375 7.07029 12.8203 6.8945 12.2695 6.80075C11.6289 6.68747 10.8359 6.6445 10 6.63669C9.22185 6.62975 8.44445 6.68724 7.67578 6.80857C7.27386 6.86457 6.8835 6.98458 6.51953 7.16404L6.60547 7.03513C6.83203 6.91794 7.19922 6.80857 7.66016 6.71872C8.43389 6.59581 9.21661 6.53831 10 6.54685V6.55075Z" stroke="black" stroke-width="0.075" stroke-linecap="round" stroke-linejoin="round"/>
<path fill-rule="evenodd" clip-rule="evenodd" d="M9.98438 10.8945C10.6953 10.9063 11.3906 10.9336 12.0664 11.0586L12.0195 11.1445C11.3945 11.0273 10.7227 10.9883 9.98828 10.9883C9.03906 10.9805 8.08594 11.0703 7.25391 11.3086C6.99219 11.3828 6.55859 11.5508 6.51172 11.6914L6.46484 11.6133C6.48047 11.5273 6.73828 11.3555 7.23047 11.2227C8.18359 10.9492 9.07422 10.8984 9.98438 10.8945ZM10.0156 10.5352C10.766 10.5344 11.515 10.5998 12.2539 10.7305L12.2031 10.8203C11.4816 10.688 10.7492 10.6239 10.0156 10.6289C9.07031 10.6289 8.06641 10.6992 7.15234 10.9649C6.85938 11.0508 6.34766 11.2383 6.33203 11.3828L6.28516 11.2969C6.29297 11.1641 6.73438 10.9883 7.13281 10.875C8.05078 10.6055 9.05859 10.5391 10.0156 10.5352Z" fill="#FFFF00" stroke="black" stroke-width="0.075" stroke-linecap="round" stroke-linejoin="round"/>
<path fill-rule="evenodd" clip-rule="evenodd" d="M13.6484 11.3477L13.3438 11.8281L12.457 11.043L10.168 9.5L7.58203 8.08203L6.24219 7.625L6.52734 7.09375L6.625 7.04297L7.45703 7.25L10.207 8.66797L11.793 9.66797L13.125 10.625L13.668 11.25L13.6484 11.3477Z" fill="#FFFF00" stroke="black" stroke-width="0.075" stroke-linecap="round" stroke-linejoin="round"/>
<path fill-rule="evenodd" clip-rule="evenodd" d="M6.19531 7.63672C6.42969 7.48047 8.15625 8.24609 9.96875 9.33984C11.7695 10.4336 13.4961 11.668 13.3398 11.8984L13.2891 11.9805L13.2656 12C13.2695 11.9961 13.2969 11.9609 13.2656 11.8789C13.1875 11.625 11.9609 10.6484 9.93359 9.42187C7.95312 8.24609 6.30469 7.53515 6.14453 7.73828L6.19531 7.63672ZM13.7109 11.3437C13.8594 11.0469 12.2578 9.83984 10.2695 8.66406C8.23828 7.51172 6.76953 6.83203 6.5 7.03515L6.44531 7.14844C6.44531 7.15234 6.44531 7.14062 6.46094 7.1289C6.50781 7.08984 6.58984 7.08984 6.625 7.08984C7.08594 7.09765 8.40234 7.70312 10.25 8.76172C11.0625 9.23047 13.6719 10.9102 13.6602 11.3789C13.6602 11.418 13.6641 11.4258 13.6484 11.4492L13.7148 11.3477L13.7109 11.3437Z" fill="#FFFF00" stroke="black" stroke-width="0.075" stroke-linecap="round" stroke-linejoin="round"/>
<path d="M7.5249 9.83463C7.52552 10.1581 7.59029 10.4782 7.71545 10.7764C7.84061 11.0747 8.02368 11.3451 8.25407 11.5721C8.48165 11.8032 8.75271 11.987 9.05163 12.1128C9.35054 12.2387 9.67141 12.3042 9.99574 12.3055C10.6521 12.3054 11.2816 12.0446 11.7457 11.5805C11.9753 11.3522 12.1576 11.0808 12.282 10.782C12.4064 10.4831 12.4705 10.1625 12.4708 9.8388V6.53879L7.5249 6.53046V9.83463Z" fill="white" stroke="black" stroke-width="0.0933336"/>
<path d="M7.625 9.8388C7.62588 10.1491 7.68819 10.4561 7.80833 10.7421C7.92848 11.0282 8.10408 11.2876 8.325 11.5055C8.76861 11.9514 9.37101 12.2032 10 12.2055C10.6279 12.2058 11.2303 11.9571 11.675 11.5138C11.8952 11.2956 12.07 11.036 12.1894 10.75C12.3089 10.4639 12.3705 10.1571 12.3708 9.84714V6.63879H7.625V9.8388ZM11.4167 7.6013V9.6388L11.4125 9.8513C11.4139 10.0374 11.3777 10.222 11.3061 10.3938C11.2345 10.5656 11.129 10.7212 10.9958 10.8513C10.7309 11.1172 10.3712 11.2671 9.99584 11.268C9.60417 11.268 9.25834 11.1013 9 10.843C8.73412 10.578 8.58426 10.2183 8.58334 9.84297V7.59296L11.4167 7.6013Z" fill="#FF0000" stroke="black" stroke-width="0.0666669"/>
<path d="M7.9248 7.47627C7.92897 7.2471 8.09147 7.19293 8.09147 7.19293C8.09564 7.19293 8.27064 7.25127 8.27064 7.48043L7.9248 7.47627Z" fill="#FFFF00"/>
<path d="M7.78322 7.1971L7.75405 7.4596H7.92905C7.92905 7.24293 8.09572 7.2096 8.09572 7.2096C8.09989 7.2096 8.26239 7.25543 8.26655 7.4596H8.44156L8.40822 7.19293L7.78322 7.1971ZM7.74155 7.46377H8.44989C8.46239 7.46377 8.47489 7.47627 8.47489 7.49293C8.47489 7.51377 8.46239 7.52627 8.44989 7.52627H7.74155C7.72905 7.52627 7.71655 7.51377 7.71655 7.49293C7.71655 7.47627 7.72905 7.46377 7.74572 7.46377H7.74155Z" fill="#FFFF00" stroke="black" stroke-width="0.0666669"/>
<path d="M7.99982 7.45963C7.99982 7.32213 8.09566 7.28463 8.09566 7.28463C8.09566 7.28463 8.19149 7.3263 8.19149 7.45963H7.99982ZM7.75815 7.08463H8.43732C8.44982 7.08463 8.46232 7.1013 8.46232 7.11796C8.46232 7.13046 8.44982 7.14296 8.43732 7.14296H7.75815C7.74565 7.14296 7.73315 7.13046 7.73315 7.11379C7.73315 7.10129 7.74565 7.0888 7.75815 7.0888V7.08463ZM7.77482 7.14713H8.41649C8.42899 7.14713 8.44149 7.15963 8.44149 7.1763C8.44149 7.19296 8.42899 7.20546 8.41649 7.20546H7.77065C7.75399 7.20546 7.74565 7.19296 7.74565 7.1763C7.74565 7.15963 7.75399 7.14713 7.77065 7.14713H7.77482ZM7.98316 6.70546H8.03316V6.73879H8.07065V6.70546H8.12482V6.74296H8.16232V6.70129H8.21232V6.78463C8.21232 6.80129 8.20399 6.80963 8.19149 6.80963H8.00815C7.99565 6.80963 7.98316 6.80129 7.98316 6.78879V6.70546ZM8.17482 6.81796L8.18732 7.08463H8.00815L8.02065 6.81379H8.17482" fill="#FFFF00"/>
<path d="M8.17482 6.81796L8.18732 7.08463H8.00815L8.02065 6.81379H8.17482M7.99982 7.45963C7.99982 7.32213 8.09566 7.28463 8.09566 7.28463C8.09566 7.28463 8.19149 7.3263 8.19149 7.45963H7.99982ZM7.75815 7.08463H8.43732C8.44982 7.08463 8.46232 7.1013 8.46232 7.11796C8.46232 7.13046 8.44982 7.14296 8.43732 7.14296H7.75815C7.74565 7.14296 7.73315 7.13046 7.73315 7.11379C7.73315 7.10129 7.74565 7.0888 7.75815 7.0888V7.08463ZM7.77482 7.14713H8.41649C8.42899 7.14713 8.44149 7.15963 8.44149 7.1763C8.44149 7.19296 8.42899 7.20546 8.41649 7.20546H7.77065C7.75399 7.20546 7.74565 7.19296 7.74565 7.1763C7.74565 7.15963 7.75399 7.14713 7.77065 7.14713H7.77482ZM7.98316 6.70546H8.03316V6.73879H8.07065V6.70546H8.12482V6.74296H8.16232V6.70129H8.21232V6.78463C8.21232 6.80129 8.20399 6.80963 8.19149 6.80963H8.00815C7.99565 6.80963 7.98316 6.80129 7.98316 6.78879V6.70546Z" stroke="black" stroke-width="0.0666669"/>
<path d="M7.95817 6.94293V7.0846H7.7915V6.94293H7.95817Z" fill="#FFFF00" stroke="black" stroke-width="0.0666669"/>
<path d="M8.39982 6.94293V7.0846H8.23315V6.94293H8.39982Z" fill="#FFFF00" stroke="black" stroke-width="0.0666669"/>
<path d="M7.76245 6.83466H7.81245V6.87632H7.84995V6.83466H7.89995V6.87632H7.93745V6.83466H7.98745V6.91799C7.98745 6.93466 7.97912 6.94299 7.96662 6.94299H7.78745C7.78082 6.94299 7.77446 6.94036 7.76977 6.93567C7.76509 6.93098 7.76245 6.92462 7.76245 6.91799V6.83466Z" fill="#FFFF00" stroke="black" stroke-width="0.0666669"/>
<path d="M8.2041 6.83466H8.2541V6.87632H8.2916V6.83466H8.3416V6.87632H8.3791V6.83466H8.4291V6.91799C8.4291 6.93466 8.42077 6.94299 8.40827 6.94299H8.2291C8.22247 6.94299 8.21611 6.94036 8.21142 6.93567C8.20674 6.93098 8.2041 6.92462 8.2041 6.91799V6.83466Z" fill="#FFFF00" stroke="black" stroke-width="0.0666669"/>
<path d="M8.0791 6.90132C8.0791 6.87632 8.1166 6.87632 8.1166 6.90132V6.96798H8.0791V6.90132Z" fill="#000001"/>
<path d="M7.85815 6.99293C7.85815 6.96793 7.89149 6.96793 7.89149 6.99293V7.04293H7.85815V6.99293Z" fill="#000001"/>
<path d="M8.2998 6.99293C8.2998 6.96793 8.33314 6.96793 8.33314 6.99293V7.04293H8.2998V6.99293Z" fill="#000001"/>
<path d="M7.9248 9.40547C7.92897 9.1763 8.09147 9.12213 8.09147 9.12213C8.09564 9.12213 8.27064 9.18046 8.27064 9.40963L7.9248 9.40547Z" fill="#FFFF00"/>
<path d="M7.78322 9.1263L7.75405 9.3888H7.92905C7.92905 9.17213 8.09572 9.1388 8.09572 9.1388C8.09989 9.1388 8.26239 9.18463 8.26655 9.3888H8.44156L8.40822 9.12213L7.78322 9.1263ZM7.74155 9.39297H8.44989C8.46239 9.39297 8.47489 9.40547 8.47489 9.42213C8.47489 9.44297 8.46239 9.45547 8.44989 9.45547H7.74155C7.72905 9.45547 7.71655 9.44297 7.71655 9.42213C7.71655 9.40547 7.72905 9.39297 7.74572 9.39297H7.74155Z" fill="#FFFF00" stroke="black" stroke-width="0.0666669"/>
<path d="M7.99982 9.38883C7.99982 9.25133 8.09566 9.21383 8.09566 9.21383C8.09566 9.21383 8.19149 9.2555 8.19149 9.38883H7.99982ZM7.75815 9.01383H8.43732C8.44982 9.01383 8.46232 9.03049 8.46232 9.04716C8.46232 9.05966 8.44982 9.07216 8.43732 9.07216H7.75815C7.74565 9.07216 7.73315 9.05966 7.73315 9.04299C7.73315 9.03049 7.74565 9.01799 7.75815 9.01799V9.01383ZM7.77482 9.07633H8.41649C8.42899 9.07633 8.44149 9.08883 8.44149 9.10549C8.44149 9.12216 8.42899 9.13466 8.41649 9.13466H7.77065C7.75399 9.13466 7.74565 9.12216 7.74565 9.10549C7.74565 9.08883 7.75399 9.07633 7.77065 9.07633H7.77482ZM7.98316 8.63466H8.03316V8.66799H8.07065V8.63466H8.12482V8.67216H8.16232V8.63049H8.21232V8.71383C8.21232 8.73049 8.20399 8.73883 8.19149 8.73883H8.00815C7.99565 8.73883 7.98316 8.73049 7.98316 8.71799V8.63466ZM8.17482 8.74716L8.18732 9.01383H8.00815L8.02065 8.74299H8.17482" fill="#FFFF00"/>
<path d="M8.17482 8.74716L8.18732 9.01383H8.00815L8.02065 8.74299H8.17482M7.99982 9.38883C7.99982 9.25133 8.09566 9.21383 8.09566 9.21383C8.09566 9.21383 8.19149 9.2555 8.19149 9.38883H7.99982ZM7.75815 9.01383H8.43732C8.44982 9.01383 8.46232 9.03049 8.46232 9.04716C8.46232 9.05966 8.44982 9.07216 8.43732 9.07216H7.75815C7.74565 9.07216 7.73315 9.05966 7.73315 9.04299C7.73315 9.03049 7.74565 9.01799 7.75815 9.01799V9.01383ZM7.77482 9.07633H8.41649C8.42899 9.07633 8.44149 9.08883 8.44149 9.10549C8.44149 9.12216 8.42899 9.13466 8.41649 9.13466H7.77065C7.75399 9.13466 7.74565 9.12216 7.74565 9.10549C7.74565 9.08883 7.75399 9.07633 7.77065 9.07633H7.77482ZM7.98316 8.63466H8.03316V8.66799H8.07065V8.63466H8.12482V8.67216H8.16232V8.63049H8.21232V8.71383C8.21232 8.73049 8.20399 8.73883 8.19149 8.73883H8.00815C7.99565 8.73883 7.98316 8.73049 7.98316 8.71799V8.63466Z" stroke="black" stroke-width="0.0666669"/>
<path d="M7.95817 8.87213V9.0138H7.7915V8.87213H7.95817Z" fill="#FFFF00" stroke="black" stroke-width="0.0666669"/>
<path d="M8.39982 8.87213V9.0138H8.23315V8.87213H8.39982Z" fill="#FFFF00" stroke="black" stroke-width="0.0666669"/>
<path d="M7.76245 8.76385H7.81245V8.80552H7.84995V8.76385H7.89995V8.80552H7.93745V8.76385H7.98745V8.84719C7.98745 8.86386 7.97912 8.87219 7.96662 8.87219H7.78745C7.78082 8.87219 7.77446 8.86955 7.76977 8.86487C7.76509 8.86018 7.76245 8.85382 7.76245 8.84719V8.76385Z" fill="#FFFF00" stroke="black" stroke-width="0.0666669"/>
<path d="M8.2041 8.76385H8.2541V8.80552H8.2916V8.76385H8.3416V8.80552H8.3791V8.76385H8.4291V8.84719C8.4291 8.86386 8.42077 8.87219 8.40827 8.87219H8.2291C8.22247 8.87219 8.21611 8.86955 8.21142 8.86487C8.20674 8.86018 8.2041 8.85382 8.2041 8.84719V8.76385Z" fill="#FFFF00" stroke="black" stroke-width="0.0666669"/>
<path d="M8.0791 8.83052C8.0791 8.80552 8.1166 8.80552 8.1166 8.83052V8.89718H8.0791V8.83052Z" fill="#000001"/>
<path d="M7.85815 8.92213C7.85815 8.89713 7.89149 8.89713 7.89149 8.92213V8.97213H7.85815V8.92213Z" fill="#000001"/>
<path d="M8.2998 8.92213C8.2998 8.89713 8.33314 8.89713 8.33314 8.92213V8.97213H8.2998V8.92213Z" fill="#000001"/>
<path d="M8.67688 11.4161C8.5172 11.2516 8.59327 11.0982 8.59327 11.0982C8.59621 11.0952 8.76091 11.0121 8.92352 11.1736L8.67688 11.4161Z" fill="#FFFF00"/>
<path d="M8.37903 11.3199L8.54474 11.5256L8.66806 11.4014C8.51432 11.2487 8.6081 11.107 8.6081 11.107C8.61104 11.104 8.75806 11.021 8.90587 11.1619L9.02918 11.0377L8.81648 10.8735L8.37903 11.3199ZM8.53889 11.5374L9.03801 11.0347C9.04682 11.0259 9.0645 11.0258 9.07632 11.0376C9.09111 11.0522 9.09117 11.0699 9.08236 11.0788L8.58324 11.5814C8.57443 11.5903 8.55676 11.5903 8.54197 11.5756C8.53015 11.5639 8.53009 11.5462 8.54183 11.5344L8.53889 11.5374Z" fill="#FFFF00" stroke="black" stroke-width="0.0666669"/>
<path d="M8.71794 11.3511C8.62037 11.2542 8.66129 11.1598 8.66129 11.1598C8.66129 11.1598 8.75838 11.1212 8.85299 11.2151L8.71794 11.3511ZM8.28156 11.2584L8.76013 10.7764C8.76894 10.7676 8.78957 10.7704 8.8014 10.7822C8.81027 10.791 8.81033 10.8087 8.80152 10.8175L8.32295 11.2995C8.31415 11.3083 8.29647 11.3084 8.28464 11.2966C8.27577 11.2878 8.27571 11.2702 8.28452 11.2613L8.28156 11.2584ZM8.33765 11.2906L8.7898 10.8353C8.7986 10.8264 8.81628 10.8263 8.82811 10.8381C8.83993 10.8498 8.84 10.8675 8.83119 10.8764L8.37611 11.3346C8.36437 11.3465 8.34962 11.3436 8.3378 11.3318C8.32597 11.3201 8.32297 11.3053 8.33472 11.2935L8.33765 11.2906ZM8.17106 10.8315L8.20629 10.796L8.22994 10.8195L8.25637 10.7929L8.23271 10.7694L8.27088 10.731L8.29749 10.7574L8.32392 10.7308L8.29435 10.7015L8.32958 10.666L8.38871 10.7247C8.40054 10.7364 8.40058 10.7482 8.39177 10.7571L8.26259 10.8872C8.25378 10.8961 8.23906 10.8991 8.23019 10.8902L8.17106 10.8315ZM8.38594 10.7748L8.58397 10.9538L8.45772 11.081L8.27435 10.8813L8.38298 10.7719" fill="#FFFF00"/>
<path d="M8.38594 10.7748L8.58397 10.9538L8.45772 11.081L8.27435 10.8813L8.38298 10.7719M8.71794 11.3511C8.62037 11.2542 8.66129 11.1598 8.66129 11.1598C8.66129 11.1598 8.75838 11.1212 8.85299 11.2151L8.71794 11.3511ZM8.28156 11.2584L8.76013 10.7764C8.76894 10.7676 8.78957 10.7704 8.8014 10.7822C8.81027 10.791 8.81033 10.8087 8.80152 10.8175L8.32295 11.2995C8.31415 11.3083 8.29647 11.3084 8.28464 11.2966C8.27577 11.2878 8.27571 11.2702 8.28452 11.2613L8.28156 11.2584ZM8.33765 11.2906L8.7898 10.8353C8.7986 10.8264 8.81628 10.8263 8.82811 10.8381C8.83993 10.8498 8.84 10.8675 8.83119 10.8764L8.37611 11.3346C8.36437 11.3465 8.34962 11.3436 8.3378 11.3318C8.32597 11.3201 8.32297 11.3053 8.33472 11.2935L8.33765 11.2906ZM8.17106 10.8315L8.20629 10.796L8.22994 10.8195L8.25637 10.7929L8.23271 10.7694L8.27088 10.731L8.29749 10.7574L8.32392 10.7308L8.29435 10.7015L8.32958 10.666L8.38871 10.7247C8.40054 10.7364 8.40058 10.7482 8.39177 10.7571L8.26259 10.8872C8.25378 10.8961 8.23906 10.8991 8.23019 10.8902L8.17106 10.8315Z" stroke="black" stroke-width="0.0666669"/>
<path d="M8.32203 11.0166L8.42255 11.1164L8.30511 11.2347L8.20459 11.1349L8.32203 11.0166Z" fill="#FFFF00" stroke="black" stroke-width="0.0666669"/>
<path d="M8.63331 10.7032L8.73383 10.803L8.61639 10.9213L8.51587 10.8215L8.63331 10.7032Z" fill="#FFFF00" stroke="black" stroke-width="0.0666669"/>
<path d="M8.10718 11.0792L8.14241 11.0437L8.17198 11.0731L8.1984 11.0465L8.16883 11.0171L8.20407 10.9817L8.23363 11.011L8.26005 10.9844L8.23049 10.955L8.26572 10.9196L8.32485 10.9783C8.33668 10.99 8.33672 11.0018 8.32791 11.0107L8.20166 11.1378C8.19699 11.1425 8.19064 11.1452 8.18401 11.1452C8.17738 11.1452 8.17101 11.1426 8.16631 11.1379L8.10718 11.0792Z" fill="#FFFF00" stroke="black" stroke-width="0.0666669"/>
<path d="M8.41846 10.7659L8.45369 10.7304L8.48325 10.7598L8.50968 10.7331L8.48011 10.7038L8.51534 10.6683L8.54491 10.6977L8.57133 10.6711L8.54177 10.6417L8.577 10.6062L8.63613 10.6649C8.64796 10.6767 8.648 10.6885 8.63919 10.6973L8.51294 10.8245C8.50827 10.8292 8.50192 10.8318 8.49529 10.8318C8.48866 10.8319 8.48229 10.8293 8.47759 10.8246L8.41846 10.7659Z" fill="#FFFF00" stroke="black" stroke-width="0.0666669"/>
<path d="M8.37756 10.9015C8.35982 10.8839 8.38625 10.8573 8.40399 10.8749L8.45129 10.9219L8.42487 10.9485L8.37756 10.9015Z" fill="#000001"/>
<path d="M8.28699 11.1228C8.26925 11.1052 8.29273 11.0816 8.31047 11.0992L8.34595 11.1344L8.32246 11.1581L8.28699 11.1228Z" fill="#000001"/>
<path d="M8.59827 10.8094C8.58053 10.7918 8.60401 10.7681 8.62175 10.7858L8.65723 10.821L8.63374 10.8446L8.59827 10.8094Z" fill="#000001"/>
<path d="M9.8291 7.47627C9.83327 7.2471 9.99577 7.19293 9.99577 7.19293C9.99994 7.19293 10.1749 7.25127 10.1749 7.48043L9.8291 7.47627Z" fill="#FFFF00"/>
<path d="M9.68752 7.1971L9.65835 7.4596H9.83335C9.83335 7.24293 10 7.2096 10 7.2096C10.0042 7.2096 10.1667 7.25543 10.1709 7.4596H10.3459L10.3125 7.19293L9.68752 7.1971ZM9.64585 7.46377H10.3542C10.3667 7.46377 10.3792 7.47627 10.3792 7.49293C10.3792 7.51377 10.3667 7.52627 10.3542 7.52627H9.64585C9.63335 7.52627 9.62085 7.51377 9.62085 7.49293C9.62085 7.47627 9.63335 7.46377 9.65002 7.46377H9.64585Z" fill="#FFFF00" stroke="black" stroke-width="0.0666669"/>
<path d="M9.90412 7.45963C9.90412 7.32213 9.99995 7.28463 9.99995 7.28463C9.99995 7.28463 10.0958 7.3263 10.0958 7.45963H9.90412ZM9.66245 7.08463H10.3416C10.3541 7.08463 10.3666 7.1013 10.3666 7.11796C10.3666 7.13046 10.3541 7.14296 10.3416 7.14296H9.66245C9.64995 7.14296 9.63745 7.13046 9.63745 7.11379C9.63745 7.10129 9.64995 7.0888 9.66245 7.0888V7.08463ZM9.67912 7.14713H10.3208C10.3333 7.14713 10.3458 7.15963 10.3458 7.1763C10.3458 7.19296 10.3333 7.20546 10.3208 7.20546H9.67495C9.65828 7.20546 9.64995 7.19296 9.64995 7.1763C9.64995 7.15963 9.65828 7.14713 9.67495 7.14713H9.67912ZM9.88745 6.70546H9.93745V6.73879H9.97495V6.70546H10.0291V6.74296H10.0666V6.70129H10.1166V6.78463C10.1166 6.80129 10.1083 6.80963 10.0958 6.80963H9.91245C9.89995 6.80963 9.88745 6.80129 9.88745 6.78879V6.70546ZM10.0791 6.81796L10.0916 7.08463H9.91245L9.92495 6.81379H10.0791" fill="#FFFF00"/>
<path d="M10.0791 6.81796L10.0916 7.08463H9.91245L9.92495 6.81379H10.0791M9.90412 7.45963C9.90412 7.32213 9.99995 7.28463 9.99995 7.28463C9.99995 7.28463 10.0958 7.3263 10.0958 7.45963H9.90412ZM9.66245 7.08463H10.3416C10.3541 7.08463 10.3666 7.1013 10.3666 7.11796C10.3666 7.13046 10.3541 7.14296 10.3416 7.14296H9.66245C9.64995 7.14296 9.63745 7.13046 9.63745 7.11379C9.63745 7.10129 9.64995 7.0888 9.66245 7.0888V7.08463ZM9.67912 7.14713H10.3208C10.3333 7.14713 10.3458 7.15963 10.3458 7.1763C10.3458 7.19296 10.3333 7.20546 10.3208 7.20546H9.67495C9.65828 7.20546 9.64995 7.19296 9.64995 7.1763C9.64995 7.15963 9.65828 7.14713 9.67495 7.14713H9.67912ZM9.88745 6.70546H9.93745V6.73879H9.97495V6.70546H10.0291V6.74296H10.0666V6.70129H10.1166V6.78463C10.1166 6.80129 10.1083 6.80963 10.0958 6.80963H9.91245C9.89995 6.80963 9.88745 6.80129 9.88745 6.78879V6.70546Z" stroke="black" stroke-width="0.0666669"/>
<path d="M9.86247 6.94293V7.0846H9.6958V6.94293H9.86247Z" fill="#FFFF00" stroke="black" stroke-width="0.0666669"/>
<path d="M10.3041 6.94293V7.0846H10.1375V6.94293H10.3041Z" fill="#FFFF00" stroke="black" stroke-width="0.0666669"/>
<path d="M9.66675 6.83466H9.71675V6.87632H9.75425V6.83466H9.80425V6.87632H9.84175V6.83466H9.89175V6.91799C9.89175 6.93466 9.88342 6.94299 9.87092 6.94299H9.69175C9.68512 6.94299 9.67876 6.94036 9.67407 6.93567C9.66938 6.93098 9.66675 6.92462 9.66675 6.91799V6.83466Z" fill="#FFFF00" stroke="black" stroke-width="0.0666669"/>
<path d="M10.1084 6.83466H10.1584V6.87632H10.1959V6.83466H10.2459V6.87632H10.2834V6.83466H10.3334V6.91799C10.3334 6.93466 10.3251 6.94299 10.3126 6.94299H10.1334C10.1268 6.94299 10.1204 6.94036 10.1157 6.93567C10.111 6.93098 10.1084 6.92462 10.1084 6.91799V6.83466Z" fill="#FFFF00" stroke="black" stroke-width="0.0666669"/>
<path d="M9.9834 6.90132C9.9834 6.87632 10.0209 6.87632 10.0209 6.90132V6.96798H9.9834V6.90132Z" fill="#000001"/>
<path d="M9.76245 6.99293C9.76245 6.96793 9.79578 6.96793 9.79578 6.99293V7.04293H9.76245V6.99293Z" fill="#000001"/>
<path d="M10.2041 6.99293C10.2041 6.96793 10.2374 6.96793 10.2374 6.99293V7.04293H10.2041V6.99293Z" fill="#000001"/>
<path d="M12.0667 7.47627C12.0625 7.2471 11.9 7.19293 11.9 7.19293C11.8958 7.19293 11.7208 7.25127 11.7208 7.48043L12.0667 7.47627Z" fill="#FFFF00"/>
<path d="M12.2082 7.1971L12.2374 7.4596H12.0624C12.0624 7.24293 11.8957 7.2096 11.8957 7.2096C11.8916 7.2096 11.7291 7.25543 11.7249 7.4596H11.5499L11.5832 7.19293L12.2082 7.1971ZM12.2499 7.46377H11.5416C11.5291 7.46377 11.5166 7.47627 11.5166 7.49293C11.5166 7.51377 11.5291 7.52627 11.5416 7.52627H12.2499C12.2624 7.52627 12.2749 7.51377 12.2749 7.49293C12.2749 7.47627 12.2624 7.46377 12.2457 7.46377H12.2499Z" fill="#FFFF00" stroke="black" stroke-width="0.0666669"/>
<path d="M11.9916 7.45963C11.9916 7.32213 11.8958 7.28463 11.8958 7.28463C11.8958 7.28463 11.8 7.3263 11.8 7.45963H11.9916ZM12.2333 7.08463H11.5541C11.5416 7.08463 11.5291 7.1013 11.5291 7.11796C11.5291 7.13046 11.5416 7.14296 11.5541 7.14296H12.2333C12.2458 7.14296 12.2583 7.13046 12.2583 7.11379C12.2583 7.10129 12.2458 7.0888 12.2333 7.0888V7.08463ZM12.2166 7.14713H11.575C11.5625 7.14713 11.55 7.15963 11.55 7.1763C11.55 7.19296 11.5625 7.20546 11.575 7.20546H12.2208C12.2375 7.20546 12.2458 7.19296 12.2458 7.1763C12.2458 7.15963 12.2375 7.14713 12.2208 7.14713H12.2166ZM12.0083 6.70546H11.9583V6.73879H11.9208V6.70546H11.8666V6.74296H11.8291V6.70129H11.7791V6.78463C11.7791 6.80129 11.7875 6.80963 11.8 6.80963H11.9833C11.9958 6.80963 12.0083 6.80129 12.0083 6.78879V6.70546ZM11.8166 6.81796L11.8041 7.08463H11.9833L11.9708 6.81379H11.8166" fill="#FFFF00"/>
<path d="M11.8166 6.81796L11.8041 7.08463H11.9833L11.9708 6.81379H11.8166M11.9916 7.45963C11.9916 7.32213 11.8958 7.28463 11.8958 7.28463C11.8958 7.28463 11.8 7.3263 11.8 7.45963H11.9916ZM12.2333 7.08463H11.5541C11.5416 7.08463 11.5291 7.1013 11.5291 7.11796C11.5291 7.13046 11.5416 7.14296 11.5541 7.14296H12.2333C12.2458 7.14296 12.2583 7.13046 12.2583 7.11379C12.2583 7.10129 12.2458 7.0888 12.2333 7.0888V7.08463ZM12.2166 7.14713H11.575C11.5625 7.14713 11.55 7.15963 11.55 7.1763C11.55 7.19296 11.5625 7.20546 11.575 7.20546H12.2208C12.2375 7.20546 12.2458 7.19296 12.2458 7.1763C12.2458 7.15963 12.2375 7.14713 12.2208 7.14713H12.2166ZM12.0083 6.70546H11.9583V6.73879H11.9208V6.70546H11.8666V6.74296H11.8291V6.70129H11.7791V6.78463C11.7791 6.80129 11.7875 6.80963 11.8 6.80963H11.9833C11.9958 6.80963 12.0083 6.80129 12.0083 6.78879V6.70546Z" stroke="black" stroke-width="0.0666669"/>
<path d="M12.0333 6.94293V7.0846H12.2V6.94293H12.0333Z" fill="#FFFF00" stroke="black" stroke-width="0.0666669"/>
<path d="M11.5916 6.94293V7.0846H11.7583V6.94293H11.5916Z" fill="#FFFF00" stroke="black" stroke-width="0.0666669"/>
<path d="M12.229 6.83466H12.179V6.87632H12.1415V6.83466H12.0915V6.87632H12.054V6.83466H12.004V6.91799C12.004 6.93466 12.0123 6.94299 12.0248 6.94299H12.204C12.2106 6.94299 12.217 6.94036 12.2217 6.93567C12.2264 6.93098 12.229 6.92462 12.229 6.91799V6.83466Z" fill="#FFFF00" stroke="black" stroke-width="0.0666669"/>
<path d="M11.7874 6.83466H11.7374V6.87632H11.6999V6.83466H11.6499V6.87632H11.6124V6.83466H11.5624V6.91799C11.5624 6.93466 11.5707 6.94299 11.5832 6.94299H11.7624C11.769 6.94299 11.7753 6.94036 11.78 6.93567C11.7847 6.93098 11.7874 6.92462 11.7874 6.91799V6.83466Z" fill="#FFFF00" stroke="black" stroke-width="0.0666669"/>
<path d="M11.9124 6.90132C11.9124 6.87632 11.8749 6.87632 11.8749 6.90132V6.96798H11.9124V6.90132Z" fill="#000001"/>
<path d="M12.1333 6.99293C12.1333 6.96793 12.1 6.96793 12.1 6.99293V7.04293H12.1333V6.99293Z" fill="#000001"/>
<path d="M11.6917 6.99293C11.6917 6.96793 11.6583 6.96793 11.6583 6.99293V7.04293H11.6917V6.99293Z" fill="#000001"/>
<path d="M12.0667 9.40547C12.0625 9.1763 11.9 9.12213 11.9 9.12213C11.8958 9.12213 11.7208 9.18046 11.7208 9.40963L12.0667 9.40547Z" fill="#FFFF00"/>
<path d="M12.2082 9.1263L12.2374 9.3888H12.0624C12.0624 9.17213 11.8957 9.1388 11.8957 9.1388C11.8916 9.1388 11.7291 9.18463 11.7249 9.3888H11.5499L11.5832 9.12213L12.2082 9.1263ZM12.2499 9.39297H11.5416C11.5291 9.39297 11.5166 9.40547 11.5166 9.42213C11.5166 9.44297 11.5291 9.45547 11.5416 9.45547H12.2499C12.2624 9.45547 12.2749 9.44297 12.2749 9.42213C12.2749 9.40547 12.2624 9.39297 12.2457 9.39297H12.2499Z" fill="#FFFF00" stroke="black" stroke-width="0.0666669"/>
<path d="M11.9916 9.38883C11.9916 9.25133 11.8958 9.21383 11.8958 9.21383C11.8958 9.21383 11.8 9.2555 11.8 9.38883H11.9916ZM12.2333 9.01383H11.5541C11.5416 9.01383 11.5291 9.03049 11.5291 9.04716C11.5291 9.05966 11.5416 9.07216 11.5541 9.07216H12.2333C12.2458 9.07216 12.2583 9.05966 12.2583 9.04299C12.2583 9.03049 12.2458 9.01799 12.2333 9.01799V9.01383ZM12.2166 9.07633H11.575C11.5625 9.07633 11.55 9.08883 11.55 9.10549C11.55 9.12216 11.5625 9.13466 11.575 9.13466H12.2208C12.2375 9.13466 12.2458 9.12216 12.2458 9.10549C12.2458 9.08883 12.2375 9.07633 12.2208 9.07633H12.2166ZM12.0083 8.63466H11.9583V8.66799H11.9208V8.63466H11.8666V8.67216H11.8291V8.63049H11.7791V8.71383C11.7791 8.73049 11.7875 8.73883 11.8 8.73883H11.9833C11.9958 8.73883 12.0083 8.73049 12.0083 8.71799V8.63466ZM11.8166 8.74716L11.8041 9.01383H11.9833L11.9708 8.74299H11.8166" fill="#FFFF00"/>
<path d="M11.8166 8.74716L11.8041 9.01383H11.9833L11.9708 8.74299H11.8166M11.9916 9.38883C11.9916 9.25133 11.8958 9.21383 11.8958 9.21383C11.8958 9.21383 11.8 9.2555 11.8 9.38883H11.9916ZM12.2333 9.01383H11.5541C11.5416 9.01383 11.5291 9.03049 11.5291 9.04716C11.5291 9.05966 11.5416 9.07216 11.5541 9.07216H12.2333C12.2458 9.07216 12.2583 9.05966 12.2583 9.04299C12.2583 9.03049 12.2458 9.01799 12.2333 9.01799V9.01383ZM12.2166 9.07633H11.575C11.5625 9.07633 11.55 9.08883 11.55 9.10549C11.55 9.12216 11.5625 9.13466 11.575 9.13466H12.2208C12.2375 9.13466 12.2458 9.12216 12.2458 9.10549C12.2458 9.08883 12.2375 9.07633 12.2208 9.07633H12.2166ZM12.0083 8.63466H11.9583V8.66799H11.9208V8.63466H11.8666V8.67216H11.8291V8.63049H11.7791V8.71383C11.7791 8.73049 11.7875 8.73883 11.8 8.73883H11.9833C11.9958 8.73883 12.0083 8.73049 12.0083 8.71799V8.63466Z" stroke="black" stroke-width="0.0666669"/>
<path d="M12.0333 8.87213V9.0138H12.2V8.87213H12.0333Z" fill="#FFFF00" stroke="black" stroke-width="0.0666669"/>
<path d="M11.5916 8.87213V9.0138H11.7583V8.87213H11.5916Z" fill="#FFFF00" stroke="black" stroke-width="0.0666669"/>
<path d="M12.229 8.76385H12.179V8.80552H12.1415V8.76385H12.0915V8.80552H12.054V8.76385H12.004V8.84719C12.004 8.86386 12.0123 8.87219 12.0248 8.87219H12.204C12.2106 8.87219 12.217 8.86955 12.2217 8.86487C12.2264 8.86018 12.229 8.85382 12.229 8.84719V8.76385Z" fill="#FFFF00" stroke="black" stroke-width="0.0666669"/>
<path d="M11.7874 8.76385H11.7374V8.80552H11.6999V8.76385H11.6499V8.80552H11.6124V8.76385H11.5624V8.84719C11.5624 8.86386 11.5707 8.87219 11.5832 8.87219H11.7624C11.769 8.87219 11.7753 8.86955 11.78 8.86487C11.7847 8.86018 11.7874 8.85382 11.7874 8.84719V8.76385Z" fill="#FFFF00" stroke="black" stroke-width="0.0666669"/>
<path d="M11.9124 8.83052C11.9124 8.80552 11.8749 8.80552 11.8749 8.83052V8.89718H11.9124V8.83052Z" fill="#000001"/>
<path d="M12.1333 8.92213C12.1333 8.89713 12.1 8.89713 12.1 8.92213V8.97213H12.1333V8.92213Z" fill="#000001"/>
<path d="M11.6917 8.92213C11.6917 8.89713 11.6583 8.89713 11.6583 8.92213V8.97213H11.6917V8.92213Z" fill="#000001"/>
<path d="M11.3146 11.4161C11.4743 11.2516 11.3982 11.0982 11.3982 11.0982C11.3952 11.0952 11.2305 11.0121 11.0679 11.1736L11.3146 11.4161Z" fill="#FFFF00"/>
<path d="M11.6124 11.3199L11.4467 11.5256L11.3234 11.4014C11.4771 11.2487 11.3834 11.107 11.3834 11.107C11.3804 11.104 11.2334 11.021 11.0856 11.1619L10.9623 11.0377L11.175 10.8735L11.6124 11.3199ZM11.4526 11.5374L10.9534 11.0347C10.9446 11.0259 10.927 11.0258 10.9151 11.0376C10.9003 11.0522 10.9003 11.0699 10.9091 11.0788L11.4082 11.5814C11.417 11.5903 11.4347 11.5903 11.4495 11.5756C11.4613 11.5639 11.4614 11.5462 11.4496 11.5344L11.4526 11.5374Z" fill="#FFFF00" stroke="black" stroke-width="0.0666669"/>
<path d="M11.2735 11.3511C11.3711 11.2542 11.3302 11.1598 11.3302 11.1598C11.3302 11.1598 11.2331 11.1212 11.1385 11.2151L11.2735 11.3511ZM11.7099 11.2584L11.2313 10.7764C11.2225 10.7676 11.2019 10.7704 11.1901 10.7822C11.1812 10.791 11.1811 10.8087 11.1899 10.8175L11.6685 11.2995C11.6773 11.3083 11.695 11.3084 11.7068 11.2966C11.7157 11.2878 11.7157 11.2702 11.7069 11.2613L11.7099 11.2584ZM11.6538 11.2906L11.2017 10.8353C11.1929 10.8264 11.1752 10.8263 11.1633 10.8381C11.1515 10.8498 11.1515 10.8675 11.1603 10.8764L11.6153 11.3346C11.6271 11.3465 11.6418 11.3436 11.6537 11.3318C11.6655 11.3201 11.6685 11.3053 11.6567 11.2935L11.6538 11.2906ZM11.8204 10.8315L11.7852 10.796L11.7615 10.8195L11.7351 10.7929L11.7587 10.7694L11.7206 10.731L11.694 10.7574L11.6675 10.7308L11.6971 10.7015L11.6619 10.666L11.6027 10.7247C11.5909 10.7364 11.5909 10.7482 11.5997 10.7571L11.7289 10.8872C11.7377 10.8961 11.7524 10.8991 11.7613 10.8902L11.8204 10.8315ZM11.6055 10.7748L11.4075 10.9538L11.5337 11.081L11.7171 10.8813L11.6085 10.7719" fill="#FFFF00"/>
<path d="M11.6055 10.7748L11.4075 10.9538L11.5337 11.081L11.7171 10.8813L11.6085 10.7719M11.2735 11.3511C11.3711 11.2542 11.3302 11.1598 11.3302 11.1598C11.3302 11.1598 11.2331 11.1212 11.1385 11.2151L11.2735 11.3511ZM11.7099 11.2584L11.2313 10.7764C11.2225 10.7676 11.2019 10.7704 11.1901 10.7822C11.1812 10.791 11.1811 10.8087 11.1899 10.8175L11.6685 11.2995C11.6773 11.3083 11.695 11.3084 11.7068 11.2966C11.7157 11.2878 11.7157 11.2702 11.7069 11.2613L11.7099 11.2584ZM11.6538 11.2906L11.2017 10.8353C11.1929 10.8264 11.1752 10.8263 11.1633 10.8381C11.1515 10.8498 11.1515 10.8675 11.1603 10.8764L11.6153 11.3346C11.6271 11.3465 11.6418 11.3436 11.6537 11.3318C11.6655 11.3201 11.6685 11.3053 11.6567 11.2935L11.6538 11.2906ZM11.8204 10.8315L11.7852 10.796L11.7615 10.8195L11.7351 10.7929L11.7587 10.7694L11.7206 10.731L11.694 10.7574L11.6675 10.7308L11.6971 10.7015L11.6619 10.666L11.6027 10.7247C11.5909 10.7364 11.5909 10.7482 11.5997 10.7571L11.7289 10.8872C11.7377 10.8961 11.7524 10.8991 11.7613 10.8902L11.8204 10.8315Z" stroke="black" stroke-width="0.0666669"/>
<path d="M11.6694 11.0166L11.5689 11.1164L11.6863 11.2347L11.7869 11.1349L11.6694 11.0166Z" fill="#FFFF00" stroke="black" stroke-width="0.0666669"/>
<path d="M11.3581 10.7032L11.2576 10.803L11.3751 10.9213L11.4756 10.8215L11.3581 10.7032Z" fill="#FFFF00" stroke="black" stroke-width="0.0666669"/>
<path d="M11.8843 11.0792L11.849 11.0437L11.8195 11.0731L11.7931 11.0465L11.8226 11.0171L11.7874 10.9817L11.7578 11.011L11.7314 10.9844L11.761 10.955L11.7257 10.9196L11.6666 10.9783C11.6548 10.99 11.6547 11.0018 11.6635 11.0107L11.7898 11.1378C11.7945 11.1425 11.8008 11.1452 11.8074 11.1452C11.8141 11.1452 11.8204 11.1426 11.8251 11.1379L11.8843 11.0792Z" fill="#FFFF00" stroke="black" stroke-width="0.0666669"/>
<path d="M11.573 10.7659L11.5378 10.7304L11.5082 10.7598L11.4818 10.7331L11.5113 10.7038L11.4761 10.6683L11.4465 10.6977L11.4201 10.6711L11.4497 10.6417L11.4145 10.6062L11.3553 10.6649C11.3435 10.6767 11.3435 10.6885 11.3523 10.6973L11.4785 10.8245C11.4832 10.8292 11.4895 10.8318 11.4962 10.8318C11.5028 10.8319 11.5092 10.8293 11.5139 10.8246L11.573 10.7659Z" fill="#FFFF00" stroke="black" stroke-width="0.0666669"/>
<path d="M11.6139 10.9015C11.6316 10.8839 11.6052 10.8573 11.5875 10.8749L11.5402 10.9219L11.5666 10.9485L11.6139 10.9015Z" fill="#000001"/>
<path d="M11.7045 11.1228C11.7222 11.1052 11.6987 11.0816 11.681 11.0992L11.6455 11.1344L11.669 11.1581L11.7045 11.1228Z" fill="#000001"/>
<path d="M11.3932 10.8094C11.4109 10.7918 11.3874 10.7681 11.3697 10.7858L11.3342 10.821L11.3577 10.8446L11.3932 10.8094Z" fill="#000001"/>
<path d="M9.69166 9.47631C9.69091 9.56425 9.72369 9.64918 9.78333 9.71381C9.81116 9.74492 9.84517 9.76989 9.8832 9.78711C9.92122 9.80433 9.96242 9.81342 10.0042 9.81381C10.0917 9.81381 10.1708 9.77214 10.225 9.71381C10.2846 9.64918 10.3174 9.56425 10.3167 9.47631V9.02631H9.69166V9.47631Z" fill="#003399"/>
<path d="M9.8374 9.25964C9.87192 9.25964 9.8999 9.23166 9.8999 9.19714C9.8999 9.16263 9.87192 9.13464 9.8374 9.13464C9.80288 9.13464 9.7749 9.16263 9.7749 9.19714C9.7749 9.23166 9.80288 9.25964 9.8374 9.25964Z" fill="white"/>
<path d="M10.1833 9.25964C10.2179 9.25964 10.2458 9.23166 10.2458 9.19714C10.2458 9.16263 10.2179 9.13464 10.1833 9.13464C10.1488 9.13464 10.1208 9.16263 10.1208 9.19714C10.1208 9.23166 10.1488 9.25964 10.1833 9.25964Z" fill="white"/>
<path d="M10.0083 9.42633C10.0428 9.42633 10.0708 9.39835 10.0708 9.36383C10.0708 9.32931 10.0428 9.30133 10.0083 9.30133C9.97378 9.30133 9.9458 9.32931 9.9458 9.36383C9.9458 9.39835 9.97378 9.42633 10.0083 9.42633Z" fill="white"/>
<path d="M9.8374 9.60132C9.87192 9.60132 9.8999 9.57334 9.8999 9.53882C9.8999 9.5043 9.87192 9.47632 9.8374 9.47632C9.80288 9.47632 9.7749 9.5043 9.7749 9.53882C9.7749 9.57334 9.80288 9.60132 9.8374 9.60132Z" fill="white"/>
<path d="M10.1833 9.60132C10.2179 9.60132 10.2458 9.57334 10.2458 9.53882C10.2458 9.5043 10.2179 9.47632 10.1833 9.47632C10.1488 9.47632 10.1208 9.5043 10.1208 9.53882C10.1208 9.57334 10.1488 9.60132 10.1833 9.60132Z" fill="white"/>
<path d="M9.69166 8.39293C9.69091 8.48088 9.72369 8.5658 9.78333 8.63043C9.81116 8.66155 9.84517 8.68651 9.8832 8.70373C9.92122 8.72095 9.96242 8.73005 10.0042 8.73043C10.0917 8.73043 10.1708 8.68877 10.225 8.63043C10.2846 8.5658 10.3174 8.48088 10.3167 8.39293V7.94293H9.69166V8.39293Z" fill="#003399"/>
<path d="M9.8374 8.17627C9.87192 8.17627 9.8999 8.14829 9.8999 8.11377C9.8999 8.07925 9.87192 8.05127 9.8374 8.05127C9.80288 8.05127 9.7749 8.07925 9.7749 8.11377C9.7749 8.14829 9.80288 8.17627 9.8374 8.17627Z" fill="white"/>
<path d="M10.1833 8.17627C10.2179 8.17627 10.2458 8.14829 10.2458 8.11377C10.2458 8.07925 10.2179 8.05127 10.1833 8.05127C10.1488 8.05127 10.1208 8.07925 10.1208 8.11377C10.1208 8.14829 10.1488 8.17627 10.1833 8.17627Z" fill="white"/>
<path d="M10.0083 8.34296C10.0428 8.34296 10.0708 8.31497 10.0708 8.28046C10.0708 8.24594 10.0428 8.21796 10.0083 8.21796C9.97378 8.21796 9.9458 8.24594 9.9458 8.28046C9.9458 8.31497 9.97378 8.34296 10.0083 8.34296Z" fill="white"/>
<path d="M9.8374 8.51794C9.87192 8.51794 9.8999 8.48996 9.8999 8.45544C9.8999 8.42093 9.87192 8.39294 9.8374 8.39294C9.80288 8.39294 9.7749 8.42093 9.7749 8.45544C9.7749 8.48996 9.80288 8.51794 9.8374 8.51794Z" fill="white"/>
<path d="M10.1833 8.51794C10.2179 8.51794 10.2458 8.48996 10.2458 8.45544C10.2458 8.42093 10.2179 8.39294 10.1833 8.39294C10.1488 8.39294 10.1208 8.42093 10.1208 8.45544C10.1208 8.48996 10.1488 8.51794 10.1833 8.51794Z" fill="white"/>
<path d="M8.82496 9.47631C8.82421 9.56425 8.85699 9.64918 8.91663 9.71381C8.94446 9.74492 8.97847 9.76989 9.0165 9.78711C9.05452 9.80433 9.09572 9.81342 9.13746 9.81381C9.22497 9.81381 9.30413 9.77214 9.3583 9.71381C9.41794 9.64918 9.45072 9.56425 9.44997 9.47631V9.02631H8.82496V9.47631Z" fill="#003399"/>
<path d="M8.9707 9.25964C9.00522 9.25964 9.0332 9.23166 9.0332 9.19714C9.0332 9.16263 9.00522 9.13464 8.9707 9.13464C8.93619 9.13464 8.9082 9.16263 8.9082 9.19714C8.9082 9.23166 8.93619 9.25964 8.9707 9.25964Z" fill="white"/>
<path d="M9.31665 9.25964C9.35117 9.25964 9.37915 9.23166 9.37915 9.19714C9.37915 9.16263 9.35117 9.13464 9.31665 9.13464C9.28213 9.13464 9.25415 9.16263 9.25415 9.19714C9.25415 9.23166 9.28213 9.25964 9.31665 9.25964Z" fill="white"/>
<path d="M9.1416 9.42633C9.17612 9.42633 9.2041 9.39835 9.2041 9.36383C9.2041 9.32931 9.17612 9.30133 9.1416 9.30133C9.10708 9.30133 9.0791 9.32931 9.0791 9.36383C9.0791 9.39835 9.10708 9.42633 9.1416 9.42633Z" fill="white"/>
<path d="M8.9707 9.60132C9.00522 9.60132 9.0332 9.57334 9.0332 9.53882C9.0332 9.5043 9.00522 9.47632 8.9707 9.47632C8.93619 9.47632 8.9082 9.5043 8.9082 9.53882C8.9082 9.57334 8.93619 9.60132 8.9707 9.60132Z" fill="white"/>
<path d="M9.31665 9.60132C9.35117 9.60132 9.37915 9.57334 9.37915 9.53882C9.37915 9.5043 9.35117 9.47632 9.31665 9.47632C9.28213 9.47632 9.25415 9.5043 9.25415 9.53882C9.25415 9.57334 9.28213 9.60132 9.31665 9.60132Z" fill="white"/>
<path d="M10.5584 9.47631C10.5576 9.56425 10.5904 9.64918 10.65 9.71381C10.6779 9.74492 10.7119 9.76989 10.7499 9.78711C10.7879 9.80433 10.8291 9.81342 10.8709 9.81381C10.9584 9.81381 11.0375 9.77214 11.0917 9.71381C11.1513 9.64918 11.1841 9.56425 11.1834 9.47631V9.02631H10.5584V9.47631Z" fill="#003399"/>
<path d="M10.7041 9.25964C10.7386 9.25964 10.7666 9.23166 10.7666 9.19714C10.7666 9.16263 10.7386 9.13464 10.7041 9.13464C10.6696 9.13464 10.6416 9.16263 10.6416 9.19714C10.6416 9.23166 10.6696 9.25964 10.7041 9.25964Z" fill="white"/>
<path d="M11.05 9.25964C11.0846 9.25964 11.1125 9.23166 11.1125 9.19714C11.1125 9.16263 11.0846 9.13464 11.05 9.13464C11.0155 9.13464 10.9875 9.16263 10.9875 9.19714C10.9875 9.23166 11.0155 9.25964 11.05 9.25964Z" fill="white"/>
<path d="M10.875 9.42633C10.9095 9.42633 10.9375 9.39835 10.9375 9.36383C10.9375 9.32931 10.9095 9.30133 10.875 9.30133C10.8405 9.30133 10.8125 9.32931 10.8125 9.36383C10.8125 9.39835 10.8405 9.42633 10.875 9.42633Z" fill="white"/>
<path d="M10.7041 9.60132C10.7386 9.60132 10.7666 9.57334 10.7666 9.53882C10.7666 9.5043 10.7386 9.47632 10.7041 9.47632C10.6696 9.47632 10.6416 9.5043 10.6416 9.53882C10.6416 9.57334 10.6696 9.60132 10.7041 9.60132Z" fill="white"/>
<path d="M11.05 9.60132C11.0846 9.60132 11.1125 9.57334 11.1125 9.53882C11.1125 9.5043 11.0846 9.47632 11.05 9.47632C11.0155 9.47632 10.9875 9.5043 10.9875 9.53882C10.9875 9.57334 11.0155 9.60132 11.05 9.60132Z" fill="white"/>
<path d="M9.69166 10.5513C9.69091 10.6393 9.72369 10.7242 9.78333 10.7888C9.81116 10.8199 9.84517 10.8449 9.8832 10.8621C9.92122 10.8793 9.96242 10.8884 10.0042 10.8888C10.0917 10.8888 10.1708 10.8472 10.225 10.7888C10.2846 10.7242 10.3174 10.6393 10.3167 10.5513V10.1013H9.69166V10.5513Z" fill="#003399"/>
<path d="M9.8374 10.3347C9.87192 10.3347 9.8999 10.3067 9.8999 10.2722C9.8999 10.2376 9.87192 10.2097 9.8374 10.2097C9.80288 10.2097 9.7749 10.2376 9.7749 10.2722C9.7749 10.3067 9.80288 10.3347 9.8374 10.3347Z" fill="white"/>
<path d="M10.1833 10.3347C10.2179 10.3347 10.2458 10.3067 10.2458 10.2722C10.2458 10.2376 10.2179 10.2097 10.1833 10.2097C10.1488 10.2097 10.1208 10.2376 10.1208 10.2722C10.1208 10.3067 10.1488 10.3347 10.1833 10.3347Z" fill="white"/>
<path d="M10.0083 10.5013C10.0428 10.5013 10.0708 10.4734 10.0708 10.4388C10.0708 10.4043 10.0428 10.3763 10.0083 10.3763C9.97378 10.3763 9.9458 10.4043 9.9458 10.4388C9.9458 10.4734 9.97378 10.5013 10.0083 10.5013Z" fill="white"/>
<path d="M9.8374 10.6763C9.87192 10.6763 9.8999 10.6483 9.8999 10.6138C9.8999 10.5793 9.87192 10.5513 9.8374 10.5513C9.80288 10.5513 9.7749 10.5793 9.7749 10.6138C9.7749 10.6483 9.80288 10.6763 9.8374 10.6763Z" fill="white"/>
<path d="M10.1833 10.6763C10.2179 10.6763 10.2458 10.6483 10.2458 10.6138C10.2458 10.5793 10.2179 10.5513 10.1833 10.5513C10.1488 10.5513 10.1208 10.5793 10.1208 10.6138C10.1208 10.6483 10.1488 10.6763 10.1833 10.6763Z" fill="white"/>
</g>
<defs>
<clipPath id="clip0_2252_5746">
<rect width="25" height="18.75" fill="white"/>
</clipPath>
</defs>
</svg>
