<svg width="15" height="15" viewBox="0 0 15 15" fill="none" xmlns="http://www.w3.org/2000/svg">
<path d="M11.2224 4.17762e-05C11.7718 1.68772 11.9946 3.48001 12.2029 5.27703C12.1646 5.29191 12.1264 5.30687 12.0881 5.32192C12.0606 5.2168 12.0281 5.11363 12.0063 5.00624C11.8485 4.23246 11.6893 3.4591 11.5383 2.68276C11.484 2.40346 11.3558 2.26445 11.1725 2.12768C10.9033 1.92682 10.6489 1.66789 10.4258 1.37909C10.2835 1.1949 10.1617 1.08253 9.9597 1.08547C8.61514 1.10497 7.27043 1.10684 5.92591 1.1238C5.8363 1.12505 5.7254 1.17043 5.66196 1.25095C5.41733 1.5614 5.18803 1.89451 4.88649 2.31107C5.68185 4.96762 6.08171 7.8631 5.91003 10.9413C5.5282 10.6059 5.23261 10.3406 5.21504 9.63797C5.12722 6.12602 4.33742 2.94995 2.68742 0.216954C2.65028 0.155477 2.63183 0.0727604 2.60462 0L11.2224 4.17762e-05ZM1.23175 1.35424C1.61471 1.35424 1.99784 1.34594 2.38046 1.36137C2.45637 1.36436 2.56258 1.43057 2.60053 1.51403C3.74477 4.03575 4.63684 6.68421 4.7524 9.71438C4.75294 9.72641 4.74387 9.73902 4.71121 9.82704C4.02738 6.62074 2.79375 3.90604 1.20702 1.47288L1.23175 1.35424ZM0 3.56036C0.547077 3.53307 1.00978 3.50569 1.47254 3.49391C1.51914 3.49266 1.57415 3.57725 1.61317 3.63673C2.51583 5.01403 3.33502 6.4692 3.83997 8.20956C3.93605 8.54059 4.00179 8.88821 4.08157 9.22816C3.03566 6.97048 1.58026 5.28226 0 3.56032V3.56036ZM5.88127 15C4.92922 12.9231 4.01223 10.9227 3.09514 8.92227L3.12877 8.86303C3.20565 8.94795 4.84113 10.7468 5.57564 11.5719C5.78026 11.8018 5.93486 11.7976 6.14767 11.5606C8.64517 8.7777 11.4321 6.67134 14.3911 4.97276C14.5491 4.88212 14.7129 4.81031 14.8745 4.7315C14.9103 4.71407 14.9483 4.70437 15 4.72229C11.5638 7.4596 8.28562 10.4568 5.88127 15Z" fill="white"/>
</svg>
