<svg width="40" height="40" viewBox="0 0 40 40" fill="none" xmlns="http://www.w3.org/2000/svg">
<path d="M22.8 14.2V14.1992C22.8011 13.548 22.5588 13.0187 22.0491 12.5784C21.5247 12.1253 20.9161 11.9 20.2 11.9C19.6785 11.9 19.1782 12.0155 18.6939 12.25C18.2186 12.4802 17.8237 12.8093 17.505 13.2433C17.108 13.7979 16.5874 14.1624 15.9481 14.2903C15.3229 14.4153 14.7172 14.3071 14.1519 13.9841L14.1418 13.9783L14.132 13.9721C13.6419 13.6609 13.3422 13.1956 13.2345 12.6176C13.1287 12.05 13.2242 11.5051 13.5145 11.0043C14.1676 9.81234 15.1224 8.92332 16.3655 8.34645C17.5808 7.78253 18.8606 7.5 20.2 7.5H20.2004C22.1413 7.50141 23.8596 8.0776 25.3342 9.23233C26.8331 10.406 27.5998 11.9401 27.6 13.7994C27.6 13.7996 27.6 13.7998 27.6 13.8H27.1L22.8 14.2ZM22.8 14.2C22.8 14.8223 22.6124 15.3624 22.2342 15.8393C21.8045 16.3813 21.3169 16.8928 20.7707 17.3737M22.8 14.2L17.7 22.65M17.7 22.65V22.6493C17.7015 21.5449 18.0263 20.5419 18.6718 19.6556C19.2769 18.8248 19.9769 18.0642 20.7707 17.3737M17.7 22.65C17.7 23.2601 17.9367 23.7861 18.3905 24.1967M17.7 22.65L18.3905 24.1967M20.7707 17.3737C20.7711 17.3734 20.7715 17.373 20.7719 17.3727L21.1 17.75L20.7696 17.3747C20.77 17.3744 20.7703 17.374 20.7707 17.3737ZM18.3905 24.1967C18.8316 24.5959 19.359 24.8015 19.9508 24.8M18.3905 24.1967L19.9508 24.8M19.9508 24.8C19.9505 24.8 19.9502 24.8 19.95 24.8V24.3L19.9508 24.8ZM20.0005 39.5H20C17.2984 39.5 14.7662 38.9874 12.3982 37.965C10.0203 36.9382 7.95694 35.5485 6.20342 33.7963C4.45009 32.0443 3.0605 29.9811 2.03517 27.6021C1.0139 25.2325 0.501304 22.7001 0.500002 19.9998C0.498701 17.2997 1.01123 14.7676 2.03499 12.3983C3.06307 10.019 4.45283 7.95558 6.20368 6.20342C7.95436 4.45145 10.0176 3.06182 12.398 2.03512C14.7689 1.01255 17.3012 0.5 20 0.5C22.6988 0.5 25.2311 1.01255 27.602 2.03512C29.9824 3.06182 32.0456 4.45145 33.7963 6.20342C35.5472 7.95563 36.9377 10.0191 37.9671 12.3985C38.992 14.7676 39.5039 17.2995 39.5 19.9993C39.4961 22.6999 38.9834 25.2327 37.9646 27.6025C36.942 29.9812 35.5526 32.0441 33.7968 33.796C32.0404 35.5486 29.9767 36.9391 27.6014 37.9671C25.2364 38.9907 22.7045 39.5026 20.0005 39.5ZM19.9 32.5C20.7292 32.5 21.4494 32.2077 22.0295 31.6275C22.6097 31.0474 22.9016 30.3276 22.9 29.499C22.8984 28.6721 22.6072 27.9529 22.031 27.3719C21.4524 26.7885 20.7305 26.4968 19.8981 26.5C19.0682 26.5031 18.3487 26.7945 17.7719 27.3729C17.1959 27.9505 16.9047 28.6691 16.9 29.4971C16.8953 30.3297 17.1884 31.0519 17.7744 31.6315C18.3573 32.208 19.0754 32.5 19.9 32.5Z" fill="white" stroke="#329DFD"/>
</svg>
