<svg width="12" height="13" viewBox="0 0 12 13" fill="none" xmlns="http://www.w3.org/2000/svg">
<path d="M6 0.5C9.3138 0.5 12 3.1862 12 6.5C12 9.8138 9.3138 12.5 6 12.5C2.6862 12.5 0 9.8138 0 6.5C0 3.1862 2.6862 0.5 6 0.5ZM6 1.7C4.72696 1.7 3.50606 2.20571 2.60589 3.10589C1.70571 4.00606 1.2 5.22696 1.2 6.5C1.2 7.77304 1.70571 8.99394 2.60589 9.89411C3.50606 10.7943 4.72696 11.3 6 11.3C7.27304 11.3 8.49394 10.7943 9.39411 9.89411C10.2943 8.99394 10.8 7.77304 10.8 6.5C10.8 5.22696 10.2943 4.00606 9.39411 3.10589C8.49394 2.20571 7.27304 1.7 6 1.7ZM6 2.9C6.14696 2.90002 6.2888 2.95397 6.39862 3.05163C6.50844 3.14928 6.57861 3.28385 6.5958 3.4298L6.6 3.5V6.2516L8.2242 7.8758C8.33181 7.98378 8.39428 8.12866 8.39894 8.28103C8.40359 8.4334 8.35007 8.58183 8.24925 8.69617C8.14843 8.81051 8.00787 8.88218 7.85612 8.89664C7.70436 8.9111 7.5528 8.86725 7.4322 8.774L7.3758 8.7242L5.5758 6.9242C5.48255 6.83087 5.42266 6.7094 5.4054 6.5786L5.4 6.5V3.5C5.4 3.34087 5.46321 3.18826 5.57574 3.07574C5.68826 2.96321 5.84087 2.9 6 2.9Z" fill="#6E6E6E"/>
</svg>
