<svg width="27" height="27" viewBox="0 0 27 27" fill="none" xmlns="http://www.w3.org/2000/svg">
<path d="M24.7833 26.625L15.5958 17.4375C14.8666 18.0208 14.0281 18.4826 13.0802 18.8229C12.1322 19.1632 11.1236 19.3333 10.0541 19.3333C7.40481 19.3333 5.16287 18.4156 3.32829 16.58C1.4937 14.7444 0.575924 12.5025 0.574952 9.85417C0.57398 7.20583 1.49176 4.96389 3.32829 3.12833C5.16481 1.29278 7.40676 0.375 10.0541 0.375C12.7015 0.375 14.9439 1.29278 16.7814 3.12833C18.6189 4.96389 19.5362 7.20583 19.5333 9.85417C19.5333 10.9236 19.3631 11.9323 19.0229 12.8802C18.6826 13.8281 18.2208 14.6667 17.6375 15.3958L26.825 24.5833L24.7833 26.625ZM10.0541 16.4167C11.877 16.4167 13.4268 15.7789 14.7033 14.5033C15.9798 13.2278 16.6176 11.6781 16.6166 9.85417C16.6156 8.03028 15.9779 6.48104 14.7033 5.20646C13.4287 3.93188 11.879 3.29361 10.0541 3.29167C8.22926 3.28972 6.68002 3.92799 5.40641 5.20646C4.1328 6.48493 3.49454 8.03417 3.49162 9.85417C3.4887 11.6742 4.12697 13.2239 5.40641 14.5033C6.68585 15.7828 8.23509 16.4206 10.0541 16.4167Z" fill="white"/>
</svg>
