<svg width="18" height="18" viewBox="0 0 18 18" fill="none" xmlns="http://www.w3.org/2000/svg">
<path d="M16.8261 18L11.7554 13.3533C11.1848 13.8098 10.5285 14.1712 9.78669 14.4375C9.04484 14.7038 8.25544 14.837 7.41848 14.837C5.34511 14.837 3.59054 14.1187 2.15478 12.6822C0.719022 11.2457 0.000761473 9.49109 6.03865e-07 7.41848C-0.000760266 5.34587 0.7175 3.5913 2.15478 2.15478C3.59207 0.718261 5.34663 0 7.41848 0C9.49033 0 11.2453 0.718261 12.6833 2.15478C14.1214 3.5913 14.8392 5.34587 14.837 7.41848C14.837 8.25543 14.7038 9.04484 14.4375 9.78668C14.1712 10.5285 13.8098 11.1848 13.3533 11.7554L18 16.8261L16.8261 18ZM7.41848 12.5543C8.84511 12.5543 10.0579 12.0552 11.057 11.057C12.056 10.0587 12.5551 8.84587 12.5543 7.41848C12.5536 5.99109 12.0545 4.77864 11.057 3.78114C10.0595 2.78364 8.84663 2.28413 7.41848 2.28261C5.99033 2.28109 4.77788 2.7806 3.78114 3.78114C2.7844 4.78168 2.28489 5.99413 2.28261 7.41848C2.28033 8.84283 2.77984 10.0557 3.78114 11.057C4.78245 12.0583 5.99489 12.5574 7.41848 12.5543Z" fill="#6E6E6E" fill-opacity="0.5"/>
</svg>
