<svg width="9" height="11" viewBox="0 0 9 11" fill="none" xmlns="http://www.w3.org/2000/svg">
<path d="M4.19048 8.38095C4.46832 8.38095 4.73479 8.27058 4.93125 8.07411C5.12772 7.87765 5.2381 7.61118 5.2381 7.33333C5.2381 7.05549 5.12772 6.78902 4.93125 6.59256C4.73479 6.39609 4.46832 6.28571 4.19048 6.28571C3.91263 6.28571 3.64616 6.39609 3.4497 6.59256C3.25323 6.78902 3.14286 7.05549 3.14286 7.33333C3.14286 7.61118 3.25323 7.87765 3.4497 8.07411C3.64616 8.27058 3.91263 8.38095 4.19048 8.38095ZM7.33333 3.66667C7.61118 3.66667 7.87765 3.77704 8.07411 3.97351C8.27058 4.16997 8.38095 4.43644 8.38095 4.71429V9.95238C8.38095 10.2302 8.27058 10.4967 8.07411 10.6932C7.87765 10.8896 7.61118 11 7.33333 11H1.04762C0.769773 11 0.503307 10.8896 0.30684 10.6932C0.110374 10.4967 0 10.2302 0 9.95238V4.71429C0 4.43644 0.110374 4.16997 0.30684 3.97351C0.503307 3.77704 0.769773 3.66667 1.04762 3.66667H1.57143V2.61905C1.57143 1.92443 1.84736 1.25827 2.33853 0.767101C2.8297 0.275935 3.49586 0 4.19048 0C4.53441 0 4.87498 0.0677437 5.19274 0.199363C5.5105 0.330983 5.79922 0.5239 6.04242 0.767101C6.28562 1.0103 6.47854 1.29902 6.61016 1.61678C6.74178 1.93454 6.80952 2.27511 6.80952 2.61905V3.66667H7.33333ZM4.19048 1.04762C3.77371 1.04762 3.37401 1.21318 3.07931 1.50788C2.78461 1.80258 2.61905 2.20228 2.61905 2.61905V3.66667H5.76191V2.61905C5.76191 2.20228 5.59634 1.80258 5.30164 1.50788C5.00694 1.21318 4.60725 1.04762 4.19048 1.04762Z" fill="#6E6E6E"/>
</svg>
