<svg width="52" height="53" viewBox="0 0 52 53" fill="none" xmlns="http://www.w3.org/2000/svg">
<path d="M41.9091 15.3864C41.9091 15.3864 30.5455 31.2955 13.5 31.2955M13.5 31.2955C8.95455 31.2955 1 33.5682 1 42.6591V51.75H26V42.6591C26 36.9773 32.8182 40.3864 41.9091 24.4773L38.5 21.0682M13.5 31.2955C15.6097 31.2955 17.6329 30.4574 19.1247 28.9656C20.6165 27.4739 21.4545 25.4506 21.4545 23.3409C21.4545 21.2312 20.6165 19.208 19.1247 17.7162C17.6329 16.2244 15.6097 15.3864 13.5 15.3864C11.3903 15.3864 9.36705 16.2244 7.87529 17.7162C6.38352 19.208 5.54545 21.2312 5.54545 23.3409C5.54545 25.4506 6.38352 27.4739 7.87529 28.9656C9.36705 30.4574 11.3903 31.2955 13.5 31.2955ZM5.54545 10.8409V4.02273H51V35.8409H44.1818M23.7273 1.75H32.8182V6.29545H23.7273V1.75Z" stroke="#1F4E79" stroke-width="2"/>
</svg>
