<svg width="50" height="35" viewBox="0 0 50 35" fill="none" xmlns="http://www.w3.org/2000/svg">
<rect width="50" height="35" rx="5" fill="#FFEDD5"/>
<mask id="mask0_3690_12589" style="mask-type:luminance" maskUnits="userSpaceOnUse" x="12" y="8" width="26" height="20">
<path d="M37.6562 8H12.6562V28H37.6562V8Z" fill="white"/>
</mask>
<g mask="url(#mask0_3690_12589)">
<path d="M25.1954 9.67966C24.8838 9.67966 24.5723 9.73177 24.2608 9.83597L13.3574 13.7812C12.968 13.9635 12.7603 14.263 12.7344 14.6797C12.7603 15.0963 12.968 15.3958 13.3574 15.5782L15.616 16.3985C14.9669 17.4141 14.6295 18.5599 14.6035 19.8359V20.9297C14.5256 22.0755 14.2401 23.1302 13.7468 24.0938C13.4872 24.5885 13.1887 25.0703 12.8512 25.5391C12.7214 25.7214 12.6954 25.9167 12.7733 26.125C12.8512 26.3333 12.994 26.4766 13.2016 26.5547L15.6938 27.1797C15.8756 27.2057 16.0443 27.1797 16.2001 27.1016C16.3299 26.9974 16.4207 26.8542 16.4726 26.6719C16.7322 24.9531 16.7063 23.5469 16.3948 22.4531C16.265 21.8802 16.0832 21.3333 15.8496 20.8125V19.8359C15.8756 18.638 16.239 17.5703 16.9399 16.6328C17.4332 16.0338 18.0693 15.5781 18.8481 15.2657L24.9618 12.8438C25.3252 12.7395 25.5978 12.8567 25.7795 13.1953C25.8833 13.5599 25.7665 13.8333 25.4291 14.0157L19.3154 16.3985C18.8221 16.6068 18.4067 16.8932 18.0693 17.2578L24.2608 19.5234C24.5723 19.6276 24.8838 19.6797 25.1954 19.6797C25.5069 19.6797 25.8185 19.6276 26.13 19.5234L37.0334 15.5782C37.4228 15.3958 37.6305 15.0963 37.6565 14.6797C37.6305 14.263 37.4228 13.9635 37.0334 13.7812L26.13 9.83597C25.8185 9.73177 25.5069 9.67966 25.1954 9.67966ZM17.7188 24.3672C17.7707 25.0964 18.4976 25.7344 19.8995 26.2812C21.3013 26.8542 23.0666 27.1536 25.1954 27.1797C27.3242 27.1536 29.0895 26.8542 30.4914 26.2812C31.8932 25.7344 32.6202 25.0964 32.6721 24.3672L32.0879 18.7031L26.5584 20.6953C26.1171 20.8516 25.6627 20.9297 25.1954 20.9297C24.7281 20.9297 24.2868 20.8516 23.8714 20.6953L18.3029 18.7031L17.7188 24.3672Z" fill="#EA580C"/>
</g>
</svg>
