<svg width="50" height="35" viewBox="0 0 50 35" fill="none" xmlns="http://www.w3.org/2000/svg">
<rect width="50" height="35" rx="5" fill="#FEF9C3"/>
<mask id="mask0_3690_12561" style="mask-type:luminance" maskUnits="userSpaceOnUse" x="17" y="8" width="15" height="20">
<path d="M32 8H17V28H32V8Z" fill="white"/>
</mask>
<g mask="url(#mask0_3690_12561)">
<path d="M24.5 8.42969C23.6667 8.45575 22.9375 8.69011 22.3125 9.13278C21.6875 9.60151 21.2448 10.2005 20.9844 10.9297H19.5C18.7969 10.9558 18.2109 11.2031 17.7422 11.6719C17.2734 12.1406 17.026 12.7266 17 13.4297V25.9297C17.026 26.6328 17.2734 27.2188 17.7422 27.6875C18.2109 28.1563 18.7969 28.4036 19.5 28.4297H29.5C30.2031 28.4036 30.7891 28.1563 31.2578 27.6875C31.7265 27.2188 31.9739 26.6328 32 25.9297V13.4297C31.9739 12.7266 31.7265 12.1406 31.2578 11.6719C30.7891 11.2031 30.2031 10.9558 29.5 10.9297H28.0547C27.7682 10.2005 27.3125 9.60151 26.6875 9.13278C26.0625 8.69011 25.3333 8.45575 24.5 8.42969ZM24.5 10.9297C24.8646 10.9297 25.1641 11.0469 25.3984 11.2813C25.6328 11.5156 25.75 11.8151 25.75 12.1797C25.75 12.5443 25.6328 12.8438 25.3984 13.0781C25.1641 13.3125 24.8646 13.4297 24.5 13.4297C24.1354 13.4297 23.8359 13.3125 23.6016 13.0781C23.3672 12.8438 23.25 12.5443 23.25 12.1797C23.25 11.8151 23.3672 11.5156 23.6016 11.2813C23.8359 11.0469 24.1354 10.9297 24.5 10.9297ZM28.9141 19.0938L23.9141 24.0938C23.4714 24.4583 23.0286 24.4583 22.5859 24.0938L20.0859 21.5938C19.7214 21.151 19.7214 20.7083 20.0859 20.2656C20.5286 19.901 20.9714 19.901 21.4141 20.2656L23.25 22.1016L27.5859 17.7656C28.0286 17.4011 28.4714 17.4011 28.9141 17.7656C29.2786 18.2083 29.2786 18.651 28.9141 19.0938Z" fill="#CA8A04"/>
</g>
</svg>
