<svg width="50" height="50" viewBox="0 0 50 50" fill="none" xmlns="http://www.w3.org/2000/svg">
<path d="M8.33333 0C6.1232 0 4.00358 0.65848 2.44078 1.83058C0.877973 3.00268 0 4.5924 0 6.25V43.75C0 45.4076 0.877973 46.9973 2.44078 48.1694C4.00358 49.3415 6.1232 50 8.33333 50H47.9167C48.4692 50 48.9991 49.8354 49.3898 49.5424C49.7805 49.2493 50 48.8519 50 48.4375C50 48.0231 49.7805 47.6257 49.3898 47.3326C48.9991 47.0396 48.4692 46.875 47.9167 46.875H8.33333C7.22826 46.875 6.16846 46.5458 5.38706 45.9597C4.60565 45.3737 4.16667 44.5788 4.16667 43.75H45.8333C46.9384 43.75 47.9982 43.4208 48.7796 42.8347C49.561 42.2487 50 41.4538 50 40.625V6.25C50 4.5924 49.122 3.00268 47.5592 1.83058C45.9964 0.65848 43.8768 0 41.6667 0H8.33333ZM28.125 11.7188C28.125 12.3404 27.7958 12.9365 27.2097 13.376C26.6237 13.8156 25.8288 14.0625 25 14.0625C24.1712 14.0625 23.3763 13.8156 22.7903 13.376C22.2042 12.9365 21.875 12.3404 21.875 11.7188C21.875 11.0971 22.2042 10.501 22.7903 10.0615C23.3763 9.62193 24.1712 9.375 25 9.375C25.8288 9.375 26.6237 9.62193 27.2097 10.0615C27.7958 10.501 28.125 11.0971 28.125 11.7188ZM27.0833 32.8125C27.0833 33.2269 26.8638 33.6243 26.4731 33.9174C26.0824 34.2104 25.5525 34.375 25 34.375C24.4475 34.375 23.9176 34.2104 23.5269 33.9174C23.1362 33.6243 22.9167 33.2269 22.9167 32.8125V20.3125C22.9167 19.8981 23.1362 19.5007 23.5269 19.2076C23.9176 18.9146 24.4475 18.75 25 18.75C25.5525 18.75 26.0824 18.9146 26.4731 19.2076C26.8638 19.5007 27.0833 19.8981 27.0833 20.3125V32.8125Z" fill="#1F4E79"/>
</svg>
