<svg width="50" height="35" viewBox="0 0 50 35" fill="none" xmlns="http://www.w3.org/2000/svg">
<rect width="50" height="35" rx="5" fill="#FCE7F3"/>
<mask id="mask0_3690_12575" style="mask-type:luminance" maskUnits="userSpaceOnUse" x="12" y="8" width="26" height="20">
<path d="M37.3281 8H12.3281V28H37.3281V8Z" fill="white"/>
</mask>
<g mask="url(#mask0_3690_12575)">
<path d="M18.5781 10.9297C18.6042 10.2266 18.8516 9.64061 19.3203 9.17188C19.7891 8.70314 20.375 8.45575 21.0781 8.42969H34.8281C35.5313 8.45575 36.1172 8.70314 36.5859 9.17188C37.0547 9.64061 37.3021 10.2266 37.3281 10.9297V22.1797C37.3021 22.8828 37.0547 23.4688 36.5859 23.9375C36.1172 24.4063 35.5313 24.6536 34.8281 24.6797H25.4922C25.0234 23.6641 24.3333 22.8307 23.4219 22.1797H27.3281V20.9297C27.3281 20.5651 27.4453 20.2656 27.6797 20.0312C27.9141 19.7969 28.2135 19.6797 28.5781 19.6797H31.0781C31.4427 19.6797 31.7422 19.7969 31.9765 20.0312C32.2109 20.2656 32.3281 20.5651 32.3281 20.9297V22.1797H34.8281V10.9297H21.0781V12.8438C20.3229 12.401 19.4896 12.1797 18.5781 12.1797V10.9297ZM18.5781 13.4297C19.2552 13.4297 19.8802 13.599 20.4531 13.9375C21.026 14.276 21.4818 14.7318 21.8203 15.3047C22.1589 15.9036 22.3281 16.5286 22.3281 17.1797C22.3281 17.8308 22.1589 18.4558 21.8203 19.0547C21.4818 19.6276 21.026 20.0833 20.4531 20.4219C19.8802 20.7604 19.2552 20.9297 18.5781 20.9297C17.901 20.9297 17.276 20.7604 16.7031 20.4219C16.1302 20.0833 15.6745 19.6276 15.3359 19.0547C14.9974 18.4558 14.8281 17.8308 14.8281 17.1797C14.8281 16.5286 14.9974 15.9036 15.3359 15.3047C15.6745 14.7318 16.1302 14.276 16.7031 13.9375C17.276 13.599 17.901 13.4297 18.5781 13.4297ZM17.5234 22.1797H19.6328C21.0911 22.2057 22.3151 22.7135 23.3047 23.7031C24.2943 24.6927 24.8021 25.9167 24.8281 27.375C24.7761 28.026 24.4245 28.3776 23.7734 28.4297H13.3828C12.7318 28.3776 12.3802 28.026 12.3281 27.375C12.3542 25.9167 12.862 24.6927 13.8516 23.7031C14.8411 22.7135 16.0651 22.2057 17.5234 22.1797Z" fill="#DB2777"/>
</g>
</svg>
