<svg width="50" height="50" viewBox="0 0 50 50" fill="none" xmlns="http://www.w3.org/2000/svg">
<path d="M7.22621 30.6435C7.11035 31.9507 7.70301 32.342 8.63136 32.963C9.54931 33.5769 15.1417 28.8983 16.9701 28.1866C18.7986 27.4748 35.9634 24.0056 35.2192 20.8383C34.475 17.671 29.2882 17.2032 25.2926 17.8497C21.297 18.4962 13.6504 21.8506 11.4164 23.6611C9.18242 25.4701 7.22621 30.6435 7.22621 30.6435ZM20.0329 32.7659C20.0329 32.7659 14.7495 34.4034 14.7495 38.6567C14.7495 42.91 16.0358 45.3089 16.6448 46.4728C17.2538 47.6368 19.1521 48.7639 21.7767 47.6794C24.8247 46.419 21.0474 39.1671 30.6889 42.496C35.1063 44.0201 39.6886 46.0801 44.1447 44.6624C48.372 43.3169 50 38.2413 50 35.4058C50 29.6015 45.5439 31.1525 44.0586 32.5703C42.5732 33.988 30.6904 36.8236 29.205 36.8236C27.7196 36.8236 20.0329 32.7659 20.0329 32.7659Z" fill="#27AE60"/>
<path d="M26.6977 39.9256C26.6977 39.9256 26.5195 38.0598 24.6554 37.8429C23.124 37.6657 20.7103 38.1534 19.4566 40.5452C18.203 42.9384 15.975 42.5386 16.0685 44.5319C16.1621 46.5253 16.8112 48.0763 18.1569 48.4747C19.5042 48.8745 21.4069 48.1656 21.6386 46.039C21.8703 43.9124 22.1496 41.9629 23.5874 41.1208C25.0282 40.2801 26.6977 39.9256 26.6977 39.9256Z" fill="#27AE60"/>
<path d="M24.7489 36.8235C24.7489 36.8235 23.2636 35.4058 20.2928 35.4058C17.3221 35.4058 10.3944 38.4298 12.4947 44.444C13.9801 48.6973 18.2044 46.7039 18.8075 42.4946C19.412 38.2796 24.7489 36.8235 24.7489 36.8235Z" fill="#27AE60"/>
<path d="M23.2636 36.8235C23.2636 36.8235 21.7783 35.4058 18.8075 35.4058C15.8368 35.4058 11.5516 37.5749 11.3808 43.9123C11.2411 49.0957 17.3682 46.7478 17.3222 42.4946C17.2761 38.2413 23.2636 36.8235 23.2636 36.8235Z" fill="#27AE60"/>
<path d="M5.43933 38.2413C5.43933 42.9156 6.11814 45.7356 9.04577 45.2549C13.9014 44.4582 12.0581 38.7134 16.3077 37.0972C19.3928 35.9247 23.8845 36.204 28.2202 38.6609C31.0766 40.28 29.205 33.988 26.2343 32.5702C23.2636 31.1525 14.3515 32.5702 12.8661 32.5702C11.3807 32.5702 5.43933 38.2413 5.43933 38.2413Z" fill="#27AE60"/>
<path d="M5.20462 38.488C2.84142 42.2663 4.27925 46.1723 8.41002 45.3301C12.4071 44.5163 10.4048 39.5598 14.3514 36.8236C16.5631 35.2895 21.3296 34.7749 24.3003 36.1927C27.2711 37.6104 27.7196 33.988 24.7489 32.5703C21.7782 31.1525 12.064 32.5348 10.5816 32.6227C7.74606 32.7914 5.20462 38.488 5.20462 38.488Z" fill="#27AE60"/>
<path d="M12.0017 41.2385C11.7619 41.501 11.4703 41.7158 11.1435 41.8707C10.8167 42.0256 10.4611 42.1175 10.0971 42.1412C9.73312 42.1649 9.36778 42.1199 9.02199 42.0088C8.6762 41.8977 8.35672 41.7227 8.08182 41.4937L7.79069 41.2512C7.23574 40.7891 6.89582 40.1354 6.84568 39.4341C6.79554 38.7327 7.03929 38.041 7.52333 37.5112L40.978 0.908857C41.2178 0.646369 41.5094 0.431544 41.8362 0.276654C42.1629 0.121764 42.5185 0.0298445 42.8825 0.00614583C43.2465 -0.0175528 43.6119 0.0274341 43.9577 0.138536C44.3034 0.249639 44.6229 0.42468 44.8978 0.65366L45.1875 0.896097C45.7426 1.35809 46.0828 2.01162 46.1332 2.71299C46.1837 3.41435 45.9402 4.10612 45.4563 4.63615L12.0017 41.2385Z" fill="#27AE60"/>
<path d="M13.594 39.4975C10.0885 43.3325 1.2462 50.8523 0.126245 49.9209C-0.993712 48.9894 5.61166 39.6067 9.1171 35.7702C12.6225 31.9337 11.5843 35.0018 12.8201 36.0325C14.0559 37.0618 17.0994 35.6639 13.594 39.4975Z" fill="#27AE60"/>
<path d="M7.92285 35.4426C7.92285 36.8604 11.5189 38.1576 13.0043 36.7399C14.4896 35.3221 17.9668 33.5811 22.5387 35.4058C33.2392 39.6732 29.205 33.988 24.7489 32.5702C20.2929 31.1525 12.8661 32.5702 11.3808 32.5702C9.8954 32.5702 7.92285 35.4426 7.92285 35.4426Z" fill="#27AE60"/>
<path d="M7.21427 31.2135C6.68251 29.6356 10.4642 20.8936 12.1768 19.5397C14.3336 17.8355 22.6768 15.1971 25.6475 15.1971C28.6182 15.1971 49.9999 25.4815 49.9999 32.5703C49.9999 39.6591 47.0292 40.5452 42.7588 41.6525C39.344 42.5386 32.1905 41.9956 29.0653 39.2154C26.3263 36.7797 24.4236 35.0954 21.7782 33.9881C16.8735 31.9352 13.6043 34.5892 12.1189 36.007C9.1482 38.8425 3.55138 35.7816 8.21985 30.9314C11.5604 27.4593 14.5029 26.3775 17.3221 25.4815C26.2342 22.646 32.1756 22.646 29.2049 19.8105C28.1548 18.8081 27.5829 20.301 26.1213 20.5548C23.1803 21.0652 20.8394 21.4083 16.9641 22.6417C15.6243 23.0671 9.28188 26.9276 7.21427 31.2135Z" fill="#27AE60"/>
<path d="M17.6133 23.0358C19.1937 22.4858 26.0828 21.2892 29.667 20.1039C32.5619 19.1455 35.1019 21.0056 29.6076 22.9791C24.3049 24.8832 18.7957 24.7272 14.7778 26.2499C13.2583 26.8255 11.9408 25.0094 17.6133 23.0358Z" fill="#27AE60"/>
<path d="M31.4137 11.3365C31.4137 11.3365 22.6085 20.9702 18.8684 25.0335C22.2164 23.7207 25.2124 23.9702 28.0746 22.3625C30.9369 20.7547 32.2425 19.0421 36.5857 14.2883C38.1988 12.5246 31.4137 11.3365 31.4137 11.3365Z" fill="#27AE60"/>
</svg>
