<svg width="50" height="35" viewBox="0 0 50 35" fill="none" xmlns="http://www.w3.org/2000/svg">
<rect width="50" height="35" rx="5" fill="#F3E8FF"/>
<mask id="mask0_3669_11469" style="mask-type:luminance" maskUnits="userSpaceOnUse" x="14" y="8" width="21" height="20">
<path d="M34.75 8H14.8281V28H34.75V8Z" fill="white"/>
</mask>
<g mask="url(#mask0_3669_11469)">
<path d="M29.3593 9.48436C29.9583 8.8073 30.7266 8.45573 31.664 8.42966C32.5495 8.45573 33.2787 8.75523 33.8515 9.32816C34.4245 9.90103 34.724 10.6302 34.75 11.5157C34.724 12.4531 34.3724 13.2344 33.6953 13.8594L25.6093 20.8906L25.1797 20.5L22.6797 18L22.2891 17.5704L29.3593 9.48436ZM21.3906 18.4688L21.8203 18.8594L24.3203 21.3594L24.7109 21.7891L23.9688 25.0313C23.7865 25.7344 23.3438 26.1901 22.6406 26.3984L15.6875 28.3516L19.4375 24.6406C19.5417 24.6667 19.6458 24.6797 19.75 24.6797C20.1146 24.6797 20.4141 24.5625 20.6484 24.3281C20.8828 24.0938 21 23.7943 21 23.4297C21 23.0651 20.8828 22.7656 20.6484 22.5313C20.4141 22.2969 20.1146 22.1797 19.75 22.1797C19.3854 22.1797 19.0859 22.2969 18.8516 22.5313C18.6172 22.7656 18.5 23.0651 18.5 23.4297C18.5 23.5339 18.513 23.638 18.5391 23.7422L14.8281 27.4922L16.7812 20.5391C16.9896 19.8359 17.4453 19.3932 18.1484 19.2109L21.3906 18.4688Z" fill="#9333EA"/>
</g>
</svg>
