<svg width="50" height="35" viewBox="0 0 50 35" fill="none" xmlns="http://www.w3.org/2000/svg">
<rect width="50" height="35" rx="5" fill="#DCFCE7"/>
<mask id="mask0_3669_11484" style="mask-type:luminance" maskUnits="userSpaceOnUse" x="15" y="8" width="20" height="20">
<path d="M35 8H15V28H35V8Z" fill="white"/>
</mask>
<g mask="url(#mask0_3669_11484)">
<path d="M31.25 16.5547C31.2239 18.3776 30.7031 19.9792 29.6875 21.3594L34.6484 26.2812C34.8828 26.5417 35 26.8411 35 27.1797C35 27.5182 34.8828 27.8177 34.6484 28.0781C34.388 28.3125 34.0885 28.4297 33.75 28.4297C33.4115 28.4297 33.112 28.3125 32.8516 28.0781L27.9297 23.1172C26.5495 24.1328 24.9479 24.6536 23.125 24.6797C20.8333 24.6276 18.9193 23.8333 17.3828 22.2969C15.8464 20.7604 15.0521 18.8464 15 16.5547C15.0521 14.263 15.8464 12.349 17.3828 10.8125C18.9193 9.27602 20.8333 8.48175 23.125 8.42969C25.4167 8.48175 27.3307 9.27602 28.8672 10.8125C30.4037 12.349 31.1979 14.263 31.25 16.5547ZM23.125 22.1797C24.1406 22.1797 25.0781 21.9323 25.9375 21.4375C26.7969 20.9427 27.487 20.2526 28.0078 19.3672C28.5026 18.4818 28.75 17.5443 28.75 16.5547C28.75 15.5651 28.5026 14.6276 28.0078 13.7422C27.487 12.8568 26.7969 12.1667 25.9375 11.6719C25.0781 11.1771 24.1406 10.9297 23.125 10.9297C22.1094 10.9297 21.1719 11.1771 20.3125 11.6719C19.4531 12.1667 18.763 12.8568 18.2422 13.7422C17.7474 14.6276 17.5 15.5651 17.5 16.5547C17.5 17.5443 17.7474 18.4818 18.2422 19.3672C18.763 20.2526 19.4531 20.9427 20.3125 21.4375C21.1719 21.9323 22.1094 22.1797 23.125 22.1797Z" fill="#16A34A"/>
</g>
</svg>
