<svg width="50" height="35" viewBox="0 0 50 35" fill="none" xmlns="http://www.w3.org/2000/svg">
<rect width="50" height="35" rx="5" fill="#DBE9FE"/>
<mask id="mask0_3669_11424" style="mask-type:luminance" maskUnits="userSpaceOnUse" x="12" y="8" width="25" height="20">
<path d="M37 8H12V28H37V8Z" fill="white"/>
</mask>
<g mask="url(#mask0_3669_11424)">
<path d="M20.1527 22.1797C22.4301 22.1276 24.3323 21.4505 25.8592 20.1484C27.3861 18.8724 28.1754 17.2578 28.2272 15.3047C28.1754 13.3516 27.3861 11.737 25.8592 10.4609C24.3323 9.15882 22.4301 8.48175 20.1527 8.42969C17.8752 8.48175 15.9731 9.15882 14.4461 10.4609C12.9192 11.737 12.1299 13.3516 12.0781 15.3047C12.104 16.8412 12.6216 18.1823 13.6309 19.3281C13.4756 19.7187 13.2815 20.0443 13.0486 20.3047C12.8675 20.5391 12.6992 20.7214 12.544 20.8516C12.4663 20.9297 12.4146 20.9818 12.3887 21.0078C12.3628 21.0339 12.3499 21.0469 12.3499 21.0469H12.311C12.104 21.2292 12.0393 21.4635 12.1169 21.75C12.2205 22.0104 12.4146 22.1536 12.6992 22.1797C13.5792 22.1536 14.3814 21.9974 15.1061 21.7109C15.4684 21.5547 15.7919 21.3984 16.0766 21.2422C17.2929 21.8411 18.6516 22.1536 20.1527 22.1797ZM29.4694 15.3047C29.3918 17.5443 28.5636 19.3932 26.9849 20.8516C25.3804 22.3099 23.4135 23.1563 21.0843 23.3906C21.5761 24.875 22.5207 26.0729 23.9182 26.9844C25.3157 27.9219 26.9591 28.4036 28.8483 28.4297C30.3493 28.4036 31.708 28.0911 32.9244 27.4922C33.2091 27.6484 33.5326 27.8047 33.8949 27.9609C34.6195 28.2474 35.4218 28.4036 36.3017 28.4297C36.5864 28.4036 36.7805 28.2604 36.884 28C36.9617 27.7135 36.8841 27.4792 36.6511 27.2969V27.2578C36.6253 27.2578 36.6123 27.2578 36.6123 27.2578C36.5864 27.2318 36.5346 27.1797 36.457 27.1016C36.3018 26.9714 36.1335 26.7891 35.9523 26.5547C35.7194 26.2682 35.5253 25.9427 35.37 25.5781C36.3794 24.4323 36.897 23.0911 36.9228 21.5547C36.8711 19.7057 36.1465 18.1432 34.7489 16.8672C33.3514 15.5911 31.5786 14.862 29.4306 14.6797C29.4565 14.888 29.4694 15.0964 29.4694 15.3047Z" fill="#2563EB"/>
</g>
</svg>
