<svg width="50" height="50" viewBox="0 0 50 50" fill="none" xmlns="http://www.w3.org/2000/svg">
<path fill-rule="evenodd" clip-rule="evenodd" d="M12.5 0C12.1203 7.49289e-05 11.7455 0.0619409 11.4043 0.180903C11.063 0.299864 10.7641 0.472795 10.5304 0.68657C10.2966 0.900344 10.1342 1.14934 10.0553 1.41467C9.97635 1.68 9.9831 1.95467 10.075 2.21786L10.55 3.57143H2.5C1.83696 3.57143 1.20107 3.75957 0.732234 4.09445C0.263393 4.42934 0 4.88354 0 5.35714V48.2143C0 48.6879 0.263393 49.1421 0.732234 49.477C1.20107 49.8119 1.83696 50 2.5 50H47.5C48.163 50 48.7989 49.8119 49.2678 49.477C49.7366 49.1421 50 48.6879 50 48.2143V5.35714C50 4.88354 49.7366 4.42934 49.2678 4.09445C48.7989 3.75957 48.163 3.57143 47.5 3.57143H39.45L39.925 2.21786C40.0169 1.95467 40.0237 1.68 39.9447 1.41467C39.8658 1.14934 39.7034 0.900344 39.4696 0.68657C39.2359 0.472795 38.937 0.299864 38.5957 0.180903C38.2545 0.0619409 37.8797 7.49289e-05 37.5 0H12.5ZM15.7 3.57143H34.3L33.05 7.14286H16.95L15.7 3.57143ZM27.5 19.6429V21.4286H10V25H27.5V26.7857H32.5V25H40V21.4286H32.5V19.6429H27.5ZM17.5 30.3571V32.1429H10V35.7143H17.5V37.5H22.5V35.7143H40V32.1429H22.5V30.3571H17.5Z" fill="#1F4E79"/>
</svg>
