<svg width="9" height="10" viewBox="0 0 9 10" fill="none" xmlns="http://www.w3.org/2000/svg">
<path d="M5.37411 3.73503C5.32215 3.58891 5.22631 3.46242 5.09969 3.37287C4.97308 3.28332 4.82188 3.23508 4.6668 3.23477H4.08616C3.92051 3.2339 3.76042 3.29449 3.63685 3.40482C3.51328 3.51514 3.43501 3.66737 3.41717 3.83206C3.39934 3.99675 3.4432 4.16221 3.54029 4.29643C3.63737 4.43065 3.78077 4.52411 3.94277 4.55873L4.82691 4.75163C5.0077 4.79121 5.16748 4.8962 5.27556 5.04643C5.38364 5.19665 5.43239 5.38152 5.41246 5.56551C5.39252 5.7495 5.30529 5.91963 5.16754 6.04322C5.02979 6.1668 4.85122 6.23513 4.66616 6.23506H4.16654C3.83989 6.23506 3.56211 6.02672 3.45923 5.73544M4.41667 3.23477V2.48438M4.41667 6.98546V6.2357M1.28906 9.00194V7.39441H2.89659" stroke="#27AE60" stroke-width="0.643011" stroke-linecap="round" stroke-linejoin="round"/>
<path d="M8.61294 4.05467C8.78365 4.96466 8.64736 5.90558 8.22547 6.72975C7.80358 7.55391 7.11998 8.21466 6.28195 8.60829C5.44392 9.00192 4.49891 9.10615 3.59524 8.90461C2.69157 8.70308 1.8804 8.20719 1.28904 7.49478M0.397829 5.59275C0.227125 4.68275 0.363413 3.74183 0.7853 2.91767C1.20719 2.0935 1.89079 1.43275 2.72882 1.03912C3.56685 0.64549 4.51186 0.541264 5.41553 0.7428C6.3192 0.944336 7.13037 1.44023 7.72173 2.15264" stroke="#27AE60" stroke-width="0.643011" stroke-linecap="round" stroke-linejoin="round"/>
<path d="M7.72179 0.645508V2.25304H6.11426" stroke="#27AE60" stroke-width="0.643011" stroke-linecap="round" stroke-linejoin="round"/>
</svg>
