<svg width="22" height="23" viewBox="0 0 22 23" fill="none" xmlns="http://www.w3.org/2000/svg">
<path d="M10.78 15.3662C11.6982 15.3662 12.5789 14.9832 13.2281 14.3015C13.8774 13.6197 14.2422 12.6951 14.2422 11.731C14.2422 10.7668 13.8774 9.84219 13.2281 9.16044C12.5789 8.4787 11.6982 8.0957 10.78 8.0957C9.8618 8.0957 8.98119 8.4787 8.33191 9.16044C7.68263 9.84219 7.31787 10.7668 7.31787 11.731C7.31787 12.6951 7.68263 13.6197 8.33191 14.3015C8.98119 14.9832 9.8618 15.3662 10.78 15.3662Z" fill="#1F4E79"/>
<path fill-rule="evenodd" clip-rule="evenodd" d="M10.7327 0.825195C11.0489 0.825195 11.3523 0.950835 11.5759 1.17448C11.7995 1.39812 11.9252 1.70144 11.9252 2.01771V3.29371C13.7094 3.55083 15.3625 4.37863 16.6372 5.65332C17.9119 6.92801 18.7397 8.58109 18.9968 10.3653H20.2728C20.5891 10.3653 20.8924 10.491 21.116 10.7146C21.3397 10.9383 21.4653 11.2416 21.4653 11.5579C21.4653 11.8741 21.3397 12.1775 21.116 12.4011C20.8924 12.6247 20.5891 12.7504 20.2728 12.7504H18.9968C18.7397 14.5346 17.9119 16.1877 16.6372 17.4624C15.3625 18.7371 13.7094 19.5649 11.9252 19.822V21.098C11.9252 21.4143 11.7995 21.7176 11.5759 21.9412C11.3523 22.1649 11.0489 22.2905 10.7327 22.2905C10.4164 22.2905 10.1131 22.1649 9.88943 21.9412C9.66578 21.7176 9.54014 21.4143 9.54014 21.098V19.822C7.75589 19.5649 6.10282 18.7371 4.82813 17.4624C3.55344 16.1877 2.72563 14.5346 2.46851 12.7504H1.19252C0.876243 12.7504 0.572921 12.6247 0.34928 12.4011C0.12564 12.1775 0 11.8741 0 11.5579C0 11.2416 0.12564 10.9383 0.34928 10.7146C0.572921 10.491 0.876243 10.3653 1.19252 10.3653H2.46851C2.72655 8.58146 3.55465 6.92889 4.82917 5.65437C6.1037 4.37985 7.75627 3.55175 9.54014 3.29371V2.01771C9.54014 1.70144 9.66578 1.39812 9.88943 1.17448C10.1131 0.950835 10.4164 0.825195 10.7327 0.825195ZM4.77007 11.5579C4.77007 9.97648 5.39827 8.45987 6.51647 7.34167C7.63468 6.22347 9.15129 5.59527 10.7327 5.59527C12.314 5.59527 13.8306 6.22347 14.9489 7.34167C16.0671 8.45987 16.6953 9.97648 16.6953 11.5579C16.6953 13.1392 16.0671 14.6558 14.9489 15.774C13.8306 16.8923 12.314 17.5204 10.7327 17.5204C9.15129 17.5204 7.63468 16.8923 6.51647 15.774C5.39827 14.6558 4.77007 13.1392 4.77007 11.5579Z" fill="#1F4E79"/>
</svg>
