<svg width="24" height="23" viewBox="0 0 24 23" fill="none" xmlns="http://www.w3.org/2000/svg">
<path d="M18.8164 9.71793L18.6786 10.2569L19.2292 10.3367C21.4196 10.6539 23.2764 13.0972 23.2764 16.2218C23.2764 17.8492 22.7498 19.3359 21.9286 20.4062C21.1062 21.4781 20.017 22.1018 18.8813 22.1018H4.89514C3.75941 22.1018 2.67017 21.4781 1.84775 20.4062C1.02654 19.3359 0.5 17.8492 0.5 16.2218C0.5 13.1086 2.21412 10.8143 4.44183 10.3304L5.21238 10.163L4.73851 9.54544C4.73864 9.54345 4.72198 9.50619 4.71034 9.39999C4.69642 9.27297 4.69583 9.11984 4.69583 8.93039C4.69583 6.52337 6.12548 4.87325 7.69236 4.87325C8.00497 4.87325 8.48612 5.0202 8.89174 5.19642L9.38337 5.41L9.56229 4.90473C10.3521 2.67453 12.1574 1.22754 13.9861 1.22754C15.3355 1.22754 16.5986 1.94616 17.5405 3.17376C18.4824 4.40136 19.0806 6.11519 19.0806 8.01897C19.0806 8.67939 18.9559 9.17251 18.8164 9.71793ZM10.0929 20.901L10.4896 21.4181L10.8863 20.901L18.1591 11.4222L18.3926 11.1178L18.1591 10.8135L16.201 8.26146L15.8043 7.74444L15.4076 8.26146L10.4896 14.6713L8.36877 11.9072L7.97208 11.3902L7.5754 11.9072L5.61734 14.4592L5.38381 14.7635L5.61734 15.0679L10.0929 20.901Z" stroke="#1F4E79"/>
</svg>
