<svg width="22" height="23" viewBox="0 0 22 23" fill="none" xmlns="http://www.w3.org/2000/svg">
<path d="M14.2744 16.5046L15.777 15.002L11.8059 11.0309V6.09387H9.65939V11.8895L14.2744 16.5046ZM10.7327 22.1929C9.24797 22.1929 7.85273 21.9109 6.54692 21.3471C5.24112 20.7833 4.10524 20.0188 3.1393 19.0536C2.17336 18.0883 1.40884 16.9525 0.845735 15.6459C0.282628 14.3394 0.000716869 12.9442 1.35856e-06 11.4602C-0.000714152 9.97623 0.281197 8.58098 0.845735 7.27446C1.41027 5.96794 2.1748 4.83207 3.1393 3.86684C4.10381 2.90162 5.23968 2.1371 6.54692 1.57327C7.85416 1.00945 9.2494 0.727539 10.7327 0.727539C12.2159 0.727539 13.6112 1.00945 14.9184 1.57327C16.2256 2.1371 17.3615 2.90162 18.326 3.86684C19.2905 4.83207 20.0554 5.96794 20.6207 7.27446C21.1859 8.58098 21.4675 9.97623 21.4653 11.4602C21.4632 12.9442 21.1813 14.3394 20.6196 15.6459C20.0579 16.9525 19.2934 18.0883 18.326 19.0536C17.3586 20.0188 16.2228 20.7837 14.9184 21.3482C13.614 21.9127 12.2188 22.1943 10.7327 22.1929ZM10.7327 20.0463C13.1117 20.0463 15.1377 19.2103 16.8106 17.5381C18.4834 15.866 19.3195 13.84 19.3188 11.4602C19.3181 9.08041 18.482 7.05444 16.8106 5.38229C15.1391 3.71015 13.1132 2.87407 10.7327 2.87407C8.35215 2.87407 6.32619 3.7105 4.65475 5.38337C2.98332 7.05623 2.14725 9.08184 2.14653 11.4602C2.14582 13.8386 2.98225 15.8645 4.65583 17.5381C6.32941 19.2117 8.35502 20.0478 10.7327 20.0463Z" fill="#1F4E79"/>
</svg>
