<svg width="22" height="23" viewBox="0 0 22 23" fill="none" xmlns="http://www.w3.org/2000/svg">
<path d="M2.38504 22.0952C1.72915 22.0952 1.16787 21.8619 0.701201 21.3952C0.234529 20.9285 0.000795012 20.3668 0 19.7102V3.01492C0 2.35903 0.233734 1.79776 0.701201 1.33108C1.16867 0.864411 1.72995 0.630678 2.38504 0.629883H19.0803C19.7362 0.629883 20.2978 0.863616 20.7653 1.33108C21.2328 1.79855 21.4661 2.35983 21.4653 3.01492V19.7102C21.4653 20.3661 21.232 20.9277 20.7653 21.3952C20.2986 21.8627 19.737 22.096 19.0803 22.0952H2.38504ZM2.38504 19.7102H19.0803V5.39995H2.38504V19.7102ZM10.7327 17.3251C9.10289 17.3251 7.64722 16.8831 6.36566 15.9991C5.0841 15.115 4.15473 13.967 3.57755 12.5551C4.15394 11.1439 5.08331 9.99632 6.36566 9.11226C7.64802 8.22821 9.10368 7.78579 10.7327 7.78499C12.3616 7.7842 13.8177 8.22662 15.1009 9.11226C16.384 9.99791 17.313 11.1455 17.8878 12.5551C17.3114 13.9662 16.3824 15.1142 15.1009 15.9991C13.8193 16.8839 12.3632 17.3259 10.7327 17.3251ZM10.7327 14.3438C10.2358 14.3438 9.81363 14.1701 9.46621 13.8227C9.11879 13.4753 8.94468 13.0527 8.94388 12.5551C8.94309 12.0574 9.1172 11.6352 9.46621 11.2886C9.81522 10.942 10.2374 10.7679 10.7327 10.7663C11.228 10.7647 11.6505 10.9388 12.0003 11.2886C12.3501 11.6384 12.5238 12.0606 12.5214 12.5551C12.5191 13.0496 12.3453 13.4721 12.0003 13.8227C11.6553 14.1733 11.2327 14.347 10.7327 14.3438ZM10.7327 15.5364C11.5674 15.5364 12.273 15.2482 12.8494 14.6718C13.4258 14.0954 13.714 13.3898 13.714 12.5551C13.714 11.7203 13.4258 11.0147 12.8494 10.4383C12.273 9.86196 11.5674 9.57377 10.7327 9.57377C9.8979 9.57377 9.19233 9.86196 8.61594 10.4383C8.03956 11.0147 7.75137 11.7203 7.75137 12.5551C7.75137 13.3898 8.03956 14.0954 8.61594 14.6718C9.19233 15.2482 9.8979 15.5364 10.7327 15.5364Z" fill="#1F4E79"/>
</svg>
