<svg width="22" height="23" viewBox="0 0 22 23" fill="none" xmlns="http://www.w3.org/2000/svg">
<path d="M8.76757 10.7312C7.56203 10.7312 6.53001 10.2367 5.67152 9.24758C4.81303 8.25849 4.38379 7.06948 4.38379 5.68055C4.38379 4.29161 4.81303 3.1026 5.67152 2.11352C6.53001 1.12443 7.56203 0.629883 8.76757 0.629883C9.97311 0.629883 11.0051 1.12443 11.8636 2.11352C12.7221 3.1026 13.1514 4.29161 13.1514 5.68055C13.1514 7.06948 12.7221 8.25849 11.8636 9.24758C11.0051 10.2367 9.97311 10.7312 8.76757 10.7312ZM0 18.3072V17.2971C0 16.6026 0.155259 15.9502 0.465777 15.3399C0.776295 14.7297 1.20554 14.2667 1.75351 13.951C2.81293 13.3407 3.90888 12.8617 5.04135 12.5141C6.17383 12.1664 7.33371 11.993 8.52098 11.9939C8.8315 11.9939 9.09197 12.1201 9.30239 12.3727C9.51281 12.6252 9.61766 12.9304 9.61693 13.2881C9.6162 13.6459 9.51099 13.946 9.3013 14.1884C9.09161 14.4308 8.8315 14.5516 8.52098 14.5508C7.4981 14.5508 6.507 14.6981 5.54768 14.9927C4.58836 15.2873 3.65242 15.6977 2.73987 16.2238C2.55721 16.329 2.42021 16.4763 2.32889 16.6657C2.23756 16.8551 2.19189 17.0656 2.19189 17.2971V18.3072H8.52098C8.8315 18.3072 9.09197 18.4284 9.30239 18.6709C9.51281 18.9133 9.61766 19.213 9.61693 19.5699C9.6162 19.9268 9.51099 20.2269 9.3013 20.4702C9.09161 20.7134 8.8315 20.8342 8.52098 20.8325H2.19189C1.58912 20.8325 1.0733 20.5855 0.644417 20.0914C0.215536 19.5972 0.000730631 19.0025 0 18.3072ZM15.1789 21.0851L15.0145 20.2012C14.7953 20.096 14.59 19.9857 14.3985 19.8704C14.2071 19.7551 14.0106 19.6128 13.8089 19.4436L13.0144 19.7277C12.7769 19.8119 12.5442 19.8014 12.3162 19.6961C12.0883 19.5909 11.91 19.4226 11.7814 19.1911L11.5622 18.7491C11.4344 18.4966 11.3887 18.223 11.4252 17.9284C11.4618 17.6338 11.5805 17.3918 11.7814 17.2024L12.3842 16.6026C12.3477 16.308 12.3294 16.0344 12.3294 15.7819C12.3294 15.5293 12.3477 15.2558 12.3842 14.9611L11.7814 14.3614C11.5805 14.172 11.4618 13.935 11.4252 13.6505C11.3887 13.366 11.4344 13.0979 11.5622 12.8462L11.8088 12.3727C11.9367 12.1412 12.1102 11.9728 12.3294 11.8676C12.5486 11.7624 12.7769 11.7519 13.0144 11.836L13.8089 12.1201C14.0098 11.9518 14.2064 11.8095 14.3985 11.6934C14.5907 11.5772 14.796 11.4669 15.0145 11.3625L15.1789 10.4471C15.2337 10.1525 15.3571 9.91595 15.5493 9.73749C15.7414 9.55904 15.965 9.46939 16.22 9.46854H16.6584C16.9141 9.46854 17.138 9.56324 17.3302 9.75265C17.5224 9.94205 17.6455 10.1841 17.6995 10.4787L17.8639 11.3625C18.0831 11.4678 18.2884 11.5835 18.4798 11.7098C18.6713 11.836 18.8678 11.9939 19.0695 12.1833L19.8092 11.8992C20.065 11.794 20.3115 11.794 20.549 11.8992C20.7864 12.0044 20.9691 12.1833 21.097 12.4358L21.3162 12.8777C21.444 13.1303 21.4897 13.4039 21.4531 13.6985C21.4166 13.9931 21.2979 14.2351 21.097 14.4245L20.4942 15.0243C20.5307 15.2768 20.549 15.5399 20.549 15.8134C20.549 16.087 20.5307 16.3501 20.4942 16.6026L21.097 17.2024C21.2979 17.3918 21.4166 17.6287 21.4531 17.9133C21.4897 18.1978 21.444 18.4659 21.3162 18.7176L21.0696 19.1911C20.9417 19.4226 20.7682 19.5909 20.549 19.6961C20.3298 19.8014 20.1015 19.8119 19.864 19.7277L19.0695 19.4436C18.8685 19.612 18.672 19.7538 18.4798 19.8691C18.2877 19.9844 18.0824 20.0951 17.8639 20.2012L17.6995 21.1166C17.6447 21.4113 17.5216 21.6482 17.3302 21.8275C17.1388 22.0068 16.9148 22.096 16.6584 22.0952H16.22C15.9643 22.0952 15.7407 22.0005 15.5493 21.8111C15.3579 21.6217 15.2344 21.3797 15.1789 21.0851ZM16.4392 18.3072C17.042 18.3072 17.5582 18.0601 17.9878 17.566C18.4174 17.0719 18.6318 16.4772 18.6311 15.7819C18.6304 15.0866 18.4159 14.4923 17.9878 13.999C17.5596 13.5057 17.0434 13.2582 16.4392 13.2565C15.835 13.2549 15.3191 13.5023 14.8917 13.999C14.4643 14.4956 14.2495 15.0899 14.2473 15.7819C14.2451 16.4738 14.4599 17.0685 14.8917 17.566C15.3235 18.0635 15.8393 18.3106 16.4392 18.3072ZM8.76757 8.20588C9.37034 8.20588 9.88653 7.95882 10.3161 7.46469C10.7458 6.97057 10.9602 6.37585 10.9595 5.68055C10.9587 4.98524 10.7443 4.39094 10.3161 3.89766C9.88799 3.40438 9.3718 3.1569 8.76757 3.15521C8.16334 3.15353 7.64751 3.40101 7.22009 3.89766C6.79268 4.39431 6.57787 4.98861 6.57568 5.68055C6.57349 6.37249 6.78829 6.9672 7.22009 7.46469C7.6519 7.96218 8.16772 8.20925 8.76757 8.20588Z" fill="#1F4E79"/>
</svg>
