<svg width="21" height="24" viewBox="0 0 21 24" fill="none" xmlns="http://www.w3.org/2000/svg">
<mask id="mask0_4479_12867" style="mask-type:luminance" maskUnits="userSpaceOnUse" x="0" y="1" width="21" height="20">
<path d="M20.1562 1H0.15625V21H20.1562V1Z" fill="white"/>
</mask>
<g mask="url(#mask0_4479_12867)">
<path d="M18.0859 7.40625C18.112 7.58852 18.1251 7.75778 18.1251 7.91405C18.1251 9.76301 17.6693 11.5729 16.7579 13.3438C15.8724 15.1146 14.5572 16.5859 12.8124 17.7578C11.0937 18.9297 8.97134 19.5417 6.44531 19.5938C4.10157 19.5677 2.00521 18.9557 0.15625 17.7578C0.46875 17.7838 0.794271 17.7969 1.13281 17.7969C3.08594 17.7708 4.79167 17.1849 6.25 16.0391C5.3125 16.013 4.50521 15.7396 3.82812 15.2188C3.15104 14.6979 2.6823 14.0339 2.42188 13.2266C2.65626 13.2526 2.90365 13.2656 3.16406 13.2656C3.55469 13.2656 3.91927 13.2266 4.25781 13.1484C3.29427 12.9401 2.51302 12.4714 1.91406 11.7422C1.31511 11.013 1.0026 10.1406 0.976562 9.12495V9.04685C1.52343 9.35939 2.13541 9.54168 2.8125 9.59375C1.66667 8.78648 1.05469 7.64065 0.976562 6.15625C1.0026 5.40105 1.19792 4.71095 1.5625 4.08595C2.57813 5.33595 3.8151 6.33855 5.27344 7.09375C6.70572 7.84895 8.28125 8.27865 10 8.38285C9.94791 8.07032 9.92188 7.75782 9.92188 7.44535C9.94792 6.29948 10.3385 5.33592 11.0938 4.55465C11.875 3.77345 12.8386 3.36982 13.9844 3.34375C15.2084 3.36982 16.2109 3.79952 16.9921 4.63285C17.9297 4.45052 18.8021 4.12498 19.6094 3.65625C19.2708 4.61978 18.6718 5.37499 17.8124 5.92185C18.6198 5.81772 19.4011 5.59638 20.1562 5.25785C19.5833 6.09118 18.8932 6.80732 18.0859 7.40625Z" fill="#9CA3AF"/>
</g>
</svg>
