<svg width="26" height="24" viewBox="0 0 26 24" fill="none" xmlns="http://www.w3.org/2000/svg">
<g clip-path="url(#clip0_1116_239)">
<path d="M0 0H26V24H0V0Z" fill="#012169"/>
<path d="M26 0V3L16.3516 12L26 20.7656V24H22.5977L12.8984 15.1875L3.45312 24H0V20.8125L9.44531 12.0469L0 3.46875V0H3.14844L12.8984 8.8125L22.3438 0H26Z" fill="white"/>
<path d="M9.34375 15.1875L9.90234 16.7812L2.13281 24H0V23.8594L9.34375 15.1875ZM15.6406 14.625L18.3828 15L26 21.8906V24L15.6406 14.625ZM26 0L16.25 9.1875L16.0469 7.125L23.6641 0H26ZM0 0.046875L9.80078 8.90625L6.80469 8.53125L0 2.29688V0.046875Z" fill="#C8102E"/>
<path d="M8.9375 0V24H17.0625V0H8.9375ZM0 8.25V15.75H26V8.25H0Z" fill="white"/>
<path d="M0 9.75V14.25H26V9.75H0ZM10.5625 0V24H15.4375V0H10.5625Z" fill="#C8102E"/>
</g>
<defs>
<clipPath id="clip0_1116_239">
<rect width="26" height="24" fill="white"/>
</clipPath>
</defs>
</svg>
