<svg width="20" height="18" viewBox="0 0 20 18" fill="none" xmlns="http://www.w3.org/2000/svg">
<g clip-path="url(#clip0_1469_13224)">
<path d="M0 0H19.5V18H0V0Z" fill="#012169"/>
<path d="M19.5 0V2.25L12.2637 9L19.5 15.5742V18H16.9482L9.67383 11.3906L2.58984 18H0V15.6094L7.08398 9.03516L0 2.60156V0H2.36133L9.67383 6.60938L16.7578 0H19.5Z" fill="white"/>
<path d="M7.00781 11.3906L7.42676 12.5859L1.59961 18H0V17.8945L7.00781 11.3906ZM11.7305 10.9688L13.7871 11.25L19.5 16.418V18L11.7305 10.9688ZM19.5 0L12.1875 6.89062L12.0352 5.34375L17.748 0H19.5ZM0 0.0351562L7.35059 6.67969L5.10352 6.39844L0 1.72266V0.0351562Z" fill="#C8102E"/>
<path d="M6.70312 0V18H12.7969V0H6.70312ZM0 6.1875V11.8125H19.5V6.1875H0Z" fill="white"/>
<path d="M0 7.3125V10.6875H19.5V7.3125H0ZM7.92188 0V18H11.5781V0H7.92188Z" fill="#C8102E"/>
</g>
<defs>
<clipPath id="clip0_1469_13224">
<rect width="19.5" height="18" fill="white"/>
</clipPath>
</defs>
</svg>
