<svg width="18" height="16" viewBox="0 0 18 16" fill="none" xmlns="http://www.w3.org/2000/svg">
<path d="M9.39978 0.727211V1.05975C9.60061 1.07991 9.78139 1.12022 9.94206 1.18068C10.3639 1.32175 10.5346 1.614 10.4542 2.05742C10.3136 2.48068 10.0224 2.65201 9.58054 2.57139C9.2391 2.4706 8.93785 2.42021 8.67673 2.42021C8.43569 2.42021 8.23481 2.4706 8.07413 2.57139C8.01389 2.61168 7.98379 2.6419 7.98379 2.66206C7.96371 2.66206 7.95368 2.68223 7.95368 2.72256C7.95368 2.74269 7.95368 2.75275 7.95368 2.75275C7.95368 2.77291 7.98378 2.80314 8.04402 2.84343C8.22478 2.92405 8.50596 3.02483 8.8876 3.14578H8.91776C9.27927 3.2264 9.65085 3.37755 10.0325 3.59924C10.5145 3.86127 10.7856 4.31475 10.8459 4.9597C10.8057 5.64494 10.5346 6.13874 10.0325 6.44109C9.8316 6.562 9.62069 6.64262 9.39978 6.68295V7.01548C9.35962 7.45887 9.1186 7.70072 8.67673 7.74105C8.23485 7.70072 7.99383 7.45887 7.95368 7.01548V6.68295C7.67248 6.60233 7.43146 6.52171 7.23062 6.44109C7.21055 6.44109 7.19044 6.44109 7.17032 6.44109C7.15024 6.42093 7.13013 6.41084 7.11005 6.41084C7.06989 6.39068 7.02975 6.3806 6.98959 6.3806C6.58788 6.19924 6.43725 5.88684 6.53769 5.44342C6.71845 5.04032 7.0197 4.88917 7.4415 4.98995C7.48166 5.01007 7.52184 5.02013 7.562 5.02013C7.60216 5.0403 7.64233 5.06047 7.68253 5.08063C8.06413 5.2217 8.40556 5.30232 8.70684 5.32249C8.94788 5.32249 9.13869 5.28218 9.27924 5.20156C9.33952 5.16127 9.36966 5.13105 9.36966 5.11088C9.38974 5.09072 9.39978 5.05041 9.39978 4.98995C9.41986 4.96979 9.37968 4.91939 9.27924 4.83877C9.11856 4.73799 8.84741 4.63721 8.46581 4.53642L8.40558 4.50624C8.04402 4.42562 7.67245 4.28453 7.29085 4.08296C6.8289 3.8411 6.56781 3.3977 6.50757 2.75275C6.56781 2.04734 6.84896 1.56363 7.35108 1.30161C7.53184 1.20082 7.73272 1.1202 7.95368 1.05975V0.727211C7.99383 0.283829 8.23485 0.0419722 8.67673 0.00164032C9.1186 0.0419722 9.35962 0.283829 9.39978 0.727211ZM17.1124 10.1596C17.3133 10.4418 17.3936 10.7441 17.3535 11.0666C17.2932 11.3891 17.1325 11.6511 16.8714 11.8526L13.0452 14.6944C12.3222 15.2185 11.5087 15.4805 10.6048 15.4805H5.78448H0.964081C0.682891 15.4805 0.451909 15.3898 0.271144 15.2084C0.0903793 15.027 0 14.7952 0 14.513V12.5782C0 12.296 0.0903793 12.0642 0.271144 11.8829C0.451909 11.7015 0.682891 11.6108 0.964081 11.6108H2.07881L3.43453 10.5224C4.13751 9.95807 4.94089 9.67591 5.84471 9.67591H8.19467H10.6048C10.886 9.67591 11.117 9.76661 11.2978 9.948C11.4785 10.1294 11.5689 10.3612 11.5689 10.6433C11.5689 10.9255 11.4785 11.1573 11.2978 11.3387C11.117 11.5201 10.886 11.6108 10.6048 11.6108H8.67673H8.19467C7.89339 11.6309 7.73272 11.7922 7.71265 12.0945C7.73272 12.3968 7.89339 12.558 8.19467 12.5782H11.8401L15.4253 9.91777C15.7064 9.71622 16.0077 9.6356 16.3291 9.67591C16.6504 9.73637 16.9115 9.89761 17.1124 10.1596Z" fill="#329DFD"/>
</svg>
