<svg width="21" height="17" viewBox="0 0 21 17" fill="none" xmlns="http://www.w3.org/2000/svg">
<mask id="mask0_6117_25186" style="mask-type:luminance" maskUnits="userSpaceOnUse" x="0" y="0" width="21" height="17">
<path d="M20.3124 0.613281H0.963867V16.0921H20.3124V0.613281Z" fill="white"/>
</mask>
<g mask="url(#mask0_6117_25186)">
<path d="M5.31631 0.946953C6.22328 0.967119 6.91861 1.37021 7.40233 2.15624C7.84572 2.96243 7.84572 3.76861 7.40233 4.5748C6.91861 5.36083 6.22328 5.76392 5.31631 5.78409C4.40935 5.76392 3.71401 5.36083 3.23029 4.5748C2.78689 3.76861 2.78689 2.96243 3.23029 2.15624C3.71401 1.37021 4.40935 0.967119 5.31631 0.946953ZM16.4417 0.946953C17.3487 0.967119 18.044 1.37021 18.5277 2.15624C18.9711 2.96243 18.9711 3.76861 18.5277 4.5748C18.044 5.36083 17.3487 5.76392 16.4417 5.78409C15.5347 5.76392 14.8394 5.36083 14.3557 4.5748C13.9123 3.76861 13.9123 2.96243 14.3557 2.15624C14.8394 1.37021 15.5347 0.967119 16.4417 0.946953ZM0.962891 9.98634C0.983045 9.05924 1.29544 8.29335 1.90008 7.68869C2.50473 7.08407 3.27061 6.77168 4.19772 6.75151H5.46747C5.95119 6.75151 6.40467 6.8523 6.82791 7.05387C6.78761 7.27556 6.76745 7.49725 6.76745 7.71894C6.80776 8.90806 7.24108 9.87549 8.06741 10.6212H1.59776C1.21482 10.5809 1.0032 10.3693 0.962891 9.98634ZM13.2069 10.6212C14.0332 9.87549 14.4665 8.90806 14.5069 7.71894C14.5069 7.49725 14.4867 7.27556 14.4464 7.05387C14.8696 6.8523 15.3231 6.75151 15.8068 6.75151H17.0766C18.0037 6.77168 18.7696 7.08407 19.3742 7.68869C19.9789 8.29335 20.2913 9.05924 20.3114 9.98634C20.2711 10.3693 20.0595 10.5809 19.6765 10.6212H13.2069ZM7.73488 7.71894C7.73488 7.1949 7.86589 6.71118 8.12791 6.2678C8.38993 5.82442 8.74263 5.47172 9.18602 5.20969C9.64956 4.94767 10.1333 4.81666 10.6372 4.81666C11.141 4.81666 11.6247 4.94767 12.0883 5.20969C12.5317 5.47172 12.8844 5.82442 13.1464 6.2678C13.4084 6.71118 13.5394 7.1949 13.5394 7.71894C13.5394 8.24298 13.4084 8.7267 13.1464 9.17008C12.8844 9.61346 12.5317 9.96617 12.0883 10.2282C11.6247 10.4902 11.141 10.6212 10.6372 10.6212C10.1333 10.6212 9.64956 10.4902 9.18602 10.2282C8.74263 9.96617 8.38993 9.61346 8.12791 9.17008C7.86589 8.7267 7.73488 8.24298 7.73488 7.71894ZM4.8326 15.6095C4.85275 14.4809 5.24577 13.5336 6.01164 12.7677C6.77753 12.0018 7.72481 11.6088 8.85348 11.5886H12.4208C13.5495 11.6088 14.4968 12.0018 15.2627 12.7677C16.0285 13.5336 16.4216 14.4809 16.4417 15.6095C16.4014 16.1134 16.1293 16.3855 15.6255 16.4258H5.64886C5.14499 16.3855 4.87291 16.1134 4.8326 15.6095Z" fill="#1B9AF5"/>
</g>
</svg>
