<svg width="16" height="15" viewBox="0 0 16 15" fill="none" xmlns="http://www.w3.org/2000/svg">
<path d="M5.5627 1.45146H9.91612C10.0572 1.47162 10.1378 1.55224 10.158 1.69332V2.9026H5.32085V1.69332C5.341 1.55224 5.42162 1.47162 5.5627 1.45146ZM3.86971 1.69332V2.9026H1.93485C1.39068 2.92276 0.937197 3.11423 0.57441 3.47699C0.211625 3.8398 0.0201547 4.29329 0 4.83745V7.73973H5.80456H15.4788V4.83745C15.4587 4.29329 15.2672 3.8398 14.9044 3.47699C14.5416 3.11423 14.0881 2.92276 13.544 2.9026H11.6091V1.69332C11.589 1.2096 11.4277 0.806508 11.1254 0.484033C10.8029 0.181722 10.3998 0.020484 9.91612 0.000318527H5.5627C5.07899 0.020484 4.6759 0.181722 4.35342 0.484033C4.0511 0.806508 3.88986 1.2096 3.86971 1.69332ZM15.4788 8.70716H9.67427V9.67459C9.67427 9.95675 9.58356 10.1885 9.40216 10.3699C9.22076 10.5513 8.98899 10.642 8.70684 10.642H6.77199C6.48982 10.642 6.25804 10.5513 6.07665 10.3699C5.89525 10.1885 5.80456 9.95675 5.80456 9.67459V8.70716H0V12.5769C0.0201547 13.121 0.211625 13.5745 0.57441 13.9373C0.937197 14.3001 1.39068 14.4916 1.93485 14.5117H13.544C14.0881 14.4916 14.5416 14.3001 14.9044 13.9373C15.2672 13.5745 15.4587 13.121 15.4788 12.5769V8.70716Z" fill="#6E6E6E" fill-opacity="0.5"/>
</svg>
