<svg width="64" height="64" viewBox="0 0 64 64" fill="none" xmlns="http://www.w3.org/2000/svg">
<rect width="64" height="64" rx="32" fill="#F4F6F9"/>
<mask id="mask0_5874_27177" style="mask-type:luminance" maskUnits="userSpaceOnUse" x="20" y="20" width="24" height="24">
<path d="M44 20H20V44H44V20Z" fill="white"/>
</mask>
<g mask="url(#mask0_5874_27177)">
<path d="M28.625 22.7656H35.375C35.5937 22.7969 35.7187 22.9219 35.75 23.1406V25.0156H28.25V23.1406C28.2813 22.9219 28.4063 22.7969 28.625 22.7656ZM26 23.1406V25.0156H23C22.1563 25.0469 21.4531 25.3438 20.8906 25.9062C20.3281 26.4688 20.0312 27.1719 20 28.0156V32.5156H29H44V28.0156C43.9687 27.1719 43.6718 26.4688 43.1094 25.9062C42.5468 25.3438 41.8437 25.0469 41 25.0156H38V23.1406C37.9687 22.3906 37.7187 21.7656 37.25 21.2656C36.75 20.7969 36.125 20.5469 35.375 20.5156H28.625C27.875 20.5469 27.25 20.7969 26.75 21.2656C26.2813 21.7656 26.0313 22.3906 26 23.1406ZM44 34.0156H35V35.5156C35 35.9531 34.8594 36.3125 34.5781 36.5937C34.2968 36.875 33.9375 37.0156 33.5 37.0156H30.5C30.0625 37.0156 29.7031 36.875 29.4219 36.5937C29.1406 36.3125 29 35.9531 29 35.5156V34.0156H20V40.0156C20.0312 40.8594 20.3281 41.5625 20.8906 42.125C21.4531 42.6875 22.1563 42.9844 23 43.0156H41C41.8437 42.9844 42.5468 42.6875 43.1094 42.125C43.6718 41.5625 43.9687 40.8594 44 40.0156V34.0156Z" fill="#6E6E6E" fill-opacity="0.5"/>
</g>
</svg>
