<svg width="20" height="16" viewBox="0 0 20 16" fill="none" xmlns="http://www.w3.org/2000/svg">
<mask id="mask0_6117_25207" style="mask-type:luminance" maskUnits="userSpaceOnUse" x="0" y="0" width="20" height="16">
<path d="M19.3485 0H0V15.4788H19.3485V0Z" fill="white"/>
</mask>
<g mask="url(#mask0_6117_25207)">
<path d="M4.35244 0.333672C5.25941 0.353838 5.95475 0.756932 6.43846 1.54296C6.88185 2.34914 6.88185 3.15533 6.43846 3.96152C5.95475 4.74755 5.25941 5.15064 4.35244 5.17081C3.44548 5.15064 2.75014 4.74755 2.26643 3.96152C1.82303 3.15533 1.82303 2.34914 2.26643 1.54296C2.75014 0.756932 3.44548 0.353838 4.35244 0.333672ZM15.4778 0.333672C16.3848 0.353838 17.0802 0.756932 17.5639 1.54296C18.0073 2.34914 18.0073 3.15533 17.5639 3.96152C17.0802 4.74755 16.3848 5.15064 15.4778 5.17081C14.5709 5.15064 13.8755 4.74755 13.3918 3.96152C12.9484 3.15533 12.9484 2.34914 13.3918 1.54296C13.8755 0.756932 14.5709 0.353838 15.4778 0.333672ZM-0.000976562 9.37306C0.0191782 8.44596 0.331575 7.68007 0.936214 7.07541C1.54086 6.47079 2.30674 6.1584 3.23385 6.13823H4.50361C4.98732 6.13823 5.4408 6.23902 5.86405 6.44059C5.82374 6.66228 5.80358 6.88397 5.80358 7.10566C5.84389 8.29478 6.27721 9.2622 7.10355 10.0079H0.633897C0.250957 9.96763 0.0393329 9.75601 -0.000976562 9.37306ZM12.243 10.0079C13.0693 9.2622 13.5027 8.29478 13.543 7.10566C13.543 6.88397 13.5228 6.66228 13.4825 6.44059C13.9058 6.23902 14.3592 6.13823 14.843 6.13823H16.1127C17.0398 6.1584 17.8057 6.47079 18.4104 7.07541C19.015 7.68007 19.3274 8.44596 19.3476 9.37306C19.3072 9.75601 19.0956 9.96763 18.7127 10.0079H12.243ZM6.77101 7.10566C6.77101 6.58161 6.90202 6.0979 7.16404 5.65452C7.42607 5.21114 7.77877 4.85844 8.22215 4.59641C8.6857 4.33439 9.16941 4.20338 9.67329 4.20338C10.1772 4.20338 10.6609 4.33439 11.1244 4.59641C11.5678 4.85844 11.9205 5.21114 12.1825 5.65452C12.4446 6.0979 12.5756 6.58161 12.5756 7.10566C12.5756 7.6297 12.4446 8.11342 12.1825 8.5568C11.9205 9.00018 11.5678 9.35289 11.1244 9.61492C10.6609 9.87693 10.1772 10.0079 9.67329 10.0079C9.16941 10.0079 8.6857 9.87693 8.22215 9.61492C7.77877 9.35289 7.42607 9.00018 7.16404 8.5568C6.90202 8.11342 6.77101 7.6297 6.77101 7.10566ZM3.86873 14.9962C3.88889 13.8676 4.2819 12.9203 5.04778 12.1544C5.81366 11.3885 6.76094 10.9955 7.88961 10.9754H11.457C12.5856 10.9955 13.5329 11.3885 14.2988 12.1544C15.0647 12.9203 15.4577 13.8676 15.4778 14.9962C15.4375 15.5001 15.1654 15.7722 14.6616 15.8125H4.68499C4.18113 15.7722 3.90904 15.5001 3.86873 14.9962Z" fill="#6E6E6E" fill-opacity="0.5"/>
</g>
</svg>
