<svg width="64" height="64" viewBox="0 0 64 64" fill="none" xmlns="http://www.w3.org/2000/svg">
<rect width="64" height="64" rx="32" fill="#F4F6F9"/>
<mask id="mask0_5874_27164" style="mask-type:luminance" maskUnits="userSpaceOnUse" x="17" y="20" width="30" height="24">
<path d="M47 20H17V44H47V20Z" fill="white"/>
</mask>
<g mask="url(#mask0_5874_27164)">
<path d="M23.75 20.5156C25.1563 20.5469 26.2344 21.1719 26.9844 22.3906C27.6719 23.6406 27.6719 24.8906 26.9844 26.1406C26.2344 27.3594 25.1563 27.9844 23.75 28.0156C22.3437 27.9844 21.2656 27.3594 20.5156 26.1406C19.8281 24.8906 19.8281 23.6406 20.5156 22.3906C21.2656 21.1719 22.3437 20.5469 23.75 20.5156ZM41 20.5156C42.4063 20.5469 43.4844 21.1719 44.2344 22.3906C44.9219 23.6406 44.9219 24.8906 44.2344 26.1406C43.4844 27.3594 42.4063 27.9844 41 28.0156C39.5937 27.9844 38.5156 27.3594 37.7656 26.1406C37.0781 24.8906 37.0781 23.6406 37.7656 22.3906C38.5156 21.1719 39.5937 20.5469 41 20.5156ZM17 34.5312C17.0312 33.0938 17.5156 31.9063 18.4531 30.9687C19.3906 30.0313 20.5781 29.5469 22.0156 29.5156H23.9844C24.7344 29.5156 25.4375 29.6719 26.0938 29.9844C26.0312 30.3282 26 30.6719 26 31.0156C26.0625 32.8594 26.7344 34.3594 28.0156 35.5156H17.9844C17.3906 35.4531 17.0625 35.125 17 34.5312ZM35.9844 35.5156C37.2656 34.3594 37.9375 32.8594 38 31.0156C38 30.6719 37.9687 30.3282 37.9062 29.9844C38.5625 29.6719 39.2656 29.5156 40.0156 29.5156H41.9844C43.4219 29.5469 44.6094 30.0313 45.5469 30.9687C46.4844 31.9063 46.9687 33.0938 47 34.5312C46.9375 35.125 46.6093 35.4531 46.0156 35.5156H35.9844ZM27.5 31.0156C27.5 30.2031 27.7031 29.4531 28.1094 28.7656C28.5157 28.0782 29.0625 27.5313 29.75 27.125C30.4687 26.7188 31.2187 26.5156 32 26.5156C32.7813 26.5156 33.5313 26.7188 34.25 27.125C34.9375 27.5313 35.4843 28.0782 35.8906 28.7656C36.2969 29.4531 36.5 30.2031 36.5 31.0156C36.5 31.8282 36.2969 32.5782 35.8906 33.2656C35.4843 33.9531 34.9375 34.5 34.25 34.9062C33.5313 35.3125 32.7813 35.5156 32 35.5156C31.2187 35.5156 30.4687 35.3125 29.75 34.9062C29.0625 34.5 28.5157 33.9531 28.1094 33.2656C27.7031 32.5782 27.5 31.8282 27.5 31.0156ZM23 43.25C23.0313 41.5 23.6406 40.0313 24.8281 38.8437C26.0156 37.6563 27.4844 37.0469 29.2344 37.0156H34.7656C36.5156 37.0469 37.9844 37.6563 39.1719 38.8437C40.3594 40.0313 40.9687 41.5 41 43.25C40.9375 44.0313 40.5156 44.4531 39.7344 44.5156H24.2656C23.4844 44.4531 23.0625 44.0313 23 43.25Z" fill="#6E6E6E" fill-opacity="0.5"/>
</g>
</svg>
