<svg width="64" height="64" viewBox="0 0 64 64" fill="none" xmlns="http://www.w3.org/2000/svg">
<rect width="64" height="64" rx="32" fill="#F4F6F9"/>
<mask id="mask0_5874_27190" style="mask-type:luminance" maskUnits="userSpaceOnUse" x="19" y="20" width="27" height="24">
<path d="M46 20H19V44H46V20Z" fill="white"/>
</mask>
<g mask="url(#mask0_5874_27190)">
<path d="M33.5744 21.6406V22.1562C33.8858 22.1875 34.1661 22.25 34.4152 22.3437C35.0692 22.5625 35.3339 23.0156 35.2093 23.7031C34.9914 24.3594 34.5398 24.625 33.8547 24.5C33.3253 24.3438 32.8582 24.2656 32.4533 24.2656C32.0796 24.2656 31.7681 24.3438 31.519 24.5C31.4256 24.5625 31.3789 24.6094 31.3789 24.6406C31.3478 24.6406 31.3322 24.6719 31.3322 24.7344C31.3322 24.7656 31.3322 24.7812 31.3322 24.7812C31.3322 24.8125 31.3789 24.8594 31.4723 24.9218C31.7526 25.0468 32.1885 25.2031 32.7803 25.3906H32.827C33.3876 25.5156 33.9637 25.75 34.5554 26.0937C35.3028 26.5 35.7232 27.2031 35.8166 28.2031C35.7543 29.2656 35.334 30.0312 34.5554 30.5C34.244 30.6875 33.9169 30.8125 33.5744 30.875V31.3906C33.5121 32.0781 33.1384 32.4531 32.4533 32.5156C31.7682 32.4531 31.3945 32.0781 31.3322 31.3906V30.875C30.8962 30.75 30.5225 30.625 30.2111 30.5C30.18 30.5 30.1488 30.5 30.1176 30.5C30.0865 30.4688 30.0553 30.4531 30.0242 30.4531C29.9619 30.4219 29.8997 30.4062 29.8374 30.4062C29.2145 30.125 28.981 29.6407 29.1367 28.9531C29.417 28.3281 29.8841 28.0938 30.5381 28.25C30.6004 28.2812 30.6626 28.2968 30.7249 28.2968C30.7872 28.3281 30.8495 28.3594 30.9118 28.3906C31.5035 28.6094 32.0329 28.7344 32.5 28.7656C32.8737 28.7656 33.1696 28.7031 33.3875 28.5781C33.481 28.5157 33.5277 28.4688 33.5277 28.4375C33.5588 28.4063 33.5744 28.3438 33.5744 28.25C33.6055 28.2188 33.5432 28.1406 33.3875 28.0156C33.1384 27.8594 32.7179 27.7031 32.1263 27.5468L32.0329 27.5C31.4723 27.375 30.8962 27.1563 30.3045 26.8437C29.5882 26.4687 29.1834 25.7812 29.09 24.7812C29.1834 23.6875 29.6194 22.9375 30.3979 22.5312C30.6782 22.375 30.9896 22.25 31.3322 22.1562V21.6406C31.3945 20.9532 31.7682 20.5782 32.4533 20.5156C33.1384 20.5782 33.5121 20.9532 33.5744 21.6406ZM45.5329 36.2656C45.8443 36.7031 45.9689 37.1719 45.9066 37.6719C45.8132 38.1719 45.564 38.5781 45.1592 38.8906L39.2266 43.2969C38.1056 44.1094 36.8443 44.5156 35.4429 44.5156H27.9689H20.4948C20.0588 44.5156 19.7007 44.375 19.4204 44.0938C19.1401 43.8125 19 43.4531 19 43.0156V40.0156C19 39.5781 19.1401 39.2188 19.4204 38.9375C19.7007 38.6563 20.0588 38.5156 20.4948 38.5156H22.2232L24.3253 36.8281C25.4152 35.9531 26.6609 35.5156 28.0623 35.5156H31.7059H35.4429C35.8789 35.5156 36.237 35.6563 36.5173 35.9375C36.7975 36.2188 36.9377 36.5781 36.9377 37.0156C36.9377 37.4531 36.7975 37.8125 36.5173 38.0937C36.237 38.375 35.8789 38.5156 35.4429 38.5156H32.4533H31.7059C31.2387 38.5469 30.9896 38.7969 30.9585 39.2656C30.9896 39.7344 31.2387 39.9844 31.7059 40.0156H37.3581L42.917 35.8906C43.3529 35.5781 43.82 35.4531 44.3183 35.5156C44.8166 35.6094 45.2214 35.8594 45.5329 36.2656Z" fill="#329DFD"/>
</g>
</svg>
