<svg width="16" height="16" viewBox="0 0 16 16" fill="none" xmlns="http://www.w3.org/2000/svg">
<mask id="mask0_6117_25194" style="mask-type:luminance" maskUnits="userSpaceOnUse" x="0" y="0" width="16" height="16">
<path d="M15.4788 0H0V15.4788H15.4788V0Z" fill="white"/>
</mask>
<g mask="url(#mask0_6117_25194)">
<path d="M5.5627 1.78349H9.91612C10.0572 1.80366 10.1378 1.88427 10.158 2.02535V3.23463H5.32085V2.02535C5.341 1.88427 5.42162 1.80366 5.5627 1.78349ZM3.86971 2.02535V3.23463H1.93485C1.39068 3.2548 0.937197 3.44626 0.57441 3.80902C0.211625 4.17183 0.0201547 4.62532 0 5.16948V8.07176H5.80456H15.4788V5.16948C15.4587 4.62532 15.2672 4.17183 14.9044 3.80902C14.5416 3.44626 14.0881 3.2548 13.544 3.23463H11.6091V2.02535C11.589 1.54163 11.4277 1.13854 11.1254 0.816064C10.8029 0.513753 10.3998 0.352515 9.91612 0.33235H5.5627C5.07899 0.352515 4.6759 0.513753 4.35342 0.816064C4.0511 1.13854 3.88986 1.54163 3.86971 2.02535ZM15.4788 9.03919H9.67427V10.0066C9.67427 10.2888 9.58356 10.5206 9.40216 10.702C9.22076 10.8833 8.98899 10.974 8.70684 10.974H6.77199C6.48982 10.974 6.25804 10.8833 6.07665 10.702C5.89525 10.5206 5.80456 10.2888 5.80456 10.0066V9.03919H0V12.9089C0.0201547 13.4531 0.211625 13.9066 0.57441 14.2693C0.937197 14.6321 1.39068 14.8236 1.93485 14.8438H13.544C14.0881 14.8236 14.5416 14.6321 14.9044 14.2693C15.2672 13.9066 15.4587 13.4531 15.4788 12.9089V9.03919Z" fill="#329DFD"/>
</g>
</svg>
