<svg width="22" height="22" viewBox="0 0 22 22" fill="none" xmlns="http://www.w3.org/2000/svg">
<mask id="mask0_1883_7009" style="mask-type:luminance" maskUnits="userSpaceOnUse" x="0" y="0" width="22" height="22">
<path d="M0.267578 0.461182H21.6716V21.8652H0.267578V0.461182Z" fill="white"/>
</mask>
<g mask="url(#mask0_1883_7009)">
<path fill-rule="evenodd" clip-rule="evenodd" d="M21.6716 11.1632C21.6716 17.0733 16.8797 21.8652 10.9696 21.8652C5.05939 21.8652 0.267578 17.0733 0.267578 11.1632C0.267578 5.253 5.05939 0.461182 10.9696 0.461182C16.8797 0.461182 21.6716 5.253 21.6716 11.1632ZM5.61857 14.9089H13.6451V9.02277C13.6451 8.81196 13.6035 8.60321 13.5229 8.40845C13.4422 8.21369 13.3239 8.03672 13.1749 7.88765C13.0258 7.73859 12.8488 7.62034 12.6541 7.53967C12.4593 7.45899 12.2506 7.41747 12.0398 7.41747H4.01327V13.3036C4.01327 13.7293 4.1824 14.1376 4.48345 14.4387C4.63252 14.5877 4.80949 14.706 5.00425 14.7867C5.19901 14.8673 5.40776 14.9089 5.61857 14.9089ZM14.7153 12.7685L17.9259 14.9089V7.41747L14.7153 9.55787V12.7685Z" fill="white"/>
</g>
</svg>
